<svg width="80" height="100" xmlns="http://www.w3.org/2000/svg" xml:space="preserve" style="fill-rule:evenodd;clip-rule:evenodd;stroke-linejoin:round;stroke-miterlimit:2" viewBox="0 0 80 100">
  <path d="M48.6 68a56.2 56.2 0 0 0 31.2 29.4c.6-1.7-.1-4-.8-5.6a126.6 126.6 0 0 0-19.2-29.2A92.9 92.9 0 0 0 45.3 48l-.3 2A42.4 42.4 0 0 0 48.6 68Z" style="fill:#f89a33;fill-rule:nonzero"/>
  <path d="m79.5 98 .3-.6A56.3 56.3 0 0 1 48.6 68a42.4 42.4 0 0 1-3.4-20 39.4 39.4 0 0 0-5.9-3.9c.2 1 .3 2 0 3a8 8 0 0 1-2.8 4.1c-1 1-2.2 1.6-3.5 1.8-.8.2-1.7 0-2.5-.2l2.5 5a101.1 101.1 0 0 0 37.7 39.6c2.2 1.2 6.9 3.8 8.8.7Z" style="fill:#f58335;fill-rule:nonzero"/>
  <path d="M36.5 51.2a8 8 0 0 0 2.8-4.2c.2-1 .2-2 0-2.9-.2-1-.6-2-1-3-.8-1.8-1.8-3.5-3-5.2-.5-.9-1.3-1.7-2.2-2.4a13 13 0 0 1-1 4.6 14.6 14.6 0 0 1-9.3 7.6c-.9.3-1.8.5-2.7.5a23.6 23.6 0 0 0 10.4 6.6c.8.3 1.7.4 2.5.2 1.3-.2 2.6-.9 3.5-1.8Z" style="fill:#a7bde2;fill-rule:nonzero"/>
  <path d="M26.2 37.9c1.2-5.1.3-10.9-3-14.9-.8-.8-1.6-1.5-2.5-2a4 4 0 0 1-.9 0c-1.2-.1-2.5-.6-3.5.1-.8.6-1 1.7-.7 2.6.3 1 .9 1.7 1.5 2.4l3.6 4.2c.6.6 1 1.3 1.4 2.2.6 1.8-.7 4-2.6 4.4-2 .4-4-1.1-5.2-2.7-1.3-1.7-2.4-3.6-4.2-4.6-1-.5-2.1-.7-3-.1-.7.5-1 1.5-1.3 2.4a3 3 0 0 1-.7 1c.8 2.4 2 4.8 3.3 7 2.3 3.6 5.9 6.3 10.2 6.4 1.4 0 2.8-.2 4.2-.6 1.6-2.4 2.7-5 3.4-7.8Z" style="fill:#c2714f;fill-rule:nonzero"/>
  <path d="M21.4 20.7a2 2 0 0 1-.7.2 12 12 0 0 1 2.4 2.1c3.4 4 4.3 9.8 3 14.9-.6 2.8-1.7 5.4-3.3 7.8 4-1.1 7.7-4 9.3-7.6a14.7 14.7 0 0 0-9.2-19.3l-.4.8c-.3.4-.6.8-1 1l-.1.1Z" style="fill:#a35a3e;fill-rule:nonzero"/>
  <path d="M13.5 41.3c.1 0 0 .2 0 .1a14.1 14.1 0 0 1-6.5-8H7C8 35 8.7 36.5 9.9 38c1 1.3 2.3 2.2 3.6 3.3Zm7.6 3c.2 0 .2.2 0 .2-1.7 0-3.6-.6-5-1.5-.2 0 0-.4.1-.3l2.4 1 2.5.5Zm12.3 7v.1c-1.5-.4-2.8-1.2-4-1.9-1.4-.7-3-1.3-4.3-2.2v-.1c1.4.3 2.7 1.1 4 1.8 1.4.7 3 1.3 4.3 2.2Zm2.2-2.5c.1.2 0 .5-.3.3-1.4-1.6-3.1-3.3-4.2-5.2-.1-.2 0-.3.2-.2 1.6 1.4 3 3.4 4.3 5.1Zm2.2-2c0 .2-.3.3-.3.1-1-2.9-2.2-5.7-3.1-8.6 0-.1.1-.2.2 0 1.6 2.4 2.5 5.7 3.2 8.5ZM47.2 75c.1.1 0 .3-.1.2-2.5-2.4-4.6-5-6.4-8-2-2.8-3.6-5.8-4.8-9 0-.2.2-.3.3-.1 1.6 2.9 3 5.9 4.8 8.7 1.9 2.9 4.1 5.5 6.2 8.2Zm17.3 16.3c0 .1 0 .3-.2.2a45.3 45.3 0 0 1-13.8-12.8c0-.1.2-.3.3-.2 2 2.5 4 4.8 6.3 7 2.3 2.1 4.9 4 7.4 5.8ZM74 88c0-.1.2-.2.3 0 .6 1 .8 2.5 1.1 3.7.1.3-.3.5-.4.2-.4-1.3-1-2.6-1-3.9Zm-2.4 1.6c.8.5 1.5 1.2 1.9 2 0 .2-.3.4-.4.2-.4-.7-1-1.4-1.6-2l.1-.2Z" style="fill:#0c1014"/>
  <path d="M52.1 62.4c.7 2 3 4.1 4.3 5.8l9 11.5c.5.7 1 1.3 1.8 1.6.7.3 1.7.1 2-.6.2-.4.1-.9 0-1.3a19 19 0 0 0-4.2-7.2c-3-3.8-6.1-7.7-10-10.9-1.2-1-3.5-1.2-2.8 1.1Z" style="fill:#fecd96;fill-rule:nonzero"/>
  <path id="paint-yellow" d="M19.8 21c-1.2-.1-2.5-.6-3.5.1-.8.6-1 1.7-.7 2.6.3 1 .9 1.7 1.5 2.4l3.6 4.2c.6.6 1 1.3 1.4 2.2.6 1.8-.7 4-2.6 4.4-2 .4-4-1.1-5.2-2.7-1.3-1.7-2.4-3.6-4.2-4.6-1-.5-2.1-.7-3-.1-.7.5-1 1.5-1.3 2.4a3 3 0 0 1-.7 1c-.4.3-1 .5-1.5.4-.8-.3-1-1.3-1-2.1C2 27.1.4 23.4 0 19.4c-.4-4.1.3-8.4 2-12.2C3 5 4.5 2.9 6.6 1.5l.3-.2C8.3.4 10.2 0 11.5 1c1.9 1.4 1.2 4.3 1.7 6.6.7 3.1 3.9 5 7 6 1.2.5 2.7 1 3.2 2.4.3 1 0 2-.5 2.8l-.4.7c-.3.5-.6 1-1 1.2a2 2 0 0 1-.8.2h-.9Z" style="fill:#eebc30"/>
  <path id="paint-green" d="M19.8 21c-1.2-.1-2.5-.6-3.5.1-.8.6-1 1.7-.7 2.6.3 1 .9 1.7 1.5 2.4l3.6 4.2c.6.6 1 1.3 1.4 2.2.6 1.8-.7 4-2.6 4.4-2 .4-4-1.1-5.2-2.7-1.3-1.7-2.4-3.6-4.2-4.6-1-.5-2.1-.7-3-.1-.7.5-1 1.5-1.3 2.4a3 3 0 0 1-.7 1c-.4.3-1 .5-1.5.4-.8-.3-1-1.3-1-2.1C2 27.1.4 23.4 0 19.4c-.4-4.1.3-8.4 2-12.2C3 5 4.5 2.9 6.6 1.5l.3-.2C8.3.4 10.2 0 11.5 1c1.9 1.4 1.2 4.3 1.7 6.6.7 3.1 3.9 5 7 6 1.2.5 2.7 1 3.2 2.4.3 1 0 2-.5 2.8l-.4.7c-.3.5-.6 1-1 1.2a2 2 0 0 1-.8.2h-.9Z" style="fill:#36ab56"/>
  <path id="paint-red" d="M19.8 21c-1.2-.1-2.5-.6-3.5.1-.8.6-1 1.7-.7 2.6.3 1 .9 1.7 1.5 2.4l3.6 4.2c.6.6 1 1.3 1.4 2.2.6 1.8-.7 4-2.6 4.4-2 .4-4-1.1-5.2-2.7-1.3-1.7-2.4-3.6-4.2-4.6-1-.5-2.1-.7-3-.1-.7.5-1 1.5-1.3 2.4a3 3 0 0 1-.7 1c-.4.3-1 .5-1.5.4-.8-.3-1-1.3-1-2.1C2 27.1.4 23.4 0 19.4c-.4-4.1.3-8.4 2-12.2C3 5 4.5 2.9 6.6 1.5l.3-.2C8.3.4 10.2 0 11.5 1c1.9 1.4 1.2 4.3 1.7 6.6.7 3.1 3.9 5 7 6 1.2.5 2.7 1 3.2 2.4.3 1 0 2-.5 2.8l-.4.7c-.3.5-.6 1-1 1.2a2 2 0 0 1-.8.2h-.9Z" style="fill:#d63f32"/>
  <path id="paint-blue" d="M19.8 21c-1.2-.1-2.5-.6-3.5.1-.8.6-1 1.7-.7 2.6.3 1 .9 1.7 1.5 2.4l3.6 4.2c.6.6 1 1.3 1.4 2.2.6 1.8-.7 4-2.6 4.4-2 .4-4-1.1-5.2-2.7-1.3-1.7-2.4-3.6-4.2-4.6-1-.5-2.1-.7-3-.1-.7.5-1 1.5-1.3 2.4a3 3 0 0 1-.7 1c-.4.3-1 .5-1.5.4-.8-.3-1-1.3-1-2.1C2 27.1.4 23.4 0 19.4c-.4-4.1.3-8.4 2-12.2C3 5 4.5 2.9 6.6 1.5l.3-.2C8.3.4 10.2 0 11.5 1c1.9 1.4 1.2 4.3 1.7 6.6.7 3.1 3.9 5 7 6 1.2.5 2.7 1 3.2 2.4.3 1 0 2-.5 2.8l-.4.7c-.3.5-.6 1-1 1.2a2 2 0 0 1-.8.2h-.9Z" style="fill:#809ec6"/>
  <path d="M9 5c.8 2.1.9 4.4.8 6.5-.2 2.2-.4 4.4-.2 6.6 0 1 .3 1.9.8 2.7.3.5.9 1 1.5.9.8-.2 1.1-1.1 1.1-2 0-.7-.2-1.6.2-2.3.7-1 2.2-1 3.3-.6 1.6.5 3 1.8 3.3 3.5v.7h1l.6-.3c.5-.3.8-.7 1-1.1l.5-.8c.5-.9.8-1.9.5-2.8-.5-1.3-2-1.8-3.3-2.3-3-1-6.2-3-6.9-6.1-.5-2.3.2-5.1-1.7-6.6-1.3-1-3.2-.6-4.6.3l-.3.2c1 1 2 2.2 2.5 3.6Z" style="fill:#d3c500;fill-opacity:.1;fill-rule:nonzero"/>
  <path d="M3 19.8A22 22 0 0 1 6.4 5.4c.4-.6-.5-1.1-.9-.6a23 23 0 0 0-3.5 15c0 .7 1.1.7 1 0ZM4 27c0-1.6-.2-3.2-.7-4.7-.2-.7-1.2-.4-1 .2.5 1.5.7 3 .6 4.5 0 .7 1 .7 1 0Zm8.1 2.8c1.2 1.5 6.9 8.6 8.5 4 .2-.6-.8-.9-1-.2-1 2.6-6-3.6-6.8-4.5-.4-.5-1 .2-.7.7Z" style="fill:#fff;fill-opacity:.5;fill-rule:nonzero"/>
</svg>
