<svg xmlns="http://www.w3.org/2000/svg" xml:space="preserve" style="fill-rule:evenodd;clip-rule:evenodd;stroke-linejoin:round;stroke-miterlimit:2" width="100" height="100"  viewBox="0 0 24 24">
  <g id="b-yellow">
    <path d="M1.95 5.64C1.08 4.64.24 1.2 0 .21L0 .17C0 .07.08 0 .17 0H.2c.96.24 4.3 1.11 5.27 2 1.15 1.05 1.4 3.1 1.4 3.1l-.96 1-.97.99s-1.99-.27-3-1.45Z" style="fill:#fff;fill-rule:nonzero"/>
    <path d="M4.86 2.64C4.03 1.88 1.47 1.14.14.78A30.67 30.67 0 0 1 0 .18C0 .07.07 0 .17 0H.2c.97.24 4.3 1.11 5.28 2 1.15 1.05 1.4 3.1 1.4 3.1l-.62.64s-.25-2.05-1.4-3.1Z" style="fill:#f2f2f2;fill-rule:nonzero"/>
    <path d="M8.57 6.55c-.44 1-1.23 1.81-2.2 2.27L5.06 7.48l2.2-2.27 1.31 1.34Z" style="fill:#465365;fill-rule:nonzero"/>
    <path d="M5.46 8.13 7.9 5.62a.2.2 0 0 0 0-.27l-.78-.8a.18.18 0 0 0-.26 0L4.42 7.06a.2.2 0 0 0 0 .27l.78.8c.03.03.08.05.13.05s.1-.02.13-.05Z" style="fill:#6c747f;fill-rule:nonzero"/>
    <path d="m7.28 5.99-.78-.8a.18.18 0 0 0-.13-.06c-.05 0-.1.03-.13.06l.62-.64a.18.18 0 0 1 .26 0l.78.8a.2.2 0 0 1 0 .27l-.62.64a.2.2 0 0 0 0-.27Z" style="fill:#5e6670;fill-rule:nonzero"/>
    <path d="M1.95 5.64C1.08 4.64.24 1.2 0 .21L0 .17C0 .07.08 0 .17 0H.2a31 31 0 0 1 3.67 1.14c-1.04-.38-1.32 1.1-.33 2.19.98 1.09.51 2.26-.24 2.35-.7.08-.66.57-.27.8-.4-.21-.79-.49-1.1-.84Z" style="fill:#efb12f;fill-rule:nonzero"/>
    <path d="M23.93 23.99C22.63 23.39 6.36 8.8 6.36 8.8l2.21-2.25s16.65 18.02 15.36 17.43Z" style="fill:#465365;fill-rule:nonzero"/>
    <path d="M23.9 23.95s-5.32-6.24-9.1-9.46C7.44 8.26 6.81 7.01 6.91 6.76c.1-.26.87-1.02.87-1.02l3.76 3.93c.25.38 12.82 13.96 12.35 14.28Z" style="fill:#3e4959;fill-rule:nonzero"/>
  </g>
</svg>
