<svg width="80" height="100" xmlns="http://www.w3.org/2000/svg" xml:space="preserve" fill-rule="evenodd" stroke-linejoin="round" stroke-miterlimit="2" clip-rule="evenodd" viewBox="0 0 80 100"><path fill="#f89a33" fill-rule="nonzero" d="M48.62 67.96c3.34 7.68 8.72 14.38 15.06 19.85 4.74 4.1 10.2 7.58 16.1 9.6.58-1.75-.1-4.07-.76-5.6-4.56-10.65-11.9-20.33-19.19-29.24A92.86 92.86 0 0 0 45.26 48.1c-.14.68-.23 1.36-.25 2.04a42.4 42.4 0 0 0 3.61 17.83Z"/><path fill="#f58335" fill-rule="nonzero" d="M79.47 98.07c.13-.2.23-.43.3-.67-5.88-2.01-11.35-5.5-16.1-9.6-6.33-5.46-11.7-12.16-15.05-19.84a42.4 42.4 0 0 1-3.6-17.83c0-.68.1-1.36.23-2.04a39.44 39.44 0 0 0-5.94-3.96c.2.96.25 1.95.03 2.91-.38 1.67-1.52 3.07-2.82 4.18a7.3 7.3 0 0 1-3.49 1.82c-.86.14-1.72.04-2.56-.2.84 1.77 1.8 3.45 2.55 4.87a101.14 101.14 0 0 0 23.02 29.15 91.7 91.7 0 0 0 14.68 10.5c2.2 1.27 6.88 3.81 8.75.71Z"/><path fill="#a7bde2" fill-rule="nonzero" d="M36.52 51.22c1.3-1.11 2.44-2.51 2.82-4.18a6.8 6.8 0 0 0-.03-2.91c-.21-1.03-.6-2.03-1.02-2.98a33.31 33.31 0 0 0-2.92-5.2 10.69 10.69 0 0 0-2.24-2.48 13.1 13.1 0 0 1-1.03 4.65c-1.55 3.63-5.33 6.44-9.3 7.6-.88.27-1.77.45-2.65.53 1.78 2.38 5.28 4.25 7.8 5.55.8.42 1.65.8 2.52 1.04.84.24 1.7.34 2.56.2a7.3 7.3 0 0 0 3.5-1.82Z"/><path fill="#c2714f" fill-rule="nonzero" d="M26.18 37.87c1.19-5.1.35-10.85-3.03-14.85a12.5 12.5 0 0 0-2.41-2.08c-.3.05-.6.06-.91.04-1.23-.09-2.57-.57-3.55.14-.79.55-.97 1.69-.7 2.6a7.2 7.2 0 0 0 1.55 2.42l3.54 4.12a6.84 6.84 0 0 1 1.44 2.2c.6 1.84-.7 4.06-2.6 4.43-2.03.39-3.95-1.11-5.24-2.74-1.3-1.62-2.37-3.54-4.18-4.55-.9-.51-2.1-.74-2.94-.14-.76.55-1 1.55-1.38 2.4a3 3 0 0 1-.7.97 32.38 32.38 0 0 0 3.37 7.11c2.23 3.52 5.84 6.26 10.13 6.37a14.6 14.6 0 0 0 4.23-.59 25.81 25.81 0 0 0 3.38-7.85Z"/><path fill="#a35a3e" fill-rule="nonzero" d="M21.4 20.7c-.2.12-.43.2-.66.24.89.62 1.73 1.28 2.4 2.08 3.4 4 4.23 9.75 3.04 14.85a25.81 25.81 0 0 1-3.38 7.86c3.97-1.17 7.75-3.98 9.3-7.61.64-1.48.97-3.06 1.03-4.65.22-5.15-2.38-10.47-6.86-13.1a22.59 22.59 0 0 0-3.35-1.55c-.14.26-.3.5-.45.74-.3.43-.61.87-1.06 1.13Z"/><path fill="#0c1014" d="M13.53 41.3c.08.06-.02.17-.1.13-2.8-1.5-5.65-4.87-6.44-7.96-.02-.07.08-.11.11-.05.9 1.58 1.6 3.12 2.78 4.54 1.08 1.3 2.36 2.27 3.65 3.34Zm7.62 2.94c.16.05.13.3-.04.3-1.68 0-3.6-.68-5.03-1.54-.14-.09-.04-.35.13-.29.8.32 1.59.66 2.42.91.83.25 1.69.38 2.52.62Zm12.23 7c.07.06.03.2-.07.17-1.38-.44-2.66-1.21-3.95-1.86-1.4-.7-3-1.32-4.25-2.28-.05-.04-.02-.12.05-.1 1.38.38 2.67 1.18 3.95 1.82 1.42.7 2.97 1.33 4.27 2.25Zm2.23-2.4c.14.18-.1.44-.26.26-1.47-1.62-3.19-3.34-4.28-5.23-.08-.13.1-.25.2-.16 1.65 1.41 3.03 3.4 4.34 5.13Zm2.18-1.99c.05.2-.24.28-.3.08-.93-2.9-2.22-5.7-3.1-8.6-.03-.13.15-.2.21-.1 1.6 2.52 2.5 5.75 3.2 8.62Zm9.44 28.1c.09.1-.06.26-.17.16a41.79 41.79 0 0 1-6.4-7.98 41.6 41.6 0 0 1-4.72-9.07c-.05-.15.17-.23.25-.1 1.58 2.93 3 5.9 4.81 8.7 1.89 2.92 4.1 5.55 6.23 8.28Zm17.23 16.3c.1.08-.03.23-.14.17-2.77-1.46-5.27-3.58-7.55-5.71a45.3 45.3 0 0 1-6.23-7.12c-.09-.13.12-.29.22-.17a65.65 65.65 0 0 0 6.35 6.95c2.31 2.15 4.87 3.94 7.35 5.88Zm9.68-3.32c0-.14.17-.18.24-.07.66 1.11.85 2.52 1.16 3.77.07.3-.37.42-.46.12-.38-1.22-.94-2.53-.94-3.82Zm-2.4 1.61a4.4 4.4 0 0 1 1.83 1.96c.12.23-.22.43-.35.2a9.4 9.4 0 0 0-1.63-1.97c-.1-.1.03-.24.14-.19Z"/><path fill="#fecd96" fill-rule="nonzero" d="M52.15 62.43c.62 2.05 2.93 4.1 4.23 5.76l9.05 11.56c.49.62 1 1.26 1.73 1.56.73.3 1.72.1 2.04-.61.18-.4.11-.88 0-1.31-.64-2.71-2.43-4.98-4.17-7.16-3.07-3.85-6.17-7.72-9.94-10.89-1.32-1.1-3.62-1.2-2.94 1.09Z"/><path id="paint-yellow" class="paint yellow" fill="#eebc30" d="M19.83 20.98c-1.23-.09-2.57-.57-3.55.14-.79.55-.97 1.69-.7 2.6a7.2 7.2 0 0 0 1.55 2.42l3.54 4.12a6.84 6.84 0 0 1 1.44 2.2c.6 1.84-.7 4.06-2.6 4.43-2.03.39-3.95-1.11-5.24-2.74-1.3-1.62-2.37-3.54-4.18-4.55-.9-.51-2.1-.74-2.94-.14-.76.55-1 1.55-1.38 2.4a3 3 0 0 1-.7.97c-.4.39-.91.6-1.43.43-.8-.28-1.02-1.28-1.12-2.11C2.04 27.16.47 23.5.1 19.55A24.6 24.6 0 0 1 2.09 7.3C3.1 5.04 4.52 2.87 6.57 1.5l.35-.22c1.4-.85 3.3-1.25 4.6-.25 1.85 1.41 1.16 4.29 1.69 6.55.73 3.12 3.87 5.03 6.9 6.1 1.3.47 2.81 1 3.29 2.3.34.94.01 1.94-.48 2.83-.14.26-.3.5-.45.74-.3.43-.61.87-1.06 1.13-.21.13-.44.2-.68.25-.29.05-.59.06-.9.04Z"/><path id="paint-green" class="paint green" fill="#36ab56" d="M19.83 20.98c-1.23-.09-2.57-.57-3.55.14-.79.55-.97 1.69-.7 2.6a7.2 7.2 0 0 0 1.55 2.42l3.54 4.12a6.84 6.84 0 0 1 1.44 2.2c.6 1.84-.7 4.06-2.6 4.43-2.03.39-3.95-1.11-5.24-2.74-1.3-1.62-2.37-3.54-4.18-4.55-.9-.51-2.1-.74-2.94-.14-.76.55-1 1.55-1.38 2.4a3 3 0 0 1-.7.97c-.4.39-.91.6-1.43.43-.8-.28-1.02-1.28-1.12-2.11C2.04 27.16.47 23.5.1 19.55A24.6 24.6 0 0 1 2.09 7.3C3.1 5.04 4.52 2.87 6.57 1.5l.35-.22c1.4-.85 3.3-1.25 4.6-.25 1.85 1.41 1.16 4.29 1.69 6.55.73 3.12 3.87 5.03 6.9 6.1 1.3.47 2.81 1 3.29 2.3.34.94.01 1.94-.48 2.83-.14.26-.3.5-.45.74-.3.43-.61.87-1.06 1.13-.21.13-.44.2-.68.25-.29.05-.59.06-.9.04Z"/><path id="paint-red" class="paint red" fill="#d63f32" d="M19.83 20.98c-1.23-.09-2.57-.57-3.55.14-.79.55-.97 1.69-.7 2.6a7.2 7.2 0 0 0 1.55 2.42l3.54 4.12a6.84 6.84 0 0 1 1.44 2.2c.6 1.84-.7 4.06-2.6 4.43-2.03.39-3.95-1.11-5.24-2.74-1.3-1.62-2.37-3.54-4.18-4.55-.9-.51-2.1-.74-2.94-.14-.76.55-1 1.55-1.38 2.4a3 3 0 0 1-.7.97c-.4.39-.91.6-1.43.43-.8-.28-1.02-1.28-1.12-2.11C2.04 27.16.47 23.5.1 19.55A24.6 24.6 0 0 1 2.09 7.3C3.1 5.04 4.52 2.87 6.57 1.5l.35-.22c1.4-.85 3.3-1.25 4.6-.25 1.85 1.41 1.16 4.29 1.69 6.55.73 3.12 3.87 5.03 6.9 6.1 1.3.47 2.81 1 3.29 2.3.34.94.01 1.94-.48 2.83-.14.26-.3.5-.45.74-.3.43-.61.87-1.06 1.13-.21.13-.44.2-.68.25-.29.05-.59.06-.9.04Z"/><path id="paint-blue" class="paint blue" fill="#809ec6" d="M19.83 20.98c-1.23-.09-2.57-.57-3.55.14-.79.55-.97 1.69-.7 2.6a7.2 7.2 0 0 0 1.55 2.42l3.54 4.12a6.84 6.84 0 0 1 1.44 2.2c.6 1.84-.7 4.06-2.6 4.43-2.03.39-3.95-1.11-5.24-2.74-1.3-1.62-2.37-3.54-4.18-4.55-.9-.51-2.1-.74-2.94-.14-.76.55-1 1.55-1.38 2.4a3 3 0 0 1-.7.97c-.4.39-.91.6-1.43.43-.8-.28-1.02-1.28-1.12-2.11C2.04 27.16.47 23.5.1 19.55A24.6 24.6 0 0 1 2.09 7.3C3.1 5.04 4.52 2.87 6.57 1.5l.35-.22c1.4-.85 3.3-1.25 4.6-.25 1.85 1.41 1.16 4.29 1.69 6.55.73 3.12 3.87 5.03 6.9 6.1 1.3.47 2.81 1 3.29 2.3.34.94.01 1.94-.48 2.83-.14.26-.3.5-.45.74-.3.43-.61.87-1.06 1.13-.21.13-.44.2-.68.25-.29.05-.59.06-.9.04Z"/><path id="paint-brown" class="paint brown" fill="#5d3320" d="M19.83 20.98c-1.23-.09-2.57-.57-3.55.14-.79.55-.97 1.69-.7 2.6a7.2 7.2 0 0 0 1.55 2.42l3.54 4.12a6.84 6.84 0 0 1 1.44 2.2c.6 1.84-.7 4.06-2.6 4.43-2.03.39-3.95-1.11-5.24-2.74-1.3-1.62-2.37-3.54-4.18-4.55-.9-.51-2.1-.74-2.94-.14-.76.55-1 1.55-1.38 2.4a3 3 0 0 1-.7.97c-.4.39-.91.6-1.43.43-.8-.28-1.02-1.28-1.12-2.11C2.04 27.16.47 23.5.1 19.55A24.6 24.6 0 0 1 2.09 7.3C3.1 5.04 4.52 2.87 6.57 1.5l.35-.22c1.4-.85 3.3-1.25 4.6-.25 1.85 1.41 1.16 4.29 1.69 6.55.73 3.12 3.87 5.03 6.9 6.1 1.3.47 2.81 1 3.29 2.3.34.94.01 1.94-.48 2.83-.14.26-.3.5-.45.74-.3.43-.61.87-1.06 1.13-.21.13-.44.2-.68.25-.29.05-.59.06-.9.04Z"/><path id="paint-beige" class="paint beige" fill="#e9dfb3" d="M19.83 20.98c-1.23-.09-2.57-.57-3.55.14-.79.55-.97 1.69-.7 2.6a7.2 7.2 0 0 0 1.55 2.42l3.54 4.12a6.84 6.84 0 0 1 1.44 2.2c.6 1.84-.7 4.06-2.6 4.43-2.03.39-3.95-1.11-5.24-2.74-1.3-1.62-2.37-3.54-4.18-4.55-.9-.51-2.1-.74-2.94-.14-.76.55-1 1.55-1.38 2.4a3 3 0 0 1-.7.97c-.4.39-.91.6-1.43.43-.8-.28-1.02-1.28-1.12-2.11C2.04 27.16.47 23.5.1 19.55A24.6 24.6 0 0 1 2.09 7.3C3.1 5.04 4.52 2.87 6.57 1.5l.35-.22c1.4-.85 3.3-1.25 4.6-.25 1.85 1.41 1.16 4.29 1.69 6.55.73 3.12 3.87 5.03 6.9 6.1 1.3.47 2.81 1 3.29 2.3.34.94.01 1.94-.48 2.83-.14.26-.3.5-.45.74-.3.43-.61.87-1.06 1.13-.21.13-.44.2-.68.25-.29.05-.59.06-.9.04Z"/><g fill-rule="nonzero"><path fill-opacity=".1" d="M9.08 5.08c.74 2.05.78 4.29.67 6.47-.1 2.18-.35 4.37-.15 6.54.09.94.27 1.9.77 2.69.33.51.89.98 1.5.89.79-.13 1.13-1.1 1.13-1.9 0-.8-.16-1.67.24-2.36.62-1.06 2.16-1.07 3.3-.66 1.58.56 3.03 1.84 3.25 3.5.03.24.04.48.04.73.31.02.62.01.9-.04.24-.05.47-.12.68-.25.45-.26.77-.7 1.06-1.13l.45-.73c.5-.9.82-1.9.48-2.83-.47-1.3-1.99-1.84-3.3-2.3-3.02-1.08-6.16-2.99-6.9-6.11-.52-2.26.17-5.14-1.67-6.55-1.3-1-3.21-.6-4.61.25l-.35.22a9.2 9.2 0 0 1 2.51 3.57Z"/><path fill="#fff" fill-opacity=".5" d="M3.04 19.8c-.56-5.1.62-10.13 3.4-14.43.36-.56-.54-1.09-.9-.53A22.91 22.91 0 0 0 2 19.8c.08.66 1.12.66 1.04 0Zm.89 7.2c.08-1.62-.13-3.2-.62-4.74-.2-.63-1.21-.36-1 .28.47 1.46.66 2.93.58 4.46-.04.67 1 .66 1.04 0Zm8.18 2.83c1.17 1.5 6.87 8.54 8.5 3.99.23-.63-.78-.9-1-.27-.96 2.66-6.06-3.56-6.76-4.45-.4-.53-1.14.2-.74.73Z"/></g></svg>