<svg xmlns="http://www.w3.org/2000/svg" width="17" height="15" fill="none">
  <g filter="url(#filter0_d_226_5697)">
    <path fill="#fff" d="M12.1 2.9a3 3 0 0 0-2-.9 3 3 0 0 0-2.1.9L6.5 4.4 5 2.9A3 3 0 0 0 3 2 3 3 0 0 0 .1 3.9 3.1 3.1 0 0 0 1 7.2l1.4 1.5L6.5 13l5.6-5.8A3 3 0 0 0 13 5a3.1 3.1 0 0 0-.9-2.1Z"/>
    <path fill="#FFC4CC" d="M2.2 9 .8 7.4c-.3-.3-.5-.6-.6-1a3.6 3.6 0 0 1 .6-3.5c.5-.6 1.2-.9 2-.9.6 0 1.3.3 1.8 1L6 4.4 2.2 9Z"/>
  </g>
  <defs>
    <filter id="filter0_d_226_5697" width="17" height="15" x="0" y="0" color-interpolation-filters="sRGB" filterUnits="userSpaceOnUse">
      <feFlood flood-opacity="0" result="BackgroundImageFix"/>
      <feColorMatrix in="SourceAlpha" result="hardAlpha" values="0 0 0 0 0 0 0 0 0 0 0 0 0 0 0 0 0 0 127 0"/>
      <feOffset dx="2"/>
      <feGaussianBlur stdDeviation="1"/>
      <feComposite in2="hardAlpha" operator="out"/>
      <feColorMatrix values="0 0 0 0 0 0 0 0 0 0 0 0 0 0 0 0 0 0 0.25 0"/>
      <feBlend in2="BackgroundImageFix" result="effect1_dropShadow_226_5697"/>
      <feBlend in="SourceGraphic" in2="effect1_dropShadow_226_5697" result="shape"/>
    </filter>
  </defs>
</svg>
