<svg xmlns="http://www.w3.org/2000/svg" fill="none" preserveAspectRatio="none" viewBox="0 0 1434 33">
    <path fill="#B4ABA8" d="M9 9c0 .3 0 .4-.2.4H4.6c-1 0-1.7.2-2 .5-.5.3-.7 1.2-.6 2.6l.5 16s0 .2-.2.3c0 .1-.1.2-.3.2H1s-.3 0-.4-.2a1 1 0 0 1-.1-.4l-.5-16c0-1.8.3-3.2 1-4C1.8 7.3 3 7 4.5 7a99.8 99.8 0 0 1 4.3.2l.1.4L9 9ZM23 13.7c.1 4.4-2 6.6-6.3 6.6l-2.3-.1.3 8.2-.1.4-.3.2H13s-.2 0-.3-.2l-.2-.4L12 8c0-.2 0-.4.2-.6l1.7-.3 2.4-.1c4.3 0 6.6 2 6.7 6.3v.4Zm-2.1 0v-.3c0-1.5-.4-2.5-1.2-3.2-.7-.6-1.8-1-3.3-1l-2.3.2.2 8.6 2.4.1c1.5 0 2.6-.3 3.3-1 .6-.7 1-1.8.9-3.4ZM26.3 21.8l-1.2 6.8-.1.3-.3.1h-1.3c-.3 0-.4-.1-.4-.5v-.2l3.6-19c.3-1.5 1-2.3 2.2-2.3 1.3 0 2 .7 2.4 2.2l4.8 19v.3c0 .3-.1.5-.4.5h-1.3s-.2 0-.2-.2l-.4-1-1.5-6h-5.8Zm5.4-2.3L29.9 12l-.6-2.3v-.2l-.2-.1h-.4l-.1.2-.4 1.6-1.4 8.3h5-.1ZM51 28.3l-.1.5-.3.1h-1.1l-.3-.1-.2-.4-.5-17.6-2 5.7a337 337 0 0 1-1.4 3.8l-.5.1h-1a1 1 0 0 1-.6-.1c-.2-.1-.3-.4-.5-.7L40 13c-.5-1.5-.9-2.2-.9-2.2l.6 17.6-.1.4-.4.2h-1s-.3 0-.3-.2a1 1 0 0 1-.2-.4L37 8c0-.2 0-.4.2-.6.1-.2.3-.3.4-.3H39c.4 0 .6.2.8.5l4 10.2c0 .2.1.3.2.3 0 0 .2-.1.2-.3l3.4-10.2c.1-.3.3-.5.7-.5h1.4c.2 0 .4 0 .5.2l.2.7.6 20.5ZM69 28.3l-.1.5-.3.1h-1.1l-.3-.1-.2-.4-.5-17.6-2 5.7a337 337 0 0 1-1.4 3.8l-.5.1h-1a1 1 0 0 1-.6-.1c-.2-.1-.3-.4-.5-.7L58 13c-.5-1.5-.9-2.2-.9-2.2l.6 17.6-.1.4-.4.2h-1s-.3 0-.3-.2a1 1 0 0 1-.2-.4L55 8c0-.2 0-.4.2-.6.1-.2.3-.3.4-.3H57c.4 0 .6.2.8.5l4 10.2c0 .2.1.3.2.3 0 0 .2-.1.2-.3l3.4-10.2c.1-.3.3-.5.7-.5h1.4c.2 0 .4 0 .5.2l.2.7.6 20.5ZM72.6 28.1 72 7.6c0-.4.1-.6.4-.6h1.1s.2 0 .3.2l.1.4.5 17.3 6.3-17.3.2-.5.6-.1h1.2c.2 0 .4 0 .5.2l.2.6.6 20.8c0 .2-.1.4-.4.4h-1.1s-.2 0-.3-.2l-.1-.4-.5-17.2V11h-.1l-6.2 17.4c-.1.3-.4.5-.7.5h-1.4c-.1 0-.3 0-.4-.2a1 1 0 0 1-.2-.6ZM86.4 27h.6l3.2-17.7c.3-1.5 1-2.3 2.2-2.3 1.2 0 1.9.7 2.3 2.2L98.8 27h.6c.3 0 .4.2.4.6l.2 4.8-.1.5-.3.1h-1.2l-.3-.1v-.4l-.2-3h-9.8v3.4l-.3.2h-1.2s-.2 0-.3-.2l-.1-.4-.2-4.8c0-.4.1-.6.4-.6ZM92 9.9l-2.9 17h7.7l-4-17c0-.4-.2-.6-.4-.6s-.3.2-.4.6ZM102.6 28.1 102 7.6c0-.4.1-.6.4-.6h1.1s.2 0 .3.2l.1.4.5 17.3 6.3-17.3c0-.2.1-.4.3-.5l.5-.1h1.2c.2 0 .4 0 .5.2l.2.6.6 20.8c0 .2-.1.4-.4.4h-1.1s-.2 0-.3-.2l-.1-.4-.5-17.2V11h-.1l-6.2 17.4c-.1.3-.4.5-.7.5h-1.4c-.1 0-.3 0-.4-.2a1 1 0 0 1-.2-.6ZM130 28.4l-.1.4-.3.2h-1.1s-.2 0-.3-.2l-.2-.4-.3-9.8h-7.4l.3 9.8-.1.4-.3.2H119s-.3 0-.3-.2a1 1 0 0 1-.2-.4L118 7.6l.1-.4.3-.2h1.1s.3 0 .3.2l.2.4.2 8.6h7.5l-.3-8.6.1-.4.3-.2h1.1s.3 0 .3.2l.2.4.6 20.8ZM144 15c0 1.1-.1 2.1-.4 3.1-.3 1-.7 1.8-1.2 2.6a6 6 0 0 1-1.9 1.7 4.6 4.6 0 0 1-4.6 0c-.8-.4-1.4-1-2-1.7a10.3 10.3 0 0 1-.3-11.3c.5-.8 1.1-1.3 1.8-1.8a4.6 4.6 0 0 1 4.7 0c.8.4 1.4 1 2 1.7a10.3 10.3 0 0 1 2 5.7h-.1Zm-1 0a8 8 0 0 0-1.6-4.8c-.5-.6-1-1.1-1.7-1.5a3.9 3.9 0 0 0-3.9 0c-.6.4-1.1 1-1.6 1.5a7 7 0 0 0-1 2.2 8.9 8.9 0 0 0 1.3 7.4c.5.6 1 1.1 1.7 1.5a3.9 3.9 0 0 0 4 0 5 5 0 0 0 1.5-1.5A8.8 8.8 0 0 0 143 15Zm-2 4.6-.1.2-.2.2h-.7l-.1-.1-.1-.2-2-3.8h-1.1l.1 3.6v.3l-.3.2h-.5l-.3-.1v-.4l-.3-9c0-.3.1-.6.4-.6H138.7a2.2 2.2 0 0 1 1.5 1.5c.2.4.3.9.3 1.4v.1c0 .8-.1 1.4-.4 1.8-.2.4-.6.7-1 1l1.8 3.6v.3Zm-1.7-6.8c0-.6-.1-1-.4-1.3-.3-.2-.7-.3-1.3-.3h-1.1l.1 3.3H137.7c.6 0 1-.1 1.3-.4.2-.2.4-.6.3-1.2v-.2ZM157 20.5c0 .3-.1.5-.4.5h-4.2c-.2 0-.4-.2-.4-.5v-1c0-.3 0-.5.4-.5h4.1c.3 0 .5.2.5.5v1ZM174.9 28.5 170.3 10c0-.4-.2-.6-.4-.6s-.4.2-.4.6L166 28.6c0 .3-.2.4-.4.4h-1.3c-.3 0-.4-.1-.4-.5v-.2l3.6-19c.3-1.5 1-2.3 2.2-2.3 1.3 0 2 .7 2.4 2.2l4.8 19v.3c0 .3-.1.5-.4.5h-1.3c-.2 0-.3-.2-.4-.5ZM189 29.4c0 .2 0 .3-.2.3a85.2 85.2 0 0 1-4.5.3c-1.7 0-2.9-.4-3.7-1.4-.8-.9-1.2-2.3-1.3-4.2l-.3-11.7c0-2 .3-3.4 1-4.3.8-1 2-1.4 3.7-1.4a75.6 75.6 0 0 1 4.5.2v.2l.1.2V9c0 .3 0 .4-.2.4h-4.3c-1 0-1.7.2-2.2.5-.4.4-.6 1.3-.5 2.7l.1 4.2h7s.2 0 .3.2l.1.4V19c-.1.2-.2.2-.4.2h-7l.2 5.2c0 1.2.3 2 .6 2.5.4.4 1.2.6 2.3.6h4.4c.2 0 .2.1.2.4l.1 1.5ZM202.9 28.3l.1.3c0 .2 0 .4-.3.4h-1.8c-.2 0-.4-.1-.5-.3l-7-10.1.4 9.8-.1.4-.3.2H192s-.2 0-.3-.2l-.2-.4-.6-20.8.1-.4.3-.2h1.3s.2 0 .3.2l.1.4.3 9.5 6.5-9.8c.1-.2.3-.3.4-.3h1.7c.2 0 .3.1.4.3l-.1.3-6.7 10.1 7.3 10.6ZM208.3 21.8l-1.2 6.8-.1.3-.3.1h-1.3c-.3 0-.4-.1-.4-.5v-.2l3.6-19c.3-1.5 1-2.3 2.2-2.3 1.3 0 2 .7 2.4 2.2l4.8 19v.3c0 .3-.1.5-.4.5h-1.3s-.2 0-.2-.2l-.4-1-1.5-6h-5.8Zm5.4-2.3-1.8-7.5-.6-2.3v-.2l-.2-.1h-.4l-.1.2-.4 1.6-1.4 8.3h5-.1ZM230 12.7c.1 4.4-2 6.6-6.3 6.6l-2.3-.1.3 8.2-.1.4-.3.2H220s-.2 0-.3-.2l-.2-.4L219 7c0-.2 0-.4.2-.6l1.7-.3 2.4-.1c4.3 0 6.6 2 6.7 6.3v.4Zm-2.1 0v-.3c0-1.5-.4-2.5-1.2-3.2-.7-.6-1.8-1-3.3-1l-2.3.2.2 8.6 2.4.1c1.5 0 2.6-.3 3.3-1 .6-.7 1-1.8.9-3.4ZM242 28c0 .2 0 .4-.2.5l-1.2.3-2.5.2c-1.8 0-3.2-.8-4.3-2.4-1-1.6-1.6-3.9-1.7-7v-4.2c-.2-3 .3-5.4 1.2-7 1-1.6 2.4-2.4 4.1-2.4a14.3 14.3 0 0 1 3.9.5V7l.1 1.5c0 .2 0 .3-.3.3l-3.6-.2c-2.5 0-3.7 2.3-3.5 6.9v4.2c.2 2.3.5 4 1.2 5.2.7 1.1 1.6 1.7 2.8 1.7l2-.1 1.6-.2c.2 0 .3.2.3.5V28h.1ZM256 8.8c0 .3-.1.5-.4.5H251l.6 19.1-.1.4-.3.2H250s-.2 0-.3-.2l-.1-.4-.6-19h-4.5c-.3 0-.4-.2-.4-.5l-.1-1.3.1-.4.4-.2h11c.3 0 .4.2.4.5l.1 1.3ZM269 22.5c.1 4.3-2 6.5-6.1 6.5l-2.7-.1c-.8 0-1.3-.2-1.4-.4l-.2-.9-.6-20.2v-.7l.4-.4 1.4-.2L262 6c4.2 0 6.4 2 6.5 5.8v.5c0 1.1-.1 2.1-.5 3a4 4 0 0 1-1.7 1.8 4 4 0 0 1 1.9 1.9c.4.9.6 1.9.7 3v.5Zm-2.3-10.2v-.5c0-1.2-.4-2-1-2.6-.7-.6-1.9-.9-3.5-.9l-2.2.1.2 7.6h3.4c2 0 3.1-1.3 3-3.7Zm.3 10.2V22c0-2.6-1.2-3.8-3.3-3.8h-3.4l.3 8.3 2.2.2c1.6 0 2.7-.4 3.4-1 .6-.7 1-1.7.9-3.2ZM282 28.4c0 .2 0 .3-.2.3a85.2 85.2 0 0 1-4.5.3c-1.7 0-2.9-.4-3.7-1.4-.8-.9-1.2-2.3-1.3-4.2l-.3-11.7c0-2 .3-3.4 1-4.3.8-1 2-1.4 3.7-1.4a75.6 75.6 0 0 1 4.5.2v.2l.1.2V8c0 .3 0 .4-.2.4h-4.3c-1 0-1.7.2-2.2.5-.4.4-.6 1.3-.5 2.7l.1 4.2h7s.2 0 .3.2l.1.4V18c-.1.2-.2.2-.4.2h-7l.2 5.2c0 1.2.3 2 .6 2.5.4.4 1.2.6 2.3.6h4.4c.2 0 .2.1.2.4l.1 1.5ZM296 27.4l-.1.4-.3.2h-1.1s-.2 0-.3-.2l-.2-.4-.3-9.8h-7.4l.3 9.8-.1.4-.3.2H285s-.3 0-.3-.2a1 1 0 0 1-.2-.4L284 6.6l.1-.4.3-.2h1.1s.3 0 .3.2l.2.4.2 8.6h7.5l-.3-8.6.1-.4.3-.2h1.1s.3 0 .3.2l.2.4.6 20.8ZM311 27.4l-.1.4-.3.2h-1.1s-.2 0-.3-.2l-.2-.4-.3-9.8h-7.4l.3 9.8-.1.4-.3.2H300s-.3 0-.3-.2a1 1 0 0 1-.2-.4L299 6.6l.1-.4.3-.2h1.1s.3 0 .3.2l.2.4.2 8.6h7.5l-.3-8.6.1-.4.3-.2h1.1s.3 0 .3.2l.2.4.6 20.8ZM326.8 21.8c0 4.1-2.1 6.2-6.6 6.2l-2.8-.1c-.9 0-1.4-.2-1.5-.4-.2-.2-.3-.5-.3-.8l-.6-20c0-.5.1-.6.4-.6h1.3c.2 0 .4.1.4.5l.3 8.6 2.4-.1c4.5 0 6.8 2 7 6.2v.5Zm-2.2 0v-.6c0-1.3-.4-2.3-1.1-3-.7-.6-2-.9-3.6-.9-.6 0-1.4 0-2.5.2l.3 8.1 2.4.2c1.7 0 3-.4 3.6-1 .7-.6 1-1.6 1-3Zm7.4 5.4-.1.4-.3.2h-1.3s-.2 0-.3-.2l-.1-.4-.7-20.6c0-.4.2-.6.4-.6h1.3c.3 0 .5.2.5.5l.6 20.7ZM334.6 27.2 334 6.7c0-.4.1-.6.4-.6h1.1s.2 0 .3.2l.1.4.5 17.2 6.3-17.2c0-.2.1-.4.3-.5l.5-.1h1.2c.2 0 .4 0 .5.2l.2.6.6 20.7c0 .2-.1.4-.4.4h-1.1s-.2 0-.3-.2l-.1-.4-.5-17.2h-.1l-6.2 17.3c-.1.3-.4.5-.7.5h-1.4c-.1 0-.3 0-.4-.2a1 1 0 0 1-.2-.6ZM342.7 0c.2 0 .3.1.3.4 0 1.1-.3 2.1-.9 3a3 3 0 0 1-2.5 1.3c-1 0-2-.5-2.6-1.3-.7-.9-1-1.9-1-3l.1-.4h.8c.3 0 .4.2.4.5 0 .7.3 1.3.7 1.7.5.5 1 .7 1.5.6.6 0 1-.2 1.5-.6.4-.4.6-1 .6-1.7 0-.3.2-.5.4-.5h.8ZM365 27.4l-.5-17.7c0-.5 0-.8-.2-1-.1-.2-.4-.3-.8-.3H358c-.5 0-.7.2-.8.3l-.2 1 .5 17.7v.4l-.4.2H356s-.2 0-.3-.2a1 1 0 0 1-.2-.4L355 9.7c0-2.4.9-3.7 2.9-3.7h5.5c2 0 3 1.2 3 3.7l.6 17.7-.1.4-.3.2h-1.1l-.3-.2-.2-.4ZM381 12.7c.1 4.4-2 6.6-6.3 6.6l-2.3-.1.3 8.2-.1.4-.3.2h-1.2s-.2 0-.3-.2l-.2-.4L370 7c0-.2 0-.4.2-.6l1.7-.3 2.5-.1c4.2 0 6.5 2 6.6 6.3v.4Zm-2.1 0v-.3c0-1.5-.4-2.5-1.2-3.2-.7-.6-1.8-1-3.3-1l-2.3.2.2 8.6 2.4.1c1.5 0 2.6-.3 3.3-1 .6-.7 1-1.8.9-3.4ZM394 28.4c0 .2 0 .3-.2.3a85.2 85.2 0 0 1-4.5.3c-1.7 0-2.9-.4-3.7-1.4-.8-.9-1.2-2.3-1.3-4.2l-.3-11.7c0-2 .3-3.4 1-4.3.8-1 2-1.4 3.7-1.4a75.6 75.6 0 0 1 4.5.2v.2l.1.2V8c0 .3 0 .4-.2.4h-4.3c-1 0-1.7.2-2.2.5-.4.4-.6 1.3-.5 2.7l.1 4.2h7s.2 0 .3.2l.1.4V18c-.1.2-.2.2-.4.2h-7l.2 5.2c0 1.2.3 2 .6 2.5.4.4 1.2.6 2.3.6h4.4c.2 0 .2.1.2.4l.1 1.5ZM406 27.4l-.5-17.7c0-.5 0-.8-.2-1-.1-.2-.4-.3-.8-.3H399c-.5 0-.7.2-.8.3l-.2 1 .5 17.7v.4l-.4.2H397s-.2 0-.3-.2a1 1 0 0 1-.2-.4L396 9.7c0-2.4.9-3.7 2.9-3.7h5.5c2 0 3 1.2 3 3.7l.6 17.7-.1.4-.3.2h-1.1l-.3-.2-.2-.4ZM414.3 20.8l-1.2 6.8-.1.3-.3.1h-1.3c-.3 0-.4-.1-.4-.5v-.2l3.6-19c.3-1.5 1-2.3 2.2-2.3 1.3 0 2 .7 2.4 2.2l4.8 19v.3c0 .3-.1.5-.4.5h-1.3s-.2 0-.2-.2l-.4-1-1.5-6h-5.8Zm5.4-2.3-1.8-7.5-.6-2.3v-.2l-.2-.1h-.4l-.1.2-.4 1.6-1.4 8.3h5-.1ZM436 12.7c.1 4.4-2 6.6-6.3 6.6l-2.3-.1.3 8.2-.1.4-.3.2h-1.2s-.2 0-.3-.2l-.2-.4L425 7c0-.2 0-.4.2-.6l1.7-.3 2.5-.1c4.2 0 6.5 2 6.6 6.3v.4Zm-2.1 0v-.3c0-1.5-.4-2.5-1.2-3.2-.7-.6-1.8-1-3.3-1l-2.3.2.2 8.6 2.4.1c1.5 0 2.6-.3 3.3-1 .6-.7 1-1.8.9-3.4ZM439.3 20.8l-1.2 6.8-.1.3-.3.1h-1.3c-.3 0-.4-.1-.4-.5v-.2l3.6-19c.3-1.5 1-2.3 2.2-2.3 1.3 0 2 .7 2.4 2.2l4.8 19v.3c0 .3-.1.5-.4.5h-1.3s-.2 0-.2-.2l-.4-1-1.5-6h-5.8Zm5.4-2.3-1.8-7.5-.6-2.3v-.2l-.2-.1h-.4l-.1.2-.4 1.6-1.4 8.3h5-.1ZM459 7.8c0 .3-.1.5-.4.5H454l.6 19.1-.1.4-.3.2H453s-.2 0-.3-.2l-.1-.4-.6-19h-4.5c-.3 0-.4-.2-.4-.5l-.1-1.3.1-.4.4-.2h11c.3 0 .4.2.4.5l.1 1.3ZM460 27.4l-.1.4-.3.2h-1s-.3 0-.4-.2l-.1-.4-.1-2.8.1-.4.3-.2h1s.2 0 .3.2l.2.4v2.8h.1ZM468.6 27.1 468 6.6c0-.4.1-.6.4-.6h1.1s.2 0 .3.2l.1.4.5 17.3 6.3-17.3c0-.2.1-.4.3-.5l.5-.1h1.2c.2 0 .4 0 .5.2l.2.6.6 20.8c0 .2-.1.4-.4.4h-1.1s-.2 0-.3-.2l-.1-.4-.5-17.2V10h-.1l-6.2 17.4c-.1.3-.4.5-.7.5h-1.4c-.1 0-.3 0-.4-.2a1 1 0 0 1-.2-.6ZM497 27.3l-.1.5-.3.1h-1.1l-.3-.1-.2-.4-.5-17.6-2 5.7a300.2 300.2 0 0 1-1.4 3.8l-.5.1h-1a1 1 0 0 1-.6-.1c-.2-.1-.3-.4-.5-.7L486 12c-.5-1.5-.9-2.2-.9-2.2l.6 17.6-.1.4-.4.2h-1s-.3 0-.3-.2a1 1 0 0 1-.2-.4L483 7c0-.2 0-.4.2-.6.1-.2.3-.3.4-.3h1.4c.4 0 .6.2.8.5l4 10.2c0 .2.1.3.2.3 0 0 .2-.1.2-.3l3.4-10.2c.1-.3.3-.5.7-.5h1.4c.2 0 .4 0 .5.2l.2.7.6 20.5ZM511 27.4c0 .2 0 .3-.2.3a85.2 85.2 0 0 1-4.5.3c-1.7 0-2.9-.4-3.7-1.4-.8-.9-1.2-2.3-1.3-4.2l-.3-11.7c0-2 .3-3.4 1-4.3.8-1 2-1.4 3.7-1.4a75.6 75.6 0 0 1 4.5.2v.2l.1.2V7c0 .3 0 .4-.2.4h-4.3c-1 0-1.7.2-2.2.5-.4.4-.6 1.3-.5 2.7l.1 4.2h7s.2 0 .3.2l.1.4V17c-.1.2-.2.2-.4.2h-7l.2 5.2c0 1.2.3 2 .6 2.5.4.4 1.2.6 2.3.6h4.4c.2 0 .2.1.2.4l.1 1.5ZM531 18.4c0 3.1-.4 5.5-1.4 7.1A5 5 0 0 1 525 28c-2 0-3.5-.8-4.5-2.4-1.1-1.7-1.8-4-1.8-7.1v-.8h-3.4l.3 9.5-.1.5-.3.1H514l-.2-.1-.2-.5-.6-21.4c0-.4.1-.5.4-.5h1.2c.3 0 .5.1.5.5l.2 9.5h3.4v-.7c-.1-3.1.3-5.5 1.4-7.1a5 5 0 0 1 4.4-2.5c2 0 3.5.8 4.6 2.4 1 1.6 1.7 4 1.8 7.1l.1 4Zm-2.1 0-.1-3.9c-.2-4.7-1.6-7-4.3-7-2.6 0-4 2.4-3.8 7l.1 4c.1 4.7 1.6 7 4.3 7 2.6 0 3.9-2.4 3.8-7ZM543 6.8c0 .3-.1.5-.4.5H538l.6 19.1-.1.4-.3.2H537s-.2 0-.3-.2l-.1-.4-.6-19h-4.5c-.3 0-.4-.2-.4-.5l-.1-1.3.1-.4.4-.2h11c.3 0 .4.2.4.5l.1 1.3ZM554 27c0 .2 0 .4-.2.5l-1.2.3-2.5.2c-1.8 0-3.2-.8-4.3-2.4-1-1.6-1.6-3.9-1.7-7v-4.2c-.2-3 .3-5.4 1.2-7 1-1.6 2.4-2.4 4.1-2.4a14.2 14.2 0 0 1 3.9.5V6l.1 1.5c0 .2 0 .3-.3.3l-3.6-.2c-2.5 0-3.7 2.3-3.5 6.9l.1 4.2c0 2.3.4 4 1 5.2.8 1.1 1.7 1.7 3 1.7l2-.1 1.5-.2c.2 0 .4.2.4.5V27ZM567 26.4l-.1.4-.3.2h-1.2l-.3-.2v-.4l-.3-8.6h-3l-2.3 5.6-1.3 3.4-.2.2h-1.7c-.2 0-.3-.1-.3-.4v-.2l3.7-9c-1-.4-2-1-2.5-2-.7-1.1-1-2.4-1-3.9v-.2C556 7.1 558 5 562 5a33.8 33.8 0 0 1 4.2.3l.2.6.6 20.5Zm-2.3-11-.2-8H562c-1.5 0-2.5.3-3.1 1-.7.5-1 1.5-1 2.9v.2c.1 1.5.5 2.6 1.2 3.2.7.6 1.7.9 3.1.9l2.4-.1ZM586 26.4l-.5-17.7c0-.5 0-.8-.2-1-.1-.2-.4-.3-.8-.3H579c-.5 0-.7.2-.8.3l-.2 1 .5 17.7v.4l-.4.2H577s-.2 0-.3-.2a1 1 0 0 1-.2-.4L576 8.7c0-2.4.9-3.7 2.9-3.7h5.5c2 0 3 1.2 3 3.7l.6 17.7-.1.4-.3.2h-1.1l-.3-.2-.2-.4ZM602 11.7c.1 4.4-2 6.6-6.3 6.6l-2.3-.1.3 8.2-.1.4-.3.2H592s-.2 0-.3-.2l-.2-.4L591 6c0-.2 0-.4.2-.6l1.7-.3 2.5-.1c4.2 0 6.5 2 6.6 6.3v.4Zm-2.1 0v-.3c0-1.5-.4-2.5-1.2-3.2-.7-.6-1.8-1-3.3-1l-2.3.2.2 8.6 2.4.1c1.5 0 2.6-.3 3.3-1 .6-.7 1-1.8.9-3.4ZM616 18.4a13 13 0 0 1-1.4 7.1 4.8 4.8 0 0 1-4.3 2.5 5 5 0 0 1-4.4-2.4c-1.1-1.7-1.7-4-1.8-7.1v-4c-.2-3.2.3-5.6 1.3-7.1 1-1.6 2.5-2.4 4.3-2.4a5 5 0 0 1 4.4 2.4c1 1.6 1.7 4 1.8 7.1v4Zm-2 0-.1-3.9c-.1-4.7-1.5-7-4.1-7-2.6 0-3.9 2.4-3.8 7l.1 4c.2 4.7 1.6 7 4.2 7s3.8-2.4 3.7-7ZM629 6.8c0 .3-.1.5-.4.5H624l.6 19.1-.1.4-.3.2H623s-.2 0-.3-.2l-.1-.4-.6-19h-4.5c-.3 0-.4-.2-.4-.5l-.1-1.3.1-.4.4-.2h11c.3 0 .4.2.4.5l.1 1.3ZM631.6 26.1 631 5.6c0-.4.1-.6.4-.6h1.1s.2 0 .3.2l.1.4.5 17.3 6.3-17.3c0-.2.1-.4.3-.5l.5-.1h1.2c.2 0 .4 0 .5.2l.2.6.6 20.8c0 .2-.1.4-.4.4h-1.1s-.2 0-.3-.2l-.1-.4-.5-17.2V9h-.1l-6.2 17.4c-.1.3-.4.5-.7.5h-1.4c-.1 0-.3 0-.4-.2a1 1 0 0 1-.2-.6ZM657 21.5c.1 4.3-2 6.5-6.1 6.5l-2.7-.1c-.8 0-1.3-.2-1.4-.4l-.2-.9-.6-20.2v-.7l.4-.4 1.4-.2L650 5c4.2 0 6.4 2 6.5 5.8v.5c0 1.1-.1 2.1-.5 3a4 4 0 0 1-1.7 1.8 4 4 0 0 1 1.9 1.9c.4.9.6 1.9.7 3v.5Zm-2.3-10.2v-.5c0-1.2-.4-2-1-2.6-.7-.6-1.9-.9-3.5-.9l-2.2.1.2 7.6h3.4c2 0 3.1-1.3 3-3.7Zm.3 10.2V21c0-2.6-1.2-3.8-3.3-3.8h-3.4l.3 8.3 2.2.2c1.6 0 2.7-.4 3.4-1 .6-.7 1-1.7.9-3.2ZM672 18.4a13 13 0 0 1-1.4 7.1 4.8 4.8 0 0 1-4.3 2.5 5 5 0 0 1-4.4-2.4c-1.1-1.7-1.7-4-1.8-7.1v-4c-.2-3.2.3-5.6 1.3-7.1 1-1.6 2.5-2.4 4.3-2.4a5 5 0 0 1 4.4 2.4c1 1.6 1.7 4 1.8 7.1v4Zm-2 0-.1-3.9c-.2-4.7-1.5-7-4.2-7-2.6 0-3.8 2.4-3.7 7l.1 4c.1 4.7 1.5 7 4.2 7 2.6 0 3.8-2.4 3.7-7ZM685 26.4l-.5-17.7c0-.5 0-.8-.2-1-.1-.2-.4-.3-.8-.3H678c-.5 0-.7.2-.8.3l-.2 1 .5 17.7v.4l-.4.2H676s-.2 0-.3-.2a1 1 0 0 1-.2-.4L675 8.7c0-2.4.9-3.7 2.9-3.7h5.5c2 0 3 1.2 3 3.7l.6 17.7-.1.4-.3.2h-1.1l-.3-.2-.2-.4ZM702 17.4a13 13 0 0 1-1.4 7.1 4.8 4.8 0 0 1-4.3 2.5 5 5 0 0 1-4.4-2.4c-1.1-1.7-1.7-4-1.8-7.1v-4c-.2-3.2.3-5.6 1.3-7.1 1-1.6 2.5-2.4 4.3-2.4a5 5 0 0 1 4.4 2.4c1 1.6 1.7 4 1.8 7.1v4Zm-2 0-.1-3.9c-.2-4.7-1.5-7-4.2-7-2.6 0-3.8 2.4-3.7 7l.1 4c.1 4.7 1.5 7 4.2 7 2.6 0 3.8-2.4 3.7-7ZM716.9 26.3l.1.3c0 .2 0 .4-.3.4h-1.8c-.2 0-.4-.1-.5-.3l-7-10.1.4 9.8-.1.4-.3.2H706s-.2 0-.3-.2l-.1-.4-.7-20.8.1-.4.3-.2h1.3s.2 0 .3.2l.1.4.3 9.5 6.5-9.8c.1-.2.3-.3.4-.3h1.7c.2 0 .4.1.4.3l-.1.3-6.7 10.1 7.3 10.6ZM721.3 18.8l-1.2 6.8-.1.3-.3.1h-1.3c-.3 0-.4-.1-.4-.5v-.2l3.6-19c.3-1.5 1-2.3 2.2-2.3 1.3 0 2 .7 2.4 2.2l4.8 19v.3c0 .3-.1.5-.4.5h-1.3s-.2 0-.2-.2l-.4-1-1.5-6h-5.8Zm5.4-2.3L724.9 9l-.6-2.3v-.2l-.2-.1h-.4l-.1.2-.4 1.6-1.5 8.3h5ZM743 20.5c0 2-.4 3.7-1.3 4.8-1 1.1-2.3 1.7-4 1.7-.9 0-1.7 0-2.6-.3-.9-.2-1.4-.3-1.5-.5a.7.7 0 0 1-.1-.4v-1c0-.3 0-.5.4-.5 1.5.3 2.7.4 3.7.4 1.2 0 2-.3 2.6-1 .5-.7.7-1.7.7-3.2v-.7c0-1-.3-2-.7-2.6-.5-.7-1.2-1-2-1h-4c-.3 0-.4-.2-.4-.6v-1c0-.4.1-.6.4-.6h4c.8 0 1.4-.4 1.9-1 .4-.6.6-1.5.6-2.7V10c0-1.3-.4-2.2-1-2.8-.5-.5-1.4-.8-2.6-.8-.5 0-1.1 0-1.8.2l-1.9.3c-.2 0-.4-.2-.4-.5v-1c0-.3 0-.4.2-.5a11.8 11.8 0 0 1 4-.8c1.8 0 3.2.5 4 1.4 1 1 1.5 2.5 1.5 4.5v.4c.1 2.2-.5 3.8-2 4.8 1.5 1 2.2 2.5 2.3 4.7v.7ZM747.3 18.8l-1.2 6.8-.1.3-.3.1h-1.3c-.3 0-.4-.1-.4-.5v-.2l3.6-19c.3-1.5 1-2.3 2.2-2.3 1.3 0 2 .7 2.4 2.2l4.8 19v.3c0 .3-.1.5-.4.5h-1.3s-.2 0-.2-.2l-.4-1-1.5-6h-5.8Zm5.4-2.3L750.9 9l-.6-2.4v-.2l-.2-.1h-.4l-.1.2-.4 1.7-1.4 8.2h5-.1ZM771 25.4l-.1.4-.3.2h-1.1s-.2 0-.3-.2l-.2-.4-.3-9.8h-7.4l.3 9.8-.1.4-.3.2H760s-.3 0-.3-.2l-.2-.4-.6-20.8.1-.4.3-.2h1.1s.3 0 .3.2l.2.4.2 8.6h7.5l-.3-8.6.1-.4.3-.2h1.1s.3 0 .3.2l.2.4.6 20.8ZM774.6 25.1 774 4.6c0-.4.1-.6.4-.6h1.1s.2 0 .3.2l.1.4.5 17.3 6.3-17.3c0-.2.1-.4.3-.5l.5-.1h1.2c.2 0 .4 0 .5.2l.2.6.6 20.8c0 .2-.1.4-.4.4h-1.1s-.2 0-.3-.2l-.1-.4-.5-17.2V8h-.1l-6.2 17.4c-.1.3-.4.5-.7.5h-1.4c-.1 0-.3 0-.4-.2a1 1 0 0 1-.2-.6ZM801 25.4l-.1.4-.3.2h-1.2l-.2-.2-.2-.4-.2-8.6h-2.9l-2.4 5.6-1.3 3.4-.2.2h-1.7c-.2 0-.3-.1-.3-.4v-.2l3.7-9c-1-.4-2-1-2.5-2-.7-1.1-1-2.4-1-3.9v-.2C790 6.1 792 4 796 4a34 34 0 0 1 4.2.3l.2.6.6 20.5Zm-2.3-11-.2-8H796c-1.5 0-2.5.3-3.1 1-.7.5-1 1.5-1 2.9v.2c.1 1.5.5 2.6 1.2 3.2.7.6 1.7.9 3.1.9l2.4-.1ZM821 25.4l-.1.4-.3.2h-1.1s-.3 0-.3-.2a1 1 0 0 1-.2-.4l-.3-9.8h-7.4l.3 9.8-.1.4-.3.2H810s-.3 0-.3-.2l-.2-.4-.6-20.8.1-.4.3-.2h1.1s.3 0 .3.2l.2.4.2 8.6h7.5l-.3-8.6.1-.4.3-.2h1.1s.3 0 .3.2l.2.4.6 20.8ZM835 26.4c0 .2 0 .3-.2.3a85.2 85.2 0 0 1-4.5.3c-1.7 0-2.9-.4-3.7-1.4-.8-.9-1.2-2.3-1.3-4.2L825 9.7c0-2 .3-3.4 1-4.3.8-1 2-1.4 3.7-1.4a75.6 75.6 0 0 1 4.5.2v.2l.1.2V6c0 .3 0 .4-.2.4h-4.3c-1 0-1.7.2-2.2.5-.4.4-.6 1.3-.5 2.7l.1 4.2h7s.2 0 .3.2l.1.4V16c-.1.2-.2.2-.4.2h-7l.2 5.2c0 1.2.3 2 .6 2.5.4.4 1.2.6 2.3.6h4.4c.1 0 .2.1.2.4l.1 1.5ZM849 17.4a13 13 0 0 1-1.4 7.1 4.8 4.8 0 0 1-4.3 2.5 5 5 0 0 1-4.4-2.4c-1.1-1.7-1.7-4-1.8-7.1v-4c-.2-3.2.3-5.6 1.3-7.1 1-1.6 2.5-2.4 4.3-2.4a5 5 0 0 1 4.4 2.4c1 1.6 1.7 4 1.8 7.1v4Zm-2 0-.1-3.9c-.2-4.7-1.5-7-4.2-7-2.6 0-3.8 2.4-3.7 7l.1 4c.1 4.7 1.5 7 4.2 7 2.6 0 3.8-2.4 3.7-7ZM863 19.8c.1 4.1-2 6.2-6.1 6.2l-2.7-.1c-.8 0-1.3-.2-1.4-.4l-.2-.8-.6-20.1c0-.4.1-.6.4-.6h8.2s.2 0 .3.2l.2.4v1.2l-.1.4-.3.2H854l.2 6.8 2.3-.2c4.2 0 6.4 2.1 6.5 6.3v.5Zm-2 0v-.6c0-1.3-.4-2.3-1-3-.7-.6-1.9-.9-3.5-.9l-2.2.1.2 8.2 2.3.2c1.6 0 2.7-.4 3.3-1 .7-.6 1-1.6 1-3ZM878 25.2v.3c0 .3-.1.5-.4.5h-1.4l-.3-.3-4.5-8.8-2.6 6a39.4 39.4 0 0 1-1.5 3.1H866c-.3 0-.4-.1-.4-.4v-.3l4.7-10.5-5.2-10-.1-.3c0-.3.1-.5.3-.5h1.5l.2.1.6 1 3.9 7.6 2.2-5.3a447.4 447.4 0 0 0 1.5-3.4h1.6c.2 0 .4.1.4.4l-.1.3-4.5 10.2 5.3 10.3ZM891 17.4a13 13 0 0 1-1.4 7.1 4.8 4.8 0 0 1-4.3 2.5 5 5 0 0 1-4.4-2.4c-1.1-1.7-1.7-4-1.8-7.1v-4c-.2-3.2.3-5.6 1.3-7.1 1-1.6 2.5-2.4 4.3-2.4a5 5 0 0 1 4.4 2.4c1 1.6 1.7 4 1.8 7.1v4Zm-2 0-.1-3.9c-.2-4.7-1.5-7-4.2-7-2.6 0-3.8 2.4-3.7 7l.1 4c.1 4.7 1.5 7 4.2 7 2.6 0 3.8-2.4 3.7-7ZM893.4 23h.6l3.2-17.7c.3-1.5 1-2.3 2.2-2.3 1.2 0 1.9.7 2.3 2.2l4.1 17.7h.6c.3 0 .4.2.4.6l.2 4.8-.1.5-.3.1h-1.2l-.3-.1v-.4l-.2-3h-9.8v3.4l-.3.2h-1.2s-.2 0-.3-.2l-.1-.4-.2-4.8c0-.4.1-.6.4-.6ZM899 5.9l-2.9 17h7.7l-4-17c0-.4-.2-.6-.4-.6s-.3.2-.4.6ZM909.6 25.1 909 4.6c0-.4.1-.6.4-.6h1.1s.2 0 .3.2l.1.4.5 17.3 6.3-17.3c0-.2.1-.4.3-.5l.5-.1h1.2c.2 0 .4 0 .5.2l.2.6.6 20.8c0 .2-.1.4-.4.4h-1.1s-.2 0-.3-.2l-.1-.4-.5-17.2V8h-.1l-6.2 17.4c-.1.3-.4.5-.7.5h-1.4c-.1 0-.3 0-.4-.2a1 1 0 0 1-.2-.6ZM938 25.3c0 .2 0 .4-.2.5l-.3.1h-1l-.3-.1a1 1 0 0 1-.2-.4l-.5-17.6-2 5.7a350.4 350.4 0 0 1-1.4 3.8l-.5.1h-1a1 1 0 0 1-.6-.1c-.2-.1-.3-.4-.5-.7L927 10c-.5-1.5-.9-2.2-.9-2.2l.6 17.6-.1.4-.4.2h-1s-.3 0-.3-.2a1 1 0 0 1-.2-.4L924 5c0-.2 0-.4.2-.6.1-.2.2-.3.4-.3h1.4c.4 0 .6.2.8.5l4 10.2c0 .2.1.3.2.3l.3-.3 3.3-10.2c.1-.3.3-.5.7-.5h1.4c.2 0 .4 0 .5.2l.2.7.6 20.5ZM953 16.4a13 13 0 0 1-1.4 7.1 4.8 4.8 0 0 1-4.3 2.5 5 5 0 0 1-4.4-2.4c-1.1-1.7-1.7-4-1.8-7.1v-4c-.2-3.2.3-5.6 1.3-7.1 1-1.6 2.5-2.4 4.3-2.4a5 5 0 0 1 4.4 2.4c1 1.6 1.7 4 1.8 7.1v4Zm-2 0-.1-3.9c-.1-4.7-1.5-7-4.1-7-2.6 0-3.9 2.4-3.8 7l.1 4c.2 4.7 1.6 7 4.2 7s3.8-2.4 3.7-7ZM971 24.4l-.5-17.7c0-.5 0-.8-.2-1-.1-.2-.4-.3-.8-.3H964c-.5 0-.7.2-.8.3l-.2 1 .5 17.7v.4l-.4.2H962s-.2 0-.3-.2a1 1 0 0 1-.2-.4L961 6.7c0-2.4.9-3.7 2.9-3.7h5.5c2 0 3 1.2 3 3.7l.6 17.7-.1.4-.3.2h-1.1l-.3-.2a1 1 0 0 1-.2-.4ZM988 9.7c.1 4.4-2 6.6-6.3 6.6l-2.3-.1.3 8.2-.1.4-.3.2H978s-.2 0-.3-.2l-.2-.4L977 4c0-.2 0-.4.2-.6l1.7-.3 2.5-.1c4.2 0 6.5 2 6.6 6.3v.4Zm-2.1 0v-.3c0-1.5-.4-2.5-1.2-3.2-.7-.6-1.8-1-3.3-1l-2.3.2.2 8.6 2.4.1c1.5 0 2.6-.3 3.3-1 .6-.7 1-1.8.9-3.4ZM1002 16.4a13 13 0 0 1-1.4 7.1 4.8 4.8 0 0 1-4.3 2.5 5 5 0 0 1-4.4-2.4c-1.1-1.7-1.7-4-1.8-7.1v-4c-.2-3.2.3-5.6 1.3-7.1 1-1.6 2.5-2.4 4.3-2.4 1.8 0 3.3.8 4.4 2.4 1 1.6 1.7 4 1.8 7.1v4Zm-2 0-.1-3.9c-.1-4.7-1.5-7-4.1-7-2.6 0-3.9 2.4-3.8 7l.1 4c.2 4.7 1.6 7 4.2 7s3.8-2.4 3.7-7ZM1016.9 24.3l.1.3c0 .2 0 .4-.3.4h-1.8c-.2 0-.4-.1-.5-.3l-7-10.1.4 9.8-.1.4-.3.2h-1.3s-.2 0-.3-.2l-.1-.4-.7-20.8.1-.4.3-.2h1.3s.2 0 .3.2l.1.4.3 9.5 6.5-9.8c.1-.2.3-.3.5-.3h1.6c.2 0 .4.1.4.3l-.1.3-6.8 10.1 7.5 10.6h-.1ZM1029 16.4a13 13 0 0 1-1.4 7.1 4.8 4.8 0 0 1-4.3 2.5 5 5 0 0 1-4.4-2.4c-1.1-1.7-1.7-4-1.8-7.1v-4c-.2-3.2.3-5.6 1.3-7.1 1-1.6 2.5-2.4 4.3-2.4 1.8 0 3.3.8 4.4 2.4 1 1.6 1.7 4 1.8 7.1v4Zm-2 0-.1-3.9c-.2-4.7-1.5-7-4.1-7-2.6 0-3.9 2.4-3.8 7l.1 4c.2 4.7 1.6 7 4.2 7s3.8-2.4 3.7-7ZM1044 24.4l-.1.4-.3.2h-1.1s-.3 0-.3-.2a1 1 0 0 1-.2-.4l-.3-9.8h-7.4l.3 9.8-.1.4-.3.2h-1.2s-.2 0-.3-.2l-.1-.4-.6-20.8.1-.4.3-.2h1.1s.3 0 .3.2l.2.4.2 8.6h7.5l-.3-8.6.1-.4.3-.2h1.2s.2 0 .3.2l.1.4.6 20.8ZM1058 25c0 .2 0 .4-.2.5l-1.3.3-2.8.2c-2 0-3.5-.8-4.7-2.4-1.1-1.6-1.8-3.9-1.8-7l-.2-4.2a12 12 0 0 1 1.5-7c1-1.6 2.5-2.4 4.4-2.4a17.1 17.1 0 0 1 4.3.5V4l.1 1.5c0 .2 0 .3-.3.3l-4-.2c-2.7 0-4 2.3-3.8 6.9l.1 4.2c0 2.3.5 4 1.2 5.2a3.5 3.5 0 0 0 3.1 1.7l2.3-.1 1.7-.2c.2 0 .4.2.4.5V25ZM1070 3.7l-4.3 16.8c-.5 2-1 3.1-1.6 3.7-.6.5-1.4.8-2.5.8-1.2 0-1.8-.2-1.8-.6V23c0-.3.1-.5.4-.5l1.3.1a2 2 0 0 0 1.2-.3c.3-.2.5-.5.6-1l1-4c-.5 0-.8 0-1-.3l-.6-1.4-3.7-11.8v-.3c0-.3.1-.5.3-.5h1.4c.1 0 .3.2.3.4l3.4 11c0 .3.1.4.2.5h.3l3-11.5c.1-.3.3-.4.4-.4h1.4c.2 0 .3.1.3.4v.3ZM1080.9 24.5 1076.3 6c0-.4-.2-.6-.4-.6s-.4.2-.4.6l-3.4 18.7c0 .3-.2.4-.4.4h-1.3c-.3 0-.4-.1-.4-.5v-.2l3.6-19c.3-1.5 1-2.3 2.3-2.3 1.2 0 2 .7 2.3 2.2l4.8 19v.3c0 .3-.1.5-.4.5h-1.3c-.2 0-.3-.2-.4-.5ZM1095 18.7c.1 4.2-2 6.3-6.1 6.3l-2.7-.1c-.8 0-1.3-.2-1.4-.4l-.2-.8-.6-20.1c0-.4.1-.6.4-.6h1.1c.3 0 .5.2.5.6l.2 8.6 2.3-.2c4.2 0 6.3 2 6.5 6.2v.5Zm-2 0v-.5c0-1.3-.3-2.3-1-3-.7-.6-1.8-1-3.4-1l-2.3.2.3 8.2 2.2.2c1.6 0 2.7-.4 3.4-1 .6-.7.9-1.7.9-3ZM1106 4.8c0 .3-.1.5-.4.5h-4.5l.6 19.1-.1.4-.3.2h-1.3s-.2 0-.3-.2l-.1-.4-.6-19h-4.5c-.3 0-.5-.2-.5-.5V3.6l.1-.4.4-.2h11c.3 0 .5.2.5.5v1.3ZM1108.6 24.1l-.6-20.5c0-.4.1-.6.4-.6h1.1s.2 0 .3.2l.1.4.5 17.3 6.3-17.3c0-.2.1-.4.3-.5l.5-.1h1.2c.2 0 .4 0 .5.2l.2.6.6 20.8c0 .2-.1.4-.4.4h-1.1s-.2 0-.3-.2l-.1-.4-.5-17.2V7h-.1l-6.2 17.4c-.1.3-.4.5-.7.5h-1.4c-.1 0-.3 0-.4-.2a1 1 0 0 1-.2-.6ZM1135 8.7c.1 4.4-2 6.6-6.3 6.6l-2.3-.1.3 8.2-.1.4-.3.2h-1.2s-.3 0-.3-.2l-.2-.4L1124 3c0-.2 0-.4.2-.6l1.7-.3 2.4-.1c4.4 0 6.6 2 6.7 6.3v.4Zm-2.1 0v-.3c0-1.5-.4-2.5-1.2-3.2-.7-.6-1.8-1-3.3-1l-2.3.2.3 8.6 2.3.1c1.5 0 2.6-.3 3.3-1 .7-.7 1-1.8.9-3.4ZM1149 15.4a13 13 0 0 1-1.4 7.1 4.8 4.8 0 0 1-4.3 2.5 5 5 0 0 1-4.4-2.4c-1.1-1.7-1.7-4-1.8-7.1v-4c-.2-3.2.3-5.6 1.3-7.1 1-1.6 2.5-2.4 4.3-2.4 1.8 0 3.3.8 4.4 2.4 1 1.6 1.7 4 1.8 7.1v4Zm-2 0-.1-3.9c-.2-4.7-1.5-7-4.1-7-2.6 0-3.9 2.4-3.8 7l.1 4c.2 4.7 1.6 7 4.2 7s3.8-2.4 3.7-7ZM1163 18.5c.1 4.3-2 6.5-6.1 6.5l-2.7-.1c-.8 0-1.3-.2-1.4-.4l-.2-.9-.6-20.2v-.7l.4-.4 1.3-.2 2.4-.1c4.2 0 6.4 2 6.5 5.8v.5c0 1.1-.1 2.1-.5 3a4 4 0 0 1-1.7 1.8 4 4 0 0 1 1.8 1.9c.5.9.7 1.9.8 3v.5Zm-2.3-10.2v-.5c0-1.2-.4-2-1-2.6-.7-.6-1.9-.9-3.5-.9l-2.2.1.2 7.6h3.4c2 0 3.1-1.3 3-3.7Zm.3 10.2V18c0-2.6-1.2-3.8-3.3-3.8h-3.4l.3 8.3 2.2.2c1.6 0 2.7-.4 3.4-1 .6-.7 1-1.7.9-3.2ZM1168.3 16.8l-1.2 6.8-.1.3-.3.1h-1.3c-.3 0-.4-.1-.4-.5v-.2l3.6-19c.3-1.5 1-2.3 2.3-2.3 1.2 0 2 .7 2.3 2.2l4.8 19v.3c0 .3-.1.5-.4.5h-1.3s-.2 0-.3-.2l-.3-1-1.5-6h-5.8Zm5.4-2.3-1.8-7.5-.6-2.3v-.2l-.2-.1h-.4l-.1.2-.3 1.6-1.5 8.3h5-.1ZM1188 3.8c0 .3-.1.5-.4.5h-4.5l.6 19.1-.1.4-.3.2h-1.3s-.2 0-.3-.2l-.1-.4-.6-19h-4.5c-.3 0-.5-.2-.5-.5V2.6l.1-.4.4-.2h11c.3 0 .5.2.5.5v1.3ZM1201 17.7c.1 4.2-2 6.3-6.1 6.3l-2.7-.1c-.8 0-1.3-.2-1.4-.4l-.2-.8-.6-20.1c0-.4.1-.6.4-.6h1.1c.3 0 .5.2.5.6l.2 8.6 2.3-.2c4.2 0 6.3 2 6.5 6.2v.5Zm-2 0v-.5c0-1.3-.3-2.3-1-3-.7-.6-1.8-1-3.4-1l-2.3.2.3 8.2 2.2.2c1.6 0 2.7-.4 3.4-1 .6-.7.9-1.7.9-3ZM1214 24c0 .2 0 .4-.2.5l-1.3.3-2.8.2c-2 0-3.5-.8-4.7-2.4-1.1-1.6-1.8-3.9-1.8-7l-.2-4.2a12 12 0 0 1 1.5-7c1-1.6 2.5-2.4 4.4-2.4a17.1 17.1 0 0 1 4.3.5V3l.1 1.5c0 .2 0 .3-.3.3l-4-.2c-2.7 0-4 2.3-3.8 6.9l.1 4.2c0 2.3.5 4 1.2 5.2a3.5 3.5 0 0 0 3.1 1.7l2.3-.1 1.7-.2c.2 0 .4.2.4.5V24ZM1227 23.4l-.1.4-.3.2h-1.2l-.2-.2-.2-.4-.2-8.6h-3l-2.3 5.6-1.3 3.4-.2.2h-1.7c-.2 0-.3-.1-.3-.4v-.2l3.7-9c-1-.4-2-1-2.5-2-.7-1.1-1-2.4-1-3.9v-.2C1216 4.1 1218 2 1222 2a34 34 0 0 1 4.2.3l.2.6.6 20.5Zm-2.3-11-.2-8h-2.4c-1.5 0-2.5.3-3.1 1-.7.5-1 1.5-1 2.9v.2c.1 1.5.5 2.6 1.2 3.2.7.6 1.7.9 3.1.9l2.4-.1ZM1246 24c0 .2 0 .4-.2.5l-1.3.3-2.8.2c-2 0-3.5-.8-4.7-2.4-1.1-1.6-1.8-3.9-1.8-7l-.2-4.2a12 12 0 0 1 1.5-7c1-1.6 2.5-2.4 4.4-2.4a17.1 17.1 0 0 1 4.3.5V3l.1 1.5c0 .2 0 .3-.3.3l-4-.2c-2.7 0-4 2.3-3.8 6.9l.1 4.2c0 2.3.5 4 1.2 5.2a3.5 3.5 0 0 0 3.1 1.7l2.3-.1 1.7-.2c.2 0 .4.2.4.5V24ZM1258 15.4a13 13 0 0 1-1.4 7.1 4.8 4.8 0 0 1-4.3 2.5 5 5 0 0 1-4.4-2.4c-1.1-1.7-1.7-4-1.8-7.1v-4c-.2-3.2.3-5.6 1.3-7.1 1-1.6 2.5-2.4 4.3-2.4 1.8 0 3.3.8 4.4 2.4 1 1.6 1.7 4 1.8 7.1v4Zm-2 0-.1-3.9c-.2-4.7-1.5-7-4.2-7-2.6 0-3.8 2.4-3.7 7l.1 4c.2 4.7 1.5 7 4.2 7 2.6 0 3.8-2.4 3.7-7ZM1277 24c0 .2 0 .4-.2.5l-1.3.3-2.8.2c-2 0-3.5-.8-4.7-2.4-1.1-1.6-1.8-3.9-1.8-7l-.2-4.2a12 12 0 0 1 1.5-7c1-1.6 2.5-2.4 4.4-2.4a17.1 17.1 0 0 1 4.3.5V3l.1 1.5c0 .2 0 .3-.3.3l-4-.2c-2.7 0-4 2.3-3.8 6.9l.1 4.2c0 2.3.5 4 1.2 5.2a3.5 3.5 0 0 0 3.1 1.7l2.3-.1 1.7-.2c.2 0 .4.2.4.5V24ZM1289 23.4l-.5-17.7c0-.5 0-.8-.2-1-.1-.2-.4-.3-.8-.3h-5.5c-.5 0-.7.2-.8.3-.2.2-.2.5-.2 1l.5 17.7v.4l-.4.2h-1.1s-.2 0-.3-.2a1 1 0 0 1-.2-.4l-.5-17.7c0-2.4.9-3.7 2.9-3.7h5.5c2 0 3 1.2 3 3.7l.6 17.7-.1.4-.3.2h-1.1l-.3-.2-.2-.4ZM1304 24.4c0 .2 0 .3-.2.3a85.2 85.2 0 0 1-4.5.3c-1.7 0-2.9-.4-3.7-1.4-.8-.9-1.2-2.3-1.3-4.2l-.3-11.7c0-2 .3-3.4 1-4.3.8-1 2-1.4 3.7-1.4a75.9 75.9 0 0 1 4.5.2v.2l.1.2V4c0 .3 0 .4-.2.4h-4.3c-1 0-1.7.2-2.1.5-.5.4-.7 1.3-.6 2.7l.1 4.2h7s.2 0 .3.2l.1.4V14c-.1.2-.2.2-.4.2h-7l.2 5.2c0 1.2.3 2 .6 2.5.4.4 1.2.6 2.3.6h4.4c.1 0 .3.1.3.4v1.5ZM1318.8 24.4h-8c-2.1 0-3.2-1.2-3.3-3.7l-.5-18 .1-.5.3-.2h1.2s.2 0 .3.2l.1.4.6 18c0 .6 0 1 .2 1.1.1.2.4.3.8.3h5.7c.4 0 .7-.1.8-.3l.2-1-.6-18c0-.3 0-.4.2-.5 0-.1.1-.2.3-.2h1.1s.3 0 .3.2l.2.4.5 18V22h1.1c.3 0 .4.2.4.6l.2 4.9-.1.4-.3.2h-1.2s-.2 0-.3-.2l-.1-.4-.1-3ZM1322.6 23.1l-.6-20.5c0-.4.1-.6.4-.6h1.1s.2 0 .3.2l.1.4.5 17.3 6.3-17.3c0-.2.1-.4.3-.5l.5-.1h1.2c.2 0 .4 0 .5.2l.2.6.6 20.8c0 .2-.1.4-.4.4h-1.1s-.2 0-.3-.2l-.1-.4-.5-17.2V6h-.1l-6.2 17.4c-.1.3-.4.5-.7.5h-1.4c-.1 0-.3 0-.4-.2a1 1 0 0 1-.2-.6ZM1340.3 16.8l-1.2 6.8-.1.3-.3.1h-1.3c-.3 0-.4-.1-.4-.5v-.2l3.6-19c.3-1.5 1-2.3 2.3-2.3 1.2 0 2 .7 2.3 2.2l4.8 19v.3c0 .3-.1.5-.4.5h-1.3s-.2 0-.3-.2l-.3-1-1.5-6h-5.8Zm5.4-2.3-1.8-7.5-.6-2.3v-.2l-.2-.1h-.4l-.1.2-.4 1.6-1.5 8.3h5ZM1361.9 22.5 1357.3 4c0-.4-.2-.6-.4-.6s-.4.2-.4.6l-3.4 18.7c0 .3-.2.4-.4.4h-1.3c-.3 0-.4-.1-.4-.5v-.2l3.6-19c.3-1.5 1-2.3 2.3-2.3 1.2 0 2 .7 2.3 2.2l4.8 19v.3c0 .3-.1.5-.4.5h-1.3c-.2 0-.3-.2-.4-.5ZM1366.6 23.1l-.6-20.5c0-.4.1-.6.4-.6h1.1s.2 0 .3.2l.1.4.5 17.3 6.3-17.3c0-.2.1-.4.3-.5l.5-.1h1.2c.2 0 .4 0 .5.2l.2.6.6 20.8c0 .2-.1.4-.4.4h-1.1s-.2 0-.3-.2l-.1-.4-.5-17.2V6h-.1l-6.2 17.4c-.1.3-.4.5-.7.5h-1.4c-.1 0-.3 0-.4-.2a1 1 0 0 1-.2-.6ZM1392 23c0 .2 0 .4-.2.5l-1.3.3-2.8.2c-2 0-3.5-.8-4.7-2.4-1.1-1.6-1.8-3.9-1.8-7l-.2-4.2a12 12 0 0 1 1.5-7c1-1.6 2.5-2.4 4.4-2.4a17.1 17.1 0 0 1 4.3.5V2l.1 1.5c0 .2 0 .3-.3.3l-4-.2c-2.7 0-4 2.3-3.8 6.9l.1 4.2c0 2.3.5 4 1.2 5.2a3.5 3.5 0 0 0 3.1 1.7l2.3-.1 1.7-.2c.2 0 .4.2.4.5V23ZM1404 2.8c0 .3-.1.5-.4.5h-4.5l.6 19.1-.1.4-.3.2h-1.3s-.2 0-.3-.2l-.1-.4-.6-19h-4.5c-.3 0-.5-.2-.5-.5V1.6l.1-.4.4-.2h11c.3 0 .5.2.5.5v1.3ZM1417 14.4a13 13 0 0 1-1.4 7.1 4.8 4.8 0 0 1-4.3 2.5 5 5 0 0 1-4.4-2.4c-1.1-1.7-1.7-4-1.8-7.1v-4c-.2-3.2.3-5.6 1.3-7.1 1-1.6 2.5-2.4 4.3-2.4 1.8 0 3.3.8 4.4 2.4 1 1.6 1.7 4 1.8 7.1v4Zm-2 0-.1-3.9c-.2-4.7-1.5-7-4.1-7-2.6 0-3.9 2.4-3.8 7l.1 4c.2 4.7 1.6 7 4.2 7s3.8-2.4 3.7-7ZM1434 22.3c0 .2 0 .4-.2.5l-.3.1h-1l-.3-.1a1 1 0 0 1-.2-.4l-.5-17.6-2 5.7-1 3.4-.4.4-.5.1h-1a1 1 0 0 1-.6-.1c-.2-.1-.3-.4-.5-.7L1423 7l-.9-2.2.6 17.6-.1.4-.3.2h-1.1s-.3 0-.3-.2l-.2-.4L1420 2c0-.2 0-.4.2-.6.1-.2.2-.3.4-.3h1.4c.4 0 .6.2.8.5l4 10.2c0 .2.1.3.2.3l.3-.3 3.3-10.2c.1-.3.3-.5.7-.5h1.4c.2 0 .3 0 .5.2l.2.7.6 20.5Z"/>
</svg>
