<svg width="356" height="11" viewBox="0 0 356 11" fill="none" xmlns="http://www.w3.org/2000/svg">
<g clip-path="url(#clip0_310_971)">
<path d="M2.23431 3.00978C2.23431 3.08825 2.2156 3.13075 2.17817 3.13075L1.13649 3.13729C0.89946 3.13729 0.731045 3.19614 0.631243 3.30403C0.531441 3.41519 0.48154 3.69963 0.494015 4.15735L0.61253 9.47018C0.61253 9.52576 0.606292 9.57153 0.581342 9.60749C0.562629 9.64673 0.537679 9.66634 0.506491 9.66634H0.232036C0.232036 9.66634 0.175897 9.64999 0.157184 9.61076C0.138471 9.57153 0.125996 9.52576 0.119759 9.47344L0.00124385 4.15735C-0.0112314 3.52308 0.0698576 3.05882 0.256986 2.77111C0.437877 2.4834 0.724807 2.33628 1.11154 2.33301C1.14896 2.33301 1.32986 2.33301 1.66045 2.34282C1.99104 2.34936 2.1657 2.36897 2.19065 2.40167C2.20936 2.43436 2.22183 2.47686 2.22183 2.52263L2.23431 3.00978Z" fill="#B4ABA8"/>
<path d="M5.70882 4.5746C5.74194 6.03406 5.22522 6.76706 4.15867 6.7736C4.01955 6.7736 3.83406 6.76051 3.58233 6.72779L3.64857 9.47C3.64857 9.52236 3.64195 9.5649 3.62208 9.60744C3.6022 9.64671 3.58233 9.66634 3.54921 9.66634H3.24448C3.24448 9.66634 3.19148 9.64998 3.1716 9.61071C3.15173 9.57144 3.13848 9.52563 3.13848 9.47327L2.97949 2.66356C2.97949 2.59484 2.99274 2.53267 3.01924 2.47704C3.04574 2.42141 3.19148 2.38541 3.44321 2.36578C3.69495 2.34614 3.90031 2.33305 4.0593 2.33305C5.12586 2.32651 5.6757 3.03006 5.70882 4.4437V4.57133V4.5746ZM5.18548 4.57787V4.45025C5.17223 3.96922 5.07948 3.62235 4.90062 3.40965C4.72176 3.19695 4.45015 3.08896 4.06592 3.09223C3.88043 3.09223 3.68832 3.10859 3.49621 3.13477L3.56246 5.99806C3.91356 6.02097 4.10567 6.03406 4.13879 6.03406C4.52302 6.03406 4.79463 5.91952 4.96024 5.69701C5.12586 5.47449 5.19873 5.10144 5.18548 4.58114V4.57787Z" fill="#B4ABA8"/>
<path d="M6.53948 7.26879L6.23489 9.52242C6.23489 9.57476 6.21545 9.61074 6.19601 9.63363C6.17656 9.65653 6.15712 9.66634 6.13768 9.66634H5.80717C5.74236 9.66634 5.70996 9.61728 5.70996 9.51261C5.70996 9.48971 5.70996 9.46682 5.70996 9.44719L6.60428 3.08207C6.67557 2.5849 6.85703 2.33631 7.16161 2.33304C7.4662 2.32977 7.65414 2.57508 7.74487 3.06572L8.93082 9.42757C8.93082 9.42757 8.93082 9.46355 8.9373 9.49299C8.9373 9.59765 8.91138 9.64999 8.84657 9.64999H8.51606C8.51606 9.64999 8.47069 9.64017 8.45773 9.61074C8.44477 9.5813 8.41237 9.46028 8.37349 9.24113L8.00409 7.25898L6.55244 7.26879H6.53948ZM7.868 6.48705L7.42084 4.01427C7.33011 3.5171 7.27827 3.25543 7.27827 3.23907C7.27827 3.21945 7.2653 3.19982 7.25882 3.17693C7.25234 3.15403 7.23938 3.13768 7.22642 3.12459C7.21346 3.11151 7.2005 3.10497 7.18106 3.10497C7.16161 3.10497 7.14217 3.11151 7.12921 3.12786C7.11625 3.14422 7.10329 3.16384 7.09681 3.19001C7.09033 3.21618 7.05793 3.40262 7.01256 3.74933L6.64317 6.49359L7.88096 6.48705H7.868Z" fill="#B4ABA8"/>
<path d="M12.6611 9.44862C12.6611 9.5047 12.6548 9.55088 12.6294 9.58717C12.604 9.62346 12.5849 9.64655 12.5531 9.64655H12.2863C12.2863 9.64655 12.2291 9.63005 12.21 9.59047C12.1846 9.55088 12.1782 9.5047 12.1719 9.45192L12.0385 3.61296C12.0385 3.58657 12.0385 3.57337 12.0385 3.57337C12.0385 3.57337 12.0321 3.58327 12.0257 3.60306L11.5556 5.5065C11.384 6.20585 11.2887 6.58192 11.276 6.6314C11.2633 6.68089 11.2379 6.72377 11.2061 6.75676C11.1743 6.78975 11.1298 6.80624 11.0663 6.80954H10.8121C10.7486 6.80954 10.7041 6.79305 10.666 6.75676C10.6279 6.72047 10.5961 6.6446 10.558 6.52914L9.91625 4.33871C9.77011 3.84058 9.69386 3.58987 9.69386 3.58987C9.69386 3.58987 9.69386 3.60306 9.69386 3.62945L9.82729 9.46841C9.82729 9.52449 9.82094 9.57067 9.79552 9.60696C9.77646 9.64655 9.75105 9.66634 9.71928 9.66634H9.45241C9.45241 9.66634 9.39523 9.64985 9.37616 9.61026C9.3571 9.57067 9.34439 9.52449 9.33804 9.47171L9.18555 2.6365C9.18555 2.55733 9.19825 2.48805 9.23002 2.43197C9.26179 2.37589 9.29992 2.3462 9.33804 2.3462H9.69386C9.78282 2.3462 9.84 2.39898 9.87177 2.51115L10.8566 5.88916C10.8757 5.95844 10.9011 5.99473 10.9202 5.99473C10.9392 5.99473 10.9646 5.95844 10.9837 5.88916L11.8161 2.50125C11.8415 2.38909 11.8987 2.33301 11.9876 2.33301H12.3434C12.3879 2.33301 12.426 2.3594 12.4578 2.41548C12.4896 2.47156 12.5086 2.54084 12.5086 2.62001L12.6611 9.45522V9.44862Z" fill="#B4ABA8"/>
<path d="M17.1299 9.44862C17.1299 9.5047 17.1235 9.55088 17.0981 9.58717C17.0727 9.62346 17.0536 9.64655 17.0219 9.64655H16.755C16.755 9.64655 16.6978 9.63005 16.6788 9.59047C16.6533 9.55088 16.647 9.5047 16.6406 9.45192L16.5072 3.61296C16.5072 3.58657 16.5072 3.57337 16.5072 3.57337C16.5072 3.57337 16.5009 3.58327 16.4945 3.60306L16.0243 5.5065C15.8528 6.20585 15.7574 6.58192 15.7447 6.6314C15.732 6.68089 15.7066 6.72377 15.6748 6.75676C15.6431 6.78975 15.5986 6.80624 15.5351 6.80954H15.2809C15.2174 6.80954 15.1729 6.79305 15.1348 6.75676C15.0966 6.72047 15.0649 6.6446 15.0267 6.52914L14.385 4.33871C14.2389 3.84058 14.1626 3.58987 14.1626 3.58987C14.1626 3.58987 14.1626 3.60306 14.1626 3.62945L14.296 9.46841C14.296 9.52449 14.2897 9.57067 14.2643 9.60696C14.2452 9.64655 14.2198 9.66634 14.188 9.66634H13.9212C13.9212 9.66634 13.864 9.64985 13.8449 9.61026C13.8259 9.57067 13.8131 9.52449 13.8068 9.47171L13.6543 2.6365C13.6543 2.55733 13.667 2.48805 13.6988 2.43197C13.7305 2.37589 13.7687 2.3462 13.8068 2.3462H14.1626C14.2516 2.3462 14.3088 2.39898 14.3405 2.51115L15.3254 5.88916C15.3444 5.95844 15.3699 5.99473 15.3889 5.99473C15.408 5.99473 15.4334 5.95844 15.4525 5.88916L16.2848 2.50125C16.3102 2.38909 16.3674 2.33301 16.4564 2.33301H16.8122C16.8567 2.33301 16.8948 2.3594 16.9266 2.41548C16.9583 2.47156 16.9774 2.54084 16.9774 2.62001L17.1299 9.45522V9.44862Z" fill="#B4ABA8"/>
<path d="M18.0242 9.38277L17.874 2.53415C17.874 2.40885 17.9053 2.3462 17.9679 2.3462H18.2558C18.2558 2.3462 18.3059 2.36268 18.3246 2.40225C18.3434 2.44182 18.3559 2.48469 18.3559 2.53085L18.4811 8.29134C18.4811 8.31113 18.4811 8.32102 18.4811 8.32102L20.027 2.53085C20.0457 2.45501 20.0708 2.40225 20.0958 2.37587C20.1208 2.34949 20.1709 2.33301 20.2398 2.33301H20.5402C20.584 2.33301 20.6215 2.35939 20.6528 2.41214C20.6841 2.4682 20.7029 2.53085 20.7029 2.60999L20.8531 9.53115C20.8531 9.61029 20.8218 9.64985 20.7592 9.65315H20.4776C20.4776 9.65315 20.4275 9.63666 20.4087 9.60039C20.39 9.56412 20.3775 9.51796 20.3775 9.4685L20.2523 3.7179C20.2523 3.69812 20.2523 3.68822 20.2523 3.68822C20.2523 3.68822 20.2398 3.69812 20.2335 3.7179L18.6876 9.50807C18.6563 9.61358 18.6 9.66634 18.5187 9.66634H18.1807C18.1369 9.66634 18.0993 9.63996 18.068 9.58391C18.0367 9.52785 18.018 9.46191 18.018 9.38607L18.0242 9.38277Z" fill="#B4ABA8"/>
<path d="M21.4373 8.99789H21.6064L22.3954 3.09578C22.458 2.58951 22.6396 2.33637 22.934 2.33304C23.2283 2.32971 23.4099 2.57952 23.4976 3.07913L24.5371 8.98124H24.6874C24.7501 8.98124 24.7876 9.04452 24.7876 9.16776L24.8252 10.7798C24.8252 10.8331 24.8189 10.8764 24.8002 10.9197C24.7814 10.9597 24.7626 10.9797 24.7313 10.9797H24.4307C24.4307 10.9797 24.3806 10.963 24.3618 10.9231C24.343 10.8831 24.3305 10.8365 24.3305 10.7832L24.3117 9.78728L21.8631 9.80393L21.8819 10.7998C21.8819 10.8531 21.8756 10.8964 21.8569 10.9397C21.8381 10.9797 21.8193 10.9997 21.788 10.9997H21.4874C21.4874 10.9997 21.4373 10.983 21.4185 10.9431C21.3997 10.9031 21.3872 10.8565 21.3872 10.8032L21.3496 9.19107C21.3496 9.0645 21.3809 9.00122 21.4435 9.00122L21.4373 8.99789ZM22.8463 3.29896L22.1261 8.99123L24.0299 8.9779L23.053 3.29563C23.0342 3.17572 22.9966 3.11577 22.9465 3.11577C22.8901 3.11577 22.8588 3.17572 22.84 3.29563L22.8463 3.29896Z" fill="#B4ABA8"/>
<path d="M25.4725 9.38277L25.3223 2.53415C25.3223 2.40885 25.3536 2.3462 25.4161 2.3462H25.704C25.704 2.3462 25.7541 2.36268 25.7729 2.40225C25.7917 2.44182 25.8042 2.48469 25.8042 2.53085L25.9293 8.29134C25.9293 8.31113 25.9293 8.32102 25.9293 8.32102L27.4752 2.53085C27.494 2.45501 27.519 2.40225 27.5441 2.37587C27.5691 2.34949 27.6192 2.33301 27.688 2.33301H27.9884C28.0322 2.33301 28.0698 2.35939 28.1011 2.41214C28.1324 2.4682 28.1511 2.53085 28.1511 2.60999L28.3013 9.53115C28.3013 9.61029 28.2701 9.64986 28.2075 9.65315H27.9258C27.9258 9.65315 27.8758 9.63667 27.857 9.60039C27.8382 9.56412 27.8257 9.51796 27.8257 9.4685L27.7005 3.7179C27.7005 3.69812 27.7005 3.68822 27.7005 3.68822C27.7005 3.68822 27.688 3.69812 27.6817 3.7179L26.1359 9.50807C26.1046 9.61358 26.0483 9.66634 25.9669 9.66634H25.6289C25.5851 9.66634 25.5476 9.63996 25.5163 9.58391C25.485 9.52785 25.4662 9.46191 25.4662 9.38607L25.4725 9.38277Z" fill="#B4ABA8"/>
<path d="M32.273 9.45522C32.273 9.5113 32.2668 9.55748 32.2419 9.59377C32.2232 9.63335 32.1982 9.65315 32.1671 9.65315H31.8928C31.8928 9.65315 31.843 9.63665 31.8181 9.59707C31.7931 9.55748 31.7869 9.5113 31.7807 9.45851L31.7059 6.18606L29.8611 6.19596L29.9359 9.46841C29.9359 9.52449 29.9297 9.57068 29.9047 9.60696C29.886 9.64655 29.8611 9.66634 29.8299 9.66634H29.5557C29.5557 9.66634 29.4996 9.64985 29.4809 9.61026C29.4622 9.57067 29.4498 9.52449 29.4435 9.47171L29.2939 2.54413C29.2939 2.48805 29.3002 2.44187 29.3251 2.40558C29.3438 2.366 29.3687 2.3462 29.3999 2.3462H29.6741C29.6741 2.3462 29.7302 2.3627 29.7489 2.40228C29.7738 2.44187 29.7801 2.48805 29.7863 2.54084L29.8486 5.39764L31.6934 5.38774L31.6311 2.53094C31.6311 2.47486 31.6373 2.42867 31.6623 2.39239C31.6809 2.3528 31.7059 2.33301 31.737 2.33301H32.0113C32.0113 2.33301 32.0674 2.3495 32.0861 2.38909C32.111 2.42867 32.1172 2.47486 32.1234 2.52764L32.273 9.45522Z" fill="#B4ABA8"/>
<path d="M35.7422 4.99967C35.7486 5.36828 35.7167 5.71363 35.6466 6.03907C35.5764 6.3645 35.4744 6.64676 35.3468 6.88585C35.2193 7.12495 35.0662 7.31423 34.8877 7.4537C34.7091 7.59317 34.5178 7.66291 34.3137 7.66623C34.1096 7.66955 33.9119 7.59981 33.7333 7.46034C33.5484 7.32419 33.3889 7.13491 33.2486 6.89582C33.1083 6.65672 32.9935 6.37778 32.9106 6.05235C32.8277 5.72692 32.7767 5.38156 32.7703 5.01296C32.764 4.64436 32.7958 4.299 32.866 3.97357C32.9361 3.64813 33.0382 3.36587 33.1657 3.12014C33.2933 2.8744 33.4463 2.68512 33.6249 2.54565C33.8035 2.40618 33.9948 2.33644 34.1989 2.33312C34.403 2.3298 34.6007 2.39954 34.7856 2.53901C34.9706 2.67516 35.13 2.86776 35.2703 3.10685C35.4106 3.34927 35.5254 3.63153 35.6083 3.95364C35.6912 4.27907 35.7422 4.62443 35.7486 4.99303L35.7422 4.99967ZM35.5126 4.99967C35.5063 4.68753 35.468 4.39198 35.3915 4.11968C35.3213 3.84406 35.2257 3.60496 35.1045 3.39908C34.9833 3.19319 34.8494 3.03048 34.6899 2.91093C34.5369 2.79138 34.3711 2.73493 34.1989 2.73493C34.0267 2.73493 33.8609 2.79802 33.7142 2.91757C33.5675 3.03712 33.4336 3.20315 33.3252 3.40904C33.2168 3.61493 33.1338 3.85734 33.0764 4.13296C33.019 4.40858 32.9935 4.70081 32.9999 5.01628C33.0063 5.33175 33.0446 5.62065 33.1211 5.89627C33.1912 6.16857 33.2869 6.40767 33.4017 6.61023C33.5165 6.8128 33.6568 6.97219 33.8099 7.08842C33.9629 7.20465 34.1287 7.26442 34.3009 7.2611C34.4731 7.25778 34.6389 7.20132 34.7856 7.08178C34.9387 6.96223 35.0662 6.80284 35.1746 6.59695C35.2831 6.39438 35.3723 6.15529 35.4297 5.87967C35.4871 5.60737 35.519 5.31182 35.5126 4.99967ZM34.9833 6.52057C34.9833 6.5571 34.9833 6.58699 34.9706 6.61355C34.9642 6.64012 34.945 6.6534 34.9195 6.6534H34.7665C34.7665 6.6534 34.741 6.64676 34.7282 6.63016C34.7155 6.61355 34.7091 6.59363 34.7027 6.5737L34.2244 5.3085L34.1542 5.27862H33.9374L33.9629 6.51061C33.9629 6.54714 33.9629 6.58035 33.9438 6.61355C33.9247 6.64676 33.9119 6.66336 33.8928 6.66336H33.7525C33.7525 6.66336 33.7078 6.64676 33.6951 6.61687C33.6823 6.58699 33.6759 6.55046 33.6759 6.51393L33.6122 3.52195C33.6122 3.3858 33.6377 3.31274 33.7078 3.29946C33.7269 3.29614 33.7588 3.29281 33.7907 3.28617C33.8226 3.27953 33.8609 3.27621 33.8991 3.27621C33.9374 3.27621 33.9757 3.27289 34.0203 3.26957C34.0586 3.26957 34.0968 3.26957 34.1287 3.26957C34.2435 3.26957 34.3456 3.28617 34.4348 3.31938C34.5241 3.35259 34.6007 3.40904 34.6644 3.48874C34.7282 3.56844 34.7792 3.67138 34.8111 3.79757C34.8494 3.92375 34.8685 4.08315 34.8685 4.26911V4.30896C34.8749 4.56466 34.8494 4.76058 34.7856 4.90337C34.7218 5.04284 34.6389 5.14579 34.5178 5.20888L34.9706 6.44752C34.9769 6.47408 34.9833 6.50397 34.9833 6.53386V6.52057ZM34.5879 4.25915C34.5879 4.06323 34.5496 3.92376 34.4795 3.84406C34.4093 3.76436 34.3009 3.72783 34.1479 3.72783H33.9693H33.8928L33.9183 4.83696C33.9183 4.83696 33.9565 4.83696 33.982 4.83696C34.0076 4.83696 34.0331 4.83696 34.0586 4.83696C34.0841 4.83696 34.1096 4.83696 34.1287 4.83696C34.1479 4.83696 34.167 4.83696 34.1798 4.83696C34.3328 4.83696 34.4412 4.79379 34.505 4.71077C34.5688 4.62775 34.6007 4.48828 34.5943 4.28572V4.24587L34.5879 4.25915Z" fill="#B4ABA8"/>
<path d="M38.9766 6.84194C38.9766 6.94313 38.9464 6.99372 38.88 6.99372L37.8407 6.99967C37.7742 6.99967 37.738 6.94908 37.738 6.84789V6.49967C37.7259 6.39253 37.7561 6.33896 37.8226 6.33896L38.8618 6.33301C38.9283 6.33301 38.9645 6.38658 38.9645 6.49372V6.84194H38.9766Z" fill="#B4ABA8"/>
<path d="M43.4163 9.50934L42.2887 3.28486C42.2692 3.16711 42.2303 3.10824 42.1785 3.10824C42.1202 3.10824 42.0878 3.16711 42.0683 3.28486L41.2388 9.51915C41.2258 9.61728 41.1934 9.66634 41.1416 9.66634H40.8111C40.7463 9.66634 40.7139 9.61728 40.7139 9.51261C40.7139 9.48971 40.7139 9.46682 40.7139 9.44719L41.6082 3.08207C41.6795 2.5849 41.8609 2.33631 42.1655 2.33304C42.4701 2.32977 42.658 2.57508 42.7488 3.06572L43.9347 9.42757C43.9347 9.42757 43.9347 9.46355 43.9412 9.49298C43.9412 9.59765 43.9153 9.64999 43.8505 9.64999H43.52C43.4746 9.64999 43.4422 9.60419 43.4228 9.50607L43.4163 9.50934Z" fill="#B4ABA8"/>
<path d="M46.9071 9.79953C46.9071 9.85041 46.9006 9.88773 46.8811 9.91487C46.8616 9.942 46.7447 9.96236 46.5238 9.97593C46.303 9.9895 46.0497 9.99628 45.7574 9.99967C45.3417 9.99967 45.0364 9.85041 44.8415 9.54849C44.6402 9.24319 44.5362 8.76826 44.5232 8.12372L44.4388 4.22593C44.4258 3.56782 44.5102 3.08611 44.7051 2.78758C44.8935 2.48906 45.1923 2.3364 45.595 2.33301C45.8158 2.33301 46.0042 2.33301 46.1601 2.33979C46.316 2.34658 46.4394 2.35336 46.5433 2.36693C46.6473 2.3805 46.7057 2.39068 46.7122 2.40425C46.7187 2.41782 46.7317 2.43478 46.7382 2.45852C46.7447 2.48227 46.7512 2.50602 46.7512 2.52976L46.7642 3.03522C46.7642 3.11664 46.7447 3.16074 46.7057 3.16074L45.621 3.16752C45.3741 3.16752 45.1988 3.22858 45.0948 3.34053C44.9909 3.45587 44.9389 3.751 44.9519 4.22593L44.9844 5.63714L46.7122 5.62696C46.7122 5.62696 46.7707 5.64731 46.7902 5.68463C46.8161 5.72534 46.8226 5.77283 46.8291 5.82711V6.20705C46.8356 6.26472 46.8291 6.31221 46.8096 6.34953C46.7902 6.39024 46.7642 6.41059 46.7317 6.41059L45.0039 6.42077L45.0429 8.12372C45.0494 8.5308 45.1013 8.80557 45.1923 8.95484C45.2832 9.1041 45.4716 9.17534 45.7574 9.17534L46.8421 9.16855C46.8876 9.16855 46.9071 9.20926 46.9071 9.29068L46.9201 9.80631L46.9071 9.79953Z" fill="#B4ABA8"/>
<path d="M50.3692 9.43212C50.3893 9.46841 50.3961 9.5047 50.3961 9.54758C50.3961 9.61356 50.3759 9.64985 50.3221 9.64985H49.8715C49.8177 9.64985 49.7707 9.62016 49.7438 9.55748L48.0222 6.18606L48.1029 9.46841C48.1029 9.52119 48.0962 9.56408 48.076 9.60696C48.0558 9.64655 48.0357 9.66634 48.002 9.66634H47.686C47.686 9.66634 47.6322 9.64985 47.612 9.61026C47.5918 9.57067 47.5784 9.52449 47.5784 9.47171L47.417 2.53424C47.417 2.48475 47.4237 2.44187 47.4439 2.40558C47.4641 2.366 47.491 2.3462 47.5246 2.3462H47.8339C47.8339 2.3462 47.8877 2.3627 47.9146 2.39898C47.9348 2.43527 47.9483 2.47816 47.9483 2.53094L48.0222 5.71432L49.6227 2.42538C49.6563 2.3627 49.69 2.33301 49.737 2.33301H50.154C50.2078 2.33301 50.2347 2.366 50.2414 2.43527C50.2414 2.47486 50.2414 2.50785 50.2212 2.53754L48.5468 5.89906L50.3826 9.43542L50.3692 9.43212Z" fill="#B4ABA8"/>
<path d="M51.7221 7.26879L51.4175 9.52242C51.4175 9.57476 51.3981 9.61074 51.3786 9.63363C51.3592 9.65653 51.3397 9.66634 51.3203 9.66634H50.9898C50.925 9.66634 50.8926 9.61728 50.8926 9.51261C50.8926 9.48971 50.8926 9.46682 50.8926 9.44719L51.7869 3.08207C51.8582 2.5849 52.0396 2.33631 52.3442 2.33304C52.6488 2.32977 52.8368 2.57508 52.9275 3.06572L54.1134 9.42757C54.1134 9.42757 54.1134 9.46355 54.1199 9.49298C54.1199 9.59765 54.094 9.64999 54.0292 9.64999H53.6987C53.6987 9.64999 53.6533 9.64017 53.6403 9.61074C53.6274 9.5813 53.595 9.46028 53.5561 9.24113L53.1867 7.25898L51.7351 7.26879H51.7221ZM53.0506 6.48705L52.6035 4.01427C52.5127 3.5171 52.4609 3.25543 52.4609 3.23907C52.4609 3.21945 52.4479 3.19982 52.4414 3.17693C52.435 3.15403 52.422 3.13768 52.409 3.12459C52.3961 3.11151 52.3831 3.10497 52.3637 3.10497C52.3442 3.10497 52.3248 3.11151 52.3118 3.12786C52.2989 3.14422 52.2859 3.16384 52.2794 3.19001C52.2729 3.21618 52.2405 3.40262 52.1952 3.74933L51.8258 6.49359L53.0636 6.48705H53.0506Z" fill="#B4ABA8"/>
<path d="M57.0975 4.24159C57.1306 5.70105 56.6139 6.43405 55.5473 6.4406C55.4082 6.4406 55.2227 6.42751 54.971 6.39478L55.0372 9.13699C55.0372 9.18935 55.0306 9.23189 55.0107 9.27443C54.9909 9.3137 54.971 9.33333 54.9379 9.33333H54.6331C54.6331 9.33333 54.5802 9.31697 54.5603 9.2777C54.5404 9.23844 54.5272 9.19262 54.5272 9.14027L54.3682 2.33055C54.3682 2.26183 54.3814 2.19966 54.4079 2.14403C54.4344 2.0884 54.5801 2.0524 54.8319 2.03277C55.0836 2.01313 55.289 2.00005 55.448 2.00005C56.5145 1.9935 57.0644 2.69705 57.0975 4.1107V4.23832V4.24159ZM56.5741 4.24486V4.11724C56.5609 3.63621 56.4682 3.28934 56.2893 3.07664C56.1104 2.86394 55.8388 2.75595 55.4546 2.75923C55.2691 2.75923 55.077 2.77559 54.8849 2.80177L54.9511 5.66505C55.3022 5.68796 55.4943 5.70105 55.5275 5.70105C55.9117 5.70105 56.1833 5.58652 56.3489 5.364C56.5145 5.14148 56.5874 4.76844 56.5741 4.24814V4.24486Z" fill="#B4ABA8"/>
<path d="M60.0783 9.32758C60.0783 9.40218 60.066 9.45983 60.0291 9.49373C59.9983 9.52764 59.8937 9.56494 59.7338 9.60563C59.5677 9.64293 59.3585 9.66328 59.1001 9.66667C58.6695 9.66667 58.3188 9.40557 58.0543 8.8766C57.7898 8.34763 57.6483 7.57113 57.6298 6.55049L57.5991 5.13991C57.5745 4.11249 57.6852 3.3326 57.9251 2.80024C58.165 2.26788 58.5034 2.00339 58.9402 2C59.1124 2 59.3093 2.02374 59.5307 2.0746C59.7522 2.12546 59.8691 2.16276 59.8937 2.1831C59.9122 2.20345 59.9245 2.23736 59.9245 2.28483L59.9368 2.80363C59.9368 2.87483 59.9122 2.91213 59.863 2.91213C59.4754 2.85449 59.1801 2.82736 58.9648 2.82736C58.3496 2.83075 58.0543 3.60047 58.0851 5.13313L58.1158 6.54371C58.1343 7.30326 58.2204 7.87292 58.3865 8.25947C58.5526 8.64264 58.7864 8.83591 59.0878 8.83252C59.2662 8.83252 59.4385 8.81896 59.6046 8.79861L59.9798 8.74775C60.0352 8.74775 60.066 8.80201 60.066 8.91051V9.32419L60.0783 9.32758Z" fill="#B4ABA8"/>
<path d="M63.5533 2.94384C63.5533 3.0495 63.5203 3.10233 63.4478 3.10233L62.334 3.10893L62.479 9.46823C62.479 9.52106 62.4724 9.56398 62.4526 9.60691C62.4329 9.64653 62.4131 9.66634 62.3801 9.66634H62.0638C62.0638 9.66634 62.011 9.64983 61.9913 9.61021C61.9715 9.57059 61.9583 9.52436 61.9583 9.47153L61.8133 3.11224L60.706 3.11884C60.6269 3.11884 60.5874 3.06601 60.5874 2.96035L60.5742 2.52781C60.5742 2.47829 60.5808 2.43867 60.6072 2.40235C60.6269 2.36603 60.6533 2.34952 60.6863 2.34952L63.4281 2.33301C63.5006 2.33301 63.5401 2.39244 63.5401 2.51131L63.5533 2.94384Z" fill="#B4ABA8"/>
<path d="M66.7793 7.50916C66.8104 8.94071 66.3005 9.65988 65.256 9.66667C65.0135 9.66667 64.7959 9.65649 64.5907 9.62935C64.3918 9.60221 64.2736 9.55472 64.2425 9.49027C64.2115 9.42581 64.1928 9.33083 64.1928 9.2087L64.0498 2.46141C64.0498 2.37321 64.0498 2.29858 64.0685 2.24091C64.0871 2.18324 64.112 2.14253 64.1431 2.11539C64.1742 2.08825 64.2923 2.06451 64.485 2.03737C64.6778 2.01362 64.8705 2.00005 65.0633 2.00005C66.114 1.99327 66.6549 2.6412 66.6798 3.94384V4.10668C66.6922 4.47644 66.6487 4.79871 66.5555 5.07687C66.4622 5.35504 66.3254 5.56198 66.1451 5.70445C66.3378 5.82997 66.4871 6.0369 66.599 6.32864C66.7109 6.62037 66.7669 6.95621 66.7793 7.33954V7.51255V7.50916ZM66.2011 4.10668V3.94384C66.1886 3.53677 66.1016 3.24164 65.9399 3.05506C65.7783 2.86848 65.4923 2.77689 65.0819 2.77689C65.026 2.77689 64.8519 2.78707 64.5472 2.81081L64.6032 5.32451L65.4301 5.31773C65.9586 5.31773 66.2135 4.91065 66.1948 4.10668H66.2011ZM66.2943 7.51255V7.33954C66.2695 6.48129 65.9959 6.05386 65.455 6.05725L64.628 6.06404L64.6902 8.84912C65.026 8.87626 65.2125 8.88983 65.2498 8.88983C65.6477 8.88983 65.9213 8.77449 66.0829 8.55399C66.2384 8.33349 66.313 7.98747 66.3068 7.51255H66.2943Z" fill="#B4ABA8"/>
<path d="M69.995 9.46652C69.995 9.5174 69.9885 9.55472 69.969 9.58186C69.9495 9.609 69.8326 9.62935 69.6117 9.64292C69.3909 9.65649 69.1376 9.66327 68.8453 9.66667C68.4296 9.66667 68.1243 9.5174 67.9294 9.21549C67.728 8.91018 67.6241 8.43525 67.6111 7.79071L67.5267 3.89292C67.5137 3.23481 67.5981 2.7531 67.793 2.45457C67.9814 2.15605 68.2802 2.00339 68.6829 2C68.9037 2 69.0921 2 69.248 2.00678C69.4039 2.01357 69.5273 2.02035 69.6312 2.03392C69.7351 2.04749 69.7936 2.05767 69.8001 2.07124C69.8066 2.08481 69.8196 2.10177 69.8261 2.12552C69.8326 2.14926 69.8391 2.17301 69.8391 2.19676L69.8521 2.70221C69.8521 2.78363 69.8326 2.82773 69.7936 2.82773L68.7089 2.83451C68.462 2.83451 68.2867 2.89558 68.1827 3.00752C68.0788 3.12286 68.0268 3.41799 68.0398 3.89292L68.0723 5.30413L69.8001 5.29395C69.8001 5.29395 69.8586 5.31431 69.878 5.35162C69.904 5.39233 69.9105 5.43982 69.917 5.4941V5.87404C69.9235 5.93171 69.917 5.9792 69.8975 6.01652C69.878 6.05723 69.8521 6.07758 69.8196 6.07758L68.0918 6.08776L68.1308 7.79071C68.1373 8.19779 68.1892 8.47257 68.2802 8.62183C68.3711 8.77109 68.5595 8.84233 68.8453 8.84233L69.93 8.83555C69.9755 8.83555 69.995 8.87625 69.995 8.95767L70.008 9.4733L69.995 9.46652Z" fill="#B4ABA8"/>
<path d="M73.484 9.12221C73.484 9.17829 73.4777 9.22447 73.4528 9.26076C73.4341 9.30035 73.4092 9.32014 73.378 9.32014H73.1038C73.1038 9.32014 73.0539 9.30364 73.029 9.26406C73.0041 9.22447 72.9978 9.17829 72.9916 9.12551L72.9168 5.85305L71.072 5.86295L71.1468 9.1354C71.1468 9.19148 71.1406 9.23767 71.1157 9.27395C71.097 9.31354 71.072 9.33333 71.0409 9.33333H70.7666C70.7666 9.33333 70.7105 9.31684 70.6919 9.27725C70.6732 9.23767 70.6607 9.19148 70.6545 9.1387L70.5049 2.21113C70.5049 2.15505 70.5111 2.10886 70.536 2.07257C70.5547 2.03299 70.5797 2.0132 70.6108 2.0132H70.8851C70.8851 2.0132 70.9411 2.02969 70.9598 2.06928C70.9848 2.10886 70.991 2.15505 70.9972 2.20783L71.0596 5.06463L72.9044 5.05473L72.842 2.19793C72.842 2.14185 72.8483 2.09567 72.8732 2.05938C72.8919 2.01979 72.9168 2 72.948 2H73.2222C73.2222 2 73.2783 2.01649 73.297 2.05608C73.3219 2.09567 73.3281 2.14185 73.3344 2.19463L73.484 9.12221Z" fill="#B4ABA8"/>
<path d="M77.2076 9.12221C77.2076 9.17829 77.2014 9.22447 77.1764 9.26076C77.1577 9.30035 77.1328 9.32014 77.1016 9.32014H76.8274C76.8274 9.32014 76.7776 9.30364 76.7526 9.26406C76.7277 9.22447 76.7215 9.17829 76.7152 9.12551L76.6405 5.85305L74.7957 5.86295L74.8705 9.1354C74.8705 9.19148 74.8642 9.23767 74.8393 9.27395C74.8206 9.31354 74.7957 9.33333 74.7645 9.33333H74.4903C74.4903 9.33333 74.4342 9.31684 74.4155 9.27725C74.3968 9.23767 74.3843 9.19148 74.3781 9.1387L74.2285 2.21113C74.2285 2.15505 74.2347 2.10886 74.2597 2.07257C74.2784 2.03299 74.3033 2.0132 74.3345 2.0132H74.6087C74.6087 2.0132 74.6648 2.02969 74.6835 2.06928C74.7084 2.10886 74.7146 2.15505 74.7209 2.20783L74.7832 5.06463L76.628 5.05473L76.5657 2.19793C76.5657 2.14185 76.5719 2.09567 76.5968 2.05938C76.6155 2.01979 76.6404 2 76.6716 2H76.9458C76.9458 2 77.0019 2.01649 77.0206 2.05608C77.0456 2.09567 77.0518 2.14185 77.058 2.19463L77.2076 9.12221Z" fill="#B4ABA8"/>
<path d="M81.1209 7.2549C81.1541 8.63399 80.61 9.3268 79.4951 9.33333C79.2364 9.33333 79.0041 9.32353 78.7851 9.29739C78.5728 9.27124 78.4467 9.22549 78.4135 9.1634C78.3803 9.10131 78.3604 9.0098 78.3604 8.89216L78.2012 2.20588C78.2012 2.0817 78.2344 2.01961 78.3007 2.01961H78.6126C78.679 2.01961 78.7188 2.07843 78.7188 2.20261L78.7851 5.06209C79.0107 5.03595 79.2098 5.02288 79.389 5.01961C80.5038 5.01307 81.0811 5.70261 81.1143 7.08824V7.2549H81.1209ZM80.5967 7.25817V7.0817C80.5834 6.62745 80.4839 6.29412 80.3114 6.08497C80.1322 5.87582 79.8336 5.77124 79.4089 5.77451C79.2629 5.77451 79.0638 5.79085 78.805 5.81699L78.8714 8.54902C79.2297 8.57516 79.4288 8.58824 79.4752 8.58824C79.8999 8.58824 80.1919 8.47712 80.3644 8.26471C80.5303 8.05229 80.61 7.71895 80.6033 7.26144L80.5967 7.25817ZM82.4215 9.05556C82.4215 9.10784 82.4149 9.15033 82.395 9.19281C82.3751 9.23203 82.3552 9.25163 82.322 9.25163H82.0035C82.0035 9.25163 81.9504 9.23529 81.9305 9.19608C81.9106 9.15686 81.8973 9.11111 81.8973 9.05882L81.738 2.18627C81.738 2.06209 81.7712 2 81.8376 2H82.1561C82.2225 2 82.2623 2.05882 82.2623 2.18301L82.4215 9.05556Z" fill="#B4ABA8"/>
<path d="M83.0682 9.0509L82.918 2.22989C82.918 2.10509 82.9493 2.04269 83.0118 2.04269H83.2997C83.2997 2.04269 83.3498 2.05911 83.3686 2.09852C83.3874 2.13793 83.3999 2.18062 83.3999 2.2266L83.5251 7.96388C83.5251 7.98358 83.5251 7.99343 83.5251 7.99343L85.0709 2.2266C85.0897 2.15107 85.1147 2.09852 85.1398 2.07225C85.1648 2.04598 85.2149 2.02956 85.2837 2.02956H85.5841C85.6279 2.02956 85.6655 2.05583 85.6968 2.10837C85.7281 2.1642 85.7468 2.2266 85.7468 2.30542L85.897 9.19869C85.897 9.2775 85.8658 9.31691 85.8032 9.3202H85.5215C85.5215 9.3202 85.4715 9.30378 85.4527 9.26765C85.4339 9.23153 85.4214 9.18555 85.4214 9.13629L85.2962 3.40887C85.2962 3.38916 85.2962 3.37931 85.2962 3.37931C85.2962 3.37931 85.2837 3.38916 85.2775 3.40887L83.7316 9.1757C83.7003 9.28079 83.644 9.33333 83.5626 9.33333H83.2246C83.1808 9.33333 83.1433 9.30706 83.112 9.25123C83.0807 9.1954 83.0619 9.12972 83.0619 9.05419L83.0682 9.0509ZM85.0897 0C85.1335 0 85.1523 0.0426929 85.1585 0.124795C85.1648 0.502463 85.0897 0.834154 84.9332 1.12315C84.7768 1.41215 84.564 1.55665 84.3074 1.55665C84.0508 1.55665 83.8317 1.41544 83.6627 1.12972C83.4938 0.844007 83.3999 0.512315 83.3936 0.134647C83.3936 0.0525452 83.4124 0.00985222 83.45 0.00985222H83.6502C83.7003 0.00985222 83.7253 0.0623974 83.7316 0.167488C83.7504 0.410509 83.8129 0.600985 83.9193 0.7422C84.0257 0.883416 84.1447 0.952381 84.2886 0.949097C84.4325 0.945813 84.5515 0.876847 84.6516 0.735632C84.7517 0.594417 84.8018 0.403941 84.8143 0.16092C84.8143 0.0558292 84.8456 0.00328407 84.8957 0.00328407H85.096L85.0897 0Z" fill="#B4ABA8"/>
<path d="M90.6262 9.12551L90.4942 3.23377C90.4942 3.06883 90.4754 2.95996 90.444 2.90058C90.4126 2.84121 90.3434 2.81152 90.2366 2.81152L88.867 2.82141C88.7602 2.82141 88.6911 2.8511 88.6659 2.91048C88.6408 2.96986 88.6282 3.08202 88.6282 3.24366L88.7602 9.1354C88.7602 9.19148 88.7539 9.23767 88.7288 9.27395C88.7099 9.31354 88.6848 9.33333 88.6534 9.33333H88.3769C88.3769 9.33333 88.3204 9.31684 88.3015 9.27725C88.2827 9.23767 88.2701 9.19148 88.2638 9.1387L88.1319 3.24696C88.113 2.42555 88.3518 2.0132 88.8419 2.0099L90.2115 2C90.7078 2 90.9592 2.40576 90.978 3.22717L91.1099 9.11891C91.1099 9.17499 91.1037 9.22117 91.0785 9.25746C91.0597 9.29705 91.0345 9.31684 91.0031 9.31684H90.7267C90.7267 9.31684 90.6764 9.30035 90.6513 9.26076C90.6262 9.22117 90.6199 9.17499 90.6136 9.12221L90.6262 9.12551Z" fill="#B4ABA8"/>
<path d="M94.5838 4.24159C94.6169 5.70105 94.1002 6.43405 93.0337 6.4406C92.8946 6.4406 92.7091 6.42751 92.4573 6.39478L92.5236 9.13699C92.5236 9.18935 92.517 9.23189 92.4971 9.27443C92.4772 9.3137 92.4573 9.33333 92.4242 9.33333H92.1195C92.1195 9.33333 92.0665 9.31697 92.0466 9.2777C92.0267 9.23844 92.0135 9.19262 92.0135 9.14027L91.8545 2.33055C91.8545 2.26183 91.8677 2.19966 91.8942 2.14403C91.9207 2.0884 92.0665 2.0524 92.3182 2.03277C92.5699 2.01313 92.7753 2.00005 92.9343 2.00005C94.0009 1.9935 94.5507 2.69705 94.5838 4.1107V4.23832V4.24159ZM94.0605 4.24486V4.11724C94.0472 3.63621 93.9545 3.28934 93.7756 3.07664C93.5968 2.86394 93.3252 2.75595 92.9409 2.75923C92.7554 2.75923 92.5633 2.77559 92.3712 2.80177L92.4375 5.66505C92.7886 5.68796 92.9807 5.70105 93.0138 5.70105C93.398 5.70105 93.6696 5.58652 93.8352 5.364C94.0009 5.14148 94.0737 4.76844 94.0605 4.24814V4.24486Z" fill="#B4ABA8"/>
<path d="M97.7997 9.46652C97.7997 9.5174 97.7932 9.55472 97.7737 9.58186C97.7542 9.609 97.6373 9.62935 97.4164 9.64292C97.1956 9.65649 96.9423 9.66327 96.65 9.66667C96.2342 9.66667 95.929 9.5174 95.7341 9.21549C95.5327 8.91018 95.4288 8.43525 95.4158 7.79071L95.3314 3.89292C95.3184 3.23481 95.4028 2.7531 95.5977 2.45457C95.7861 2.15605 96.0848 2.00339 96.4876 2C96.7084 2 96.8968 2 97.0527 2.00678C97.2086 2.01357 97.332 2.02035 97.4359 2.03392C97.5398 2.04749 97.5983 2.05767 97.6048 2.07124C97.6113 2.08481 97.6243 2.10177 97.6308 2.12552C97.6373 2.14926 97.6438 2.17301 97.6438 2.19676L97.6568 2.70221C97.6568 2.78363 97.6373 2.82773 97.5983 2.82773L96.5135 2.83451C96.2667 2.83451 96.0913 2.89558 95.9874 3.00752C95.8835 3.12286 95.8315 3.41799 95.8445 3.89292L95.877 5.30413L97.6048 5.29395C97.6048 5.29395 97.6633 5.31431 97.6827 5.35162C97.7087 5.39233 97.7152 5.43982 97.7217 5.4941V5.87404C97.7282 5.93171 97.7217 5.9792 97.7022 6.01652C97.6827 6.05723 97.6568 6.07758 97.6243 6.07758L95.8965 6.08776L95.9354 7.79071C95.9419 8.19779 95.9939 8.47257 96.0849 8.62183C96.1758 8.77109 96.3642 8.84233 96.65 8.84233L97.7347 8.83555C97.7802 8.83555 97.7997 8.87625 97.7997 8.95767L97.8126 9.4733L97.7997 9.46652Z" fill="#B4ABA8"/>
<path d="M100.805 9.12551L100.673 3.23377C100.673 3.06883 100.654 2.95996 100.623 2.90058C100.591 2.84121 100.522 2.81152 100.415 2.81152L99.0457 2.82141C98.9389 2.82141 98.8698 2.8511 98.8446 2.91048C98.8195 2.96986 98.8069 3.08202 98.8069 3.24366L98.9389 9.1354C98.9389 9.19148 98.9326 9.23767 98.9075 9.27395C98.8886 9.31354 98.8635 9.33333 98.8321 9.33333H98.5556C98.5556 9.33333 98.4991 9.31684 98.4802 9.27725C98.4614 9.23767 98.4488 9.19148 98.4425 9.1387L98.3106 3.24696C98.2918 2.42555 98.5305 2.0132 99.0206 2.0099L100.39 2C100.887 2 101.138 2.40576 101.157 3.22717L101.289 9.11891C101.289 9.17499 101.282 9.22117 101.257 9.25746C101.238 9.29705 101.213 9.31684 101.182 9.31684H100.905C100.905 9.31684 100.855 9.30035 100.83 9.26076C100.805 9.22117 100.799 9.17499 100.792 9.12221L100.805 9.12551Z" fill="#B4ABA8"/>
<path d="M102.863 6.93578L102.558 9.18941C102.558 9.24175 102.539 9.27773 102.519 9.30062C102.5 9.32352 102.48 9.33333 102.461 9.33333H102.13C102.066 9.33333 102.033 9.28427 102.033 9.1796C102.033 9.15671 102.033 9.13381 102.033 9.11418L102.928 2.74906C102.999 2.25189 103.18 2.0033 103.485 2.00003C103.789 1.99676 103.977 2.24208 104.068 2.73271L105.254 9.09456C105.254 9.09456 105.254 9.13054 105.261 9.15998C105.261 9.26464 105.235 9.31698 105.17 9.31698H104.839C104.839 9.31698 104.794 9.30717 104.781 9.27773C104.768 9.24829 104.736 9.12727 104.697 8.90812L104.327 6.92597L102.876 6.93578H102.863ZM104.191 6.15404L103.744 3.68126C103.653 3.18409 103.602 2.92242 103.602 2.90606C103.602 2.88644 103.589 2.86681 103.582 2.84392C103.576 2.82102 103.563 2.80467 103.55 2.79158C103.537 2.7785 103.524 2.77196 103.504 2.77196C103.485 2.77196 103.465 2.7785 103.452 2.79485C103.439 2.81121 103.427 2.83083 103.42 2.857C103.414 2.88317 103.381 3.06961 103.336 3.41632L102.966 6.16058L104.204 6.15404H104.191Z" fill="#B4ABA8"/>
<path d="M108.238 4.24159C108.271 5.70105 107.755 6.43405 106.688 6.4406C106.549 6.4406 106.363 6.42751 106.112 6.39478L106.178 9.13699C106.178 9.18935 106.171 9.23189 106.151 9.27443C106.131 9.3137 106.112 9.33333 106.079 9.33333H105.774C105.774 9.33333 105.721 9.31697 105.701 9.2777C105.681 9.23844 105.668 9.19262 105.668 9.14027L105.509 2.33055C105.509 2.26183 105.522 2.19966 105.549 2.14403C105.575 2.0884 105.721 2.0524 105.973 2.03277C106.224 2.01313 106.43 2.00005 106.589 2.00005C107.655 1.9935 108.205 2.69705 108.238 4.1107V4.23832V4.24159ZM107.715 4.24486V4.11724C107.702 3.63621 107.609 3.28934 107.43 3.07664C107.251 2.86394 106.979 2.75595 106.595 2.75923C106.41 2.75923 106.218 2.77559 106.026 2.80177L106.092 5.66505C106.443 5.68796 106.635 5.70105 106.668 5.70105C107.052 5.70105 107.324 5.58652 107.49 5.364C107.655 5.14148 107.728 4.76844 107.715 4.24814V4.24486Z" fill="#B4ABA8"/>
<path d="M109.07 6.93578L108.765 9.18942C108.765 9.24175 108.746 9.27773 108.726 9.30063C108.707 9.32352 108.687 9.33333 108.668 9.33333H108.337C108.273 9.33333 108.24 9.28427 108.24 9.1796C108.24 9.15671 108.24 9.13381 108.24 9.11419L109.135 2.74906C109.206 2.25189 109.387 2.0033 109.692 2.00003C109.996 1.99676 110.184 2.24208 110.275 2.73271L111.461 9.09456C111.461 9.09456 111.461 9.13054 111.468 9.15998C111.468 9.26465 111.442 9.31698 111.377 9.31698H111.046C111.046 9.31698 111.001 9.30717 110.988 9.27773C110.975 9.24829 110.943 9.12727 110.904 8.90812L110.534 6.92597L109.083 6.93578H109.07ZM110.398 6.15404L109.951 3.68126C109.86 3.18409 109.809 2.92242 109.809 2.90606C109.809 2.88644 109.796 2.86681 109.789 2.84392C109.783 2.82102 109.77 2.80467 109.757 2.79158C109.744 2.7785 109.731 2.77196 109.711 2.77196C109.692 2.77196 109.672 2.7785 109.659 2.79485C109.647 2.81121 109.634 2.83083 109.627 2.857C109.621 2.88317 109.588 3.06961 109.543 3.41632L109.173 6.16058L110.411 6.15404H110.398Z" fill="#B4ABA8"/>
<path d="M113.95 2.61084C113.95 2.71649 113.917 2.76932 113.844 2.76932L112.73 2.77593L112.875 9.13523C112.875 9.18805 112.869 9.23098 112.849 9.2739C112.829 9.31352 112.81 9.33333 112.777 9.33333H112.46C112.46 9.33333 112.408 9.31682 112.388 9.2772C112.368 9.23758 112.355 9.19136 112.355 9.13853L112.21 2.77923L111.103 2.78583C111.023 2.78583 110.984 2.733 110.984 2.62735L110.971 2.19481C110.971 2.14528 110.977 2.10566 111.004 2.06934C111.023 2.03302 111.05 2.01651 111.083 2.01651L113.825 2C113.897 2 113.937 2.05943 113.937 2.1783L113.95 2.61084Z" fill="#B4ABA8"/>
<path d="M114.198 9.12977C114.198 9.18745 114.191 9.23494 114.172 9.27226C114.153 9.31298 114.128 9.33333 114.096 9.33333H113.835C113.835 9.33333 113.784 9.31637 113.758 9.27566C113.733 9.23494 113.727 9.18745 113.72 9.13316L113.701 8.19338C113.701 8.1391 113.708 8.095 113.727 8.05768C113.746 8.02036 113.771 8 113.797 8H114.058C114.058 8 114.109 8.01696 114.134 8.05089C114.159 8.08482 114.166 8.13232 114.166 8.18999L114.185 9.12977H114.198Z" fill="#B4ABA8"/>
<path d="M116.335 9.04976L116.185 2.20114C116.185 2.07584 116.216 2.01319 116.278 2.01319H116.566C116.566 2.01319 116.616 2.02968 116.635 2.06924C116.654 2.10881 116.666 2.15168 116.666 2.19784L116.792 7.95833C116.792 7.97812 116.792 7.98801 116.792 7.98801L118.338 2.19784C118.356 2.122 118.381 2.06924 118.406 2.04287C118.431 2.01649 118.481 2 118.55 2H118.851C118.895 2 118.932 2.02638 118.963 2.07914C118.995 2.13519 119.013 2.19784 119.013 2.27698L119.164 9.19814C119.164 9.27728 119.132 9.31685 119.07 9.32014H118.788C118.788 9.32014 118.738 9.30366 118.719 9.26739C118.701 9.23112 118.688 9.18495 118.688 9.13549L118.563 3.38489C118.563 3.36511 118.563 3.35522 118.563 3.35522C118.563 3.35522 118.55 3.36511 118.544 3.38489L116.998 9.17506C116.967 9.28058 116.911 9.33333 116.829 9.33333H116.491C116.447 9.33333 116.41 9.30695 116.379 9.2509C116.347 9.19484 116.329 9.1289 116.329 9.05306L116.335 9.04976Z" fill="#B4ABA8"/>
<path d="M123.384 9.11561C123.384 9.17169 123.377 9.21787 123.352 9.25416C123.327 9.29045 123.308 9.31354 123.276 9.31354H123.009C123.009 9.31354 122.952 9.29705 122.933 9.25746C122.907 9.21787 122.901 9.17169 122.895 9.11891L122.761 3.27995C122.761 3.25356 122.761 3.24037 122.761 3.24037C122.761 3.24037 122.755 3.25026 122.748 3.27006L122.278 5.17349C122.107 5.87284 122.011 6.24891 121.999 6.2984C121.986 6.34788 121.961 6.39076 121.929 6.42375C121.897 6.45674 121.852 6.47323 121.789 6.47653H121.535C121.471 6.47653 121.427 6.46004 121.389 6.42375C121.351 6.38746 121.319 6.31159 121.281 6.19613L120.639 4.0057C120.493 3.50757 120.417 3.25686 120.417 3.25686C120.417 3.25686 120.417 3.27006 120.417 3.29645L120.55 9.1354C120.55 9.19148 120.544 9.23767 120.518 9.27395C120.499 9.31354 120.474 9.33333 120.442 9.33333H120.175C120.175 9.33333 120.118 9.31684 120.099 9.27725C120.08 9.23767 120.067 9.19148 120.061 9.1387L119.908 2.30349C119.908 2.22432 119.921 2.15505 119.953 2.09897C119.984 2.04289 120.023 2.0132 120.061 2.0132H120.417C120.505 2.0132 120.563 2.06598 120.594 2.17814L121.579 5.55616C121.598 5.62543 121.624 5.66172 121.643 5.66172C121.662 5.66172 121.687 5.62543 121.706 5.55616L122.539 2.16824C122.564 2.05608 122.621 2 122.71 2H123.066C123.111 2 123.149 2.02639 123.18 2.08247C123.212 2.13855 123.231 2.20783 123.231 2.287L123.384 9.12221V9.11561Z" fill="#B4ABA8"/>
<path d="M126.847 9.13253C126.847 9.18342 126.84 9.22074 126.821 9.24787C126.801 9.27501 126.684 9.29537 126.463 9.30894C126.242 9.3225 125.989 9.32929 125.697 9.33268C125.281 9.33268 124.976 9.18342 124.781 8.8815C124.58 8.57619 124.476 8.10127 124.463 7.45672L124.378 3.55894C124.365 2.90082 124.45 2.41911 124.645 2.12059C124.833 1.82206 125.132 1.66941 125.534 1.66602C125.755 1.66602 125.944 1.66602 126.1 1.6728C126.255 1.67958 126.379 1.68637 126.483 1.69994C126.587 1.71351 126.645 1.72369 126.652 1.73725C126.658 1.75082 126.671 1.76779 126.678 1.79153C126.684 1.81528 126.691 1.83902 126.691 1.86277L126.704 2.36823C126.704 2.44964 126.684 2.49374 126.645 2.49374L125.56 2.50053C125.314 2.50053 125.138 2.56159 125.034 2.67354C124.93 2.78888 124.878 3.08401 124.891 3.55894L124.924 4.97014L126.652 4.95997C126.652 4.95997 126.71 4.98032 126.73 5.01764C126.756 5.05835 126.762 5.10584 126.769 5.16012V5.54006C126.775 5.59773 126.769 5.64522 126.749 5.68253C126.73 5.72324 126.704 5.7436 126.671 5.7436L124.943 5.75377L124.982 7.45672C124.989 7.8638 125.041 8.13858 125.132 8.28784C125.223 8.43711 125.411 8.50835 125.697 8.50835L126.782 8.50156C126.827 8.50156 126.847 8.54227 126.847 8.62368L126.86 9.13932L126.847 9.13253Z" fill="#B4ABA8"/>
<path d="M131.811 6.14486C131.837 7.17951 131.721 7.96992 131.468 8.51269C131.216 9.05546 130.854 9.33023 130.369 9.33363C129.884 9.33702 129.502 9.06903 129.231 8.52626C128.959 7.98349 128.804 7.19648 128.785 6.16182V5.91079L127.95 5.91419L128.022 9.07581C128.022 9.13009 128.015 9.17419 127.996 9.21829C127.976 9.259 127.957 9.27935 127.925 9.27935H127.614C127.614 9.27935 127.562 9.26239 127.543 9.22168C127.524 9.18097 127.511 9.13348 127.511 9.0792L127.355 1.94519C127.355 1.81629 127.388 1.75183 127.452 1.75183H127.763C127.828 1.75183 127.866 1.81289 127.866 1.9418L127.937 5.09325H128.765V4.85579C128.739 3.82114 128.856 3.03073 129.108 2.48796C129.36 1.94519 129.729 1.67042 130.214 1.66702C130.699 1.66363 131.074 1.93162 131.352 2.47439C131.624 3.01377 131.772 3.80417 131.798 4.83883L131.824 6.14486H131.811ZM131.294 6.14825L131.268 4.84222C131.236 3.27498 130.886 2.49475 130.22 2.49814C129.554 2.50153 129.237 3.28854 129.27 4.8524L129.296 6.15843C129.328 7.72568 129.684 8.5059 130.35 8.50251C131.016 8.49912 131.326 7.71211 131.294 6.14825Z" fill="#B4ABA8"/>
<path d="M134.803 2.27783C134.803 2.38349 134.77 2.43632 134.698 2.43632L133.584 2.44292L133.729 8.80222C133.729 8.85505 133.722 8.89797 133.703 8.94089C133.683 8.98052 133.663 9.00033 133.63 9.00033H133.314C133.314 9.00033 133.261 8.98382 133.241 8.9442C133.221 8.90457 133.208 8.85835 133.208 8.80552L133.063 2.44622L131.956 2.45282C131.877 2.45282 131.837 2.4 131.837 2.29434L131.824 1.8618C131.824 1.81227 131.831 1.77265 131.857 1.73633C131.877 1.70001 131.903 1.6835 131.936 1.6835L134.678 1.66699C134.751 1.66699 134.79 1.72642 134.79 1.84529L134.803 2.27783Z" fill="#B4ABA8"/>
<path d="M137.534 8.99458C137.534 9.06917 137.522 9.12682 137.485 9.16073C137.454 9.19463 137.35 9.23193 137.19 9.27262C137.024 9.30992 136.815 9.33027 136.556 9.33366C136.126 9.33366 135.775 9.07256 135.51 8.5436C135.246 8.01463 135.104 7.23813 135.086 6.21749L135.055 4.8069C135.031 3.77948 135.141 2.99959 135.381 2.46723C135.621 1.93487 135.959 1.67038 136.396 1.66699C136.568 1.66699 136.765 1.69073 136.987 1.74159C137.208 1.79245 137.325 1.82975 137.35 1.8501C137.368 1.87044 137.381 1.90435 137.381 1.95182L137.393 2.47062C137.393 2.54183 137.368 2.57913 137.319 2.57913C136.931 2.52148 136.636 2.49435 136.421 2.49435C135.806 2.49775 135.51 3.26746 135.541 4.80012L135.572 6.2107C135.59 6.97025 135.676 7.53991 135.843 7.92646C136.009 8.30963 136.242 8.5029 136.544 8.49951C136.722 8.49951 136.895 8.48595 137.061 8.46561L137.436 8.41474C137.491 8.41474 137.522 8.469 137.522 8.5775V8.99118L137.534 8.99458Z" fill="#B4ABA8"/>
<path d="M140.755 8.78665C140.755 8.839 140.749 8.88154 140.73 8.92409C140.711 8.96335 140.693 8.98299 140.662 8.98299H140.369C140.369 8.98299 140.319 8.96663 140.301 8.92736C140.282 8.88809 140.27 8.84228 140.27 8.78992L140.207 5.9168C140.002 5.93643 139.803 5.94625 139.617 5.94952H139.48L138.907 7.81149C138.69 8.52486 138.571 8.89791 138.565 8.92409C138.553 8.95026 138.54 8.9699 138.522 8.98299C138.503 8.9928 138.478 8.99935 138.441 8.99935H138.099C138.055 8.99935 138.03 8.96008 138.03 8.87173C138.03 8.84228 138.03 8.81283 138.043 8.78665L138.957 5.80881C138.683 5.68119 138.472 5.44558 138.316 5.10525C138.161 4.76493 138.08 4.3428 138.074 3.8454V3.77341C138.043 2.37284 138.528 1.66929 139.529 1.66602C139.791 1.66602 140.027 1.67583 140.226 1.69874C140.425 1.72165 140.543 1.7511 140.568 1.78055C140.593 1.81 140.612 1.86563 140.612 1.95071L140.761 8.79319L140.755 8.78665ZM140.189 5.16416L140.133 2.48738C140.052 2.46774 139.853 2.4612 139.542 2.4612C139.175 2.4612 138.92 2.56918 138.764 2.77534C138.609 2.9815 138.54 3.31201 138.547 3.76359V3.83558C138.559 4.3428 138.652 4.69294 138.82 4.89255C138.988 5.08889 139.25 5.18706 139.598 5.18706C139.741 5.18706 139.94 5.17725 140.189 5.16416Z" fill="#B4ABA8"/>
<path d="M145.491 8.79152L145.359 2.89978C145.359 2.73484 145.341 2.62598 145.309 2.5666C145.278 2.50722 145.209 2.47753 145.102 2.47753L143.732 2.48743C143.625 2.48743 143.556 2.51712 143.531 2.5765C143.506 2.63588 143.493 2.74804 143.493 2.90968L143.625 8.80142C143.625 8.8575 143.619 8.90368 143.594 8.93997C143.575 8.97956 143.55 8.99935 143.519 8.99935H143.242C143.242 8.99935 143.186 8.98285 143.167 8.94327C143.148 8.90368 143.135 8.8575 143.129 8.80472L142.997 2.91298C142.978 2.09157 143.217 1.67921 143.707 1.67591L145.077 1.66602C145.573 1.66602 145.824 2.07177 145.843 2.89319L145.975 8.78492C145.975 8.841 145.969 8.88719 145.944 8.92348C145.925 8.96306 145.9 8.98286 145.868 8.98286H145.592C145.592 8.98286 145.542 8.96636 145.517 8.92677C145.491 8.88719 145.485 8.841 145.479 8.78822L145.491 8.79152Z" fill="#B4ABA8"/>
<path d="M149.449 3.90858C149.482 5.36804 148.965 6.10104 147.899 6.10759C147.76 6.10759 147.574 6.0945 147.323 6.06177L147.389 8.80399C147.389 8.85634 147.382 8.89888 147.362 8.94142C147.342 8.98069 147.323 9.00033 147.289 9.00033H146.985C146.985 9.00033 146.932 8.98396 146.912 8.9447C146.892 8.90543 146.879 8.85962 146.879 8.80726L146.72 1.99754C146.72 1.92882 146.733 1.86665 146.759 1.81102C146.786 1.75539 146.932 1.71939 147.183 1.69976C147.435 1.68013 147.641 1.66704 147.8 1.66704C148.866 1.66049 149.416 2.36404 149.449 3.77769V3.90531V3.90858ZM148.926 3.91185V3.78423C148.912 3.3032 148.82 2.95633 148.641 2.74363C148.462 2.53093 148.19 2.42295 147.806 2.42622C147.621 2.42622 147.429 2.44258 147.236 2.46876L147.303 5.33205C147.654 5.35495 147.846 5.36804 147.879 5.36804C148.263 5.36804 148.535 5.25351 148.7 5.03099C148.866 4.80847 148.939 4.43543 148.926 3.91513V3.91185Z" fill="#B4ABA8"/>
<path d="M152.923 6.14389C152.948 7.17854 152.835 7.96894 152.589 8.51171C152.344 9.05448 151.991 9.32926 151.519 9.33265C151.046 9.33604 150.681 9.06805 150.41 8.52528C150.139 7.98251 149.995 7.1955 149.976 6.16085L149.951 4.85481C149.925 3.77945 150.045 2.97887 150.297 2.45645C150.549 1.93065 150.908 1.66944 151.355 1.66605C151.802 1.66266 152.192 1.93065 152.457 2.47342C152.721 3.01279 152.866 3.8032 152.891 4.83785L152.917 6.14389H152.923ZM152.425 6.14728L152.4 4.84124C152.369 3.274 152.029 2.49377 151.38 2.49716C150.731 2.50055 150.423 3.28757 150.454 4.85142L150.48 6.15746C150.511 7.7247 150.857 8.50493 151.506 8.50154C152.155 8.49814 152.457 7.71113 152.425 6.14728Z" fill="#B4ABA8"/>
<path d="M156.154 2.27685C156.154 2.38251 156.121 2.43534 156.048 2.43534L154.935 2.44194L155.08 8.80124C155.08 8.85407 155.073 8.89699 155.053 8.93992C155.033 8.97954 155.014 8.99935 154.981 8.99935H154.664C154.664 8.99935 154.612 8.98284 154.592 8.94322C154.572 8.9036 154.559 8.85737 154.559 8.80454L154.414 2.44524L153.307 2.45185C153.228 2.45185 153.188 2.39902 153.188 2.29336L153.175 1.86082C153.175 1.8113 153.181 1.77167 153.208 1.73535C153.228 1.69903 153.254 1.68252 153.287 1.68252L156.029 1.66602C156.101 1.66602 156.141 1.72545 156.141 1.84431L156.154 2.27685Z" fill="#B4ABA8"/>
<path d="M156.801 8.71578L156.65 1.86715C156.65 1.74186 156.682 1.67921 156.744 1.67921H157.032C157.032 1.67921 157.082 1.69569 157.101 1.73526C157.12 1.77483 157.132 1.81769 157.132 1.86386L157.257 7.62435C157.257 7.64413 157.257 7.65403 157.257 7.65403L158.803 1.86386C158.822 1.78802 158.847 1.73526 158.872 1.70888C158.897 1.6825 158.947 1.66602 159.016 1.66602H159.317C159.36 1.66602 159.398 1.69239 159.429 1.74515C159.46 1.80121 159.479 1.86386 159.479 1.94299L159.629 8.86416C159.629 8.94329 159.598 8.98286 159.536 8.98616H159.254C159.254 8.98616 159.204 8.96967 159.185 8.9334C159.166 8.89713 159.154 8.85097 159.154 8.80151L159.029 3.05091C159.029 3.03112 159.029 3.02123 159.029 3.02123C159.029 3.02123 159.016 3.03112 159.01 3.05091L157.464 8.84108C157.433 8.94659 157.376 8.99935 157.295 8.99935H156.957C156.913 8.99935 156.876 8.97297 156.844 8.91692C156.813 8.86086 156.794 8.79491 156.794 8.71907L156.801 8.71578Z" fill="#B4ABA8"/>
<path d="M163.104 7.17615C163.135 8.60771 162.625 9.32687 161.58 9.33366C161.338 9.33366 161.12 9.32348 160.915 9.29634C160.716 9.26921 160.598 9.22171 160.567 9.15726C160.536 9.09281 160.517 8.99782 160.517 8.8757L160.374 2.1284C160.374 2.0402 160.374 1.96557 160.393 1.9079C160.411 1.85023 160.436 1.80952 160.467 1.78238C160.498 1.75524 160.617 1.7315 160.809 1.70436C161.002 1.68061 161.195 1.66704 161.387 1.66704C162.438 1.66026 162.979 2.30819 163.004 3.61084V3.77367C163.016 4.14343 162.973 4.4657 162.88 4.74387C162.786 5.02204 162.65 5.22897 162.469 5.37144C162.662 5.49696 162.811 5.70389 162.923 5.99563C163.035 6.28737 163.091 6.62321 163.104 7.00654V7.17954V7.17615ZM162.525 3.77706V3.61423C162.513 3.20715 162.426 2.91202 162.264 2.72544C162.102 2.53887 161.816 2.44728 161.406 2.44728C161.35 2.44728 161.176 2.45745 160.871 2.4812L160.927 4.9949L161.754 4.98811C162.283 4.98811 162.538 4.58104 162.519 3.77706H162.525ZM162.619 7.17954V7.00654C162.594 6.14828 162.32 5.72085 161.779 5.72424L160.952 5.73103L161.014 8.51611C161.35 8.54325 161.537 8.55682 161.574 8.55682C161.972 8.55682 162.245 8.44148 162.407 8.22098C162.563 8.00048 162.637 7.65447 162.631 7.17954H162.619Z" fill="#B4ABA8"/>
<path d="M166.825 6.14486C166.85 7.17951 166.737 7.96992 166.491 8.51269C166.246 9.05546 165.893 9.33023 165.421 9.33363C164.949 9.33702 164.583 9.06903 164.313 8.52626C164.042 7.98349 163.897 7.19648 163.878 6.16182L163.853 4.85579C163.828 3.78043 163.947 2.97984 164.199 2.45743C164.451 1.93162 164.81 1.67042 165.257 1.66702C165.704 1.66363 166.095 1.93162 166.359 2.47439C166.624 3.01377 166.769 3.80417 166.794 4.83883L166.819 6.14486H166.825ZM166.321 6.14825L166.296 4.84222C166.265 3.27498 165.925 2.49475 165.276 2.49814C164.627 2.50153 164.319 3.28854 164.35 4.8524L164.376 6.15843C164.407 7.72568 164.753 8.50591 165.402 8.50251C166.051 8.49912 166.353 7.71211 166.321 6.14825Z" fill="#B4ABA8"/>
<path d="M170.069 8.7925L169.937 2.90076C169.937 2.73582 169.918 2.62696 169.886 2.56758C169.855 2.5082 169.786 2.47851 169.679 2.47851L168.309 2.4884C168.203 2.4884 168.133 2.51809 168.108 2.57747C168.083 2.63685 168.071 2.74901 168.071 2.91066L168.203 8.8024C168.203 8.85848 168.196 8.90466 168.171 8.94095C168.152 8.98053 168.127 9.00033 168.096 9.00033H167.819C167.819 9.00033 167.763 8.98383 167.744 8.94425C167.725 8.90466 167.712 8.85848 167.706 8.80569L167.574 2.91396C167.555 2.09254 167.794 1.68019 168.284 1.67689L169.654 1.66699C170.15 1.66699 170.402 2.07275 170.42 2.89416L170.552 8.7859C170.552 8.84198 170.546 8.88816 170.521 8.92445C170.502 8.96404 170.477 8.98383 170.446 8.98383H170.169C170.169 8.98383 170.119 8.96734 170.094 8.92775C170.069 8.88817 170.062 8.84198 170.056 8.7892L170.069 8.7925Z" fill="#B4ABA8"/>
<path d="M174.273 5.81088C174.298 6.84553 174.184 7.63594 173.939 8.17871C173.693 8.72147 173.341 8.99625 172.868 8.99964C172.396 9.00303 172.031 8.73504 171.76 8.19227C171.489 7.64951 171.344 6.86249 171.325 5.82784L171.3 4.5218C171.275 3.44644 171.395 2.64586 171.647 2.12345C171.898 1.59764 172.257 1.33643 172.704 1.33304C173.152 1.32965 173.542 1.59764 173.807 2.14041C174.071 2.67978 174.216 3.47019 174.241 4.50484L174.266 5.81088H174.273ZM173.769 5.81427L173.744 4.50823C173.712 2.94099 173.372 2.16076 172.723 2.16415C172.075 2.16755 171.766 2.95456 171.798 4.51841L171.823 5.82445C171.854 7.39169 172.201 8.17192 172.849 8.16853C173.498 8.16514 173.8 7.37812 173.769 5.81427Z" fill="#B4ABA8"/>
<path d="M177.973 8.76513C177.993 8.80142 178 8.83771 178 8.88059C178 8.94657 177.979 8.98286 177.926 8.98286H177.475C177.421 8.98286 177.374 8.95317 177.347 8.89049L175.626 5.51907L175.706 8.80142C175.706 8.8542 175.7 8.89708 175.68 8.93997C175.659 8.97956 175.639 8.99935 175.606 8.99935H175.29C175.29 8.99935 175.236 8.98286 175.216 8.94327C175.195 8.90368 175.182 8.8575 175.182 8.80472L175.021 1.86725C175.021 1.81776 175.027 1.77488 175.047 1.73859C175.068 1.699 175.094 1.67921 175.128 1.67921H175.437C175.437 1.67921 175.491 1.69571 175.518 1.73199C175.538 1.76828 175.552 1.81116 175.552 1.86395L175.626 5.04733L177.226 1.75838C177.26 1.69571 177.293 1.66602 177.341 1.66602H177.757C177.811 1.66602 177.838 1.699 177.845 1.76828C177.845 1.80787 177.845 1.84085 177.825 1.87054L176.15 5.23207L177.986 8.76843L177.973 8.76513Z" fill="#B4ABA8"/>
<path d="M179.078 6.26879L178.773 8.52242C178.773 8.57476 178.754 8.61074 178.734 8.63363C178.715 8.65653 178.695 8.66634 178.676 8.66634H178.345C178.28 8.66634 178.248 8.61728 178.248 8.51261C178.248 8.48971 178.248 8.46682 178.248 8.44719L179.142 2.08207C179.214 1.5849 179.395 1.33631 179.7 1.33304C180.004 1.32977 180.192 1.57508 180.283 2.06572L181.469 8.42757C181.469 8.42757 181.469 8.46355 181.475 8.49298C181.475 8.59765 181.449 8.64999 181.385 8.64999H181.054C181.054 8.64999 181.009 8.64017 180.996 8.61074C180.983 8.5813 180.95 8.46028 180.912 8.24113L180.542 6.25898L179.091 6.26879H179.078ZM180.4 5.48705L179.952 3.01427C179.862 2.5171 179.81 2.25543 179.81 2.23907C179.81 2.21945 179.797 2.19982 179.79 2.17693C179.784 2.15403 179.771 2.13768 179.758 2.12459C179.745 2.11151 179.732 2.10497 179.713 2.10497C179.693 2.10497 179.674 2.11151 179.661 2.12786C179.648 2.14422 179.635 2.16384 179.628 2.19001C179.622 2.21618 179.59 2.40262 179.544 2.74933L179.175 5.49359L180.413 5.48705H180.4Z" fill="#B4ABA8"/>
<path d="M184.435 6.82615C184.448 7.52805 184.347 8.0672 184.12 8.4368C183.893 8.80979 183.558 8.99628 183.123 8.99967C182.921 8.99967 182.712 8.96916 182.491 8.90812C182.27 8.8437 182.151 8.79283 182.125 8.74875C182.1 8.70467 182.087 8.66059 182.087 8.61312V8.27065C182.075 8.15536 182.113 8.09771 182.188 8.09771C182.573 8.19266 182.876 8.23674 183.11 8.23674C183.407 8.23674 183.621 8.12145 183.754 7.89765C183.886 7.67386 183.943 7.31782 183.937 6.82954V6.61592C183.924 6.25649 183.861 5.96149 183.747 5.73091C183.634 5.50034 183.47 5.38505 183.268 5.38505L182.277 5.39183C182.207 5.39183 182.169 5.3308 182.169 5.20873V4.85608C182.157 4.72723 182.195 4.6628 182.264 4.6628L183.255 4.65602C183.463 4.65602 183.621 4.54751 183.728 4.33728C183.829 4.12705 183.88 3.82866 183.874 3.44549V3.30308C183.861 2.87584 183.785 2.56727 183.653 2.38077C183.52 2.19428 183.293 2.10273 182.996 2.10612C182.864 2.10612 182.712 2.12646 182.536 2.16376L182.075 2.26549C182.012 2.26549 181.974 2.20784 181.974 2.09255V1.73652C181.968 1.67548 181.974 1.62462 182.012 1.58732C182.043 1.55002 182.163 1.49916 182.371 1.43473C182.58 1.37031 182.788 1.3364 182.984 1.33301C183.451 1.33301 183.798 1.48899 184.025 1.81451C184.252 2.13663 184.372 2.6317 184.385 3.29969V3.4421C184.404 4.16435 184.246 4.69332 183.905 5.02901C184.259 5.34775 184.442 5.87333 184.454 6.61253V6.82615H184.435Z" fill="#B4ABA8"/>
<path d="M185.533 6.26879L185.228 8.52242C185.228 8.57476 185.209 8.61074 185.189 8.63363C185.17 8.65653 185.15 8.66634 185.131 8.66634H184.8C184.736 8.66634 184.703 8.61728 184.703 8.51261C184.703 8.48971 184.703 8.46682 184.703 8.44719L185.597 2.08207C185.669 1.5849 185.85 1.33631 186.155 1.33304C186.459 1.32977 186.647 1.57508 186.738 2.06572L187.924 8.42757C187.924 8.42757 187.924 8.46355 187.93 8.49298C187.93 8.59765 187.905 8.64999 187.84 8.64999H187.509C187.509 8.64999 187.464 8.64017 187.451 8.61074C187.438 8.5813 187.406 8.46028 187.367 8.24113L186.997 6.25898L185.546 6.26879H185.533ZM186.861 5.49032L186.414 3.01754C186.323 2.52037 186.271 2.2587 186.271 2.24234C186.271 2.22272 186.258 2.20309 186.252 2.1802C186.246 2.1573 186.233 2.14095 186.22 2.12786C186.207 2.11478 186.194 2.10824 186.174 2.10824C186.155 2.10824 186.135 2.11478 186.122 2.13113C186.109 2.14749 186.096 2.16711 186.09 2.19328C186.083 2.21945 186.051 2.40589 186.006 2.7526L185.636 5.49686L186.874 5.49032H186.861Z" fill="#B4ABA8"/>
<path d="M191.406 8.45522C191.406 8.5113 191.4 8.55748 191.375 8.59377C191.35 8.63005 191.331 8.65315 191.3 8.65315H191.026C191.026 8.65315 190.976 8.63665 190.951 8.59707C190.926 8.55748 190.92 8.5113 190.913 8.45851L190.839 5.18606L188.994 5.19596L189.069 8.46841C189.069 8.52449 189.062 8.57067 189.038 8.60696C189.019 8.64655 188.994 8.66634 188.963 8.66634H188.689C188.689 8.66634 188.632 8.64985 188.614 8.61026C188.595 8.57067 188.583 8.52449 188.576 8.47171L188.427 1.54413C188.427 1.48805 188.433 1.44187 188.458 1.40558C188.477 1.366 188.502 1.3462 188.533 1.3462H188.807C188.807 1.3462 188.863 1.3627 188.882 1.40228C188.907 1.44187 188.913 1.48805 188.919 1.54083L188.981 4.39763L190.826 4.38774L190.764 1.53094C190.764 1.47486 190.77 1.42867 190.795 1.39239C190.814 1.3528 190.839 1.33301 190.87 1.33301H191.144C191.144 1.33301 191.2 1.3495 191.219 1.38909C191.244 1.42867 191.25 1.47486 191.256 1.52764L191.406 8.45522Z" fill="#B4ABA8"/>
<path d="M192.301 8.38277L192.15 1.53415C192.15 1.40885 192.175 1.3462 192.244 1.3462H192.532C192.532 1.3462 192.582 1.36268 192.601 1.40225C192.62 1.44182 192.632 1.48469 192.632 1.53085L192.757 7.29134C192.757 7.31113 192.757 7.32102 192.757 7.32102L194.303 1.53085C194.322 1.45501 194.347 1.40225 194.372 1.37587C194.397 1.34949 194.447 1.33301 194.516 1.33301H194.817C194.86 1.33301 194.898 1.35939 194.929 1.41214C194.96 1.4682 194.979 1.53085 194.979 1.60999L195.129 8.53115C195.129 8.61029 195.098 8.64985 195.036 8.65315H194.754C194.754 8.65315 194.704 8.63666 194.685 8.60039C194.666 8.56412 194.654 8.51796 194.654 8.4685L194.529 2.7179C194.529 2.69812 194.529 2.68822 194.529 2.68822C194.529 2.68822 194.516 2.69812 194.51 2.7179L192.964 8.50807C192.933 8.61358 192.876 8.66634 192.795 8.66634H192.457C192.413 8.66634 192.376 8.63996 192.344 8.58391C192.313 8.52785 192.294 8.4619 192.294 8.38607L192.301 8.38277Z" fill="#B4ABA8"/>
<path d="M198.854 8.45364C198.854 8.506 198.848 8.54854 198.829 8.59108C198.81 8.63035 198.792 8.64998 198.76 8.64998H198.467C198.467 8.64998 198.417 8.63362 198.399 8.59435C198.38 8.55508 198.368 8.50927 198.368 8.45691L198.305 5.58379C198.099 5.60342 197.906 5.61324 197.713 5.61651H197.576L197.002 7.47848C196.784 8.19185 196.665 8.5649 196.659 8.59108C196.647 8.61726 196.634 8.63689 196.616 8.64998C196.597 8.66307 196.572 8.66634 196.535 8.66634H196.192C196.148 8.66634 196.123 8.62707 196.123 8.53872C196.123 8.50927 196.123 8.47982 196.136 8.45364L197.052 5.4758C196.778 5.34818 196.566 5.11257 196.41 4.77225C196.254 4.43192 196.173 4.00979 196.16 3.51239V3.4404C196.129 2.03984 196.616 1.33628 197.619 1.33301C197.881 1.33301 198.118 1.34282 198.318 1.36573C198.517 1.38864 198.636 1.41809 198.661 1.44754C198.686 1.47699 198.704 1.53262 198.704 1.6177L198.854 8.46018V8.45364ZM198.287 4.82788L198.23 2.15109C198.149 2.13146 197.95 2.12492 197.638 2.12492C197.27 2.12492 197.015 2.2329 196.859 2.43906C196.703 2.64522 196.634 2.97573 196.641 3.42731V3.4993C196.653 4.00652 196.747 4.35666 196.915 4.55627C197.083 4.75588 197.345 4.85078 197.694 4.85078C197.838 4.85078 198.037 4.84097 198.287 4.82788Z" fill="#B4ABA8"/>
<path d="M203.819 8.45521C203.819 8.5113 203.813 8.55748 203.788 8.59377C203.763 8.63005 203.744 8.65315 203.713 8.65315H203.439C203.439 8.65315 203.383 8.63665 203.364 8.59707C203.345 8.55748 203.333 8.5113 203.327 8.45851L203.252 5.18606L201.407 5.19596L201.482 8.46841C201.482 8.52449 201.476 8.57067 201.451 8.60696C201.426 8.64325 201.407 8.66634 201.376 8.66634H201.102C201.102 8.66634 201.046 8.64985 201.027 8.61026C201.008 8.57067 200.996 8.52449 200.989 8.47171L200.84 1.54413C200.84 1.48805 200.846 1.44187 200.871 1.40558C200.89 1.366 200.915 1.3462 200.946 1.3462H201.22C201.22 1.3462 201.276 1.3627 201.295 1.40228C201.32 1.44187 201.326 1.48805 201.332 1.54084L201.395 4.39764L203.239 4.38774L203.177 1.53094C203.177 1.47486 203.183 1.42867 203.208 1.39239C203.227 1.3528 203.252 1.33301 203.283 1.33301H203.557C203.557 1.33301 203.613 1.3495 203.632 1.38909C203.657 1.42867 203.663 1.47486 203.669 1.52764L203.819 8.45521Z" fill="#B4ABA8"/>
<path d="M207.281 8.79953C207.281 8.85041 207.275 8.88773 207.255 8.91487C207.236 8.942 207.119 8.96236 206.898 8.97593C206.677 8.9895 206.424 8.99628 206.131 8.99967C205.716 8.99967 205.41 8.85041 205.216 8.54849C205.014 8.24318 204.91 7.76826 204.897 7.12372L204.813 3.22593C204.8 2.56782 204.884 2.08611 205.079 1.78758C205.268 1.48906 205.566 1.3364 205.969 1.33301C206.19 1.33301 206.378 1.33301 206.534 1.33979C206.69 1.34658 206.813 1.35336 206.917 1.36693C207.021 1.3805 207.08 1.39068 207.086 1.40425C207.099 1.41442 207.106 1.43478 207.112 1.45852C207.119 1.48227 207.125 1.50602 207.125 1.52976L207.138 2.03522C207.138 2.11664 207.119 2.15734 207.08 2.16074L205.995 2.16752C205.748 2.16752 205.573 2.22858 205.469 2.34053C205.365 2.45587 205.313 2.751 205.326 3.22593L205.358 4.63714L207.086 4.62696C207.086 4.62696 207.145 4.64731 207.164 4.68463C207.19 4.72534 207.197 4.77283 207.203 4.82711V5.20705C207.21 5.26472 207.203 5.31221 207.184 5.34953C207.164 5.38684 207.138 5.41059 207.106 5.41059L205.378 5.42077L205.417 7.12372C205.423 7.53079 205.475 7.80557 205.566 7.95484C205.657 8.1041 205.846 8.17534 206.131 8.17534L207.216 8.16855C207.255 8.16855 207.281 8.20926 207.281 8.29068L207.294 8.80631L207.281 8.79953Z" fill="#B4ABA8"/>
<path d="M210.767 5.81088C210.792 6.84553 210.678 7.63594 210.433 8.17871C210.187 8.72147 209.835 8.99625 209.362 8.99964C208.89 9.00303 208.525 8.73504 208.254 8.19227C207.983 7.64951 207.838 6.86249 207.819 5.82784L207.794 4.5218C207.769 3.44644 207.889 2.64586 208.141 2.12345C208.393 1.59764 208.751 1.33643 209.199 1.33304C209.646 1.32965 210.036 1.59764 210.301 2.14041C210.565 2.67978 210.71 3.47019 210.735 4.50484L210.76 5.81088H210.767ZM210.263 5.81427L210.238 4.50823C210.206 2.94099 209.866 2.16076 209.217 2.16415C208.569 2.16755 208.26 2.95456 208.292 4.51841L208.317 5.82445C208.348 7.39169 208.695 8.17192 209.343 8.16853C209.992 8.16514 210.294 7.37812 210.263 5.81427Z" fill="#B4ABA8"/>
<path d="M214.244 6.58606C214.275 7.96637 213.766 8.6598 212.724 8.66634C212.482 8.66634 212.265 8.65653 212.061 8.63036C211.862 8.60419 211.744 8.5584 211.713 8.49625C211.682 8.43411 211.664 8.34252 211.664 8.22477L211.515 1.53253C211.515 1.40824 211.539 1.34609 211.608 1.34609L213.655 1.33301C213.655 1.33301 213.711 1.35263 213.729 1.38861C213.754 1.42786 213.76 1.47366 213.766 1.52599V1.92831C213.779 1.98391 213.766 2.02971 213.748 2.06569C213.729 2.10494 213.704 2.12456 213.673 2.12456L212.017 2.13438L212.067 4.39129C212.278 4.36512 212.464 4.35204 212.631 4.34877C213.673 4.34223 214.213 5.03238 214.244 6.41924V6.58606ZM213.754 6.58933V6.4127C213.742 5.95804 213.655 5.62441 213.487 5.41508C213.32 5.20574 213.041 5.10107 212.644 5.10434C212.507 5.10434 212.321 5.1207 212.079 5.14686L212.141 7.88133C212.476 7.90749 212.662 7.92058 212.706 7.92058C213.103 7.92058 213.376 7.80937 213.537 7.59676C213.698 7.38415 213.766 7.05052 213.76 6.5926L213.754 6.58933Z" fill="#B4ABA8"/>
<path d="M217.95 8.40915C217.963 8.44212 217.97 8.47509 217.97 8.51466C217.97 8.60699 217.944 8.65315 217.88 8.65315H217.535C217.49 8.65315 217.465 8.63007 217.445 8.57401L216.34 5.64596L215.694 7.66394C215.496 8.27725 215.388 8.5971 215.368 8.62677C215.349 8.65315 215.33 8.66634 215.305 8.66634H214.979C214.921 8.66634 214.889 8.62018 214.889 8.52455C214.889 8.48828 214.889 8.45531 214.902 8.42234L216.052 4.93702L214.761 1.58361C214.749 1.55063 214.742 1.52096 214.742 1.48798C214.742 1.39566 214.768 1.34949 214.825 1.34949H215.183C215.183 1.34949 215.228 1.35279 215.241 1.36598C215.253 1.37917 215.305 1.49458 215.388 1.7155L216.346 4.24458L216.909 2.47719C217.132 1.78145 217.247 1.42204 217.254 1.39896C217.26 1.37917 217.273 1.36268 217.286 1.34949C217.298 1.3396 217.318 1.33301 217.343 1.33301H217.669C217.727 1.33301 217.759 1.37917 217.759 1.47809C217.759 1.50777 217.759 1.53744 217.746 1.56382L216.634 4.95021L217.957 8.39925L217.95 8.40915Z" fill="#B4ABA8"/>
<path d="M221.193 5.81088C221.219 6.84553 221.105 7.63594 220.86 8.17871C220.614 8.72147 220.261 8.99625 219.789 8.99964C219.317 9.00303 218.952 8.73504 218.681 8.19227C218.41 7.64951 218.265 6.86249 218.246 5.82784L218.221 4.5218C218.196 3.44644 218.316 2.64586 218.567 2.12345C218.819 1.59764 219.178 1.33643 219.625 1.33304C220.072 1.32965 220.463 1.59764 220.727 2.14041C220.992 2.67978 221.137 3.47019 221.162 4.50484L221.187 5.81088H221.193ZM220.69 5.81427L220.664 4.50823C220.633 2.94099 220.293 2.16076 219.644 2.16415C218.996 2.16755 218.687 2.95456 218.719 4.51841L218.744 5.82445C218.775 7.39169 219.122 8.17192 219.77 8.16853C220.419 8.16514 220.721 7.37812 220.69 5.81427Z" fill="#B4ABA8"/>
<path d="M221.781 7.66488H221.95L222.739 1.76278C222.802 1.2565 222.983 1.00336 223.278 1.00003C223.572 0.996702 223.754 1.24651 223.841 1.74612L224.881 7.64823H225.031C225.094 7.64823 225.131 7.71151 225.131 7.83475L225.169 9.44684C225.169 9.50013 225.163 9.54343 225.144 9.58673C225.125 9.6267 225.1 9.64668 225.075 9.64668H224.774C224.774 9.64668 224.724 9.63003 224.706 9.59006C224.687 9.55009 224.674 9.50346 224.674 9.45017L224.655 8.45427L222.207 8.47092L222.226 9.46682C222.226 9.52011 222.219 9.56341 222.201 9.60671C222.182 9.64668 222.163 9.66667 222.132 9.66667H221.831C221.831 9.66667 221.781 9.65001 221.762 9.61004C221.743 9.57008 221.731 9.52344 221.731 9.47015L221.693 7.85806C221.693 7.7315 221.725 7.66821 221.787 7.66821L221.781 7.66488ZM223.184 1.96595L222.464 7.65822L224.367 7.6449L223.39 1.96262C223.372 1.84271 223.334 1.78276 223.284 1.78276C223.228 1.78276 223.196 1.84271 223.178 1.96262L223.184 1.96595Z" fill="#B4ABA8"/>
<path d="M225.815 8.38277L225.665 1.53415C225.665 1.40885 225.69 1.3462 225.759 1.3462H226.047C226.047 1.3462 226.097 1.36268 226.116 1.40225C226.134 1.44182 226.147 1.48469 226.147 1.53085L226.272 7.29134C226.272 7.31113 226.272 7.32102 226.272 7.32102L227.818 1.53085C227.837 1.45501 227.862 1.40225 227.887 1.37587C227.912 1.34949 227.962 1.33301 228.031 1.33301H228.331C228.375 1.33301 228.413 1.35939 228.444 1.41214C228.475 1.4682 228.494 1.53085 228.494 1.60999L228.644 8.53115C228.644 8.61029 228.613 8.64985 228.55 8.65315H228.269C228.269 8.65315 228.219 8.63666 228.2 8.60039C228.181 8.56412 228.168 8.51796 228.168 8.4685L228.043 2.7179C228.043 2.69812 228.043 2.68822 228.043 2.68822C228.043 2.68822 228.031 2.69812 228.025 2.7179L226.479 8.50807C226.447 8.61358 226.391 8.66634 226.31 8.66634H225.972C225.928 8.66634 225.89 8.63996 225.859 8.58391C225.828 8.52785 225.809 8.46191 225.809 8.38607L225.815 8.38277Z" fill="#B4ABA8"/>
<path d="M232.858 8.44862C232.858 8.5047 232.852 8.55088 232.826 8.58717C232.801 8.62346 232.782 8.64655 232.75 8.64655H232.484C232.484 8.64655 232.427 8.63005 232.408 8.59047C232.389 8.55088 232.376 8.5047 232.37 8.45192L232.236 2.61296C232.236 2.58657 232.236 2.57337 232.236 2.57337C232.236 2.57337 232.23 2.58327 232.224 2.60306L231.754 4.5065C231.583 5.20585 231.488 5.58192 231.475 5.6314C231.463 5.68089 231.437 5.72377 231.406 5.75676C231.374 5.78975 231.329 5.80624 231.266 5.80954H231.012C230.949 5.80954 230.904 5.79305 230.866 5.75676C230.828 5.72047 230.797 5.6446 230.759 5.52914L230.118 3.33871C229.972 2.84058 229.896 2.58987 229.896 2.58987C229.896 2.58987 229.896 2.60306 229.896 2.62945L230.029 8.46841C230.029 8.52449 230.023 8.57067 229.998 8.60696C229.972 8.64325 229.953 8.66634 229.921 8.66634H229.655C229.655 8.66634 229.598 8.64985 229.579 8.61026C229.56 8.57067 229.547 8.52449 229.541 8.47171L229.389 1.6365C229.389 1.55733 229.401 1.48805 229.433 1.43197C229.465 1.37589 229.496 1.3462 229.541 1.3462H229.896C229.985 1.3462 230.042 1.39898 230.074 1.51115L231.057 4.88916C231.076 4.95844 231.101 4.99473 231.126 4.99473C231.152 4.99473 231.171 4.95844 231.19 4.88916L232.021 1.50125C232.046 1.38909 232.103 1.33301 232.192 1.33301H232.547C232.592 1.33301 232.63 1.3594 232.661 1.41548C232.693 1.47156 232.712 1.54084 232.712 1.62001L232.864 8.45521L232.858 8.44862Z" fill="#B4ABA8"/>
<path d="M236.585 5.47787C236.61 6.51252 236.497 7.30293 236.251 7.8457C236.006 8.38847 235.653 8.66324 235.181 8.66663C234.708 8.67003 234.343 8.40204 234.072 7.85927C233.802 7.3165 233.657 6.52948 233.638 5.49483L233.613 4.1888C233.587 3.11344 233.707 2.31285 233.959 1.79044C234.211 1.26463 234.57 1.00342 235.017 1.00003C235.464 0.996639 235.855 1.26463 236.119 1.8074C236.383 2.34678 236.528 3.13718 236.554 4.17183L236.579 5.47787H236.585ZM236.088 5.48126L236.062 4.17523C236.031 2.60798 235.691 1.82775 235.042 1.83115C234.394 1.83454 234.085 2.62155 234.116 4.1854L234.142 5.49144C234.173 7.05868 234.519 7.83891 235.168 7.83552C235.817 7.83213 236.119 7.04511 236.088 5.48126Z" fill="#B4ABA8"/>
<path d="M241.07 8.12551L240.938 2.23377C240.938 2.06883 240.919 1.95996 240.887 1.90058C240.856 1.84121 240.787 1.81152 240.68 1.81152L239.31 1.82141C239.204 1.82141 239.134 1.8511 239.109 1.91048C239.084 1.96986 239.072 2.08202 239.072 2.24366L239.204 8.1354C239.204 8.19148 239.197 8.23767 239.172 8.27395C239.147 8.31024 239.128 8.33333 239.097 8.33333H238.82C238.82 8.33333 238.764 8.31684 238.745 8.27725C238.726 8.23767 238.713 8.19148 238.707 8.1387L238.575 2.24696C238.556 1.42555 238.795 1.0132 239.285 1.0099L240.655 1C241.151 1 241.403 1.40576 241.421 2.22717L241.553 8.11891C241.553 8.17499 241.547 8.22117 241.522 8.25746C241.497 8.29375 241.478 8.31684 241.447 8.31684H241.17C241.17 8.31684 241.114 8.30034 241.095 8.26076C241.076 8.22117 241.063 8.17499 241.057 8.12221L241.07 8.12551Z" fill="#B4ABA8"/>
<path d="M245.276 3.24159C245.309 4.70105 244.793 5.43405 243.726 5.4406C243.587 5.4406 243.401 5.42751 243.15 5.39478L243.216 8.13699C243.216 8.18935 243.209 8.23189 243.189 8.27443C243.17 8.3137 243.15 8.33333 243.117 8.33333H242.812C242.812 8.33333 242.759 8.31697 242.739 8.2777C242.719 8.23844 242.706 8.19262 242.706 8.14027L242.547 1.33055C242.547 1.26183 242.56 1.19966 242.587 1.14403C242.613 1.0884 242.759 1.0524 243.011 1.03277C243.262 1.01313 243.468 1.00005 243.627 1.00005C244.693 0.993501 245.243 1.69705 245.276 3.1107V3.23832V3.24159ZM244.753 3.24486V3.11724C244.74 2.63621 244.647 2.28934 244.468 2.07664C244.289 1.86394 244.011 1.75595 243.633 1.75923C243.448 1.75923 243.256 1.77559 243.064 1.80177L243.13 4.66505C243.481 4.68796 243.673 4.70105 243.706 4.70105C244.09 4.70105 244.362 4.58652 244.528 4.364C244.693 4.14148 244.766 3.76844 244.753 3.24813V3.24486Z" fill="#B4ABA8"/>
<path d="M248.75 5.47787C248.775 6.51252 248.662 7.30293 248.416 7.8457C248.171 8.38847 247.818 8.66324 247.346 8.66663C246.873 8.67003 246.508 8.40204 246.237 7.85927C245.967 7.3165 245.822 6.52948 245.803 5.49483L245.778 4.1888C245.753 3.11344 245.872 2.31285 246.124 1.79044C246.376 1.26463 246.735 1.00342 247.182 1.00003C247.629 0.996639 248.02 1.26463 248.284 1.8074C248.549 2.34678 248.693 3.13718 248.719 4.17183L248.744 5.47787H248.75ZM248.253 5.48126L248.227 4.17523C248.196 2.60798 247.856 1.82775 247.207 1.83115C246.559 1.83454 246.25 2.62155 246.282 4.1854L246.307 5.49144C246.338 7.05868 246.685 7.83891 247.333 7.83552C247.982 7.83213 248.284 7.04511 248.253 5.48126Z" fill="#B4ABA8"/>
<path d="M252.45 8.09912C252.47 8.1354 252.477 8.17169 252.477 8.21457C252.477 8.28055 252.457 8.31684 252.403 8.31684H251.953C251.899 8.31684 251.852 8.28715 251.825 8.22447L250.103 4.85305L250.184 8.1354C250.184 8.18818 250.177 8.23107 250.157 8.27395C250.137 8.31354 250.11 8.33333 250.083 8.33333H249.767C249.767 8.33333 249.713 8.31684 249.693 8.27725C249.673 8.23767 249.659 8.19148 249.659 8.1387L249.498 1.20123C249.498 1.15175 249.505 1.10886 249.525 1.07257C249.545 1.03299 249.572 1.0132 249.606 1.0132H249.915C249.915 1.0132 249.969 1.02969 249.996 1.06598C250.016 1.10226 250.029 1.14515 250.029 1.19793L250.103 4.38132L251.704 1.09237C251.737 1.02969 251.778 1 251.818 1H252.235C252.289 1 252.316 1.03299 252.322 1.10226C252.322 1.14185 252.322 1.17484 252.302 1.20453L250.628 4.56605L252.464 8.10241L252.45 8.09912Z" fill="#B4ABA8"/>
<path d="M255.452 5.47787C255.477 6.51252 255.364 7.30293 255.118 7.8457C254.873 8.38846 254.52 8.66324 254.048 8.66663C253.576 8.67003 253.21 8.40203 252.94 7.85927C252.669 7.3165 252.524 6.52948 252.505 5.49483L252.48 4.1888C252.455 3.11344 252.574 2.31285 252.826 1.79044C253.078 1.26463 253.437 1.00342 253.884 1.00003C254.331 0.99664 254.722 1.26463 254.986 1.8074C255.251 2.34678 255.396 3.13718 255.421 4.17183L255.446 5.47787H255.452ZM254.955 5.48126L254.93 4.17523C254.898 2.60798 254.558 1.82775 253.909 1.83115C253.261 1.83454 252.952 2.62155 252.984 4.1854L253.009 5.49144C253.04 7.05868 253.387 7.83891 254.035 7.83552C254.684 7.83213 254.986 7.04511 254.955 5.48126Z" fill="#B4ABA8"/>
<path d="M259.18 8.12221C259.18 8.17829 259.174 8.22447 259.149 8.26076C259.124 8.29705 259.105 8.32014 259.074 8.32014H258.8C258.8 8.32014 258.744 8.30364 258.725 8.26406C258.707 8.22447 258.694 8.17829 258.688 8.12551L258.613 4.85305L256.768 4.86295L256.843 8.1354C256.843 8.19148 256.837 8.23767 256.812 8.27395C256.787 8.31024 256.768 8.33333 256.737 8.33333H256.463C256.463 8.33333 256.407 8.31684 256.388 8.27725C256.369 8.23767 256.357 8.19148 256.351 8.1387L256.201 1.21113C256.201 1.15505 256.207 1.10886 256.232 1.07257C256.251 1.03299 256.276 1.0132 256.307 1.0132H256.581C256.581 1.0132 256.637 1.02969 256.656 1.06928C256.681 1.10886 256.687 1.15505 256.694 1.20783L256.756 4.06463L258.601 4.05473L258.538 1.19793C258.538 1.14185 258.545 1.09567 258.569 1.05938C258.588 1.01979 258.613 1 258.644 1H258.918C258.918 1 258.975 1.01649 258.993 1.05608C259.018 1.09567 259.024 1.14185 259.031 1.19463L259.18 8.12221Z" fill="#B4ABA8"/>
<path d="M262.656 8.32758C262.656 8.40218 262.642 8.45983 262.602 8.49373C262.568 8.52764 262.46 8.56494 262.278 8.60563C262.102 8.64293 261.866 8.66328 261.576 8.66667C261.103 8.66667 260.718 8.40557 260.428 7.8766C260.138 7.34763 259.983 6.57113 259.962 5.55049L259.928 4.13991C259.901 3.11249 260.023 2.3326 260.286 1.80024C260.55 1.26788 260.921 1.00339 261.4 1C261.589 1 261.805 1.02374 262.048 1.0746C262.291 1.12546 262.419 1.16276 262.446 1.1831C262.467 1.20345 262.48 1.23736 262.48 1.28483L262.494 1.80363C262.494 1.87483 262.467 1.91213 262.413 1.91213C261.987 1.85449 261.663 1.82736 261.427 1.82736C260.752 1.83075 260.428 2.60047 260.462 4.13313L260.496 5.54371C260.516 6.30326 260.61 6.87292 260.799 7.25947C260.982 7.64264 261.238 7.83591 261.569 7.83252C261.765 7.83252 261.954 7.81896 262.136 7.79861L262.548 7.74775C262.608 7.74775 262.642 7.80201 262.649 7.91051V8.32419L262.656 8.32758Z" fill="#B4ABA8"/>
<path d="M265.622 1.24521L264.557 6.84574C264.439 7.4702 264.309 7.87234 264.16 8.05543C264.012 8.23852 263.814 8.33333 263.554 8.33333C263.256 8.33333 263.101 8.26468 263.101 8.12082L263.089 7.67291C263.089 7.56829 263.126 7.51598 263.201 7.51598C263.312 7.53559 263.423 7.54213 263.535 7.54213C263.665 7.54213 263.758 7.50617 263.826 7.44078C263.888 7.37212 263.937 7.26423 263.975 7.11711C264.012 6.96998 264.098 6.52534 264.235 5.79299H264.21C264.105 5.79299 264.024 5.74721 263.968 5.65567C263.913 5.56086 263.863 5.41046 263.814 5.20122L262.916 1.26155C262.91 1.22232 262.903 1.18963 262.903 1.15693C262.903 1.06212 262.928 1.01308 262.984 1.01308H263.312C263.355 1.01308 263.393 1.05558 263.411 1.14712L264.247 4.80562C264.266 4.88735 264.278 4.93966 264.29 4.95928C264.303 4.9789 264.328 4.98871 264.359 4.98871H264.389L265.126 1.13732C265.145 1.04577 265.176 1 265.213 1H265.547C265.603 1 265.634 1.04577 265.634 1.14059C265.634 1.17001 265.634 1.2027 265.628 1.24521H265.622Z" fill="#B4ABA8"/>
<path d="M268.337 8.17633L267.21 1.95186C267.19 1.83411 267.151 1.77523 267.099 1.77523C267.041 1.77523 267.009 1.83411 266.989 1.95186L266.16 8.18614C266.147 8.28427 266.114 8.33333 266.062 8.33333H265.732C265.667 8.33333 265.635 8.28427 265.635 8.1796C265.635 8.15671 265.635 8.13381 265.635 8.11418L266.529 1.74906C266.6 1.25189 266.782 1.0033 267.086 1.00003C267.391 0.996761 267.579 1.24208 267.67 1.73271L268.856 8.09456C268.856 8.09456 268.856 8.13054 268.862 8.15998C268.862 8.26464 268.836 8.31698 268.771 8.31698H268.441C268.396 8.31698 268.363 8.27119 268.344 8.17306L268.337 8.17633Z" fill="#B4ABA8"/>
<path d="M271.84 6.24933C271.871 7.63211 271.362 8.32678 270.32 8.33333C270.078 8.33333 269.861 8.3235 269.656 8.29729C269.458 8.27107 269.34 8.2252 269.309 8.16294C269.278 8.10068 269.259 8.00894 269.259 7.89097L269.11 1.18677C269.11 1.06226 269.135 1 269.203 1H269.495C269.557 1 269.594 1.05898 269.594 1.1835L269.656 4.05064C269.867 4.02443 270.053 4.01132 270.221 4.00804C271.263 4.00149 271.803 4.69288 271.834 6.08222V6.24933H271.84ZM271.356 6.25261V6.07566C271.344 5.6202 271.257 5.28597 271.089 5.07626C270.922 4.86655 270.643 4.76169 270.246 4.76497C270.109 4.76497 269.923 4.78135 269.681 4.80757L269.743 7.54692C270.078 7.57313 270.264 7.58624 270.308 7.58624C270.705 7.58624 270.978 7.47483 271.139 7.26184C271.3 7.04885 271.368 6.71463 271.362 6.25588L271.356 6.25261Z" fill="#B4ABA8"/>
<path d="M274.572 1.61084C274.572 1.71649 274.539 1.76932 274.466 1.76932L273.353 1.77593L273.498 8.13522C273.498 8.18805 273.491 8.23098 273.471 8.2739C273.451 8.31352 273.432 8.33333 273.399 8.33333H273.082C273.082 8.33333 273.03 8.31682 273.01 8.2772C272.99 8.23758 272.977 8.19136 272.977 8.13853L272.832 1.77923L271.725 1.78583C271.645 1.78583 271.606 1.733 271.606 1.62735L271.593 1.19481C271.593 1.14528 271.599 1.10566 271.626 1.06934C271.645 1.03302 271.672 1.01651 271.705 1.01651L274.447 1C274.519 1 274.559 1.05943 274.559 1.1783L274.572 1.61084Z" fill="#B4ABA8"/>
<path d="M275.219 8.04976L275.068 1.20114C275.068 1.07584 275.093 1.01319 275.162 1.01319H275.45C275.45 1.01319 275.5 1.02968 275.519 1.06924C275.538 1.10881 275.55 1.15168 275.55 1.19784L275.675 6.95833C275.675 6.97812 275.675 6.98801 275.675 6.98801L277.221 1.19784C277.24 1.122 277.265 1.06924 277.29 1.04287C277.315 1.01649 277.365 1 277.434 1H277.735C277.778 1 277.816 1.02638 277.847 1.07914C277.878 1.13519 277.897 1.19784 277.897 1.27698L278.047 8.19814C278.047 8.27728 278.016 8.31685 277.954 8.32014H277.672C277.672 8.32014 277.622 8.30366 277.603 8.26739C277.584 8.23112 277.572 8.18495 277.572 8.13549L277.447 2.38489C277.447 2.36511 277.447 2.35522 277.447 2.35522C277.447 2.35522 277.434 2.36511 277.428 2.38489L275.882 8.17506C275.851 8.28058 275.794 8.33333 275.713 8.33333H275.375C275.331 8.33333 275.294 8.30695 275.262 8.2509C275.231 8.19484 275.212 8.1289 275.212 8.05306L275.219 8.04976Z" fill="#B4ABA8"/>
<path d="M281.769 2.90858C281.802 4.36804 281.286 5.10104 280.219 5.10759C280.08 5.10759 279.895 5.0945 279.643 5.06177L279.709 7.80399C279.709 7.85634 279.702 7.89888 279.683 7.94142C279.663 7.98069 279.643 8.00033 279.61 8.00033H279.305C279.305 8.00033 279.252 7.98396 279.232 7.9447C279.212 7.90543 279.199 7.85962 279.199 7.80726L279.04 0.997543C279.04 0.928824 279.053 0.866649 279.08 0.81102C279.106 0.75539 279.252 0.719395 279.504 0.699761C279.755 0.680127 279.961 0.667037 280.12 0.667037C281.186 0.660493 281.736 1.36404 281.769 2.77769V2.90531V2.90858ZM281.246 2.91185V2.78423C281.233 2.3032 281.14 1.95633 280.961 1.74363C280.782 1.53093 280.504 1.42295 280.126 1.42622C279.941 1.42622 279.749 1.44258 279.557 1.46876L279.623 4.33205C279.974 4.35495 280.166 4.36804 280.199 4.36804C280.584 4.36804 280.855 4.25351 281.021 4.03099C281.186 3.80847 281.259 3.43543 281.246 2.91513V2.91185Z" fill="#B4ABA8"/>
<path d="M285.243 5.14486C285.268 6.17951 285.155 6.96992 284.909 7.51269C284.664 8.05546 284.311 8.33023 283.839 8.33363C283.367 8.33702 283.001 8.06903 282.731 7.52626C282.46 6.98349 282.315 6.19648 282.296 5.16182L282.271 3.85579C282.246 2.78043 282.365 1.97984 282.617 1.45743C282.869 0.931623 283.228 0.670416 283.675 0.667024C284.122 0.663632 284.513 0.931623 284.777 1.47439C285.042 2.01377 285.187 2.80417 285.212 3.83883L285.237 5.14486H285.243ZM284.746 5.14825L284.721 3.84222C284.689 2.27498 284.349 1.49475 283.7 1.49814C283.052 1.50153 282.743 2.28854 282.775 3.8524L282.8 5.15843C282.831 6.72568 283.178 7.5059 283.826 7.50251C284.475 7.49912 284.777 6.71211 284.746 5.14825Z" fill="#B4ABA8"/>
<path d="M288.721 6.17615C288.752 7.60771 288.242 8.32687 287.197 8.33366C286.955 8.33366 286.737 8.32348 286.532 8.29634C286.333 8.2692 286.215 8.22171 286.184 8.15726C286.153 8.0928 286.134 7.99782 286.134 7.8757L285.991 1.1284C285.991 1.0402 285.991 0.965568 286.01 0.907899C286.029 0.85023 286.053 0.809522 286.084 0.782383C286.116 0.755245 286.234 0.731499 286.426 0.70436C286.619 0.680614 286.812 0.667045 287.005 0.667045C288.055 0.66026 288.596 1.30819 288.621 2.61084V2.77367C288.634 3.14343 288.59 3.4657 288.497 3.74387C288.404 4.02204 288.267 4.22897 288.08 4.37144C288.273 4.49696 288.422 4.70389 288.534 4.99563C288.646 5.28737 288.702 5.62321 288.714 6.00654V6.17954L288.721 6.17615ZM288.142 2.77706V2.61423C288.13 2.20715 288.043 1.91202 287.881 1.72544C287.72 1.53887 287.434 1.44728 287.023 1.44728C286.967 1.44728 286.793 1.45745 286.489 1.4812L286.545 3.9949L287.371 3.98811C287.9 3.98811 288.155 3.58104 288.136 2.77706H288.142ZM288.236 6.17954V6.00654C288.211 5.14828 287.937 4.72085 287.396 4.72424L286.569 4.73103L286.632 7.51611C286.967 7.54325 287.154 7.55682 287.191 7.55682C287.589 7.55682 287.863 7.44148 288.024 7.22098C288.186 7.00048 288.254 6.65447 288.248 6.17954H288.236Z" fill="#B4ABA8"/>
<path d="M290.048 5.60277L289.744 7.85641C289.744 7.90874 289.724 7.94472 289.705 7.96762C289.685 7.99051 289.666 8.00033 289.646 8.00033H289.316C289.251 8.00033 289.219 7.95126 289.219 7.84659C289.219 7.8237 289.219 7.8008 289.219 7.78118L290.113 1.41605C290.184 0.918882 290.366 0.670295 290.67 0.667024C290.975 0.663754 291.163 0.909069 291.254 1.3997L292.44 7.76155C292.44 7.76155 292.44 7.79753 292.446 7.82697C292.446 7.93164 292.42 7.98397 292.355 7.98397H292.025C292.025 7.98397 291.979 7.97416 291.96 7.94472C291.941 7.91528 291.915 7.79426 291.876 7.57511L291.506 5.59296L290.055 5.60277H290.048ZM291.377 4.82104L290.93 2.34825C290.839 1.85108 290.787 1.58941 290.787 1.57306C290.787 1.55343 290.774 1.53381 290.768 1.51091C290.761 1.48801 290.748 1.47166 290.735 1.45858C290.722 1.44549 290.709 1.43895 290.69 1.43895C290.67 1.43895 290.651 1.44549 290.638 1.46185C290.625 1.4782 290.612 1.49783 290.606 1.52399C290.599 1.55016 290.567 1.7366 290.521 2.08331L290.152 4.82758L291.39 4.82104H291.377Z" fill="#B4ABA8"/>
<path d="M294.929 1.27783C294.929 1.38349 294.896 1.43632 294.824 1.43632L293.71 1.44292L293.855 7.80222C293.855 7.85505 293.848 7.89797 293.829 7.94089C293.809 7.98052 293.789 8.00033 293.756 8.00033H293.44C293.44 8.00033 293.387 7.98382 293.367 7.94419C293.347 7.90457 293.334 7.85835 293.334 7.80552L293.189 1.44622L292.082 1.45282C292.003 1.45282 291.963 1.4 291.963 1.29434L291.95 0.861799C291.95 0.812272 291.957 0.77265 291.983 0.73633C292.003 0.70001 292.029 0.683501 292.062 0.683501L294.804 0.666992C294.877 0.666992 294.916 0.726425 294.916 0.84529L294.929 1.27783Z" fill="#B4ABA8"/>
<path d="M298.155 5.91632C298.186 7.2991 297.678 7.99377 296.635 8.00033C296.394 8.00033 296.176 7.99049 295.972 7.96428C295.773 7.93807 295.655 7.89219 295.624 7.82994C295.593 7.76768 295.575 7.67593 295.575 7.55797L295.426 0.853766C295.426 0.72925 295.451 0.666992 295.519 0.666992H295.81C295.872 0.666992 295.91 0.725973 295.91 0.850489L295.972 3.71763C296.183 3.69142 296.369 3.67831 296.536 3.67503C297.578 3.66848 298.118 4.35987 298.149 5.74921V5.91632H298.155ZM297.671 5.9196V5.74265C297.659 5.28719 297.572 4.95296 297.405 4.74325C297.237 4.53354 296.958 4.42868 296.561 4.43196C296.425 4.43196 296.238 4.44834 295.997 4.47456L296.059 7.21391C296.394 7.24012 296.58 7.25323 296.623 7.25323C297.02 7.25323 297.293 7.14182 297.454 6.92883C297.616 6.71585 297.684 6.38162 297.678 5.92288L297.671 5.9196Z" fill="#B4ABA8"/>
<path d="M301.383 7.99458C301.383 8.06917 301.37 8.12682 301.329 8.16073C301.295 8.19463 301.187 8.23193 301.005 8.27262C300.83 8.30992 300.593 8.33027 300.303 8.33366C299.831 8.33366 299.446 8.07256 299.156 7.5436C298.865 7.01463 298.71 6.23813 298.69 5.21749L298.656 3.8069C298.629 2.77948 298.751 1.99959 299.014 1.46723C299.277 0.934868 299.648 0.670383 300.128 0.666992C300.317 0.666992 300.533 0.690728 300.776 0.74159C301.019 0.792453 301.147 0.829752 301.174 0.850097C301.194 0.870442 301.208 0.90435 301.208 0.951822L301.221 1.47062C301.221 1.54183 301.194 1.57913 301.14 1.57913C300.715 1.52148 300.391 1.49435 300.155 1.49435C299.48 1.49775 299.156 2.26746 299.189 3.80012L299.223 5.2107C299.243 5.97025 299.338 6.53991 299.527 6.92646C299.709 7.30963 299.966 7.50291 300.296 7.49952C300.492 7.49952 300.681 7.48595 300.863 7.46561L301.275 7.41474C301.336 7.41474 301.37 7.469 301.376 7.5775V7.99118L301.383 7.99458Z" fill="#B4ABA8"/>
<path d="M304.611 7.78762C304.611 7.83998 304.604 7.88252 304.586 7.92506C304.567 7.96433 304.548 7.98396 304.517 7.98396H304.224C304.224 7.98396 304.174 7.9676 304.156 7.92833C304.137 7.88907 304.124 7.84325 304.124 7.7909L304.062 4.91777C303.856 4.93741 303.663 4.94722 303.47 4.9505H303.333L302.759 6.81246C302.541 7.52584 302.422 7.89888 302.416 7.92506C302.404 7.95124 302.391 7.97087 302.372 7.98396C302.354 7.99705 302.329 8.00033 302.291 8.00033H301.948C301.905 8.00033 301.88 7.96106 301.88 7.8727C301.88 7.84325 301.88 7.8138 301.892 7.78762L302.809 4.80979C302.535 4.68216 302.323 4.44655 302.167 4.10623C302.011 3.76591 301.93 3.34377 301.917 2.84638V2.77438C301.886 1.37382 302.372 0.670265 303.376 0.666992C303.638 0.666992 303.875 0.676809 304.075 0.699716C304.274 0.722622 304.392 0.752073 304.417 0.781524C304.442 0.810976 304.461 0.866606 304.461 0.951687L304.611 7.79417V7.78762ZM304.043 4.16186L303.987 1.48508C303.906 1.46545 303.707 1.4589 303.395 1.4589C303.027 1.4589 302.771 1.56689 302.616 1.77305C302.46 1.9792 302.391 2.30971 302.397 2.7613V2.83329C302.41 3.3405 302.503 3.69064 302.672 3.89026C302.84 4.08987 303.102 4.18477 303.451 4.18477C303.594 4.18477 303.794 4.17495 304.043 4.16186Z" fill="#B4ABA8"/>
<path d="M309.328 7.99458C309.328 8.06917 309.314 8.12682 309.273 8.16073C309.24 8.19463 309.132 8.23193 308.949 8.27262C308.774 8.30992 308.538 8.33027 308.247 8.33366C307.775 8.33366 307.39 8.07256 307.1 7.5436C306.81 7.01463 306.654 6.23813 306.634 5.21749L306.6 3.8069C306.573 2.77948 306.695 1.99959 306.958 1.46723C307.221 0.934868 307.593 0.670383 308.072 0.666992C308.261 0.666992 308.477 0.690728 308.72 0.74159C308.963 0.792453 309.091 0.829752 309.118 0.850097C309.138 0.870442 309.152 0.90435 309.152 0.951822L309.166 1.47062C309.166 1.54183 309.138 1.57913 309.084 1.57913C308.659 1.52148 308.335 1.49435 308.099 1.49435C307.424 1.49775 307.1 2.26746 307.134 3.80012L307.167 5.2107C307.188 5.97025 307.282 6.53991 307.471 6.92646C307.653 7.30963 307.91 7.50291 308.241 7.49952C308.436 7.49952 308.625 7.48595 308.808 7.46561L309.219 7.41474C309.28 7.41474 309.314 7.469 309.321 7.5775V7.99118L309.328 7.99458Z" fill="#B4ABA8"/>
<path d="M312.304 5.14486C312.329 6.17951 312.216 6.96992 311.97 7.51269C311.724 8.05546 311.372 8.33023 310.899 8.33363C310.427 8.33702 310.062 8.06903 309.791 7.52626C309.52 6.98349 309.376 6.19648 309.357 5.16182L309.331 3.85579C309.306 2.78043 309.426 1.97984 309.678 1.45743C309.93 0.931624 310.289 0.670416 310.736 0.667024C311.183 0.663632 311.573 0.931624 311.838 1.47439C312.102 2.01377 312.247 2.80417 312.272 3.83883L312.297 5.14486H312.304ZM311.8 5.14825L311.775 3.84222C311.743 2.27498 311.403 1.49475 310.755 1.49814C310.106 1.50153 309.797 2.28854 309.829 3.8524L309.854 5.15843C309.886 6.72568 310.232 7.5059 310.881 7.50251C311.529 7.49912 311.831 6.71211 311.8 5.14825Z" fill="#B4ABA8"/>
<path d="M317.024 7.99458C317.024 8.06917 317.01 8.12682 316.97 8.16073C316.936 8.19463 316.828 8.23193 316.646 8.27262C316.47 8.30992 316.234 8.33027 315.944 8.33366C315.471 8.33366 315.086 8.07256 314.796 7.5436C314.506 7.01463 314.351 6.23813 314.33 5.21749L314.297 3.8069C314.27 2.77948 314.391 1.99959 314.654 1.46723C314.918 0.934868 315.289 0.670383 315.768 0.666992C315.957 0.666992 316.173 0.690728 316.416 0.74159C316.659 0.792453 316.788 0.829752 316.815 0.850097C316.835 0.870442 316.848 0.90435 316.848 0.951822L316.862 1.47062C316.862 1.54183 316.835 1.57913 316.781 1.57913C316.355 1.52148 316.031 1.49435 315.795 1.49435C315.12 1.49775 314.796 2.26746 314.83 3.80012L314.864 5.2107C314.884 5.97025 314.978 6.53991 315.167 6.92646C315.35 7.30963 315.606 7.5029 315.937 7.49951C316.133 7.49951 316.322 7.48595 316.504 7.46561L316.916 7.41474C316.977 7.41474 317.01 7.469 317.017 7.5775V7.99118L317.024 7.99458Z" fill="#B4ABA8"/>
<path d="M320.016 7.7925L319.884 1.90076C319.884 1.73582 319.865 1.62696 319.834 1.56758C319.802 1.5082 319.733 1.47851 319.626 1.47851L318.257 1.4884C318.15 1.4884 318.081 1.51809 318.056 1.57747C318.03 1.63685 318.018 1.74901 318.018 1.91066L318.15 7.8024C318.15 7.85848 318.144 7.90466 318.118 7.94095C318.093 7.97723 318.074 8.00033 318.043 8.00033H317.767C317.767 8.00033 317.71 7.98383 317.691 7.94425C317.672 7.90466 317.66 7.85848 317.653 7.80569L317.522 1.91396C317.503 1.09254 317.741 0.680188 318.231 0.676889L319.601 0.666992C320.097 0.666992 320.349 1.07275 320.368 1.89416L320.5 7.7859C320.5 7.84198 320.493 7.88816 320.468 7.92445C320.443 7.96074 320.424 7.98383 320.393 7.98383H320.116C320.116 7.98383 320.06 7.96734 320.041 7.92775C320.022 7.88816 320.01 7.84198 320.003 7.7892L320.016 7.7925Z" fill="#B4ABA8"/>
<path d="M323.714 8.13351C323.714 8.1844 323.707 8.22171 323.688 8.24885C323.668 8.27599 323.551 8.29634 323.33 8.30991C323.11 8.32348 322.856 8.33027 322.564 8.33366C322.148 8.33366 321.843 8.1844 321.648 7.88248C321.447 7.57717 321.343 7.10224 321.33 6.4577L321.245 2.55991C321.232 1.9018 321.317 1.42009 321.512 1.12156C321.7 0.823039 321.999 0.670385 322.402 0.666992C322.622 0.666992 322.811 0.666992 322.967 0.673777C323.123 0.680562 323.246 0.687346 323.35 0.700915C323.454 0.714485 323.512 0.724662 323.519 0.738231C323.532 0.748408 323.538 0.768762 323.545 0.792508C323.551 0.816255 323.558 0.840001 323.558 0.863747L323.571 1.3692C323.571 1.45062 323.551 1.49133 323.512 1.49472L322.428 1.50151C322.181 1.50151 322.005 1.56257 321.901 1.67451C321.798 1.78985 321.746 2.08499 321.759 2.55991L321.791 3.97112L323.519 3.96095C323.519 3.96095 323.577 3.9813 323.597 4.01861C323.623 4.05932 323.629 4.10682 323.636 4.16109V4.54103C323.642 4.5987 323.636 4.6462 323.616 4.68351C323.597 4.72083 323.571 4.74457 323.538 4.74457L321.811 4.75475L321.85 6.4577C321.856 6.86478 321.908 7.13956 321.999 7.28882C322.09 7.43808 322.278 7.50932 322.564 7.50932L323.649 7.50254C323.688 7.50254 323.714 7.54325 323.714 7.62466L323.727 8.1403L323.714 8.13351Z" fill="#B4ABA8"/>
<path d="M327.412 8.12631L325.394 8.13976C324.891 8.13976 324.626 7.72947 324.607 6.89879L324.472 0.88223C324.472 0.825057 324.478 0.777974 324.504 0.74098C324.523 0.700623 324.549 0.680445 324.581 0.680445H324.865C324.865 0.680445 324.923 0.69726 324.942 0.737617C324.968 0.777974 324.975 0.825057 324.981 0.878866L325.117 6.89542C325.117 7.06358 325.136 7.17456 325.168 7.23509C325.2 7.29563 325.265 7.3259 325.374 7.3259L326.78 7.31581C326.89 7.31581 326.961 7.28554 326.986 7.22501C327.012 7.16447 327.025 7.05013 327.025 6.88533L326.89 0.868777C326.89 0.811605 326.896 0.764522 326.922 0.727528C326.941 0.687171 326.967 0.666992 326.999 0.666992H327.283C327.283 0.666992 327.341 0.683808 327.36 0.724165C327.386 0.764522 327.393 0.811605 327.399 0.865414L327.535 6.87524C327.535 7.02658 327.535 7.1712 327.515 7.31581H327.805C327.87 7.31581 327.909 7.37634 327.909 7.50414L327.947 9.13187C327.947 9.18568 327.941 9.2294 327.921 9.27312C327.902 9.31348 327.876 9.33366 327.851 9.33366H327.547C327.547 9.33366 327.496 9.31684 327.477 9.27649C327.457 9.23613 327.444 9.18905 327.444 9.13524L327.425 8.12968L327.412 8.12631Z" fill="#B4ABA8"/>
<path d="M328.346 7.71675L328.195 0.868131C328.195 0.742832 328.22 0.680182 328.289 0.680182H328.577C328.577 0.680182 328.627 0.696668 328.646 0.736237C328.665 0.775805 328.677 0.818671 328.677 0.864834L328.802 6.62533C328.802 6.64511 328.802 6.655 328.802 6.655L330.348 0.864834C330.367 0.788995 330.392 0.736237 330.417 0.709858C330.442 0.683479 330.492 0.666992 330.561 0.666992H330.861C330.905 0.666992 330.943 0.693371 330.974 0.746129C331.005 0.802184 331.024 0.864834 331.024 0.943971L331.174 7.86513C331.174 7.94427 331.143 7.98384 331.08 7.98714H330.799C330.799 7.98714 330.749 7.97065 330.73 7.93438C330.711 7.89811 330.699 7.85194 330.699 7.80248L330.574 2.05188C330.574 2.0321 330.574 2.02221 330.574 2.02221C330.574 2.02221 330.561 2.0321 330.555 2.05188L329.009 7.84205C328.978 7.94757 328.921 8.00033 328.84 8.00033H328.502C328.458 8.00033 328.421 7.97395 328.389 7.91789C328.358 7.86184 328.339 7.79589 328.339 7.72005L328.346 7.71675Z" fill="#B4ABA8"/>
<path d="M332.748 5.60277L332.444 7.85641C332.444 7.90874 332.424 7.94472 332.405 7.96762C332.386 7.99051 332.366 8.00033 332.347 8.00033H332.016C331.951 8.00033 331.919 7.95126 331.919 7.84659C331.919 7.8237 331.919 7.8008 331.919 7.78118L332.813 1.41605C332.885 0.918882 333.066 0.670295 333.371 0.667024C333.675 0.663754 333.863 0.909069 333.954 1.3997L335.14 7.76155C335.14 7.76155 335.14 7.79753 335.146 7.82697C335.146 7.93164 335.12 7.98397 335.056 7.98397H334.725C334.725 7.98397 334.68 7.97416 334.66 7.94472C334.641 7.91528 334.615 7.79426 334.576 7.57511L334.207 5.59296L332.755 5.60277H332.748ZM334.07 4.82104L333.623 2.34825C333.533 1.85108 333.481 1.58941 333.481 1.57306C333.481 1.55343 333.468 1.53381 333.461 1.51091C333.455 1.48801 333.442 1.47166 333.429 1.45858C333.416 1.44549 333.403 1.43895 333.384 1.43895C333.364 1.43895 333.345 1.44549 333.332 1.46185C333.319 1.4782 333.306 1.49783 333.299 1.52399C333.293 1.55016 333.26 1.7366 333.215 2.08331L332.846 4.82758L334.083 4.82104H334.07Z" fill="#B4ABA8"/>
<path d="M338.097 7.50934L336.969 1.28486C336.95 1.16711 336.911 1.10824 336.859 1.10824C336.801 1.10824 336.768 1.16711 336.749 1.28486L335.919 7.51915C335.906 7.61728 335.874 7.66634 335.822 7.66634H335.492C335.427 7.66634 335.395 7.61728 335.395 7.51261C335.395 7.48971 335.395 7.46682 335.395 7.44719L336.289 1.08207C336.36 0.584897 336.542 0.336311 336.846 0.33304C337.151 0.329769 337.339 0.575085 337.429 1.06572L338.615 7.42757C338.615 7.42757 338.615 7.46355 338.622 7.49298C338.622 7.59765 338.596 7.64999 338.531 7.64999H338.201C338.155 7.64999 338.123 7.60419 338.103 7.50607L338.097 7.50934Z" fill="#B4ABA8"/>
<path d="M339.268 7.71675L339.118 0.868131C339.118 0.742832 339.143 0.680182 339.212 0.680182H339.5C339.5 0.680182 339.55 0.696668 339.569 0.736237C339.588 0.775805 339.6 0.818671 339.6 0.864834L339.725 6.62533C339.725 6.64511 339.725 6.655 339.725 6.655L341.271 0.864834C341.29 0.788995 341.315 0.736237 341.34 0.709858C341.365 0.683479 341.415 0.666992 341.484 0.666992H341.784C341.828 0.666992 341.866 0.693371 341.897 0.746129C341.928 0.802184 341.947 0.864834 341.947 0.943971L342.097 7.86513C342.097 7.94427 342.066 7.98384 342.003 7.98714H341.722C341.722 7.98714 341.672 7.97065 341.653 7.93438C341.634 7.89811 341.622 7.85194 341.622 7.80248L341.496 2.05188C341.496 2.0321 341.496 2.02221 341.496 2.02221C341.496 2.02221 341.484 2.0321 341.478 2.05188L339.932 7.84205C339.9 7.94757 339.844 8.00033 339.763 8.00033H339.425C339.381 8.00033 339.343 7.97395 339.312 7.91789C339.281 7.86184 339.262 7.79589 339.262 7.72005L339.268 7.71675Z" fill="#B4ABA8"/>
<path d="M345.574 7.66059C345.574 7.73519 345.56 7.79283 345.52 7.82674C345.486 7.86065 345.378 7.89795 345.196 7.93864C345.02 7.97594 344.784 7.99628 344.494 7.99967C344.021 7.99967 343.636 7.73858 343.346 7.20961C343.056 6.68064 342.9 5.90414 342.88 4.8835L342.846 3.47292C342.819 2.44549 342.941 1.6656 343.204 1.13324C343.468 0.600883 343.839 0.336399 344.318 0.333008C344.507 0.333008 344.723 0.356744 344.966 0.407606C345.209 0.458468 345.337 0.495768 345.364 0.516113C345.385 0.536458 345.398 0.570366 345.398 0.617838L345.412 1.13663C345.412 1.20784 345.385 1.24514 345.331 1.24514C344.905 1.1875 344.581 1.16037 344.345 1.16037C343.67 1.16376 343.346 1.93348 343.38 3.46613L343.414 4.87672C343.434 5.63627 343.528 6.20593 343.717 6.59248C343.9 6.97564 344.156 7.16892 344.487 7.16553C344.683 7.16553 344.872 7.15197 345.054 7.13162L345.466 7.08076C345.526 7.08076 345.56 7.13501 345.567 7.24352V7.6572L345.574 7.66059Z" fill="#B4ABA8"/>
<path d="M348.552 0.943844C348.552 1.0495 348.519 1.10233 348.447 1.10233L347.333 1.10893L347.478 7.46823C347.478 7.52106 347.471 7.56398 347.452 7.60691C347.432 7.64653 347.412 7.66634 347.379 7.66634H347.063C347.063 7.66634 347.01 7.64983 346.99 7.61021C346.971 7.57059 346.957 7.52436 346.957 7.47153L346.812 1.11224L345.705 1.11884C345.626 1.11884 345.586 1.06601 345.586 0.960353L345.573 0.527815C345.573 0.478288 345.58 0.438666 345.606 0.402346C345.626 0.366026 345.652 0.349517 345.685 0.349517L348.427 0.333008C348.5 0.333008 348.539 0.39244 348.539 0.511306L348.552 0.943844Z" fill="#B4ABA8"/>
<path d="M351.776 4.81088C351.802 5.84553 351.688 6.63594 351.443 7.17871C351.197 7.72147 350.844 7.99625 350.372 7.99964C349.9 8.00303 349.535 7.73504 349.264 7.19227C348.993 6.64951 348.848 5.86249 348.829 4.82784L348.804 3.5218C348.779 2.44644 348.899 1.64586 349.15 1.12345C349.402 0.597639 349.761 0.336432 350.208 0.33304C350.655 0.329647 351.046 0.597639 351.31 1.14041C351.575 1.67978 351.72 2.47019 351.745 3.50484L351.77 4.81088H351.776ZM351.279 4.81427L351.254 3.50823C351.222 1.94099 350.882 1.16076 350.234 1.16415C349.585 1.16755 349.276 1.95456 349.308 3.51841L349.333 4.82445C349.365 6.39169 349.711 7.17192 350.36 7.16853C351.008 7.16514 351.31 6.37812 351.279 4.81427Z" fill="#B4ABA8"/>
<path d="M355.994 7.44862C355.994 7.5047 355.987 7.55088 355.962 7.58717C355.937 7.62346 355.918 7.64655 355.886 7.64655H355.619C355.619 7.64655 355.562 7.63005 355.543 7.59047C355.524 7.55088 355.512 7.5047 355.505 7.45192L355.372 1.61296C355.372 1.58657 355.372 1.57337 355.372 1.57337C355.372 1.57337 355.366 1.58327 355.359 1.60306L354.89 3.5065C354.719 4.20585 354.624 4.58192 354.611 4.6314C354.598 4.68089 354.573 4.72377 354.541 4.75676C354.51 4.78975 354.465 4.80624 354.402 4.80954H354.148C354.085 4.80954 354.04 4.79305 354.002 4.75676C353.964 4.72047 353.932 4.6446 353.894 4.52914L353.254 2.33871C353.108 1.84058 353.032 1.58987 353.032 1.58987C353.032 1.58987 353.032 1.60306 353.032 1.62945L353.165 7.46841C353.165 7.52449 353.159 7.57067 353.133 7.60696C353.108 7.64325 353.089 7.66634 353.057 7.66634H352.791C352.791 7.66634 352.734 7.64985 352.715 7.61026C352.696 7.57067 352.683 7.52449 352.677 7.47171L352.524 0.636502C352.524 0.557329 352.537 0.488054 352.569 0.431973C352.601 0.375893 352.632 0.346203 352.677 0.346203H353.032C353.121 0.346203 353.178 0.398985 353.209 0.511145L354.192 3.88916C354.211 3.95844 354.237 3.99473 354.262 3.99473C354.288 3.99473 354.307 3.95844 354.326 3.88916L355.157 0.501249C355.182 0.389088 355.239 0.333008 355.328 0.333008H355.683C355.727 0.333008 355.765 0.359399 355.797 0.415479C355.829 0.471559 355.848 0.540835 355.848 0.620007L356 7.45522L355.994 7.44862Z" fill="#B4ABA8"/>
</g>
<defs>
<clipPath id="clip0_310_971">
<rect width="356" height="11" fill="white"/>
</clipPath>
</defs>
</svg>
