<svg xmlns="http://www.w3.org/2000/svg" preserveAspectRatio="none" width="378" height="44" fill="none">
  <path fill="#B4ABA8" d="M366.8 39.3V22.4h1.2l3.8 8 3.8-8h1.3v17h-1.3v-14l-3.4 7.2h-.7l-3.5-7.2v14h-1.2ZM359 21.9c3 0 5.3 3.7 5.3 8.7 0 5-2.3 8.7-5.3 8.7s-5.3-3.7-5.3-8.7c0-5 2.3-8.7 5.3-8.7Zm0 15.6c2.3 0 4-3 4-7 0-3.9-1.7-6.8-4-6.8s-4 3-4 6.9c0 4 1.7 6.9 4 6.9ZM348 39.3v-15h-3.7v-1.9h8.7v1.8h-3.7v15.1H348ZM339.8 39.3c-3.2 0-5.6-3.6-5.6-8.7s2.4-8.7 5.6-8.7a4 4 0 0 1 3 1.2v2a4 4 0 0 0-3-1.4c-2.4 0-4.3 3-4.3 6.9 0 4 1.9 6.9 4.3 6.9a4 4 0 0 0 3.2-1.7v2c-.9 1-2 1.5-3.2 1.5ZM323 39.3V22.4h1.2V36l6.4-13.6h1.1v17h-1.2V25.6L324 39.3h-1ZM319.2 24.2H315V28c-.1 7.2-.7 11.3-3.4 11.3h-.5v-1.8h.5c1.9 0 2.1-4.4 2.2-11v-4h6.7v16.8h-1.2V24.2ZM299.8 39.3l4.7-17.4h1.2l4.7 17.4h-1.3l-1.3-4.7h-5.5l-1.2 4.7h-1.3Zm3-6.5h4.6l-2.3-8.4-2.4 8.4ZM289.1 39.3V22.4h1.2V36l6.5-13.6h1v17h-1.1V25.6L290 39.3h-1ZM286 43.3v-3.8h-8.8v-17h1.2v15.2h6V22.4h1.2v15.3h1.6v5.6h-1.1ZM267.2 39.3V22.4h7.3v1.8h-6.1v5.2h5v1.8h-5v6.3h6.3v1.8h-7.5ZM255.9 39.3V22.4h8.8v17h-1.3V24.1h-6.2v15.1h-1.3ZM250.8 39.3c-3.2 0-5.6-3.6-5.6-8.7s2.4-8.7 5.6-8.7a4 4 0 0 1 3 1.2v2a4 4 0 0 0-3-1.4c-2.4 0-4.3 3-4.3 6.9 0 4 1.9 6.9 4.3 6.9a4 4 0 0 0 3.2-1.7v2c-.9 1-2 1.5-3.2 1.5ZM233.6 21.9c3 0 5.4 3.7 5.4 8.7 0 5-2.3 8.7-5.4 8.7-3 0-5.3-3.7-5.3-8.7 0-5 2.3-8.7 5.3-8.7Zm0 15.6c2.3 0 4.1-3 4.1-7 0-3.9-1.8-6.8-4-6.8-2.4 0-4.1 3-4.1 6.9 0 4 1.7 6.9 4 6.9ZM223.4 39.3c-2.9 0-5.1-3.6-5.1-8.7s2.2-8.7 5.1-8.7c1 0 2 .3 2.8 1.2v2c-.8-.9-1.6-1.4-2.8-1.4-2.2 0-4 3-4 6.9 0 4 1.8 6.9 4 6.9 1.2 0 2.2-.5 3-1.7v2c-.8 1-1.8 1.5-3 1.5ZM202.6 39.3l3.3-7.7c-1.5-.5-2.4-2.2-2.4-4.5 0-2.8 1.2-4.7 3.3-4.7h4.6v17h-1.2v-7.6h-3l-3.2 7.5h-1.4Zm4.2-9.3h3.4v-5.8h-3.4c-1.3 0-2.1 1-2.1 3 0 1.8.8 2.8 2.1 2.8ZM197.7 39.3c-2.9 0-5.1-3.6-5.1-8.7s2.2-8.7 5.1-8.7c1.1 0 2 .3 2.8 1.2v2c-.8-.9-1.6-1.4-2.8-1.4-2.2 0-4 3-4 6.9 0 4 1.8 6.9 4 6.9 1.2 0 2.2-.5 3-1.7v2c-.8 1-1.8 1.5-3 1.5ZM182.5 39.3V22.4h1.3v6.2h3c2.5 0 3.9 2.3 3.9 5.4 0 3.1-1.4 5.3-3.8 5.3h-4.4Zm1.3-1.8h3c1.7 0 2.7-1.2 2.7-3.5s-1-3.6-2.7-3.6h-3v7.1ZM175.6 39.3v-15H172v-1.9h8.8v1.8h-3.8v15.1h-1.3ZM161.9 39.3l4.7-17.4h1.2l4.7 17.4h-1.3l-1.3-4.7h-5.5l-1.2 4.7h-1.3Zm3-6.5h4.6l-2.3-8.4-2.4 8.4ZM151.8 39.3V22.4h4.8c1.9 0 3 1.5 3 4.1 0 1.9-.5 3-1.3 3.6 1.3.4 2.3 2 2.3 4.5 0 2.8-1.3 4.7-3.6 4.7h-5.2Zm1.3-1.8h3.7c1.6 0 2.5-1.1 2.5-3.2 0-2-1-3-2.5-3h-3.7v6.2Zm0-8h3.3c1.3 0 2-1 2-2.6 0-1.8-.7-2.7-2-2.7H153v5.3ZM144 21.9c3 0 5.3 3.7 5.3 8.7 0 5-2.3 8.7-5.3 8.7s-5.3-3.7-5.3-8.7c0-5 2.3-8.7 5.3-8.7Zm0 15.6c2.3 0 4-3 4-7 0-3.9-1.7-6.8-4-6.8s-4 3-4 6.9c0 4 1.7 6.9 4 6.9ZM128.6 39.3V22.4h4.7c2.2 0 3.5 2 3.5 4.8s-1.3 4.8-3.5 4.8h-3.4v7.3h-1.3Zm1.3-9.1h3.3c1.5 0 2.3-1 2.3-3s-.8-3-2.3-3h-3.3v6ZM117.4 39.3V22.4h1.2V36l6.5-13.6h1v17H125V25.6l-6.5 13.6h-1ZM110.4 39.3v-15h-3.7v-1.9h8.8v1.8h-3.8v15.1h-1.3ZM98.6 39.3V22.4h1.2v6.2h3c2.5 0 3.9 2.3 3.9 5.4 0 3.1-1.4 5.3-3.8 5.3h-4.3Zm1.2-1.8h3c1.7 0 2.7-1.2 2.7-3.5s-1-3.6-2.7-3.6h-3v7.1ZM94.2 24.2h-4.3V28c-.1 7.2-.7 11.3-3.4 11.3H86v-1.8h.5c1.9 0 2.1-4.4 2.2-11v-4h6.7v16.8h-1.2V24.2ZM79.7 39.3c-.6 0-1 0-1.5-.3v-1.8c.4.2 1 .3 1.3.3 1 0 1.5-1.3 2.1-3.2l-4.4-11.9h1.5l3.6 10 3-10h1.3l-4 13.1c-1 3-2 3.8-3 3.8ZM73.4 39.3c-3.1 0-5.6-3.6-5.6-8.7s2.4-8.7 5.6-8.7a4 4 0 0 1 3 1.2v2a4 4 0 0 0-3-1.4c-2.4 0-4.3 3-4.3 6.9 0 4 2 6.9 4.4 6.9a4 4 0 0 0 3.1-1.7v2c-.8 1-2 1.5-3.2 1.5ZM56.6 39.3V22.4h1.2v7h6.3v-7h1.2v17h-1.2v-8.2h-6.3v8.1h-1.2ZM48.7 21.9c3 0 5.4 3.7 5.4 8.7 0 5-2.3 8.7-5.4 8.7-3 0-5.3-3.7-5.3-8.7 0-5 2.3-8.7 5.3-8.7Zm0 15.6c2.3 0 4.1-3 4.1-7 0-3.9-1.8-6.8-4-6.8-2.4 0-4.2 3-4.2 6.9 0 4 1.8 6.9 4.1 6.9ZM35.8 22.4v7.3l4.6-7.3H42l-5 7.7 5.8 9.2H41l-5.3-8.5v8.5h-1.2V22.4h1.2ZM26.8 21.9c3 0 5.3 3.7 5.3 8.7 0 5-2.3 8.7-5.3 8.7s-5.3-3.7-5.3-8.7c0-5 2.3-8.7 5.3-8.7Zm0 15.6c2.3 0 4-3 4-7 0-3.9-1.7-6.8-4-6.8s-4 3-4 6.9c0 4 1.7 6.9 4 6.9ZM11.4 39.3V22.4H16c2.3 0 3.6 2 3.6 4.8S18.3 32 16 32h-3.3v7.3h-1.3Zm1.3-9.1H16c1.5 0 2.3-1 2.3-3s-.8-3-2.3-3h-3.3v6ZM.1 39.3V22.4h8.2v17H7.1V24.1H1.3v15.1H.1ZM371.9.5c3 0 5.3 3.8 5.3 8.8 0 5-2.3 8.9-5.3 8.9s-5.3-3.9-5.3-8.9S369 .5 372 .5Zm0 15.8c2.3 0 4-3 4-7s-1.7-7-4-7-4 3-4 7 1.7 7 4 7ZM354.4 17.9V.7h1.2l3.7 8.2L363 .7h1.2V18H363V3.8l-3.3 7.2h-.8l-3.3-7.2v14h-1.2ZM343 17.9V.7h1.1v13.8L350.5.7h1V18h-1.2V4L344 18h-1ZM330.1 21.7V16h1A32 32 0 0 0 333 2.9V.7h6.5v15.4h1.6v5.6h-1.1v-3.8h-8.6v3.8H330Zm2.4-5.6h5.7V2.6h-4.1c0 6.1-.4 10.4-1.6 13.5ZM324.2.5c3 0 5.3 3.8 5.3 8.8 0 5-2.3 8.9-5.3 8.9s-5.3-3.9-5.3-8.9 2.3-8.8 5.3-8.8Zm0 15.8c2.3 0 4-3 4-7s-1.7-7-4-7c-2.2 0-4 3-4 7s1.8 7 4 7ZM308.4 17.9l4.2-9.3L309 .7h1.4l2.8 6.3L316 .7h1.4L314 8.5l4.2 9.4h-1.4l-3.5-7.7-3.5 7.7h-1.4ZM299.2 17.9V.7h7.2v1.9h-6v4.6h3c2.5 0 3.8 2.2 3.8 5.3 0 3.2-1.3 5.4-3.7 5.4h-4.3Zm1.2-1.8h3c1.6 0 2.6-1.3 2.6-3.6S305 9 303.4 9h-3v7ZM291.4.5c3 0 5.3 3.8 5.3 8.8 0 5-2.3 8.9-5.3 8.9s-5.2-3.9-5.2-8.9 2.2-8.8 5.2-8.8Zm0 15.8c2.3 0 4-3 4-7s-1.7-7-4-7c-2.2 0-4 3-4 7s1.8 7 4 7ZM277.3 17.9V.7h7.2v1.9h-6v5.2h4.9v1.8h-5v6.5h6.3v1.8h-7.4ZM266 17.9V.7h1.1v7h6v-7h1.3V18h-1.2V9.6h-6v8.3h-1.3ZM258 16.7c0-.8.3-1.4.8-1.4.4 0 .8.6.8 1.4 0 .7-.4 1.3-.8 1.3-.5 0-.9-.6-.9-1.3ZM246.6 17.9 250 10c-1.6-.5-2.5-2.3-2.5-4.7 0-2.7 1.2-4.7 3.3-4.7h4.7V18h-1.2v-7.6h-3l-3.3 7.6h-1.4Zm4.3-9.4h3.4v-6H251c-1.4 0-2.2 1.1-2.2 3 0 2 .8 3 2.2 3ZM236 17.9V.7h1.2v13.8L243.5.7h1V18h-1.1V4L237 18h-1ZM224.6 17.9V.7h1.2v7h6v-7h1.3V18h-1.2V9.6h-6v8.3h-1.3ZM212.3 17.9 217 .7h1.1l4.6 17.2h-1.2l-1.3-4.7h-5.4l-1.2 4.7h-1.3Zm3-6.4h4.5L217.5 3l-2.3 8.4ZM207 18.2a5 5 0 0 1-3.6-1.4v-2a5 5 0 0 0 3.4 1.5c2 0 3.1-1.4 3.1-3.5 0-1.9-1-3.2-2.8-3.2h-1.3V7.7h1.4c1.5 0 2.3-1 2.3-2.7 0-1.8-1-2.7-2.5-2.7-1.3 0-2.3.6-3.1 1.2V1.7c.8-.6 1.8-1.2 3.2-1.2 2 0 3.6 1.6 3.6 4.4 0 2.2-1 3.3-1.7 3.6 1 .5 2.2 1.8 2.2 4.4 0 3-1.6 5.3-4.2 5.3ZM192 17.9 196.6.7h1.2l4.6 17.2h-1.3l-1.2-4.7h-5.4l-1.2 4.7H192Zm3-6.4h4.5L197.2 3l-2.3 8.4ZM184.3.7v7.4L189 .7h1.6l-5 7.9 5.8 9.3h-1.7l-5.4-8.6v8.6h-1.2V.7h1.2ZM175.3.5c3 0 5.3 3.8 5.3 8.8 0 5-2.2 8.9-5.3 8.9-3 0-5.2-3.9-5.2-8.9s2.2-8.8 5.2-8.8Zm0 15.8c2.3 0 4-3 4-7s-1.7-7-4-7c-2.2 0-4 3-4 7s1.8 7 4 7ZM159.4 17.9V.7h8.2V18h-1.2V2.6h-5.8v15.3h-1.2ZM151.6.5c3 0 5.3 3.8 5.3 8.8 0 5-2.3 8.9-5.3 8.9s-5.2-3.9-5.2-8.9 2.2-8.8 5.2-8.8Zm0 15.8c2.3 0 4-3 4-7s-1.7-7-4-7c-2.2 0-4 3-4 7s1.8 7 4 7ZM136.2 17.9V.7h4.6c1.8 0 3 1.6 3 4.2 0 1.9-.6 3.1-1.4 3.6 1.3.4 2.3 2 2.3 4.6 0 2.8-1.3 4.8-3.5 4.8h-5Zm1.2-1.8h3.6c1.5 0 2.4-1.2 2.4-3.3 0-2-1-3.1-2.4-3.1h-3.6V16Zm0-8.2h3.2c1.2 0 2-1 2-2.6 0-1.8-.8-2.7-2-2.7h-3.2v5.3ZM124.7 17.9V.7h1.2v13.8L132.3.7h1V18h-1.2V4L125.7 18h-1ZM118 17.9V2.6h-3.6V.7h8.4v1.9h-3.6v15.3h-1.3ZM108.4.5c3 0 5.3 3.8 5.3 8.8 0 5-2.3 8.9-5.3 8.9s-5.3-3.9-5.3-8.9 2.3-8.8 5.3-8.8Zm0 15.8c2.3 0 4-3 4-7s-1.7-7-4-7-4 3-4 7 1.7 7 4 7ZM93.6 17.9V.7H98c2.2 0 3.4 2 3.4 4.8 0 2.9-1.2 5-3.4 5h-3.2v7.4h-1.2Zm1.2-9.3H98c1.4 0 2.2-1 2.2-3s-.8-3-2.2-3h-3.2v6ZM82.5 17.9V.7h8.3V18h-1.3V2.6h-5.8v15.3h-1.2ZM66.7 17.9l3.4-7.8c-1.6-.5-2.4-2.3-2.4-4.7 0-2.7 1.2-4.7 3.3-4.7h4.7V18h-1.2v-7.6h-3l-3.3 7.6h-1.5Zm4.4-9.4h3.4v-6H71c-1.4 0-2.2 1.1-2.2 3 0 2 .8 3 2.2 3ZM62.3 18.2c-3 0-5.4-3.7-5.4-8.9S59.2.5 62.3.5c1 0 2 .3 2.9 1.2v2c-.9-.9-1.8-1.4-3-1.4-2.3 0-4 3-4 7s1.8 7 4.1 7c1.2 0 2.2-.5 3.1-1.7v2a4 4 0 0 1-3.1 1.6ZM51.4 17.9V2.6h-3.6V.7h8.4v1.9h-3.6v15.3h-1.2ZM42.2 18.2c-2.7 0-4.7-3.5-5-8.2h-2V18H34V.7h1.2v7.5h2.1c.3-4.4 2.3-7.7 4.9-7.7C45 .5 47 4.3 47 9.3c0 5-2 8.9-5 8.9Zm0-1.9c2 0 3.7-2.7 3.7-7s-1.7-7-3.7-7-3.7 2.7-3.7 7 1.6 7 3.7 7ZM24.5 17.9V.7h7.2v1.9h-6v5.2h4.9v1.8h-5v6.5H32v1.8h-7.4ZM11.8 17.9V.7H13L16.7 9 20.4.7h1.2V18h-1.2V3.8L17 11h-.8L13 3.8v14h-1.2ZM.3 17.9V.7h1.2v13.8L8 .7h1V18H7.7V4L1.4 18h-1Z"/>
</svg>
