<svg width="1434" height="33" viewBox="0 0 1434 33" fill="none" xmlns="http://www.w3.org/2000/svg">
<g clip-path="url(#clip0_263_940)">
<path d="M9 9.03032C9 9.26572 8.92462 9.39322 8.77387 9.39322L4.57788 9.41284C3.62311 9.41284 2.94471 9.58939 2.5427 9.91306C2.14069 10.2465 1.93969 11.0999 1.98994 12.473L2.46733 28.4115C2.46733 28.5782 2.4422 28.7156 2.3417 28.8235C2.26632 28.9412 2.16582 29 2.04019 29H0.93466C0.93466 29 0.708529 28.951 0.633152 28.8333C0.557775 28.7156 0.507524 28.5782 0.482398 28.4213L0.00501034 12.473C-0.045241 10.5702 0.281393 9.17744 1.03516 8.31431C1.76381 7.45118 2.91959 7.00981 4.47738 7C4.62813 7 5.35678 7 6.68844 7.02943C8.0201 7.04904 8.72362 7.10789 8.82412 7.20597C8.8995 7.30406 8.94975 7.43156 8.94975 7.56888L9 9.03032Z" fill="#B4ABA8"/>
<path d="M22.994 13.7248C23.1274 18.1031 21.046 20.3022 16.7498 20.3218C16.1895 20.3218 15.4423 20.2825 14.4283 20.1843L14.6951 28.411C14.6951 28.5681 14.6684 28.6957 14.5884 28.8233C14.5083 28.9411 14.4283 29 14.2949 29H13.0674C13.0674 29 12.8539 28.9509 12.7738 28.8331C12.6938 28.7153 12.6404 28.5779 12.6404 28.4208L12 7.99165C12 7.78549 12.0534 7.59897 12.1601 7.43208C12.2668 7.26519 12.8539 7.15721 13.8679 7.09831C14.8819 7.0394 15.7091 7.00014 16.3496 7.00014C20.6457 6.9805 22.8605 9.09115 22.994 13.3321V13.715V13.7248ZM20.8859 13.7346V13.3517C20.8325 11.9086 20.459 10.868 19.7385 10.2299C19.018 9.59182 17.9239 9.26786 16.3762 9.27768C15.6291 9.27768 14.8552 9.32676 14.0814 9.4053L14.3482 17.9952C15.7625 18.0639 16.5363 18.1031 16.6698 18.1031C18.2175 18.1031 19.3115 17.7596 19.9786 17.092C20.6457 16.4244 20.9393 15.3053 20.8859 13.7444V13.7346Z" fill="#B4ABA8"/>
<path d="M26.3414 21.8073L25.1145 28.5682C25.1145 28.7252 25.0361 28.8332 24.9578 28.9019C24.8795 28.9706 24.8012 29 24.7229 29H23.3916C23.1305 29 23 28.8528 23 28.5388C23 28.4701 23 28.4014 23 28.3426L26.6024 9.24719C26.8896 7.75567 27.6205 7.00991 28.8474 7.0001C30.0743 6.99028 30.8313 7.72623 31.1968 9.19812L35.9739 28.2837C35.9739 28.2837 35.9739 28.3916 36 28.4799C36 28.7939 35.8956 28.9509 35.6345 28.9509H34.3032C34.3032 28.9509 34.1205 28.9215 34.0683 28.8332C34.0161 28.7449 33.8855 28.3818 33.7289 27.7244L32.241 21.7779L26.3936 21.8073H26.3414ZM31.6928 19.4621L29.8916 12.0438C29.5261 10.5523 29.3173 9.76726 29.3173 9.71819C29.3173 9.65932 29.2651 9.60044 29.239 9.53175C29.2129 9.46307 29.1606 9.414 29.1084 9.37475C29.0562 9.3355 29.004 9.31588 28.9257 9.31588C28.8474 9.31588 28.7691 9.3355 28.7169 9.38456C28.6647 9.43363 28.6124 9.4925 28.5863 9.571C28.5602 9.64951 28.4297 10.2088 28.247 11.249L26.759 19.4818L31.745 19.4621H31.6928Z" fill="#B4ABA8"/>
<path d="M51 28.3468C51 28.5151 50.9744 28.6536 50.872 28.7625C50.7697 28.8713 50.6929 28.9406 50.5649 28.9406H49.4899C49.4899 28.9406 49.2596 28.8911 49.1828 28.7724C49.0804 28.6536 49.0548 28.5151 49.0293 28.3567L48.4918 10.8399C48.4918 10.7607 48.4918 10.7211 48.4918 10.7211C48.4918 10.7211 48.4662 10.7508 48.4406 10.8102L46.5466 16.5205C45.8556 18.6185 45.4717 19.7467 45.4205 19.8952C45.3693 20.0436 45.2669 20.1723 45.1389 20.2713C45.011 20.3702 44.8318 20.4197 44.5759 20.4296H43.5521C43.2962 20.4296 43.117 20.3801 42.9634 20.2713C42.8099 20.1624 42.6819 19.9348 42.5283 19.5884L39.9433 13.0171C39.3547 11.5227 39.0475 10.7706 39.0475 10.7706C39.0475 10.7706 39.0475 10.8102 39.0475 10.8893L39.585 28.4062C39.585 28.5744 39.5594 28.713 39.457 28.8219C39.3803 28.9406 39.2779 29 39.1499 29H38.075C38.075 29 37.8446 28.9505 37.7678 28.8318C37.691 28.713 37.6399 28.5744 37.6143 28.4161L37 7.91048C37 7.67296 37.0512 7.46514 37.1792 7.2969C37.3071 7.12866 37.4607 7.03959 37.6143 7.03959H39.0475C39.4059 7.03959 39.6362 7.19793 39.7642 7.53441L43.7313 17.6685C43.808 17.8763 43.9104 17.9852 43.9872 17.9852C44.064 17.9852 44.1664 17.8763 44.2431 17.6685L47.596 7.50472C47.6984 7.16824 47.9287 7 48.287 7H49.7203C49.8995 7 50.053 7.07917 50.181 7.24741C50.309 7.41565 50.3857 7.62348 50.3857 7.861L51 28.3666V28.3468Z" fill="#B4ABA8"/>
<path d="M69 28.3468C69 28.5151 68.9744 28.6536 68.872 28.7625C68.7697 28.8713 68.6929 28.9406 68.5649 28.9406H67.4899C67.4899 28.9406 67.2596 28.8911 67.1828 28.7724C67.0804 28.6536 67.0548 28.5151 67.0293 28.3567L66.4918 10.8399C66.4918 10.7607 66.4918 10.7211 66.4918 10.7211C66.4918 10.7211 66.4662 10.7508 66.4406 10.8102L64.5466 16.5205C63.8556 18.6185 63.4717 19.7467 63.4205 19.8952C63.3693 20.0436 63.2669 20.1723 63.1389 20.2713C63.011 20.3702 62.8318 20.4197 62.5759 20.4296H61.5521C61.2962 20.4296 61.117 20.3801 60.9634 20.2713C60.8099 20.1624 60.6819 19.9348 60.5283 19.5884L57.9433 13.0171C57.3547 11.5227 57.0475 10.7706 57.0475 10.7706C57.0475 10.7706 57.0475 10.8102 57.0475 10.8893L57.585 28.4062C57.585 28.5744 57.5594 28.713 57.457 28.8219C57.3803 28.9406 57.2779 29 57.1499 29H56.075C56.075 29 55.8446 28.9505 55.7678 28.8318C55.691 28.713 55.6399 28.5744 55.6143 28.4161L55 7.91048C55 7.67296 55.0512 7.46514 55.1792 7.2969C55.3071 7.12865 55.4607 7.03959 55.6143 7.03959H57.0475C57.4058 7.03959 57.6362 7.19793 57.7642 7.53441L61.7313 17.6685C61.808 17.8763 61.9104 17.9852 61.9872 17.9852C62.064 17.9852 62.1664 17.8763 62.2431 17.6685L65.596 7.50472C65.6984 7.16824 65.9287 7 66.287 7H67.7203C67.8995 7 68.053 7.07917 68.181 7.24741C68.309 7.41565 68.3857 7.62348 68.3857 7.861L69 28.3666V28.3468Z" fill="#B4ABA8"/>
<path d="M72.605 28.1493L72 7.60342C72 7.22752 72.126 7.03957 72.3782 7.03957H73.5378C73.5378 7.03957 73.7395 7.08903 73.8151 7.20773C73.8908 7.32644 73.9412 7.45504 73.9412 7.59353L74.4454 24.875C74.4454 24.9344 74.4454 24.964 74.4454 24.964L80.6723 7.59353C80.7479 7.36601 80.8487 7.20773 80.9496 7.1286C81.0504 7.04946 81.2521 7 81.5294 7H82.7395C82.916 7 83.0672 7.07914 83.1933 7.23741C83.3193 7.40558 83.395 7.59352 83.395 7.83093L84 28.5944C84 28.8318 83.8739 28.9505 83.6218 28.9604H82.4874C82.4874 28.9604 82.2857 28.911 82.2101 28.8022C82.1345 28.6933 82.084 28.5549 82.084 28.4065L81.5798 11.1547C81.5798 11.0953 81.5798 11.0656 81.5798 11.0656C81.5798 11.0656 81.5294 11.0953 81.5042 11.1547L75.2773 28.5252C75.1513 28.8417 74.9244 29 74.5966 29H73.2353C73.0588 29 72.9076 28.9209 72.7815 28.7527C72.6555 28.5845 72.5798 28.3867 72.5798 28.1592L72.605 28.1493Z" fill="#B4ABA8"/>
<path d="M86.3532 26.9946H87.0342L90.2126 9.28833C90.4649 7.7695 91.1964 7.01009 92.382 7.0001C93.5676 6.99011 94.2991 7.73953 94.6523 9.23837L98.8396 26.9447H99.4451C99.6973 26.9447 99.8487 27.1345 99.8487 27.5042L100 32.3405C100 32.5004 99.9748 32.6303 99.8991 32.7602C99.8234 32.8801 99.7478 32.94 99.6216 32.94H98.4108C98.4108 32.94 98.209 32.8901 98.1333 32.7702C98.0577 32.6503 98.0072 32.5104 98.0072 32.3505L97.9315 29.3628L88.0685 29.4128L88.1442 32.4005C88.1442 32.5603 88.1189 32.6902 88.0432 32.8201C87.9676 32.94 87.8919 33 87.7658 33H86.555C86.555 33 86.3532 32.95 86.2775 32.8301C86.2018 32.7102 86.1514 32.5703 86.1514 32.4105L86 27.5742C86 27.1945 86.1261 27.0046 86.3784 27.0046L86.3532 26.9946ZM92.0288 9.89786L89.1279 26.9747L96.7964 26.9347L92.8613 9.88787C92.7856 9.52814 92.6342 9.34828 92.4324 9.34828C92.2054 9.34828 92.0793 9.52814 92.0036 9.88787L92.0288 9.89786Z" fill="#B4ABA8"/>
<path d="M102.605 28.1493L102 7.60342C102 7.22752 102.126 7.03957 102.378 7.03957H103.538C103.538 7.03957 103.739 7.08903 103.815 7.20773C103.891 7.32644 103.941 7.45504 103.941 7.59353L104.445 24.875C104.445 24.9344 104.445 24.964 104.445 24.964L110.672 7.59353C110.748 7.36601 110.849 7.20773 110.95 7.1286C111.05 7.04946 111.252 7 111.529 7H112.739C112.916 7 113.067 7.07914 113.193 7.23741C113.319 7.40558 113.395 7.59353 113.395 7.83094L114 28.5944C114 28.8318 113.874 28.9505 113.622 28.9604H112.487C112.487 28.9604 112.286 28.911 112.21 28.8022C112.134 28.6933 112.084 28.5549 112.084 28.4065L111.58 11.1547C111.58 11.0953 111.58 11.0656 111.58 11.0656C111.58 11.0656 111.529 11.0953 111.504 11.1547L105.277 28.5252C105.151 28.8417 104.924 29 104.597 29H103.235C103.059 29 102.908 28.9209 102.782 28.7527C102.655 28.5845 102.58 28.3867 102.58 28.1592L102.605 28.1493Z" fill="#B4ABA8"/>
<path d="M130 28.3666C130 28.5349 129.975 28.6734 129.874 28.7823C129.799 28.901 129.699 28.9604 129.573 28.9604H128.469C128.469 28.9604 128.268 28.9109 128.167 28.7922C128.067 28.6734 128.042 28.5349 128.017 28.3765L127.715 18.5592L120.285 18.5888L120.586 28.4062C120.586 28.5745 120.561 28.713 120.46 28.8219C120.385 28.9406 120.285 29 120.159 29H119.054C119.054 29 118.828 28.9505 118.753 28.8318C118.678 28.713 118.628 28.5745 118.603 28.4161L118 7.63338C118 7.46514 118.025 7.32659 118.126 7.21772C118.201 7.09897 118.301 7.03959 118.427 7.03959H119.531C119.531 7.03959 119.757 7.08907 119.833 7.20783C119.933 7.32659 119.958 7.46514 119.983 7.62348L120.234 16.1939L127.665 16.1642L127.414 7.59379C127.414 7.42555 127.439 7.287 127.54 7.17814C127.615 7.05938 127.715 7 127.841 7H128.946C128.946 7 129.172 7.04948 129.247 7.16824C129.347 7.287 129.372 7.42555 129.397 7.5839L130 28.3666Z" fill="#B4ABA8"/>
<path d="M143.974 15C144 16.1058 143.872 17.1419 143.589 18.1182C143.306 19.0945 142.895 19.9413 142.382 20.6585C141.868 21.3758 141.251 21.9437 140.532 22.3621C139.813 22.7805 139.042 22.9897 138.22 22.9997C137.398 23.0096 136.602 22.8004 135.882 22.382C135.137 21.9736 134.495 21.4057 133.93 20.6884C133.365 19.9711 132.902 19.1343 132.568 18.158C132.234 17.1817 132.029 16.1457 132.003 15.0398C131.978 13.934 132.106 12.898 132.389 11.9217C132.671 10.9454 133.082 10.0986 133.596 9.36138C134.11 8.62418 134.726 8.05633 135.446 7.63792C136.165 7.21951 136.936 7.0103 137.758 7.00034C138.58 6.99038 139.376 7.19958 140.121 7.618C140.866 8.02645 141.508 8.60426 142.073 9.32154C142.638 10.0488 143.101 10.8956 143.435 11.8619C143.769 12.8382 143.974 13.8743 144 14.9801L143.974 15ZM143.05 15C143.024 14.0636 142.87 13.1769 142.561 12.36C142.279 11.5331 141.894 10.8159 141.405 10.1982C140.917 9.58055 140.378 9.09241 139.736 8.73377C139.119 8.37513 138.451 8.20577 137.758 8.20577C137.064 8.20577 136.396 8.39505 135.805 8.75369C135.214 9.11233 134.675 9.61044 134.238 10.2281C133.801 10.8458 133.467 11.573 133.236 12.3999C133.005 13.2267 132.902 14.1034 132.928 15.0498C132.954 15.9962 133.108 16.8629 133.416 17.6898C133.699 18.5067 134.084 19.224 134.546 19.8317C135.009 20.4394 135.574 20.9176 136.191 21.2662C136.807 21.6149 137.475 21.7942 138.169 21.7843C138.862 21.7743 139.53 21.6049 140.121 21.2463C140.737 20.8877 141.251 20.4095 141.688 19.7918C142.125 19.1841 142.484 18.4669 142.716 17.64C142.947 16.8231 143.075 15.9364 143.05 15ZM140.917 19.5627C140.917 19.6723 140.917 19.7619 140.866 19.8416C140.84 19.9213 140.763 19.9612 140.66 19.9612H140.044C140.044 19.9612 139.941 19.9413 139.89 19.8914C139.838 19.8416 139.813 19.7819 139.787 19.7221L137.86 15.9265L137.578 15.8368H136.704L136.807 19.5328C136.807 19.6424 136.807 19.742 136.73 19.8416C136.653 19.9413 136.602 19.9911 136.524 19.9911H135.959C135.959 19.9911 135.779 19.9413 135.728 19.8516C135.677 19.7619 135.651 19.6524 135.651 19.5428L135.394 10.5668C135.394 10.1584 135.497 9.93919 135.779 9.89934C135.857 9.88938 135.985 9.87942 136.113 9.8595C136.242 9.83957 136.396 9.82961 136.55 9.82961C136.704 9.82961 136.858 9.81965 137.038 9.80968C137.192 9.80968 137.347 9.80968 137.475 9.80968C137.937 9.80968 138.348 9.8595 138.708 9.95912C139.068 10.0587 139.376 10.2281 139.633 10.4672C139.89 10.7063 140.095 11.0151 140.224 11.3937C140.378 11.7722 140.455 12.2504 140.455 12.8083V12.9279C140.481 13.6949 140.378 14.2827 140.121 14.7111C139.864 15.1295 139.53 15.4383 139.042 15.6276L140.866 19.3435C140.892 19.4232 140.917 19.5129 140.917 19.6025V19.5627ZM139.325 12.7784C139.325 12.1907 139.17 11.7722 138.888 11.5331C138.605 11.2941 138.169 11.1845 137.552 11.1845H136.833H136.524L136.627 14.5119C136.627 14.5119 136.781 14.5119 136.884 14.5119C136.987 14.5119 137.09 14.5119 137.192 14.5119C137.295 14.5119 137.398 14.5119 137.475 14.5119C137.552 14.5119 137.629 14.5119 137.68 14.5119C138.297 14.5119 138.734 14.3823 138.991 14.1333C139.248 13.8842 139.376 13.4658 139.35 12.8581V12.7386L139.325 12.7784Z" fill="#B4ABA8"/>
<path d="M157 20.5268C157 20.8304 156.878 20.9821 156.611 20.9821L152.424 21C152.157 21 152.011 20.8482 152.011 20.5446V19.5C151.962 19.1786 152.084 19.0179 152.351 19.0179L156.538 19C156.805 19 156.951 19.1607 156.951 19.4821V20.5268H157Z" fill="#B4ABA8"/>
<path d="M174.886 28.529L170.343 9.85557C170.265 9.50232 170.108 9.32569 169.9 9.32569C169.665 9.32569 169.534 9.50232 169.456 9.85557L166.114 28.5584C166.062 28.8528 165.932 29 165.723 29H164.392C164.131 29 164 28.8528 164 28.5388C164 28.4701 164 28.4014 164 28.3426L167.602 9.24719C167.89 7.75567 168.62 7.00991 169.847 7.0001C171.074 6.99028 171.831 7.72623 172.197 9.19812L176.974 28.2837C176.974 28.2837 176.974 28.3916 177 28.4799C177 28.7939 176.896 28.9509 176.635 28.9509H175.303C175.12 28.9509 174.99 28.8136 174.912 28.5192L174.886 28.529Z" fill="#B4ABA8"/>
<path d="M188.948 29.3996C188.948 29.5522 188.922 29.6642 188.843 29.7456C188.765 29.827 188.294 29.8881 187.404 29.9288C186.514 29.9695 185.494 29.9898 184.317 30C182.642 30 181.412 29.5522 180.627 28.6465C179.816 27.7305 179.398 26.3058 179.345 24.3721L179.005 12.6788C178.953 10.7044 179.293 9.25929 180.078 8.36372C180.837 7.46814 182.04 7.01018 183.662 7C184.552 7 185.311 7 185.939 7.02035C186.567 7.04071 187.064 7.06106 187.482 7.10177C187.901 7.14248 188.137 7.17301 188.163 7.21372C188.189 7.25442 188.241 7.30531 188.267 7.37655C188.294 7.44779 188.32 7.51903 188.32 7.59027L188.372 9.10664C188.372 9.35089 188.294 9.48319 188.137 9.48319L183.767 9.50354C182.773 9.50354 182.066 9.68673 181.648 10.0226C181.229 10.3686 181.02 11.254 181.072 12.6788L181.203 16.9124L188.163 16.8819C188.163 16.8819 188.398 16.9429 188.477 17.0549C188.581 17.177 188.608 17.3195 188.634 17.4823V18.6221C188.66 18.7951 188.634 18.9376 188.555 19.0496C188.477 19.1717 188.372 19.2327 188.241 19.2327L181.282 19.2633L181.439 24.3721C181.465 25.5934 181.674 26.4177 182.04 26.8655C182.407 27.3133 183.165 27.527 184.317 27.527L188.686 27.5066C188.869 27.5066 188.948 27.6288 188.948 27.873L189 29.4199L188.948 29.3996Z" fill="#B4ABA8"/>
<path d="M202.892 28.2973C202.973 28.4062 203 28.5151 203 28.6437C203 28.8417 202.919 28.9505 202.702 28.9505H200.887C200.67 28.9505 200.481 28.8614 200.372 28.6734L193.438 18.5592L193.763 28.4062C193.763 28.5646 193.736 28.6932 193.655 28.8219C193.573 28.9406 193.492 29 193.357 29H192.084C192.084 29 191.867 28.9505 191.786 28.8318C191.704 28.713 191.65 28.5744 191.65 28.4161L191 7.60369C191 7.45524 191.027 7.32659 191.108 7.21772C191.19 7.09897 191.298 7.03959 191.433 7.03959H192.679C192.679 7.03959 192.896 7.08907 193.005 7.19793C193.086 7.30679 193.14 7.43545 193.14 7.59379L193.438 17.1439L199.885 7.2771C200.02 7.08907 200.156 7 200.345 7H202.025C202.242 7 202.35 7.09897 202.377 7.30679C202.377 7.42555 202.377 7.52452 202.296 7.61359L195.551 17.6982L202.946 28.3072L202.892 28.2973Z" fill="#B4ABA8"/>
<path d="M208.341 21.8073L207.114 28.5682C207.114 28.7252 207.036 28.8332 206.958 28.9019C206.88 28.9706 206.801 29 206.723 29H205.392C205.131 29 205 28.8528 205 28.5388C205 28.4701 205 28.4014 205 28.3426L208.602 9.24719C208.89 7.75567 209.62 7.00991 210.847 7.0001C212.074 6.99028 212.831 7.72623 213.197 9.19812L217.974 28.2837C217.974 28.2837 217.974 28.3916 218 28.4799C218 28.7939 217.896 28.9509 217.635 28.9509H216.303C216.303 28.9509 216.12 28.9215 216.068 28.8332C216.016 28.7449 215.886 28.3818 215.729 27.7244L214.241 21.7779L208.394 21.8073H208.341ZM213.693 19.4621L211.892 12.0438C211.526 10.5523 211.317 9.76726 211.317 9.71819C211.317 9.65932 211.265 9.60044 211.239 9.53175C211.213 9.46307 211.161 9.414 211.108 9.37475C211.056 9.3355 211.004 9.31588 210.926 9.31588C210.847 9.31588 210.769 9.3355 210.717 9.38456C210.665 9.43363 210.612 9.4925 210.586 9.571C210.56 9.64951 210.43 10.2088 210.247 11.249L208.759 19.4818L213.745 19.4621H213.693Z" fill="#B4ABA8"/>
<path d="M229.994 12.7248C230.127 17.1031 228.046 19.3022 223.75 19.3218C223.189 19.3218 222.442 19.2825 221.428 19.1843L221.695 27.411C221.695 27.5681 221.668 27.6957 221.588 27.8233C221.508 27.9411 221.428 28 221.295 28H220.067C220.067 28 219.854 27.9509 219.774 27.8331C219.694 27.7153 219.64 27.5779 219.64 27.4208L219 6.99165C219 6.78549 219.053 6.59897 219.16 6.43208C219.267 6.26519 219.854 6.15721 220.868 6.09831C221.882 6.0394 222.709 6.00014 223.35 6.00014C227.646 5.9805 229.861 8.09115 229.994 12.3321V12.715V12.7248ZM227.886 12.7346V12.3517C227.833 10.9086 227.459 9.86803 226.738 9.22992C226.018 8.59182 224.924 8.26786 223.376 8.27768C222.629 8.27768 221.855 8.32676 221.081 8.4053L221.348 16.9952C222.762 17.0639 223.536 17.1031 223.67 17.1031C225.217 17.1031 226.312 16.7596 226.979 16.092C227.646 15.4244 227.939 14.3053 227.886 12.7444V12.7346Z" fill="#B4ABA8"/>
<path d="M242 27.9828C242 28.2065 241.95 28.3795 241.802 28.4812C241.678 28.5829 241.257 28.6948 240.612 28.8169C239.943 28.9288 239.101 28.9898 238.06 29C236.325 29 234.913 28.2167 233.847 26.6298C232.782 25.0429 232.212 22.7134 232.137 19.6515L232.014 15.4197C231.914 12.3375 232.36 9.99779 233.327 8.40071C234.293 6.80363 235.656 6.01017 237.416 6C238.109 6 238.902 6.07121 239.795 6.2238C240.687 6.37638 241.157 6.48828 241.257 6.54931C241.331 6.61035 241.38 6.71207 241.38 6.85449L241.43 8.41088C241.43 8.6245 241.331 8.7364 241.133 8.7364C239.572 8.56347 238.382 8.48209 237.515 8.48209C235.037 8.49226 233.847 10.8014 233.971 15.3994L234.095 19.6311C234.169 21.9098 234.516 23.6188 235.185 24.7784C235.854 25.9279 236.796 26.5077 238.01 26.4976C238.729 26.4976 239.423 26.4569 240.092 26.3958L241.604 26.2433C241.827 26.2433 241.95 26.406 241.95 26.7315V27.9726L242 27.9828Z" fill="#B4ABA8"/>
<path d="M256 8.83251C256 9.14948 255.867 9.30797 255.575 9.30797L251.089 9.32778L251.673 28.4057C251.673 28.5642 251.646 28.6929 251.566 28.8217C251.487 28.9406 251.407 29 251.274 29H250C250 29 249.788 28.9505 249.708 28.8316C249.628 28.7127 249.575 28.5741 249.575 28.4156L248.991 9.33769L244.531 9.3575C244.212 9.3575 244.053 9.19901 244.053 8.88203L244 7.58442C244 7.43584 244.027 7.31697 244.133 7.20801C244.212 7.09905 244.319 7.04953 244.451 7.04953L255.496 7C255.788 7 255.947 7.1783 255.947 7.53489L256 8.83251Z" fill="#B4ABA8"/>
<path d="M268.995 22.5275C269.12 26.8221 267.066 28.9796 262.859 29C261.882 29 261.005 28.9695 260.179 28.8881C259.377 28.8066 258.902 28.6642 258.776 28.4708C258.651 28.2774 258.576 27.9925 258.576 27.6261L258 7.38422C258 7.11962 258 6.89573 258.075 6.72272C258.15 6.54971 258.25 6.42759 258.376 6.34617C258.501 6.26476 258.977 6.19352 259.753 6.1121C260.53 6.04087 261.306 6.00016 262.082 6.00016C266.315 5.9798 268.494 7.9236 268.594 11.8315V12.32C268.644 13.4293 268.469 14.3961 268.093 15.2306C267.717 16.0651 267.166 16.6859 266.44 17.1134C267.216 17.4899 267.818 18.1107 268.268 18.9859C268.719 19.8611 268.945 20.8686 268.995 22.0186V22.5377V22.5275ZM266.665 12.32V11.8315C266.615 10.6103 266.265 9.72491 265.614 9.16518C264.962 8.60545 263.81 8.33067 262.157 8.33067C261.932 8.33067 261.231 8.3612 260.004 8.43244L260.229 15.9735L263.56 15.9532C265.689 15.9532 266.716 14.732 266.64 12.32H266.665ZM267.041 22.5377V22.0186C266.941 19.4439 265.839 18.1616 263.66 18.1718L260.329 18.1921L260.58 26.5474C261.932 26.6288 262.683 26.6695 262.834 26.6695C264.436 26.6695 265.538 26.3235 266.19 25.662C266.816 25.0005 267.116 23.9624 267.091 22.5377H267.041Z" fill="#B4ABA8"/>
<path d="M281.948 28.3996C281.948 28.5522 281.922 28.6642 281.843 28.7456C281.765 28.827 281.294 28.8881 280.404 28.9288C279.514 28.9695 278.494 28.9898 277.317 29C275.642 29 274.412 28.5522 273.627 27.6465C272.816 26.7305 272.398 25.3058 272.345 23.3721L272.005 11.6788C271.953 9.70442 272.293 8.25929 273.078 7.36372C273.837 6.46814 275.04 6.01018 276.662 6C277.552 6 278.311 6 278.939 6.02035C279.567 6.04071 280.064 6.06106 280.482 6.10177C280.901 6.14248 281.137 6.17301 281.163 6.21372C281.189 6.25442 281.241 6.30531 281.267 6.37655C281.294 6.44779 281.32 6.51903 281.32 6.59027L281.372 8.10664C281.372 8.35089 281.294 8.48319 281.137 8.48319L276.767 8.50354C275.773 8.50354 275.066 8.68673 274.648 9.02257C274.229 9.36858 274.02 10.254 274.072 11.6788L274.203 15.9124L281.163 15.8819C281.163 15.8819 281.398 15.9429 281.477 16.0549C281.581 16.177 281.608 16.3195 281.634 16.4823V17.6221C281.66 17.7951 281.634 17.9376 281.555 18.0496C281.477 18.1717 281.372 18.2327 281.241 18.2327L274.282 18.2633L274.439 23.3721C274.465 24.5934 274.674 25.4177 275.04 25.8655C275.407 26.3133 276.165 26.527 277.317 26.527L281.686 26.5066C281.869 26.5066 281.948 26.6288 281.948 26.873L282 28.4199L281.948 28.3996Z" fill="#B4ABA8"/>
<path d="M296 27.3666C296 27.5349 295.975 27.6734 295.874 27.7823C295.799 27.901 295.699 27.9604 295.573 27.9604H294.469C294.469 27.9604 294.268 27.9109 294.167 27.7922C294.067 27.6734 294.042 27.5349 294.017 27.3765L293.715 17.5592L286.285 17.5888L286.586 27.4062C286.586 27.5745 286.561 27.713 286.46 27.8219C286.385 27.9406 286.285 28 286.159 28H285.054C285.054 28 284.828 27.9505 284.753 27.8318C284.678 27.713 284.628 27.5745 284.603 27.4161L284 6.63338C284 6.46514 284.025 6.32659 284.126 6.21772C284.201 6.09897 284.301 6.03959 284.427 6.03959H285.531C285.531 6.03959 285.757 6.08907 285.833 6.20783C285.933 6.32659 285.958 6.46514 285.983 6.62348L286.234 15.1939L293.665 15.1642L293.414 6.59379C293.414 6.42555 293.439 6.287 293.54 6.17814C293.615 6.05938 293.715 6 293.841 6H294.946C294.946 6 295.172 6.04948 295.247 6.16824C295.347 6.287 295.372 6.42555 295.397 6.5839L296 27.3666Z" fill="#B4ABA8"/>
<path d="M311 27.3666C311 27.5349 310.975 27.6734 310.874 27.7823C310.799 27.901 310.699 27.9604 310.573 27.9604H309.469C309.469 27.9604 309.268 27.9109 309.167 27.7922C309.067 27.6734 309.042 27.5349 309.017 27.3765L308.715 17.5592L301.285 17.5888L301.586 27.4062C301.586 27.5744 301.561 27.713 301.46 27.8219C301.385 27.9406 301.285 28 301.159 28H300.054C300.054 28 299.828 27.9505 299.753 27.8318C299.678 27.713 299.628 27.5744 299.603 27.4161L299 6.63338C299 6.46514 299.025 6.32659 299.126 6.21772C299.201 6.09897 299.301 6.03959 299.427 6.03959H300.531C300.531 6.03959 300.757 6.08907 300.833 6.20783C300.933 6.32659 300.958 6.46514 300.983 6.62348L301.234 15.1939L308.665 15.1642L308.414 6.59379C308.414 6.42555 308.439 6.287 308.54 6.17814C308.615 6.05938 308.715 6 308.841 6H309.946C309.946 6 310.172 6.04948 310.247 6.16824C310.347 6.287 310.372 6.42555 310.397 6.5839L311 27.3666Z" fill="#B4ABA8"/>
<path d="M326.761 21.7647C326.895 25.902 324.703 27.9804 320.212 28C319.17 28 318.234 27.9706 317.352 27.8922C316.497 27.8137 315.989 27.6765 315.855 27.4902C315.722 27.3039 315.642 27.0294 315.642 26.6765L315 6.61765C315 6.2451 315.134 6.05882 315.401 6.05882H316.657C316.925 6.05882 317.085 6.23529 317.085 6.60784L317.352 15.1863C318.261 15.1078 319.063 15.0686 319.785 15.0588C324.275 15.0392 326.601 17.1078 326.734 21.2647V21.7647H326.761ZM324.649 21.7745V21.2451C324.596 19.8824 324.195 18.8824 323.5 18.2549C322.778 17.6275 321.575 17.3137 319.865 17.3235C319.277 17.3235 318.475 17.3725 317.432 17.451L317.7 25.6471C319.143 25.7255 319.945 25.7647 320.132 25.7647C321.843 25.7647 323.019 25.4314 323.714 24.7941C324.382 24.1569 324.703 23.1569 324.676 21.7843L324.649 21.7745ZM332 27.1667C332 27.3235 331.973 27.451 331.893 27.5784C331.813 27.6961 331.733 27.7549 331.599 27.7549H330.316C330.316 27.7549 330.102 27.7059 330.022 27.5882C329.942 27.4706 329.888 27.3333 329.888 27.1765L329.247 6.55882C329.247 6.18627 329.381 6 329.648 6H330.931C331.198 6 331.358 6.17647 331.358 6.54902L332 27.1667Z" fill="#B4ABA8"/>
<path d="M334.605 27.1527L334 6.68966C334 6.31527 334.126 6.12808 334.378 6.12808H335.538C335.538 6.12808 335.74 6.17734 335.815 6.29557C335.891 6.41379 335.941 6.54187 335.941 6.6798L336.445 23.8916C336.445 23.9507 336.445 23.9803 336.445 23.9803L342.672 6.6798C342.748 6.4532 342.849 6.29557 342.95 6.21675C343.05 6.13793 343.252 6.08867 343.529 6.08867H344.739C344.916 6.08867 345.067 6.16749 345.193 6.32512C345.319 6.49261 345.395 6.6798 345.395 6.91626L346 27.5961C346 27.8325 345.874 27.9507 345.622 27.9606H344.487C344.487 27.9606 344.286 27.9113 344.21 27.803C344.134 27.6946 344.084 27.5567 344.084 27.4089L343.58 10.2266C343.58 10.1675 343.58 10.1379 343.58 10.1379C343.58 10.1379 343.529 10.1675 343.504 10.2266L337.277 27.5271C337.151 27.8424 336.924 28 336.597 28H335.235C335.059 28 334.908 27.9212 334.782 27.7537C334.655 27.5862 334.58 27.3892 334.58 27.1626L334.605 27.1527ZM342.748 0C342.924 0 343 0.128079 343.025 0.374384C343.05 1.50739 342.748 2.50246 342.118 3.36946C341.487 4.23645 340.63 4.66995 339.597 4.66995C338.563 4.66995 337.681 4.24631 337 3.38916C336.319 2.53202 335.941 1.53695 335.916 0.403941C335.916 0.157635 335.992 0.0295567 336.143 0.0295567H336.95C337.151 0.0295567 337.252 0.187192 337.277 0.502463C337.353 1.23153 337.605 1.80296 338.034 2.2266C338.462 2.65025 338.941 2.85714 339.521 2.84729C340.101 2.83744 340.58 2.63054 340.983 2.2069C341.387 1.78325 341.588 1.21182 341.639 0.482759C341.639 0.167488 341.765 0.00985222 341.966 0.00985222H342.773L342.748 0Z" fill="#B4ABA8"/>
<path d="M365.051 27.3765L364.52 9.7013C364.52 9.20648 364.444 8.87989 364.317 8.70175C364.191 8.52362 363.912 8.43455 363.482 8.43455L357.965 8.46424C357.535 8.46424 357.257 8.55331 357.155 8.73144C357.054 8.90958 357.003 9.24606 357.003 9.73099L357.535 27.4062C357.535 27.5744 357.51 27.713 357.408 27.8219C357.333 27.9406 357.231 28 357.105 28H355.991C355.991 28 355.763 27.9505 355.687 27.8318C355.612 27.713 355.561 27.5744 355.536 27.4161L355.004 9.74089C354.928 7.27665 355.89 6.03959 357.864 6.02969L363.381 6C365.38 6 366.393 7.21727 366.469 9.68151L367 27.3567C367 27.525 366.975 27.6635 366.873 27.7724C366.798 27.8911 366.696 27.9505 366.57 27.9505H365.456C365.456 27.9505 365.254 27.901 365.153 27.7823C365.051 27.6635 365.026 27.525 365.001 27.3666L365.051 27.3765Z" fill="#B4ABA8"/>
<path d="M380.994 12.7248C381.127 17.1031 379.046 19.3022 374.75 19.3218C374.189 19.3218 373.442 19.2825 372.428 19.1843L372.695 27.411C372.695 27.5681 372.668 27.6957 372.588 27.8233C372.508 27.9411 372.428 28 372.295 28H371.067C371.067 28 370.854 27.9509 370.774 27.8331C370.694 27.7153 370.64 27.5779 370.64 27.4208L370 6.99165C370 6.78549 370.053 6.59897 370.16 6.43208C370.267 6.26519 370.854 6.15721 371.868 6.09831C372.882 6.0394 373.709 6.00014 374.35 6.00014C378.646 5.9805 380.861 8.09115 380.994 12.3321V12.715V12.7248ZM378.886 12.7346V12.3517C378.833 10.9086 378.459 9.86803 377.739 9.22992C377.018 8.59182 375.924 8.26786 374.376 8.27768C373.629 8.27768 372.855 8.32676 372.081 8.4053L372.348 16.9952C373.763 17.0639 374.536 17.1031 374.67 17.1031C376.217 17.1031 377.312 16.7596 377.979 16.092C378.646 15.4244 378.939 14.3053 378.886 12.7444V12.7346Z" fill="#B4ABA8"/>
<path d="M393.948 28.3996C393.948 28.5522 393.922 28.6642 393.843 28.7456C393.765 28.827 393.294 28.8881 392.404 28.9288C391.514 28.9695 390.494 28.9898 389.317 29C387.642 29 386.412 28.5522 385.627 27.6465C384.816 26.7305 384.398 25.3058 384.345 23.3721L384.005 11.6788C383.953 9.70442 384.293 8.25929 385.078 7.36372C385.837 6.46814 387.04 6.01018 388.662 6C389.552 6 390.311 6 390.939 6.02035C391.567 6.04071 392.064 6.06106 392.482 6.10177C392.901 6.14248 393.137 6.17301 393.163 6.21372C393.189 6.25442 393.241 6.30531 393.267 6.37655C393.294 6.44779 393.32 6.51903 393.32 6.59027L393.372 8.10664C393.372 8.35088 393.294 8.48319 393.137 8.48319L388.767 8.50354C387.773 8.50354 387.066 8.68673 386.648 9.02257C386.229 9.36858 386.02 10.254 386.072 11.6788L386.203 15.9124L393.163 15.8819C393.163 15.8819 393.398 15.9429 393.477 16.0549C393.581 16.177 393.608 16.3195 393.634 16.4823V17.6221C393.66 17.7951 393.634 17.9376 393.555 18.0496C393.477 18.1717 393.372 18.2327 393.241 18.2327L386.282 18.2633L386.438 23.3721C386.465 24.5934 386.674 25.4177 387.04 25.8655C387.407 26.3133 388.165 26.527 389.317 26.527L393.686 26.5066C393.869 26.5066 393.948 26.6288 393.948 26.873L394 28.4199L393.948 28.3996Z" fill="#B4ABA8"/>
<path d="M406.051 27.3765L405.52 9.7013C405.52 9.20648 405.444 8.87989 405.317 8.70175C405.191 8.52362 404.912 8.43455 404.482 8.43455L398.965 8.46424C398.535 8.46424 398.257 8.55331 398.155 8.73144C398.054 8.90958 398.003 9.24606 398.003 9.73099L398.535 27.4062C398.535 27.5745 398.51 27.713 398.408 27.8219C398.332 27.9406 398.231 28 398.105 28H396.991C396.991 28 396.763 27.9505 396.687 27.8318C396.612 27.713 396.561 27.5745 396.536 27.4161L396.004 9.74089C395.928 7.27665 396.89 6.03959 398.864 6.02969L404.381 6C406.38 6 407.393 7.21727 407.469 9.68151L408 27.3567C408 27.525 407.975 27.6635 407.873 27.7724C407.798 27.8911 407.696 27.9505 407.57 27.9505H406.456C406.456 27.9505 406.254 27.901 406.153 27.7823C406.051 27.6635 406.026 27.525 406.001 27.3666L406.051 27.3765Z" fill="#B4ABA8"/>
<path d="M414.341 20.8073L413.114 27.5682C413.114 27.7252 413.036 27.8332 412.958 27.9019C412.88 27.9706 412.801 28 412.723 28H411.392C411.131 28 411 27.8528 411 27.5388C411 27.4701 411 27.4014 411 27.3426L414.602 8.24719C414.89 6.75567 415.62 6.00991 416.847 6.0001C418.074 5.99028 418.831 6.72623 419.197 8.19812L423.974 27.2837C423.974 27.2837 423.974 27.3916 424 27.4799C424 27.7939 423.896 27.9509 423.635 27.9509H422.303C422.303 27.9509 422.12 27.9215 422.068 27.8332C422.016 27.7449 421.886 27.3818 421.729 26.7244L420.241 20.7779L414.394 20.8073H414.341ZM419.693 18.4621L417.892 11.0438C417.526 9.55227 417.317 8.76726 417.317 8.71819C417.317 8.65932 417.265 8.60044 417.239 8.53175C417.213 8.46307 417.161 8.414 417.108 8.37475C417.056 8.3355 417.004 8.31588 416.926 8.31588C416.847 8.31588 416.769 8.3355 416.717 8.38456C416.665 8.43363 416.612 8.4925 416.586 8.571C416.56 8.64951 416.43 9.20882 416.247 10.249L414.759 18.4818L419.745 18.4621H419.693Z" fill="#B4ABA8"/>
<path d="M435.994 12.7248C436.127 17.1031 434.046 19.3022 429.75 19.3218C429.189 19.3218 428.442 19.2825 427.428 19.1843L427.695 27.411C427.695 27.5681 427.668 27.6957 427.588 27.8233C427.508 27.9411 427.428 28 427.295 28H426.067C426.067 28 425.854 27.9509 425.774 27.8331C425.694 27.7153 425.64 27.5779 425.64 27.4208L425 6.99165C425 6.78549 425.053 6.59897 425.16 6.43208C425.267 6.26519 425.854 6.15721 426.868 6.09831C427.882 6.0394 428.709 6.00014 429.35 6.00014C433.646 5.9805 435.861 8.09115 435.994 12.3321V12.715V12.7248ZM433.886 12.7346V12.3517C433.833 10.9086 433.459 9.86803 432.738 9.22992C432.018 8.59182 430.924 8.26786 429.376 8.27768C428.629 8.27768 427.855 8.32676 427.081 8.4053L427.348 16.9952C428.763 17.0639 429.536 17.1031 429.67 17.1031C431.217 17.1031 432.312 16.7596 432.979 16.092C433.646 15.4244 433.939 14.3053 433.886 12.7444V12.7346Z" fill="#B4ABA8"/>
<path d="M439.341 20.8073L438.114 27.5682C438.114 27.7252 438.036 27.8332 437.958 27.9019C437.88 27.9706 437.801 28 437.723 28H436.392C436.131 28 436 27.8528 436 27.5388C436 27.4701 436 27.4014 436 27.3426L439.602 8.24719C439.89 6.75567 440.621 6.00991 441.847 6.0001C443.074 5.99028 443.831 6.72623 444.197 8.19812L448.974 27.2837C448.974 27.2837 448.974 27.3916 449 27.4799C449 27.7939 448.896 27.9509 448.635 27.9509H447.303C447.303 27.9509 447.121 27.9215 447.068 27.8332C447.016 27.7449 446.886 27.3818 446.729 26.7244L445.241 20.7779L439.394 20.8073H439.341ZM444.693 18.4621L442.892 11.0438C442.526 9.55227 442.317 8.76726 442.317 8.71819C442.317 8.65932 442.265 8.60044 442.239 8.53175C442.213 8.46307 442.161 8.414 442.108 8.37475C442.056 8.3355 442.004 8.31588 441.926 8.31588C441.847 8.31588 441.769 8.3355 441.717 8.38456C441.665 8.43363 441.612 8.4925 441.586 8.571C441.56 8.64951 441.43 9.20883 441.247 10.249L439.759 18.4818L444.745 18.4621H444.693Z" fill="#B4ABA8"/>
<path d="M459 7.83251C459 8.14948 458.867 8.30797 458.575 8.30797L454.088 8.32778L454.673 27.4057C454.673 27.5642 454.646 27.6929 454.566 27.8217C454.487 27.9406 454.407 28 454.274 28H453C453 28 452.788 27.9505 452.708 27.8316C452.628 27.7127 452.575 27.5741 452.575 27.4156L451.991 8.33769L447.531 8.3575C447.212 8.3575 447.053 8.19901 447.053 7.88204L447 6.58442C447 6.43584 447.027 6.31697 447.133 6.20801C447.212 6.09905 447.319 6.04953 447.451 6.04953L458.496 6C458.788 6 458.947 6.1783 458.947 6.53489L459 7.83251Z" fill="#B4ABA8"/>
<path d="M460 27.3893C460 27.5623 459.974 27.7048 459.897 27.8168C459.82 27.9389 459.718 28 459.59 28H458.538C458.538 28 458.333 27.9491 458.231 27.827C458.128 27.7048 458.103 27.5623 458.077 27.3995L458 24.5802C458 24.4173 458.026 24.285 458.103 24.173C458.179 24.0611 458.282 24 458.385 24H459.436C459.436 24 459.641 24.0509 459.744 24.1527C459.846 24.2545 459.872 24.3969 459.872 24.57L459.949 27.3893H460Z" fill="#B4ABA8"/>
<path d="M468.605 27.1493L468 6.60342C468 6.22752 468.126 6.03957 468.378 6.03957H469.538C469.538 6.03957 469.739 6.08903 469.815 6.20773C469.891 6.32644 469.941 6.45504 469.941 6.59353L470.445 23.875C470.445 23.9344 470.445 23.964 470.445 23.964L476.672 6.59353C476.748 6.36601 476.849 6.20773 476.95 6.1286C477.05 6.04946 477.252 6 477.529 6H478.739C478.916 6 479.067 6.07914 479.193 6.23741C479.319 6.40558 479.395 6.59353 479.395 6.83094L480 27.5944C480 27.8318 479.874 27.9505 479.622 27.9604H478.487C478.487 27.9604 478.286 27.911 478.21 27.8022C478.134 27.6933 478.084 27.5549 478.084 27.4065L477.58 10.1547C477.58 10.0953 477.58 10.0656 477.58 10.0656C477.58 10.0656 477.529 10.0953 477.504 10.1547L471.277 27.5252C471.151 27.8417 470.924 28 470.597 28H469.235C469.059 28 468.908 27.9209 468.782 27.7527C468.655 27.5845 468.58 27.3867 468.58 27.1592L468.605 27.1493Z" fill="#B4ABA8"/>
<path d="M497 27.3468C497 27.5151 496.974 27.6536 496.872 27.7625C496.77 27.8713 496.693 27.9406 496.565 27.9406H495.49C495.49 27.9406 495.26 27.8911 495.183 27.7724C495.08 27.6536 495.055 27.5151 495.029 27.3567L494.492 9.83986C494.492 9.76068 494.492 9.7211 494.492 9.7211C494.492 9.7211 494.466 9.75079 494.441 9.81017L492.547 15.5205C491.856 17.6185 491.472 18.7467 491.42 18.8952C491.369 19.0436 491.267 19.1723 491.139 19.2713C491.011 19.3702 490.832 19.4197 490.576 19.4296H489.552C489.296 19.4296 489.117 19.3801 488.963 19.2713C488.81 19.1624 488.682 18.9348 488.528 18.5884L485.943 12.0171C485.355 10.5227 485.048 9.77058 485.048 9.77058C485.048 9.77058 485.048 9.81017 485.048 9.88934L485.585 27.4062C485.585 27.5744 485.559 27.713 485.457 27.8219C485.38 27.9406 485.278 28 485.15 28H484.075C484.075 28 483.845 27.9505 483.768 27.8318C483.691 27.713 483.64 27.5744 483.614 27.4161L483 6.91048C483 6.67296 483.051 6.46514 483.179 6.2969C483.307 6.12866 483.461 6.03959 483.614 6.03959H485.048C485.406 6.03959 485.636 6.19793 485.764 6.53441L489.731 16.6685C489.808 16.8763 489.91 16.9852 489.987 16.9852C490.064 16.9852 490.166 16.8763 490.243 16.6685L493.596 6.50472C493.698 6.16824 493.929 6 494.287 6H495.72C495.899 6 496.053 6.07917 496.181 6.24741C496.309 6.41565 496.386 6.62348 496.386 6.861L497 27.3666V27.3468Z" fill="#B4ABA8"/>
<path d="M510.948 27.3996C510.948 27.5522 510.922 27.6642 510.843 27.7456C510.765 27.827 510.294 27.8881 509.404 27.9288C508.514 27.9695 507.494 27.9898 506.317 28C504.642 28 503.412 27.5522 502.627 26.6465C501.816 25.7305 501.398 24.3058 501.345 22.3721L501.005 10.6788C500.953 8.70442 501.293 7.25929 502.078 6.36372C502.837 5.46814 504.04 5.01018 505.662 5C506.552 5 507.311 5 507.939 5.02035C508.567 5.04071 509.064 5.06106 509.482 5.10177C509.901 5.14248 510.137 5.17301 510.163 5.21372C510.189 5.25442 510.241 5.30531 510.267 5.37655C510.294 5.44779 510.32 5.51903 510.32 5.59027L510.372 7.10664C510.372 7.35088 510.294 7.48319 510.137 7.48319L505.767 7.50354C504.773 7.50354 504.066 7.68672 503.648 8.02257C503.229 8.36858 503.02 9.25398 503.072 10.6788L503.203 14.9124L510.163 14.8819C510.163 14.8819 510.398 14.9429 510.477 15.0549C510.581 15.177 510.608 15.3195 510.634 15.4823V16.6221C510.66 16.7951 510.634 16.9376 510.555 17.0496C510.477 17.1717 510.372 17.2327 510.241 17.2327L503.282 17.2633L503.439 22.3721C503.465 23.5934 503.674 24.4177 504.04 24.8655C504.407 25.3133 505.165 25.527 506.317 25.527L510.686 25.5066C510.869 25.5066 510.948 25.6288 510.948 25.873L511 27.4199L510.948 27.3996Z" fill="#B4ABA8"/>
<path d="M530.948 18.4336C531.052 21.5376 530.583 23.9088 529.567 25.5371C528.551 27.1654 527.093 27.9897 525.139 27.9999C523.185 28.0101 521.648 27.2061 520.554 25.5778C519.46 23.9495 518.835 21.5885 518.757 18.4845V17.7314L515.397 17.7416L515.683 27.2265C515.683 27.3893 515.657 27.5216 515.579 27.6539C515.501 27.776 515.423 27.8371 515.292 27.8371H514.042C514.042 27.8371 513.834 27.7862 513.755 27.6641C513.677 27.5419 513.625 27.3995 513.625 27.2366L513 5.8346C513 5.44788 513.13 5.25452 513.391 5.25452H514.641C514.902 5.25452 515.058 5.4377 515.058 5.82442L515.344 15.2788H518.679V14.5664C518.575 11.4624 519.043 9.09121 520.059 7.46291C521.075 5.8346 522.56 5.01027 524.514 5.0001C526.467 4.98992 527.978 5.79389 529.098 7.4222C530.192 9.04033 530.792 11.4115 530.896 14.5155L531 18.4336H530.948ZM528.864 18.4438L528.76 14.5257C528.63 9.82395 527.223 7.48326 524.54 7.49344C521.857 7.50361 520.58 9.86466 520.711 14.5562L520.815 18.4743C520.945 23.1761 522.378 25.5167 525.061 25.5066C527.744 25.4964 528.994 23.1353 528.864 18.4438Z" fill="#B4ABA8"/>
<path d="M543 6.83251C543 7.14948 542.867 7.30797 542.575 7.30797L538.088 7.32778L538.673 26.4057C538.673 26.5642 538.646 26.6929 538.566 26.8217C538.487 26.9406 538.407 27 538.274 27H537C537 27 536.788 26.9505 536.708 26.8316C536.628 26.7127 536.575 26.5741 536.575 26.4156L535.991 7.33769L531.531 7.3575C531.212 7.3575 531.053 7.19901 531.053 6.88204L531 5.58442C531 5.43584 531.027 5.31697 531.133 5.20801C531.212 5.09905 531.319 5.04953 531.451 5.04953L542.496 5C542.788 5 542.947 5.1783 542.947 5.53489L543 6.83251Z" fill="#B4ABA8"/>
<path d="M554 26.9828C554 27.2065 553.95 27.3795 553.802 27.4812C553.678 27.5829 553.257 27.6948 552.612 27.8169C551.943 27.9288 551.101 27.9898 550.06 28C548.325 28 546.913 27.2167 545.847 25.6298C544.782 24.0429 544.212 21.7134 544.137 18.6515L544.014 14.4197C543.914 11.3375 544.36 8.99779 545.327 7.40071C546.293 5.80363 547.656 5.01017 549.416 5C550.11 5 550.902 5.07121 551.795 5.2238C552.687 5.37638 553.157 5.48828 553.257 5.54931C553.331 5.61035 553.38 5.71207 553.38 5.85449L553.43 7.41088C553.43 7.6245 553.331 7.7364 553.133 7.7364C551.572 7.56347 550.382 7.48209 549.515 7.48209C547.037 7.49226 545.847 9.80141 545.971 14.3994L546.095 18.6311C546.169 20.9098 546.516 22.6188 547.185 23.7784C547.854 24.9279 548.796 25.5077 550.01 25.4976C550.729 25.4976 551.423 25.4569 552.092 25.3958L553.604 25.2433C553.827 25.2433 553.95 25.406 553.95 25.7315V26.9726L554 26.9828Z" fill="#B4ABA8"/>
<path d="M566.975 26.3619C566.975 26.519 566.95 26.6466 566.875 26.7742C566.8 26.892 566.724 26.9509 566.599 26.9509H565.421C565.421 26.9509 565.221 26.9018 565.146 26.784C565.071 26.6662 565.021 26.5288 565.021 26.3717L564.77 17.7523C563.943 17.8112 563.141 17.8407 562.39 17.8505H561.838L559.533 23.4364C558.656 25.5765 558.18 26.6957 558.155 26.7742C558.105 26.8527 558.055 26.9116 557.98 26.9509C557.904 26.9804 557.804 27 557.654 27H556.276C556.1 27 556 26.8822 556 26.6171C556 26.5288 556 26.4404 556.05 26.3619L559.733 17.4284C558.631 17.0455 557.779 16.3387 557.153 15.3177C556.526 14.2967 556.2 13.0303 556.175 11.5382V11.3222C556.05 7.12048 558.005 5.00982 562.039 5C563.091 5 564.043 5.02945 564.845 5.09817C565.647 5.16689 566.123 5.25524 566.223 5.3436C566.323 5.43195 566.399 5.59884 566.399 5.85408L567 26.3815L566.975 26.3619ZM564.695 15.4944L564.469 7.46408C564.144 7.40518 563.342 7.38554 562.089 7.38554C560.61 7.38554 559.583 7.7095 558.957 8.32798C558.33 8.94645 558.055 9.93797 558.08 11.2927V11.5087C558.13 13.0303 558.506 14.0808 559.182 14.6796C559.859 15.2686 560.911 15.5631 562.314 15.5631C562.891 15.5631 563.692 15.5337 564.695 15.4944Z" fill="#B4ABA8"/>
<path d="M586.051 26.3765L585.52 8.7013C585.52 8.20648 585.444 7.87989 585.317 7.70175C585.191 7.52362 584.912 7.43455 584.482 7.43455L578.965 7.46424C578.535 7.46424 578.257 7.55331 578.155 7.73144C578.054 7.90958 578.003 8.24606 578.003 8.73099L578.535 26.4062C578.535 26.5744 578.51 26.713 578.408 26.8219C578.332 26.9406 578.231 27 578.105 27H576.991C576.991 27 576.763 26.9505 576.687 26.8318C576.612 26.713 576.561 26.5744 576.536 26.4161L576.004 8.74089C575.928 6.27665 576.89 5.03959 578.864 5.02969L584.381 5C586.38 5 587.393 6.21727 587.469 8.68151L588 26.3567C588 26.525 587.975 26.6635 587.873 26.7724C587.798 26.8911 587.696 26.9505 587.57 26.9505H586.456C586.456 26.9505 586.254 26.901 586.153 26.7823C586.051 26.6635 586.026 26.525 586.001 26.3666L586.051 26.3765Z" fill="#B4ABA8"/>
<path d="M601.994 11.7248C602.127 16.1031 600.046 18.3022 595.75 18.3218C595.189 18.3218 594.442 18.2825 593.428 18.1843L593.695 26.411C593.695 26.5681 593.668 26.6957 593.588 26.8233C593.508 26.9411 593.428 27 593.295 27H592.067C592.067 27 591.854 26.9509 591.774 26.8331C591.694 26.7153 591.64 26.5779 591.64 26.4208L591 5.99165C591 5.78549 591.053 5.59897 591.16 5.43208C591.267 5.26519 591.854 5.15721 592.868 5.09831C593.882 5.0394 594.709 5.00014 595.35 5.00014C599.646 4.9805 601.861 7.09115 601.994 11.3321V11.715V11.7248ZM599.886 11.7346V11.3517C599.833 9.90863 599.459 8.86803 598.738 8.22992C598.018 7.59182 596.924 7.26786 595.376 7.27768C594.629 7.27768 593.855 7.32676 593.081 7.4053L593.348 15.9952C594.763 16.0639 595.536 16.1031 595.67 16.1031C597.217 16.1031 598.312 15.7596 598.979 15.092C599.646 14.4244 599.939 13.3053 599.886 11.7444V11.7346Z" fill="#B4ABA8"/>
<path d="M615.986 18.4336C616.088 21.5376 615.631 23.9088 614.642 25.5371C613.652 27.1654 612.232 27.9897 610.329 27.9999C608.427 28.0101 606.956 27.2061 605.865 25.5778C604.774 23.9495 604.191 21.5885 604.115 18.4845L604.013 14.5664C603.912 11.3403 604.394 8.93856 605.408 7.37131C606.423 5.79389 607.869 5.01027 609.67 5.0001C611.471 4.98992 613.044 5.79389 614.109 7.4222C615.174 9.04033 615.758 11.4115 615.859 14.5155L615.961 18.4336H615.986ZM613.982 18.4438L613.881 14.5257C613.754 9.82395 612.384 7.48326 609.771 7.49344C607.159 7.50361 605.916 9.86466 606.043 14.5562L606.144 18.4743C606.271 23.1761 607.666 25.5167 610.279 25.5066C612.891 25.4964 614.109 23.1353 613.982 18.4438Z" fill="#B4ABA8"/>
<path d="M629 6.83251C629 7.14948 628.867 7.30797 628.575 7.30797L624.088 7.32778L624.673 26.4057C624.673 26.5642 624.646 26.6929 624.566 26.8217C624.487 26.9406 624.407 27 624.274 27H623C623 27 622.788 26.9505 622.708 26.8316C622.628 26.7127 622.575 26.5741 622.575 26.4156L621.991 7.33769L617.531 7.3575C617.212 7.3575 617.053 7.19901 617.053 6.88204L617 5.58442C617 5.43584 617.027 5.31697 617.133 5.20801C617.212 5.09905 617.319 5.04953 617.451 5.04953L628.496 5C628.788 5 628.947 5.1783 628.947 5.53489L629 6.83251Z" fill="#B4ABA8"/>
<path d="M631.605 26.1493L631 5.60342C631 5.22752 631.126 5.03957 631.378 5.03957H632.538C632.538 5.03957 632.739 5.08903 632.815 5.20773C632.891 5.32644 632.941 5.45504 632.941 5.59353L633.445 22.875C633.445 22.9344 633.445 22.964 633.445 22.964L639.672 5.59353C639.748 5.36601 639.849 5.20773 639.95 5.1286C640.05 5.04946 640.252 5 640.529 5H641.739C641.916 5 642.067 5.07914 642.193 5.23741C642.319 5.40558 642.395 5.59353 642.395 5.83094L643 26.5944C643 26.8318 642.874 26.9505 642.622 26.9604H641.487C641.487 26.9604 641.286 26.911 641.21 26.8022C641.134 26.6933 641.084 26.5549 641.084 26.4065L640.58 9.15468C640.58 9.09532 640.58 9.06565 640.58 9.06565C640.58 9.06565 640.529 9.09532 640.504 9.15468L634.277 26.5252C634.151 26.8417 633.924 27 633.597 27H632.235C632.059 27 631.908 26.9209 631.782 26.7527C631.655 26.5845 631.58 26.3867 631.58 26.1592L631.605 26.1493Z" fill="#B4ABA8"/>
<path d="M656.995 21.5275C657.12 25.8221 655.066 27.9796 650.859 28C649.882 28 649.005 27.9695 648.179 27.8881C647.377 27.8066 646.902 27.6642 646.776 27.4708C646.651 27.2774 646.576 26.9925 646.576 26.6261L646 6.38422C646 6.11962 646 5.89573 646.075 5.72272C646.15 5.54971 646.25 5.42759 646.376 5.34617C646.501 5.26476 646.977 5.19352 647.753 5.1121C648.53 5.04087 649.306 5.00016 650.082 5.00016C654.315 4.9798 656.494 6.9236 656.594 10.8315V11.32C656.644 12.4293 656.469 13.3961 656.093 14.2306C655.717 15.0651 655.166 15.6859 654.44 16.1134C655.216 16.4899 655.818 17.1107 656.268 17.9859C656.719 18.8611 656.945 19.8686 656.995 21.0186V21.5377V21.5275ZM654.665 11.3302V10.8417C654.615 9.62048 654.265 8.73509 653.614 8.17536C652.962 7.61563 651.81 7.34085 650.157 7.34085C649.932 7.34085 649.231 7.37138 648.004 7.44262L648.229 14.9837L651.56 14.9634C653.689 14.9634 654.716 13.7421 654.64 11.3302H654.665ZM655.041 21.5377V21.0186C654.941 18.4439 653.839 17.1616 651.66 17.1718L648.329 17.1921L648.58 25.5474C649.932 25.6288 650.683 25.6695 650.834 25.6695C652.436 25.6695 653.538 25.3235 654.19 24.662C654.816 24.0005 655.116 22.9624 655.091 21.5377H655.041Z" fill="#B4ABA8"/>
<path d="M671.986 18.4336C672.088 21.5376 671.631 23.9088 670.642 25.5371C669.652 27.1654 668.232 27.9897 666.33 27.9999C664.427 28.0101 662.956 27.2061 661.865 25.5778C660.774 23.9495 660.191 21.5885 660.115 18.4845L660.013 14.5664C659.912 11.3403 660.394 8.93856 661.408 7.37131C662.423 5.79389 663.869 5.01027 665.67 5.0001C667.471 4.98992 669.044 5.79389 670.109 7.4222C671.174 9.04033 671.758 11.4115 671.859 14.5155L671.961 18.4336H671.986ZM669.957 18.4438L669.855 14.5257C669.729 9.82395 668.359 7.48326 665.746 7.49344C663.133 7.50361 661.89 9.86466 662.017 14.5562L662.119 18.4743C662.246 23.1761 663.641 25.5167 666.253 25.5066C668.866 25.4964 670.084 23.1353 669.957 18.4438Z" fill="#B4ABA8"/>
<path d="M685.051 26.3765L684.52 8.7013C684.52 8.20648 684.444 7.87989 684.317 7.70175C684.191 7.52362 683.912 7.43455 683.482 7.43455L677.965 7.46424C677.535 7.46424 677.257 7.55331 677.155 7.73144C677.054 7.90958 677.003 8.24606 677.003 8.73099L677.535 26.4062C677.535 26.5745 677.51 26.713 677.408 26.8219C677.332 26.9406 677.231 27 677.105 27H675.991C675.991 27 675.763 26.9505 675.688 26.8318C675.612 26.713 675.561 26.5744 675.536 26.4161L675.004 8.74089C674.928 6.27665 675.89 5.03959 677.864 5.02969L683.381 5C685.38 5 686.393 6.21727 686.468 8.68151L687 26.3567C687 26.525 686.975 26.6635 686.873 26.7724C686.797 26.8911 686.696 26.9505 686.57 26.9505H685.456C685.456 26.9505 685.254 26.901 685.153 26.7823C685.051 26.6635 685.026 26.525 685.001 26.3666L685.051 26.3765Z" fill="#B4ABA8"/>
<path d="M701.986 17.4336C702.088 20.5376 701.631 22.9088 700.642 24.5371C699.652 26.1654 698.232 26.9897 696.33 26.9999C694.427 27.0101 692.956 26.2061 691.865 24.5778C690.774 22.9495 690.191 20.5885 690.115 17.4845L690.013 13.5664C689.912 10.3403 690.394 7.93856 691.408 6.37131C692.423 4.79389 693.869 4.01027 695.67 4.0001C697.471 3.98992 699.044 4.79389 700.109 6.4222C701.174 8.04033 701.758 10.4115 701.859 13.5155L701.961 17.4336H701.986ZM699.957 17.4438L699.855 13.5257C699.729 8.82395 698.359 6.48326 695.746 6.49344C693.133 6.50361 691.89 8.86466 692.017 13.5562L692.119 17.4743C692.246 22.1761 693.641 24.5167 696.253 24.5066C698.866 24.4964 700.084 22.1353 699.957 17.4438Z" fill="#B4ABA8"/>
<path d="M716.892 26.2973C716.973 26.4062 717 26.5151 717 26.6437C717 26.8417 716.919 26.9505 716.702 26.9505H714.887C714.67 26.9505 714.481 26.8615 714.372 26.6734L707.438 16.5592L707.763 26.4062C707.763 26.5646 707.736 26.6932 707.655 26.8219C707.573 26.9406 707.492 27 707.357 27H706.084C706.084 27 705.867 26.9505 705.786 26.8318C705.704 26.713 705.65 26.5744 705.65 26.4161L705 5.60369C705 5.45524 705.027 5.32659 705.108 5.21772C705.19 5.09897 705.298 5.03959 705.433 5.03959H706.679C706.679 5.03959 706.896 5.08907 707.005 5.19793C707.086 5.30679 707.14 5.43545 707.14 5.59379L707.438 15.1439L713.885 5.2771C714.02 5.08907 714.156 5 714.345 5H716.025C716.241 5 716.35 5.09897 716.377 5.30679C716.377 5.42555 716.377 5.52452 716.296 5.61359L709.551 15.6982L716.946 26.3072L716.892 26.2973Z" fill="#B4ABA8"/>
<path d="M721.341 18.8073L720.114 25.5682C720.114 25.7252 720.036 25.8332 719.958 25.9019C719.88 25.9706 719.801 26 719.723 26H718.392C718.131 26 718 25.8528 718 25.5388C718 25.4701 718 25.4014 718 25.3426L721.602 6.24719C721.89 4.75567 722.62 4.00991 723.847 4.0001C725.074 3.99028 725.831 4.72623 726.197 6.19812L730.974 25.2837C730.974 25.2837 730.974 25.3916 731 25.4799C731 25.7939 730.896 25.9509 730.635 25.9509H729.303C729.303 25.9509 729.12 25.9215 729.068 25.8332C729.016 25.7449 728.886 25.3818 728.729 24.7244L727.241 18.7779L721.394 18.8073H721.341ZM726.667 16.4621L724.865 9.04379C724.5 7.55227 724.291 6.76726 724.291 6.71819C724.291 6.65932 724.239 6.60044 724.213 6.53175C724.187 6.46307 724.135 6.414 724.082 6.37475C724.03 6.3355 723.978 6.31588 723.9 6.31588C723.821 6.31588 723.743 6.3355 723.691 6.38456C723.639 6.43363 723.586 6.4925 723.56 6.571C723.534 6.64951 723.404 7.20882 723.221 8.24896L721.733 16.4818L726.719 16.4621H726.667Z" fill="#B4ABA8"/>
<path d="M742.924 20.4794C742.975 22.5851 742.568 24.2026 741.653 25.3114C740.737 26.4303 739.39 26.9898 737.636 27C736.822 27 735.983 26.9084 735.093 26.7253C734.204 26.5321 733.72 26.3795 733.619 26.2472C733.517 26.115 733.466 25.9828 733.466 25.8403V24.8129C733.415 24.467 733.568 24.2941 733.873 24.2941C735.424 24.5789 736.644 24.7112 737.585 24.7112C738.78 24.7112 739.644 24.3653 740.178 23.6939C740.712 23.0226 740.941 21.9544 740.915 20.4896V19.8487C740.864 18.7705 740.61 17.8854 740.153 17.1937C739.695 16.502 739.034 16.1561 738.22 16.1561L734.229 16.1765C733.949 16.1765 733.797 15.9934 733.797 15.6272V14.5692C733.746 14.1827 733.898 13.9894 734.178 13.9894L738.17 13.969C739.009 13.969 739.644 13.6435 740.076 13.0128C740.483 12.3821 740.687 11.487 740.661 10.3375V9.91022C740.61 8.62848 740.305 7.70279 739.771 7.1433C739.237 6.58381 738.322 6.30915 737.127 6.31933C736.593 6.31933 735.983 6.38036 735.271 6.49226L733.415 6.79743C733.161 6.79743 733.009 6.6245 733.009 6.27864V5.21053C732.983 5.02742 733.009 4.87483 733.161 4.76294C733.288 4.65104 733.771 4.49845 734.61 4.30517C735.449 4.1119 736.288 4.01017 737.076 4C738.958 4 740.356 4.46793 741.271 5.44449C742.186 6.41088 742.67 7.89606 742.72 9.90004V10.3273C742.797 12.494 742.161 14.0809 740.788 15.088C742.212 16.0442 742.949 17.621 743 19.8386V20.4794H742.924Z" fill="#B4ABA8"/>
<path d="M747.341 18.8073L746.114 25.5682C746.114 25.7252 746.036 25.8332 745.958 25.9019C745.88 25.9706 745.801 26 745.723 26H744.392C744.131 26 744 25.8528 744 25.5388C744 25.4701 744 25.4014 744 25.3426L747.602 6.24719C747.89 4.75567 748.62 4.00991 749.847 4.0001C751.074 3.99028 751.831 4.72623 752.197 6.19812L756.974 25.2837C756.974 25.2837 756.974 25.3916 757 25.4799C757 25.7939 756.896 25.9509 756.635 25.9509H755.303C755.303 25.9509 755.12 25.9215 755.068 25.8332C755.016 25.7449 754.886 25.3818 754.729 24.7244L753.241 18.7779L747.394 18.8073H747.341ZM752.693 16.4719L750.892 9.0536C750.526 7.56208 750.317 6.77707 750.317 6.72801C750.317 6.66913 750.265 6.61026 750.239 6.54157C750.213 6.47288 750.161 6.42382 750.108 6.38456C750.056 6.34531 750.004 6.32569 749.926 6.32569C749.847 6.32569 749.769 6.34531 749.717 6.39438C749.665 6.44344 749.612 6.50232 749.586 6.58082C749.56 6.65932 749.43 7.21864 749.247 8.25878L747.759 16.4916L752.745 16.4719H752.693Z" fill="#B4ABA8"/>
<path d="M771 25.3666C771 25.5349 770.975 25.6734 770.875 25.7823C770.774 25.8911 770.699 25.9604 770.573 25.9604H769.469C769.469 25.9604 769.268 25.9109 769.167 25.7922C769.067 25.6734 769.042 25.5349 769.017 25.3765L768.715 15.5592L761.285 15.5888L761.586 25.4062C761.586 25.5744 761.561 25.713 761.46 25.8219C761.385 25.9406 761.285 26 761.159 26H760.054C760.054 26 759.828 25.9505 759.753 25.8318C759.678 25.713 759.628 25.5744 759.602 25.4161L759 4.63338C759 4.46514 759.025 4.32659 759.125 4.21772C759.201 4.09897 759.301 4.03959 759.427 4.03959H760.531C760.531 4.03959 760.757 4.08907 760.833 4.20783C760.933 4.32659 760.958 4.46514 760.983 4.62348L761.234 13.1939L768.665 13.1642L768.414 4.59379C768.414 4.42555 768.439 4.287 768.54 4.17814C768.615 4.05938 768.716 4 768.841 4H769.946C769.946 4 770.172 4.04948 770.247 4.16824C770.347 4.287 770.372 4.42555 770.398 4.5839L771 25.3666Z" fill="#B4ABA8"/>
<path d="M774.605 25.1493L774 4.60342C774 4.22752 774.101 4.03957 774.378 4.03957H775.538C775.538 4.03957 775.74 4.08903 775.815 4.20773C775.891 4.32644 775.941 4.45504 775.941 4.59353L776.445 21.875C776.445 21.9344 776.445 21.964 776.445 21.964L782.672 4.59353C782.748 4.36601 782.849 4.20773 782.95 4.1286C783.05 4.04946 783.252 4 783.529 4H784.739C784.916 4 785.067 4.07914 785.193 4.23741C785.319 4.40558 785.395 4.59353 785.395 4.83094L786 25.5944C786 25.8318 785.874 25.9505 785.622 25.9604H784.487C784.487 25.9604 784.286 25.911 784.21 25.8022C784.134 25.6933 784.084 25.5549 784.084 25.4065L783.58 8.15468C783.58 8.09532 783.58 8.06565 783.58 8.06565C783.58 8.06565 783.529 8.09532 783.504 8.15468L777.277 25.5252C777.151 25.8417 776.924 26 776.597 26H775.235C775.059 26 774.908 25.9209 774.782 25.7527C774.655 25.5845 774.58 25.3867 774.58 25.1592L774.605 25.1493Z" fill="#B4ABA8"/>
<path d="M801 25.3619C801 25.519 800.975 25.6466 800.9 25.7742C800.824 25.892 800.749 25.9509 800.623 25.9509H799.443C799.443 25.9509 799.242 25.9018 799.167 25.784C799.091 25.6662 799.041 25.5288 799.041 25.3717L798.79 16.7523C797.961 16.8112 797.183 16.8407 796.404 16.8505H795.852L793.541 22.4364C792.662 24.5765 792.185 25.6957 792.16 25.7742C792.11 25.8527 792.059 25.9116 791.984 25.9509C791.909 25.9902 791.808 26 791.658 26H790.276C790.1 26 790 25.8822 790 25.6171C790 25.5288 790 25.4404 790.05 25.3619L793.742 16.4284C792.637 16.0455 791.783 15.3387 791.155 14.3177C790.527 13.2967 790.201 12.0303 790.151 10.5382V10.3222C790.025 6.12048 791.984 4.00982 796.027 4C797.082 4 798.036 4.02945 798.84 4.09817C799.644 4.16689 800.121 4.25524 800.221 4.3436C800.322 4.43195 800.397 4.59884 800.397 4.85408L801 25.3815V25.3619ZM798.715 14.4846L798.489 6.45426C798.162 6.39536 797.358 6.37573 796.103 6.37573C794.621 6.37573 793.591 6.69969 792.963 7.31816C792.336 7.93664 792.059 8.92816 792.084 10.2829V10.4989C792.135 12.0205 792.511 13.071 793.189 13.6698C793.868 14.2686 794.922 14.5533 796.329 14.5533C796.906 14.5533 797.71 14.5239 798.715 14.4846Z" fill="#B4ABA8"/>
<path d="M821 25.3666C821 25.5349 820.975 25.6734 820.875 25.7823C820.774 25.8911 820.699 25.9604 820.573 25.9604H819.469C819.469 25.9604 819.243 25.9109 819.167 25.7922C819.092 25.6734 819.042 25.5349 819.017 25.3765L818.715 15.5592L811.285 15.5888L811.586 25.4062C811.586 25.5744 811.561 25.713 811.46 25.8219C811.36 25.9307 811.284 26 811.159 26H810.054C810.054 26 809.828 25.9505 809.753 25.8318C809.678 25.713 809.628 25.5744 809.602 25.4161L809 4.63338C809 4.46514 809.025 4.32659 809.125 4.21772C809.201 4.09897 809.301 4.03959 809.427 4.03959H810.531C810.531 4.03959 810.757 4.08907 810.833 4.20783C810.933 4.32659 810.958 4.46514 810.983 4.62348L811.234 13.1939L818.665 13.1642L818.414 4.59379C818.414 4.42555 818.439 4.287 818.54 4.17814C818.615 4.05938 818.715 4 818.841 4H819.946C819.946 4 820.172 4.04948 820.247 4.16824C820.347 4.287 820.372 4.42555 820.398 4.5839L821 25.3666Z" fill="#B4ABA8"/>
<path d="M834.948 26.3996C834.948 26.5522 834.922 26.6642 834.843 26.7456C834.765 26.827 834.294 26.8881 833.404 26.9288C832.514 26.9695 831.494 26.9898 830.317 27C828.642 27 827.412 26.5522 826.627 25.6465C825.816 24.7305 825.398 23.3058 825.345 21.3721L825.005 9.67876C824.953 7.70443 825.293 6.25929 826.078 5.36372C826.837 4.46814 828.04 4.01018 829.663 4C830.552 4 831.311 4 831.939 4.02035C832.567 4.04071 833.064 4.06106 833.483 4.10177C833.901 4.14248 834.137 4.17301 834.163 4.21372C834.215 4.24425 834.241 4.30531 834.267 4.37655C834.294 4.44779 834.32 4.51903 834.32 4.59027L834.372 6.10664C834.372 6.35089 834.294 6.47301 834.137 6.48319L829.767 6.50354C828.773 6.50354 828.066 6.68673 827.648 7.02257C827.229 7.36858 827.02 8.25398 827.072 9.67876L827.203 13.9124L834.163 13.8819C834.163 13.8819 834.398 13.9429 834.477 14.0549C834.581 14.177 834.608 14.3195 834.634 14.4823V15.6221C834.66 15.7951 834.634 15.9376 834.555 16.0496C834.477 16.1615 834.372 16.2327 834.241 16.2327L827.282 16.2633L827.439 21.3721C827.465 22.5934 827.674 23.4177 828.04 23.8655C828.407 24.3133 829.165 24.527 830.317 24.527L834.686 24.5066C834.843 24.5066 834.948 24.6288 834.948 24.873L835 26.4199L834.948 26.3996Z" fill="#B4ABA8"/>
<path d="M848.986 17.4336C849.088 20.5376 848.631 22.9088 847.642 24.5371C846.652 26.1654 845.232 26.9897 843.329 26.9999C841.427 27.0101 839.956 26.2061 838.865 24.5778C837.774 22.9495 837.191 20.5885 837.115 17.4845L837.013 13.5664C836.912 10.3403 837.394 7.93856 838.408 6.37131C839.423 4.79389 840.869 4.01027 842.67 4.0001C844.471 3.98992 846.044 4.79389 847.109 6.4222C848.174 8.04033 848.758 10.4115 848.859 13.5155L848.961 17.4336H848.986ZM846.957 17.4438L846.855 13.5257C846.729 8.82395 845.359 6.48326 842.746 6.49344C840.133 6.50361 838.89 8.86466 839.017 13.5562L839.119 17.4743C839.245 22.1761 840.641 24.5167 843.253 24.5066C845.866 24.4964 847.084 22.1353 846.957 17.4438Z" fill="#B4ABA8"/>
<path d="M862.995 19.7591C863.12 23.9001 861.071 25.9804 856.873 26C855.898 26 855.024 25.9706 854.199 25.8921C853.399 25.8136 852.925 25.6762 852.8 25.4897C852.675 25.3033 852.6 25.0285 852.6 24.6753L852 4.59857C852 4.22569 852.1 4.03925 852.375 4.03925L860.621 4C860.621 4 860.846 4.05888 860.921 4.16682C861.021 4.28457 861.046 4.42194 861.071 4.57895V5.78591C861.121 5.95272 861.071 6.0901 860.996 6.19804C860.921 6.31579 860.821 6.37467 860.696 6.37467L854.024 6.4041L854.224 13.1748C855.074 13.0963 855.823 13.0571 856.498 13.0473C860.696 13.0277 862.87 15.0981 862.995 19.2587V19.7591ZM861.021 19.769V19.2391C860.971 17.8751 860.621 16.8742 859.946 16.2462C859.271 15.6182 858.147 15.3042 856.548 15.314C855.998 15.314 855.248 15.3631 854.274 15.4416L854.524 23.645C855.873 23.7235 856.623 23.7627 856.798 23.7627C858.397 23.7627 859.496 23.4291 860.146 22.7913C860.796 22.1534 861.071 21.1525 861.046 19.7788L861.021 19.769Z" fill="#B4ABA8"/>
<path d="M877.923 25.2284C877.974 25.3273 878 25.4263 878 25.545C878 25.8219 877.897 25.9604 877.64 25.9604H876.25C876.069 25.9604 875.966 25.8912 875.889 25.723L871.436 16.9388L868.836 22.9928C868.038 24.8327 867.6 25.7923 867.523 25.8813C867.446 25.9604 867.368 26 867.265 26H865.952C865.721 26 865.592 25.8615 865.592 25.5746C865.592 25.4658 865.592 25.3669 865.644 25.268L870.277 14.812L865.077 4.7518C865.026 4.65288 865 4.56385 865 4.46493C865 4.18795 865.103 4.04946 865.335 4.04946H866.776C866.776 4.04946 866.956 4.05935 867.008 4.09892C867.059 4.13849 867.265 4.48471 867.6 5.14748L871.461 12.7347L873.727 7.43255C874.628 5.34532 875.091 4.26709 875.117 4.19784C875.143 4.13849 875.194 4.08903 875.246 4.04946C875.297 4.01978 875.374 4 875.477 4H876.79C877.022 4 877.151 4.13849 877.151 4.43525C877.151 4.52428 877.15 4.61331 877.099 4.69245L872.62 14.8516L877.949 25.1987L877.923 25.2284Z" fill="#B4ABA8"/>
<path d="M890.986 17.4336C891.088 20.5376 890.631 22.9088 889.642 24.5371C888.652 26.1654 887.232 26.9897 885.329 26.9999C883.427 27.0101 881.956 26.2061 880.865 24.5778C879.774 22.9495 879.191 20.5885 879.115 17.4845L879.013 13.5664C878.912 10.3403 879.394 7.93856 880.408 6.37131C881.423 4.79389 882.869 4.01027 884.67 4.0001C886.471 3.98992 888.044 4.79389 889.109 6.4222C890.174 8.04033 890.758 10.4115 890.859 13.5155L890.961 17.4336H890.986ZM888.957 17.4438L888.855 13.5257C888.729 8.82395 887.359 6.48326 884.746 6.49344C882.133 6.50361 880.89 8.86466 881.017 13.5562L881.119 17.4743C881.246 22.1761 882.641 24.5167 885.253 24.5066C887.866 24.4964 889.084 22.1353 888.957 17.4438Z" fill="#B4ABA8"/>
<path d="M893.353 22.9946H894.034L897.213 5.28833C897.465 3.7695 898.196 3.01009 899.382 3.0001C900.568 2.99011 901.299 3.73953 901.652 5.23837L905.84 22.9447H906.445C906.697 22.9447 906.849 23.1345 906.849 23.5042L907 28.3405C907 28.5004 906.975 28.6303 906.899 28.7602C906.823 28.8801 906.722 28.94 906.622 28.94H905.411C905.411 28.94 905.209 28.8901 905.133 28.7702C905.058 28.6503 905.007 28.5104 905.007 28.3505L904.932 25.3628L895.068 25.4128L895.144 28.4005C895.144 28.5603 895.119 28.6902 895.043 28.8201C894.968 28.94 894.892 29 894.766 29H893.555C893.555 29 893.353 28.95 893.278 28.8301C893.202 28.7102 893.151 28.5703 893.151 28.4105L893 23.5742C893 23.1945 893.126 23.0046 893.378 23.0046L893.353 22.9946ZM899.004 5.89786L896.103 22.9747L903.771 22.9347L899.836 5.88787C899.76 5.52814 899.609 5.34828 899.407 5.34828C899.18 5.34828 899.054 5.52814 898.978 5.88787L899.004 5.89786Z" fill="#B4ABA8"/>
<path d="M909.605 25.1493L909 4.60342C909 4.22752 909.101 4.03957 909.378 4.03957H910.538C910.538 4.03957 910.74 4.08903 910.815 4.20773C910.891 4.32644 910.941 4.45504 910.941 4.59353L911.445 21.875C911.445 21.9344 911.445 21.964 911.445 21.964L917.672 4.59353C917.748 4.36601 917.849 4.20773 917.95 4.1286C918.05 4.04946 918.252 4 918.529 4H919.739C919.916 4 920.067 4.07914 920.193 4.23741C920.319 4.40558 920.395 4.59353 920.395 4.83094L921 25.5944C921 25.8318 920.874 25.9505 920.622 25.9604H919.487C919.487 25.9604 919.286 25.911 919.21 25.8022C919.134 25.6933 919.084 25.5549 919.084 25.4065L918.58 8.15468C918.58 8.09532 918.58 8.06565 918.58 8.06565C918.58 8.06565 918.529 8.09532 918.504 8.15468L912.277 25.5252C912.151 25.8417 911.924 26 911.597 26H910.235C910.059 26 909.908 25.9209 909.782 25.7527C909.655 25.5845 909.58 25.3867 909.58 25.1592L909.605 25.1493Z" fill="#B4ABA8"/>
<path d="M937.974 25.3468C937.974 25.5151 937.949 25.6536 937.847 25.7625C937.745 25.8713 937.668 25.9406 937.54 25.9406H936.467C936.467 25.9406 936.237 25.8911 936.161 25.7724C936.084 25.6536 936.033 25.5151 936.007 25.3567L935.471 7.83986C935.471 7.76068 935.471 7.7211 935.471 7.7211C935.471 7.7211 935.445 7.75079 935.42 7.81017L933.529 13.5205C932.839 15.6185 932.456 16.7467 932.405 16.8952C932.354 17.0436 932.252 17.1723 932.124 17.2713C931.996 17.3702 931.817 17.4197 931.562 17.4296H930.54C930.285 17.4296 930.106 17.3801 929.953 17.2713C929.799 17.1624 929.672 16.9348 929.518 16.5884L926.938 10.0171C926.35 8.52272 926.044 7.77058 926.044 7.77058C926.044 7.77058 926.044 7.81017 926.044 7.88934L926.58 25.4062C926.58 25.5744 926.555 25.713 926.453 25.8219C926.35 25.9307 926.274 26 926.146 26H925.073C925.073 26 924.843 25.9505 924.766 25.8318C924.69 25.713 924.639 25.5744 924.613 25.4161L924 4.91048C924 4.67296 924.051 4.46514 924.179 4.2969C924.307 4.12865 924.434 4.03959 924.613 4.03959H926.044C926.401 4.03959 926.631 4.19793 926.759 4.53441L930.719 14.6685C930.796 14.8763 930.898 14.9852 931 14.9852C931.102 14.9852 931.179 14.8763 931.255 14.6685L934.602 4.50472C934.704 4.16824 934.934 4 935.292 4H936.723C936.901 4 937.055 4.07917 937.182 4.24741C937.31 4.41565 937.387 4.62348 937.387 4.861L938 25.3666L937.974 25.3468Z" fill="#B4ABA8"/>
<path d="M952.986 16.4336C953.088 19.5376 952.631 21.9088 951.642 23.5371C950.652 25.1654 949.232 25.9897 947.329 25.9999C945.427 26.0101 943.956 25.2061 942.865 23.5778C941.774 21.9495 941.191 19.5885 941.115 16.4845L941.013 12.5664C940.912 9.34031 941.394 6.93856 942.408 5.37131C943.423 3.79389 944.869 3.01027 946.67 3.0001C948.471 2.98992 950.044 3.79389 951.109 5.4222C952.174 7.04033 952.758 9.41155 952.859 12.5155L952.961 16.4336H952.986ZM950.982 16.4438L950.881 12.5257C950.754 7.82395 949.384 5.48326 946.771 5.49344C944.159 5.50361 942.916 7.86466 943.043 12.5562L943.144 16.4743C943.271 21.1761 944.666 23.5167 947.279 23.5066C949.891 23.4964 951.109 21.1353 950.982 16.4438Z" fill="#B4ABA8"/>
<path d="M971.051 24.3765L970.52 6.7013C970.52 6.20648 970.444 5.87989 970.317 5.70175C970.191 5.52362 969.912 5.43455 969.482 5.43455L963.965 5.46424C963.535 5.46424 963.257 5.55331 963.155 5.73144C963.054 5.90958 963.003 6.24606 963.003 6.73099L963.535 24.4062C963.535 24.5745 963.51 24.713 963.408 24.8219C963.307 24.9307 963.231 25 963.105 25H961.991C961.991 25 961.763 24.9505 961.687 24.8318C961.612 24.713 961.561 24.5744 961.536 24.4161L961.004 6.74089C960.928 4.27665 961.89 3.03959 963.864 3.02969L969.381 3C971.38 3 972.393 4.21727 972.469 6.68151L973 24.3567C973 24.525 972.975 24.6635 972.873 24.7724C972.772 24.8812 972.696 24.9505 972.57 24.9505H971.456C971.456 24.9505 971.229 24.901 971.153 24.7823C971.077 24.6635 971.026 24.525 971.001 24.3666L971.051 24.3765Z" fill="#B4ABA8"/>
<path d="M987.994 9.72477C988.127 14.1031 986.046 16.3022 981.75 16.3218C981.189 16.3218 980.442 16.2825 979.428 16.1843L979.695 24.411C979.695 24.5681 979.668 24.6957 979.588 24.8233C979.508 24.9411 979.428 25 979.295 25H978.067C978.067 25 977.854 24.9509 977.774 24.8331C977.694 24.7153 977.64 24.5779 977.64 24.4208L977 3.99165C977 3.78549 977.053 3.59897 977.16 3.43208C977.267 3.26519 977.854 3.15721 978.868 3.09831C979.882 3.0394 980.709 3.00014 981.35 3.00014C985.646 2.9805 987.861 5.09115 987.994 9.33209V9.71495V9.72477ZM985.886 9.73459V9.35173C985.833 7.90863 985.459 6.86803 984.738 6.22992C984.018 5.59182 982.897 5.26786 981.376 5.27768C980.629 5.27768 979.855 5.32676 979.081 5.4053L979.348 13.9952C980.763 14.0639 981.536 14.1031 981.67 14.1031C983.217 14.1031 984.312 13.7596 984.979 13.092C985.646 12.4244 985.939 11.3053 985.886 9.7444V9.73459Z" fill="#B4ABA8"/>
<path d="M1001.99 16.4336C1002.09 19.5376 1001.63 21.9088 1000.64 23.5371C999.652 25.1654 998.232 25.9897 996.33 25.9999C994.427 26.0101 992.956 25.2061 991.865 23.5778C990.774 21.9495 990.191 19.5885 990.115 16.4845L990.013 12.5664C989.912 9.34031 990.394 6.93856 991.408 5.37131C992.423 3.79389 993.869 3.01027 995.67 3.0001C997.471 2.98992 999.044 3.79389 1000.11 5.4222C1001.17 7.04033 1001.76 9.41155 1001.86 12.5155L1001.96 16.4336H1001.99ZM999.982 16.4438L999.881 12.5257C999.754 7.82395 998.384 5.48326 995.771 5.49344C993.159 5.50361 991.916 7.86466 992.043 12.5562L992.144 16.4743C992.271 21.1761 993.666 23.5167 996.279 23.5066C998.891 23.4964 1000.11 21.1353 999.982 16.4438Z" fill="#B4ABA8"/>
<path d="M1016.89 24.2973C1016.97 24.4062 1017 24.5151 1017 24.6437C1017 24.8417 1016.92 24.9505 1016.7 24.9505H1014.89C1014.67 24.9505 1014.48 24.8614 1014.37 24.6734L1007.44 14.5592L1007.76 24.4062C1007.76 24.5646 1007.74 24.6932 1007.65 24.8219C1007.57 24.9406 1007.47 25 1007.36 25H1006.08C1006.08 25 1005.87 24.9505 1005.79 24.8318C1005.7 24.713 1005.65 24.5744 1005.65 24.4161L1005 3.60369C1005 3.45524 1005.03 3.32659 1005.11 3.21772C1005.19 3.09897 1005.3 3.03959 1005.43 3.03959H1006.68C1006.68 3.03959 1006.9 3.08907 1007 3.19793C1007.09 3.30679 1007.14 3.43545 1007.14 3.59379L1007.44 13.1439L1013.88 3.2771C1014.02 3.08907 1014.18 3 1014.35 3H1016.02C1016.24 3 1016.35 3.09897 1016.38 3.30679C1016.38 3.42555 1016.38 3.52452 1016.3 3.61359L1009.55 13.6982L1016.95 24.3072L1016.89 24.2973Z" fill="#B4ABA8"/>
<path d="M1028.99 16.4336C1029.09 19.5376 1028.63 21.9088 1027.64 23.5371C1026.65 25.1654 1025.23 25.9897 1023.33 25.9999C1021.43 26.0101 1019.96 25.2061 1018.87 23.5778C1017.77 21.9495 1017.19 19.5885 1017.11 16.4845L1017.01 12.5664C1016.91 9.34031 1017.39 6.93856 1018.41 5.37131C1019.42 3.79389 1020.87 3.01027 1022.67 3.0001C1024.47 2.98992 1026.04 3.79389 1027.11 5.4222C1028.17 7.04033 1028.76 9.41155 1028.86 12.5155L1028.96 16.4336H1028.99ZM1026.98 16.4438L1026.88 12.5257C1026.75 7.82395 1025.38 5.48326 1022.77 5.49344C1020.16 5.50361 1018.92 7.86466 1019.04 12.5562L1019.14 16.4743C1019.27 21.176 1020.67 23.5167 1023.28 23.5066C1025.89 23.4964 1027.11 21.1353 1026.98 16.4438Z" fill="#B4ABA8"/>
<path d="M1044 24.3666C1044 24.5349 1043.97 24.6734 1043.87 24.7823C1043.77 24.8911 1043.7 24.9604 1043.57 24.9604H1042.47C1042.47 24.9604 1042.24 24.9109 1042.17 24.7922C1042.09 24.6734 1042.04 24.5349 1042.02 24.3765L1041.72 14.5592L1034.28 14.5888L1034.59 24.4062C1034.59 24.5744 1034.56 24.713 1034.46 24.8219C1034.36 24.9307 1034.28 25 1034.16 25H1033.05C1033.05 25 1032.83 24.9505 1032.75 24.8318C1032.68 24.713 1032.63 24.5744 1032.6 24.4161L1032 3.63338C1032 3.46514 1032.03 3.32659 1032.13 3.21772C1032.2 3.09897 1032.3 3.03959 1032.43 3.03959H1033.53C1033.53 3.03959 1033.76 3.08907 1033.83 3.20783C1033.93 3.32659 1033.96 3.46514 1033.98 3.62348L1034.23 12.1939L1041.67 12.1642L1041.41 3.59379C1041.41 3.42555 1041.44 3.287 1041.54 3.17814C1041.62 3.05938 1041.72 3 1041.84 3H1042.95C1042.95 3 1043.17 3.04948 1043.25 3.16824C1043.35 3.287 1043.37 3.42555 1043.4 3.5839L1044 24.3666Z" fill="#B4ABA8"/>
<path d="M1058 24.9828C1058 25.2065 1057.95 25.3795 1057.78 25.4812C1057.65 25.5829 1057.21 25.6948 1056.48 25.8169C1055.77 25.9288 1054.82 25.9898 1053.65 26C1051.75 26 1050.2 25.2167 1049.03 23.6298C1047.86 22.0429 1047.23 19.7134 1047.15 16.6515L1047.01 12.4197C1046.91 9.33746 1047.4 6.99779 1048.46 5.40071C1049.52 3.80363 1051.01 3.01017 1052.94 3C1053.7 3 1054.57 3.07121 1055.55 3.22379C1056.53 3.37638 1057.05 3.48828 1057.16 3.54931C1057.24 3.61035 1057.29 3.71207 1057.29 3.85449L1057.35 5.41088C1057.35 5.6245 1057.24 5.7364 1057.02 5.7364C1055.31 5.56347 1054 5.48209 1053.05 5.48209C1050.33 5.49226 1049.03 7.80141 1049.16 12.3994L1049.3 16.6311C1049.38 18.9098 1049.76 20.6188 1050.52 21.7784C1051.26 22.9279 1052.29 23.5077 1053.62 23.4976C1054.41 23.4976 1055.17 23.4569 1055.91 23.3958L1057.56 23.2433C1057.81 23.2433 1057.95 23.406 1057.97 23.7315V24.9726L1058 24.9828Z" fill="#B4ABA8"/>
<path d="M1069.95 3.73562L1065.66 20.5372C1065.19 22.4106 1064.66 23.617 1064.06 24.1663C1063.46 24.7156 1062.67 25 1061.62 25C1060.42 25 1059.8 24.794 1059.8 24.3625L1059.75 23.0187C1059.75 22.7049 1059.9 22.5479 1060.2 22.5479C1060.65 22.6068 1061.1 22.6264 1061.54 22.6264C1062.07 22.6264 1062.44 22.5185 1062.72 22.3223C1062.97 22.1164 1063.17 21.7927 1063.32 21.3513C1063.46 20.9099 1063.81 19.576 1064.36 17.379H1064.26C1063.84 17.379 1063.51 17.2416 1063.29 16.967C1063.07 16.6826 1062.87 16.2314 1062.67 15.6037L1059.05 3.78466C1059.02 3.66696 1059 3.56888 1059 3.4708C1059 3.18636 1059.1 3.03923 1059.32 3.03923H1060.65C1060.82 3.03923 1060.97 3.16674 1061.05 3.44137L1064.41 14.4169C1064.49 14.6621 1064.54 14.819 1064.59 14.8778C1064.64 14.9367 1064.74 14.9661 1064.86 14.9661H1064.99L1067.95 3.41195C1068.03 3.13732 1068.15 3 1068.3 3H1069.65C1069.88 3 1070 3.13732 1070 3.42176C1070 3.51003 1070 3.60811 1069.98 3.73562H1069.95Z" fill="#B4ABA8"/>
<path d="M1080.89 24.529L1076.34 5.85557C1076.27 5.50232 1076.11 5.32569 1075.9 5.32569C1075.66 5.32569 1075.53 5.50232 1075.46 5.85557L1072.11 24.5584C1072.06 24.8528 1071.93 25 1071.72 25H1070.39C1070.13 25 1070 24.8528 1070 24.5388C1070 24.4701 1070 24.4014 1070 24.3426L1073.6 5.24719C1073.89 3.75567 1074.62 3.00991 1075.85 3.0001C1077.07 2.99028 1077.83 3.72623 1078.2 5.19812L1082.97 24.2837C1082.97 24.2837 1082.97 24.3916 1083 24.4799C1083 24.7939 1082.9 24.9509 1082.63 24.9509H1081.3C1081.12 24.9509 1080.99 24.8136 1080.91 24.5192L1080.89 24.529Z" fill="#B4ABA8"/>
<path d="M1094.99 18.748C1095.12 22.8963 1093.07 24.9803 1088.87 25C1087.9 25 1087.02 24.9705 1086.2 24.8919C1085.4 24.8132 1084.92 24.6756 1084.8 24.4888C1084.67 24.3021 1084.6 24.0268 1084.6 23.6729L1084 3.56032C1084 3.18677 1084.1 3 1084.37 3H1085.55C1085.8 3 1085.95 3.17694 1085.95 3.55049L1086.2 12.1519C1087.05 12.0733 1087.8 12.034 1088.47 12.0241C1092.67 12.0045 1094.84 14.0786 1094.97 18.2466V18.748H1094.99ZM1093.05 18.7578V18.227C1093 16.8606 1092.65 15.8579 1091.97 15.2288C1091.3 14.5996 1090.17 14.2851 1088.57 14.2949C1088.02 14.2949 1087.27 14.3441 1086.3 14.4227L1086.55 22.6407C1087.9 22.7194 1088.65 22.7587 1088.82 22.7587C1090.42 22.7587 1091.52 22.4245 1092.17 21.7855C1092.82 21.1466 1093.1 20.1439 1093.07 18.7676L1093.05 18.7578Z" fill="#B4ABA8"/>
<path d="M1106 4.83251C1106 5.14948 1105.87 5.30797 1105.58 5.30797L1101.09 5.32778L1101.67 24.4057C1101.67 24.5642 1101.65 24.6929 1101.57 24.8217C1101.49 24.9406 1101.41 25 1101.27 25H1100C1100 25 1099.79 24.9505 1099.71 24.8316C1099.63 24.7127 1099.58 24.5741 1099.58 24.4156L1098.99 5.33769L1094.53 5.3575C1094.21 5.3575 1094.05 5.19901 1094.05 4.88204L1094 3.58442C1094 3.43584 1094.03 3.31697 1094.13 3.20801C1094.21 3.09905 1094.32 3.04953 1094.45 3.04953L1105.5 3C1105.79 3 1105.95 3.1783 1105.95 3.53489L1106 4.83251Z" fill="#B4ABA8"/>
<path d="M1108.61 24.1493L1108 3.60342C1108 3.22752 1108.1 3.03957 1108.38 3.03957H1109.54C1109.54 3.03957 1109.74 3.08903 1109.82 3.20773C1109.89 3.32644 1109.94 3.45504 1109.94 3.59353L1110.45 20.875C1110.45 20.9344 1110.45 20.964 1110.45 20.964L1116.67 3.59353C1116.75 3.36601 1116.85 3.20773 1116.95 3.1286C1117.05 3.04946 1117.25 3 1117.53 3H1118.74C1118.92 3 1119.07 3.07914 1119.19 3.23741C1119.32 3.40558 1119.39 3.59353 1119.39 3.83094L1120 24.5944C1120 24.8318 1119.87 24.9505 1119.62 24.9604H1118.49C1118.49 24.9604 1118.29 24.911 1118.21 24.8022C1118.13 24.6933 1118.08 24.5549 1118.08 24.4065L1117.58 7.15468C1117.58 7.09532 1117.58 7.06565 1117.58 7.06565C1117.58 7.06565 1117.53 7.09532 1117.5 7.15468L1111.28 24.5252C1111.15 24.8417 1110.92 25 1110.6 25H1109.24C1109.06 25 1108.91 24.9209 1108.78 24.7527C1108.66 24.5845 1108.58 24.3867 1108.58 24.1592L1108.61 24.1493Z" fill="#B4ABA8"/>
<path d="M1134.99 8.72477C1135.13 13.1031 1133.05 15.3022 1128.75 15.3218C1128.19 15.3218 1127.44 15.2825 1126.43 15.1843L1126.7 23.411C1126.7 23.5681 1126.67 23.6957 1126.59 23.8233C1126.51 23.9411 1126.43 24 1126.29 24H1125.07C1125.07 24 1124.85 23.9509 1124.77 23.8331C1124.69 23.7153 1124.64 23.5779 1124.64 23.4208L1124 2.99165C1124 2.78549 1124.05 2.59897 1124.16 2.43208C1124.27 2.26519 1124.85 2.15721 1125.87 2.09831C1126.88 2.0394 1127.71 2.00014 1128.35 2.00014C1132.65 1.9805 1134.86 4.09115 1134.99 8.33209V8.71495V8.72477ZM1132.89 8.73459V8.35173C1132.83 6.90863 1132.46 5.86803 1131.74 5.22992C1131.02 4.59182 1129.9 4.26786 1128.38 4.27768C1127.63 4.27768 1126.86 4.32676 1126.08 4.4053L1126.35 12.9952C1127.76 13.0639 1128.54 13.1031 1128.67 13.1031C1130.22 13.1031 1131.31 12.7596 1131.98 12.092C1132.65 11.4244 1132.94 10.3053 1132.89 8.7444V8.73459Z" fill="#B4ABA8"/>
<path d="M1148.99 15.4336C1149.09 18.5376 1148.63 20.9088 1147.64 22.5371C1146.65 24.1654 1145.23 24.9897 1143.33 24.9999C1141.43 25.0101 1139.96 24.2061 1138.87 22.5778C1137.77 20.9495 1137.19 18.5885 1137.11 15.4845L1137.01 11.5664C1136.91 8.34031 1137.39 5.93856 1138.41 4.37131C1139.42 2.79389 1140.87 2.01027 1142.67 2.0001C1144.47 1.98992 1146.04 2.79389 1147.11 4.4222C1148.17 6.04033 1148.76 8.41155 1148.86 11.5155L1148.96 15.4336H1148.99ZM1146.98 15.4438L1146.88 11.5257C1146.75 6.82395 1145.38 4.48326 1142.77 4.49344C1140.16 4.50361 1138.92 6.86466 1139.04 11.5562L1139.14 15.4743C1139.27 20.1761 1140.67 22.5167 1143.28 22.5066C1145.89 22.4964 1147.11 20.1353 1146.98 15.4438Z" fill="#B4ABA8"/>
<path d="M1162.99 18.5275C1163.12 22.8221 1161.07 24.9796 1156.86 25C1155.88 25 1155.01 24.9695 1154.18 24.8881C1153.38 24.8066 1152.9 24.6642 1152.78 24.4708C1152.65 24.2774 1152.58 23.9925 1152.58 23.6261L1152 3.38422C1152 3.11962 1152 2.89573 1152.08 2.72272C1152.15 2.54971 1152.25 2.42759 1152.38 2.34617C1152.5 2.26476 1152.98 2.19352 1153.75 2.1121C1154.53 2.04087 1155.31 2.00016 1156.08 2.00016C1160.31 1.9798 1162.49 3.9236 1162.59 7.83153V8.32003C1162.64 9.42931 1162.47 10.3961 1162.09 11.2306C1161.72 12.0651 1161.17 12.6859 1160.42 13.1134C1161.19 13.4899 1161.79 14.1107 1162.24 14.9859C1162.69 15.8611 1162.92 16.8686 1162.97 18.0186V18.5377L1162.99 18.5275ZM1160.67 8.3302V7.84171C1160.62 6.62048 1160.26 5.73509 1159.61 5.17536C1158.96 4.61563 1157.81 4.34085 1156.16 4.34085C1155.93 4.34085 1155.23 4.37138 1154 4.44262L1154.23 11.9837L1157.56 11.9634C1159.69 11.9634 1160.72 10.7421 1160.64 8.3302H1160.67ZM1161.04 18.5377V18.0186C1160.94 15.4439 1159.84 14.1616 1157.66 14.1718L1154.33 14.1921L1154.58 22.5474C1155.93 22.6288 1156.68 22.6695 1156.83 22.6695C1158.44 22.6695 1159.54 22.3235 1160.19 21.662C1160.84 21.0005 1161.12 19.9624 1161.09 18.5377H1161.04Z" fill="#B4ABA8"/>
<path d="M1168.34 16.8073L1167.11 23.5682C1167.11 23.7252 1167.04 23.8332 1166.96 23.9019C1166.88 23.9706 1166.8 24 1166.72 24H1165.39C1165.13 24 1165 23.8528 1165 23.5388C1165 23.4701 1165 23.4014 1165 23.3426L1168.6 4.24719C1168.89 2.75567 1169.62 2.00991 1170.85 2.0001C1172.07 1.99028 1172.83 2.72623 1173.2 4.19812L1177.97 23.2837C1177.97 23.2837 1177.97 23.3916 1178 23.4799C1178 23.7939 1177.9 23.9509 1177.63 23.9509H1176.3C1176.3 23.9509 1176.12 23.9215 1176.04 23.8332C1175.96 23.7449 1175.86 23.3818 1175.7 22.7244L1174.21 16.7779L1168.37 16.8073H1168.34ZM1173.69 14.4621L1171.89 7.04379C1171.53 5.55227 1171.32 4.76726 1171.32 4.71819C1171.32 4.65932 1171.27 4.60044 1171.24 4.53175C1171.21 4.46307 1171.16 4.414 1171.11 4.37475C1171.06 4.3355 1171 4.31588 1170.93 4.31588C1170.85 4.31588 1170.77 4.3355 1170.72 4.38456C1170.66 4.43363 1170.61 4.4925 1170.59 4.571C1170.56 4.64951 1170.43 5.20883 1170.25 6.24896L1168.76 14.4818L1173.74 14.4621H1173.69Z" fill="#B4ABA8"/>
<path d="M1188 3.83251C1188 4.14948 1187.87 4.30797 1187.58 4.30797L1183.09 4.32778L1183.67 23.4057C1183.67 23.5642 1183.65 23.6929 1183.57 23.8217C1183.49 23.9406 1183.41 24 1183.27 24H1182C1182 24 1181.79 23.9505 1181.71 23.8316C1181.63 23.7127 1181.58 23.5741 1181.58 23.4156L1180.99 4.33769L1176.53 4.3575C1176.21 4.3575 1176.05 4.19901 1176.05 3.88203L1176 2.58442C1176 2.43584 1176.03 2.31697 1176.13 2.20801C1176.21 2.09905 1176.32 2.04953 1176.45 2.04953L1187.5 2C1187.79 2 1187.95 2.1783 1187.95 2.53489L1188 3.83251Z" fill="#B4ABA8"/>
<path d="M1200.99 17.748C1201.12 21.8963 1199.07 23.9803 1194.87 24C1193.9 24 1193.02 23.9705 1192.2 23.8919C1191.4 23.8132 1190.92 23.6756 1190.8 23.4888C1190.67 23.3021 1190.6 23.0268 1190.6 22.6729L1190 2.56032C1190 2.18677 1190.1 2 1190.37 2H1191.55C1191.8 2 1191.95 2.17694 1191.95 2.55049L1192.2 11.1519C1193.05 11.0733 1193.8 11.034 1194.47 11.0241C1198.67 11.0045 1200.84 13.0786 1200.97 17.2466V17.748H1200.99ZM1199.05 17.7578V17.227C1199 15.8606 1198.65 14.8579 1197.97 14.2288C1197.3 13.5996 1196.17 13.2851 1194.57 13.2949C1194.02 13.2949 1193.27 13.3441 1192.3 13.4227L1192.55 21.6407C1193.9 21.7194 1194.65 21.7587 1194.82 21.7587C1196.42 21.7587 1197.52 21.4245 1198.17 20.7855C1198.82 20.1466 1199.1 19.1439 1199.07 17.7676L1199.05 17.7578Z" fill="#B4ABA8"/>
<path d="M1214 23.9828C1214 24.2065 1213.95 24.3795 1213.78 24.4812C1213.65 24.5829 1213.21 24.6948 1212.48 24.8169C1211.77 24.9288 1210.82 24.9898 1209.65 25C1207.75 25 1206.2 24.2167 1205.03 22.6298C1203.86 21.0429 1203.23 18.7134 1203.15 15.6515L1203.01 11.4197C1202.91 8.33746 1203.4 5.99779 1204.46 4.40071C1205.52 2.80363 1207.01 2.01017 1208.94 2C1209.7 2 1210.57 2.07121 1211.55 2.22379C1212.53 2.37638 1213.05 2.48828 1213.16 2.54931C1213.24 2.61035 1213.29 2.71207 1213.29 2.85449L1213.35 4.41088C1213.35 4.6245 1213.24 4.7364 1213.02 4.7364C1211.31 4.56347 1210 4.48209 1209.05 4.48209C1206.33 4.49226 1205.03 6.80142 1205.16 11.3994L1205.3 15.6311C1205.38 17.9098 1205.76 19.6188 1206.52 20.7784C1207.26 21.9279 1208.29 22.5077 1209.62 22.4976C1210.41 22.4976 1211.17 22.4569 1211.91 22.3958L1213.57 22.2433C1213.81 22.2433 1213.95 22.406 1213.97 22.7315V23.9726L1214 23.9828Z" fill="#B4ABA8"/>
<path d="M1227 23.3619C1227 23.519 1226.97 23.6466 1226.9 23.7742C1226.82 23.892 1226.75 23.9509 1226.62 23.9509H1225.44C1225.44 23.9509 1225.24 23.9018 1225.17 23.784C1225.09 23.6662 1225.04 23.5288 1225.04 23.3717L1224.79 14.7523C1223.96 14.8112 1223.18 14.8407 1222.4 14.8505H1221.85L1219.54 20.4364C1218.66 22.5765 1218.18 23.6957 1218.16 23.7742C1218.11 23.8527 1218.06 23.9116 1217.98 23.9509C1217.91 23.9902 1217.81 24 1217.66 24H1216.28C1216.1 24 1216 23.8822 1216 23.6171C1216 23.5288 1216 23.4404 1216.05 23.3619L1219.74 14.4284C1218.64 14.0455 1217.78 13.3387 1217.16 12.3177C1216.53 11.2967 1216.2 10.0303 1216.15 8.53815V8.32218C1216.03 4.12048 1217.98 2.00982 1222.03 2C1223.08 2 1224.04 2.02945 1224.84 2.09817C1225.64 2.16689 1226.12 2.25524 1226.22 2.3436C1226.32 2.43195 1226.4 2.59884 1226.4 2.85408L1227 23.3815V23.3619ZM1224.71 12.4846L1224.49 4.45426C1224.16 4.39536 1223.36 4.37573 1222.1 4.37573C1220.62 4.37573 1219.59 4.69969 1218.96 5.31816C1218.34 5.93664 1218.06 6.92816 1218.08 8.28291V8.49888C1218.13 10.0205 1218.51 11.071 1219.19 11.6698C1219.87 12.2686 1220.92 12.5533 1222.33 12.5533C1222.91 12.5533 1223.71 12.5239 1224.71 12.4846Z" fill="#B4ABA8"/>
<path d="M1246 23.9828C1246 24.2065 1245.95 24.3795 1245.78 24.4812C1245.65 24.5829 1245.21 24.6948 1244.48 24.8169C1243.77 24.9288 1242.82 24.9898 1241.65 25C1239.75 25 1238.2 24.2167 1237.03 22.6298C1235.86 21.0429 1235.23 18.7134 1235.15 15.6515L1235.01 11.4197C1234.91 8.33746 1235.4 5.99779 1236.46 4.40071C1237.52 2.80363 1239.01 2.01017 1240.94 2C1241.7 2 1242.57 2.07121 1243.55 2.22379C1244.53 2.37638 1245.05 2.48828 1245.16 2.54931C1245.24 2.61035 1245.29 2.71207 1245.29 2.85449L1245.35 4.41088C1245.35 4.6245 1245.24 4.7364 1245.02 4.7364C1243.31 4.56347 1242 4.48209 1241.05 4.48209C1238.33 4.49226 1237.03 6.80141 1237.16 11.3994L1237.3 15.6311C1237.38 17.9098 1237.76 19.6188 1238.52 20.7784C1239.26 21.9279 1240.29 22.5077 1241.62 22.4976C1242.41 22.4976 1243.17 22.4569 1243.91 22.3958L1245.56 22.2433C1245.81 22.2433 1245.95 22.406 1245.97 22.7315V23.9726L1246 23.9828Z" fill="#B4ABA8"/>
<path d="M1257.99 15.4336C1258.09 18.5376 1257.63 20.9088 1256.64 22.5371C1255.65 24.1654 1254.23 24.9897 1252.33 24.9999C1250.43 25.0101 1248.96 24.2061 1247.87 22.5778C1246.77 20.9495 1246.19 18.5885 1246.11 15.4845L1246.01 11.5664C1245.91 8.34031 1246.39 5.93856 1247.41 4.37131C1248.42 2.79389 1249.87 2.01027 1251.67 2.0001C1253.47 1.98992 1255.04 2.79389 1256.11 4.4222C1257.17 6.04033 1257.76 8.41155 1257.86 11.5155L1257.96 15.4336H1257.99ZM1255.96 15.4438L1255.86 11.5257C1255.73 6.82395 1254.36 4.48326 1251.75 4.49344C1249.13 4.50361 1247.89 6.86466 1248.02 11.5562L1248.12 15.4743C1248.25 20.1761 1249.64 22.5167 1252.25 22.5066C1254.87 22.4964 1256.08 20.1353 1255.96 15.4438Z" fill="#B4ABA8"/>
<path d="M1277 23.9828C1277 24.2065 1276.95 24.3795 1276.78 24.4812C1276.65 24.5829 1276.21 24.6948 1275.48 24.8169C1274.77 24.9288 1273.82 24.9898 1272.65 25C1270.75 25 1269.2 24.2167 1268.03 22.6298C1266.86 21.0429 1266.23 18.7134 1266.15 15.6515L1266.01 11.4197C1265.91 8.33746 1266.4 5.99779 1267.46 4.40071C1268.52 2.80363 1270.01 2.01017 1271.94 2C1272.7 2 1273.57 2.07121 1274.55 2.22379C1275.53 2.37638 1276.05 2.48828 1276.16 2.54931C1276.24 2.61035 1276.29 2.71207 1276.29 2.85449L1276.35 4.41088C1276.35 4.6245 1276.24 4.7364 1276.02 4.7364C1274.31 4.56347 1273 4.48209 1272.05 4.48209C1269.33 4.49226 1268.03 6.80141 1268.16 11.3994L1268.3 15.6311C1268.38 17.9098 1268.76 19.6188 1269.52 20.7784C1270.26 21.9279 1271.29 22.5077 1272.62 22.4976C1273.41 22.4976 1274.17 22.4569 1274.91 22.3958L1276.56 22.2433C1276.81 22.2433 1276.95 22.406 1276.97 22.7315V23.9726L1277 23.9828Z" fill="#B4ABA8"/>
<path d="M1289.05 23.3765L1288.52 5.7013C1288.52 5.20648 1288.44 4.87989 1288.32 4.70175C1288.19 4.52362 1287.91 4.43455 1287.48 4.43455L1281.97 4.46424C1281.53 4.46424 1281.26 4.55331 1281.16 4.73144C1281.05 4.90958 1281 5.24606 1281 5.73099L1281.53 23.4062C1281.53 23.5745 1281.51 23.713 1281.41 23.8219C1281.31 23.9307 1281.23 24 1281.1 24H1279.99C1279.99 24 1279.76 23.9505 1279.69 23.8318C1279.61 23.713 1279.56 23.5744 1279.54 23.4161L1279 5.74089C1278.93 3.27665 1279.89 2.03959 1281.86 2.02969L1287.38 2C1289.38 2 1290.39 3.21727 1290.47 5.68151L1291 23.3567C1291 23.525 1290.97 23.6635 1290.87 23.7724C1290.77 23.8812 1290.7 23.9505 1290.57 23.9505H1289.46C1289.46 23.9505 1289.23 23.901 1289.15 23.7823C1289.08 23.6635 1289.03 23.525 1289 23.3666L1289.05 23.3765Z" fill="#B4ABA8"/>
<path d="M1303.95 24.3996C1303.95 24.5522 1303.92 24.6642 1303.84 24.7456C1303.76 24.827 1303.29 24.8881 1302.4 24.9288C1301.51 24.9695 1300.49 24.9898 1299.32 25C1297.64 25 1296.41 24.5522 1295.63 23.6465C1294.82 22.7305 1294.4 21.3058 1294.35 19.3721L1294.01 7.67876C1293.95 5.70443 1294.29 4.25929 1295.08 3.36372C1295.84 2.46814 1297.04 2.01018 1298.66 2C1299.55 2 1300.31 2 1300.94 2.02035C1301.57 2.04071 1302.06 2.06106 1302.48 2.10177C1302.9 2.14248 1303.14 2.17301 1303.16 2.21372C1303.22 2.24425 1303.24 2.30531 1303.27 2.37655C1303.29 2.44779 1303.32 2.51903 1303.32 2.59027L1303.37 4.10664C1303.37 4.35089 1303.29 4.47301 1303.14 4.48319L1298.77 4.50354C1297.77 4.50354 1297.07 4.68673 1296.65 5.02257C1296.23 5.36858 1296.02 6.25398 1296.07 7.67876L1296.2 11.9124L1303.16 11.8819C1303.16 11.8819 1303.4 11.9429 1303.48 12.0549C1303.58 12.177 1303.61 12.3195 1303.63 12.4823V13.6221C1303.66 13.7951 1303.63 13.9376 1303.56 14.0496C1303.48 14.1615 1303.37 14.2327 1303.24 14.2327L1296.28 14.2633L1296.44 19.3721C1296.46 20.5934 1296.67 21.4177 1297.04 21.8655C1297.41 22.3133 1298.17 22.527 1299.32 22.527L1303.69 22.5066C1303.84 22.5066 1303.95 22.6288 1303.95 22.873L1304 24.4199L1303.95 24.3996Z" fill="#B4ABA8"/>
<path d="M1318.84 24.378L1310.71 24.4183C1308.69 24.4183 1307.62 23.1874 1307.55 20.6954L1307 2.64571C1307 2.47419 1307.03 2.33295 1307.13 2.22196C1307.21 2.10089 1307.31 2.04036 1307.44 2.04036H1308.58C1308.58 2.04036 1308.82 2.0908 1308.9 2.21187C1309 2.33295 1309.03 2.47419 1309.05 2.63562L1309.6 20.6853C1309.6 21.1898 1309.68 21.5227 1309.81 21.7043C1309.94 21.8859 1310.19 21.9767 1310.64 21.9767L1316.3 21.9464C1316.74 21.9464 1317.03 21.8556 1317.13 21.674C1317.23 21.4924 1317.29 21.1494 1317.29 20.655L1316.74 2.60536C1316.74 2.43384 1316.77 2.29259 1316.87 2.18161C1316.95 2.06054 1317.05 2 1317.18 2H1318.32C1318.32 2 1318.56 2.05045 1318.64 2.17152C1318.74 2.29259 1318.77 2.43384 1318.79 2.59527L1319.34 20.6248C1319.34 21.0788 1319.34 21.5126 1319.26 21.9464H1320.43C1320.69 21.9464 1320.84 22.1281 1320.84 22.5114L1321 27.3946C1321 27.5561 1320.97 27.6872 1320.9 27.8184C1320.82 27.9395 1320.71 28 1320.61 28H1319.39C1319.39 28 1319.18 27.9496 1319.1 27.8285C1319.03 27.7074 1318.97 27.5662 1318.97 27.4047L1318.9 24.388L1318.84 24.378Z" fill="#B4ABA8"/>
<path d="M1322.61 23.1493L1322 2.60342C1322 2.22752 1322.1 2.03957 1322.38 2.03957H1323.54C1323.54 2.03957 1323.74 2.08903 1323.82 2.20773C1323.89 2.32644 1323.94 2.45504 1323.94 2.59353L1324.45 19.875C1324.45 19.9344 1324.45 19.964 1324.45 19.964L1330.67 2.59353C1330.75 2.36601 1330.85 2.20773 1330.95 2.1286C1331.05 2.04946 1331.25 2 1331.53 2H1332.74C1332.92 2 1333.07 2.07914 1333.19 2.23741C1333.32 2.40558 1333.39 2.59353 1333.39 2.83094L1334 23.5944C1334 23.8318 1333.87 23.9505 1333.62 23.9604H1332.49C1332.49 23.9604 1332.29 23.911 1332.21 23.8022C1332.13 23.6933 1332.08 23.5549 1332.08 23.4065L1331.58 6.15468C1331.58 6.09532 1331.58 6.06565 1331.58 6.06565C1331.58 6.06565 1331.53 6.09532 1331.5 6.15468L1325.28 23.5252C1325.15 23.8417 1324.92 24 1324.6 24H1323.24C1323.06 24 1322.91 23.9209 1322.78 23.7527C1322.66 23.5845 1322.58 23.3867 1322.58 23.1592L1322.61 23.1493Z" fill="#B4ABA8"/>
<path d="M1340.34 16.8073L1339.11 23.5682C1339.11 23.7252 1339.04 23.8332 1338.96 23.9019C1338.88 23.9706 1338.8 24 1338.72 24H1337.39C1337.13 24 1337 23.8528 1337 23.5388C1337 23.4701 1337 23.4014 1337 23.3426L1340.6 4.24719C1340.89 2.75567 1341.62 2.00991 1342.85 2.0001C1344.07 1.99028 1344.83 2.72623 1345.2 4.19812L1349.97 23.2837C1349.97 23.2837 1349.97 23.3916 1350 23.4799C1350 23.7939 1349.9 23.9509 1349.63 23.9509H1348.3C1348.3 23.9509 1348.12 23.9215 1348.04 23.8332C1347.96 23.7449 1347.86 23.3818 1347.7 22.7244L1346.21 16.7779L1340.37 16.8073H1340.34ZM1345.67 14.4621L1343.87 7.04379C1343.5 5.55227 1343.29 4.76726 1343.29 4.71819C1343.29 4.65932 1343.24 4.60044 1343.21 4.53175C1343.19 4.46307 1343.13 4.414 1343.08 4.37475C1343.03 4.3355 1342.98 4.31588 1342.9 4.31588C1342.82 4.31588 1342.74 4.3355 1342.69 4.38456C1342.64 4.43363 1342.59 4.4925 1342.56 4.571C1342.53 4.64951 1342.4 5.20882 1342.22 6.24896L1340.73 14.4818L1345.72 14.4621H1345.67Z" fill="#B4ABA8"/>
<path d="M1361.89 22.529L1357.34 3.85557C1357.27 3.50232 1357.11 3.32569 1356.9 3.32569C1356.66 3.32569 1356.53 3.50232 1356.46 3.85557L1353.11 22.5584C1353.06 22.8528 1352.93 23 1352.72 23H1351.39C1351.13 23 1351 22.8528 1351 22.5388C1351 22.4701 1351 22.4014 1351 22.3426L1354.6 3.24719C1354.89 1.75567 1355.62 1.00991 1356.85 1.0001C1358.07 0.990284 1358.83 1.72623 1359.2 3.19812L1363.97 22.2837C1363.97 22.2837 1363.97 22.3916 1364 22.4799C1364 22.7939 1363.9 22.9509 1363.63 22.9509H1362.3C1362.12 22.9509 1361.99 22.8136 1361.91 22.5192L1361.89 22.529Z" fill="#B4ABA8"/>
<path d="M1366.61 23.1493L1366 2.60342C1366 2.22752 1366.1 2.03957 1366.38 2.03957H1367.54C1367.54 2.03957 1367.74 2.08903 1367.82 2.20773C1367.89 2.32644 1367.94 2.45504 1367.94 2.59353L1368.45 19.875C1368.45 19.9344 1368.45 19.964 1368.45 19.964L1374.67 2.59353C1374.75 2.36601 1374.85 2.20773 1374.95 2.1286C1375.05 2.04946 1375.25 2 1375.53 2H1376.74C1376.92 2 1377.07 2.07914 1377.19 2.23741C1377.32 2.40558 1377.39 2.59353 1377.39 2.83094L1378 23.5944C1378 23.8318 1377.87 23.9505 1377.62 23.9604H1376.49C1376.49 23.9604 1376.29 23.911 1376.21 23.8022C1376.13 23.6933 1376.08 23.5549 1376.08 23.4065L1375.58 6.15468C1375.58 6.09532 1375.58 6.06565 1375.58 6.06565C1375.58 6.06565 1375.53 6.09532 1375.5 6.15468L1369.28 23.5252C1369.15 23.8417 1368.92 24 1368.6 24H1367.24C1367.06 24 1366.91 23.9209 1366.78 23.7527C1366.66 23.5845 1366.58 23.3867 1366.58 23.1592L1366.61 23.1493Z" fill="#B4ABA8"/>
<path d="M1392 22.9828C1392 23.2065 1391.95 23.3795 1391.78 23.4812C1391.65 23.5829 1391.21 23.6948 1390.48 23.8169C1389.77 23.9288 1388.82 23.9898 1387.65 24C1385.75 24 1384.2 23.2167 1383.03 21.6298C1381.86 20.0429 1381.23 17.7134 1381.15 14.6515L1381.01 10.4197C1380.91 7.33746 1381.4 4.99779 1382.46 3.40071C1383.52 1.80363 1385.01 1.01017 1386.94 1C1387.7 1 1388.57 1.07121 1389.55 1.22379C1390.53 1.37638 1391.05 1.48828 1391.16 1.54931C1391.24 1.61035 1391.29 1.71207 1391.29 1.85449L1391.35 3.41088C1391.35 3.6245 1391.24 3.7364 1391.02 3.7364C1389.31 3.56347 1388 3.48209 1387.05 3.48209C1384.33 3.49226 1383.03 5.80142 1383.16 10.3994L1383.3 14.6311C1383.38 16.9098 1383.76 18.6188 1384.52 19.7784C1385.26 20.9279 1386.29 21.5077 1387.62 21.4976C1388.41 21.4976 1389.17 21.4569 1389.91 21.3958L1391.56 21.2433C1391.81 21.2433 1391.95 21.406 1391.97 21.7315V22.9726L1392 22.9828Z" fill="#B4ABA8"/>
<path d="M1404 2.83251C1404 3.14948 1403.87 3.30797 1403.58 3.30797L1399.09 3.32778L1399.67 22.4057C1399.67 22.5642 1399.65 22.6929 1399.57 22.8217C1399.49 22.9406 1399.41 23 1399.27 23H1398C1398 23 1397.79 22.9505 1397.71 22.8316C1397.63 22.7127 1397.58 22.5741 1397.58 22.4156L1396.99 3.33769L1392.53 3.3575C1392.21 3.3575 1392.05 3.19901 1392.05 2.88204L1392 1.58442C1392 1.43584 1392.03 1.31697 1392.13 1.20801C1392.21 1.09905 1392.32 1.04953 1392.45 1.04953L1403.5 1C1403.79 1 1403.95 1.1783 1403.95 1.53489L1404 2.83251Z" fill="#B4ABA8"/>
<path d="M1416.99 14.4336C1417.09 17.5376 1416.63 19.9088 1415.64 21.5371C1414.65 23.1654 1413.23 23.9897 1411.33 23.9999C1409.43 24.0101 1407.96 23.2061 1406.86 21.5778C1405.77 19.9495 1405.19 17.5885 1405.11 14.4845L1405.01 10.5664C1404.91 7.34031 1405.39 4.93856 1406.41 3.37131C1407.42 1.79389 1408.87 1.01027 1410.67 1.0001C1412.47 0.989918 1414.04 1.79389 1415.11 3.4222C1416.17 5.04033 1416.76 7.41155 1416.86 10.5155L1416.96 14.4336H1416.99ZM1414.98 14.4438L1414.88 10.5257C1414.75 5.82395 1413.38 3.48326 1410.77 3.49344C1408.16 3.50361 1406.92 5.86466 1407.04 10.5562L1407.14 14.4743C1407.27 19.1761 1408.67 21.5167 1411.28 21.5066C1413.89 21.4964 1415.11 19.1353 1414.98 14.4438Z" fill="#B4ABA8"/>
<path d="M1433.97 22.3468C1433.97 22.5151 1433.95 22.6536 1433.85 22.7625C1433.74 22.8713 1433.67 22.9406 1433.54 22.9406H1432.47C1432.47 22.9406 1432.24 22.8911 1432.16 22.7724C1432.08 22.6536 1432.03 22.5151 1432.01 22.3567L1431.47 4.83986C1431.47 4.76068 1431.47 4.7211 1431.47 4.7211C1431.47 4.7211 1431.45 4.75079 1431.42 4.81017L1429.53 10.5205C1428.84 12.6185 1428.46 13.7467 1428.41 13.8952C1428.35 14.0436 1428.25 14.1723 1428.12 14.2713C1428 14.3702 1427.82 14.4197 1427.56 14.4296H1426.54C1426.28 14.4296 1426.11 14.3801 1425.95 14.2713C1425.8 14.1624 1425.67 13.9348 1425.52 13.5884L1422.94 7.01709C1422.35 5.52272 1422.04 4.77058 1422.04 4.77058C1422.04 4.77058 1422.04 4.81017 1422.04 4.88934L1422.58 22.4062C1422.58 22.5744 1422.55 22.713 1422.45 22.8219C1422.35 22.9307 1422.27 23 1422.15 23H1421.07C1421.07 23 1420.84 22.9505 1420.77 22.8318C1420.69 22.713 1420.64 22.5744 1420.61 22.4161L1420 1.91048C1420 1.67296 1420.05 1.46514 1420.18 1.2969C1420.31 1.12865 1420.43 1.03959 1420.61 1.03959H1422.04C1422.4 1.03959 1422.63 1.19793 1422.76 1.53441L1426.72 11.6685C1426.8 11.8763 1426.9 11.9852 1427 11.9852C1427.1 11.9852 1427.18 11.8763 1427.26 11.6685L1430.6 1.50472C1430.7 1.16824 1430.93 1 1431.29 1H1432.72C1432.9 1 1433.05 1.07917 1433.18 1.24741C1433.31 1.41565 1433.39 1.62348 1433.39 1.861L1434 22.3666L1433.97 22.3468Z" fill="#B4ABA8"/>
</g>
<defs>
<clipPath id="clip0_263_940">
<rect width="1434" height="33" fill="white"/>
</clipPath>
</defs>
</svg>
