<svg width="247" height="41" viewBox="0 0 247 41" fill="none" xmlns="http://www.w3.org/2000/svg">
<path d="M4.0401 15.2628L7.92831 21.5255L6.62211 23.1672C5.89307 24.0489 4.73876 25.7514 4.0401 26.9066C2.7339 29.1868 0.516403 34.3855 0.212637 36.0271L0 37L3.09842 36.9088L6.19684 36.8176L7.35115 34.0814C8.47509 31.3453 10.3888 27.9099 11.1179 27.3018C11.4216 27.0586 12.2114 28.0923 14.6416 31.9837L17.8007 36.9696H21.4156H25L24.5747 36.2704C24.3317 35.9055 22.5091 33.0174 20.5043 29.8556L16.8591 24.0793L18.3171 22.4072C20.2309 20.1878 22.2965 16.9045 23.2685 14.6243C23.9976 12.861 25 9.76004 25 9.24321C25 9.12161 23.5723 9 21.8712 9H18.712L18.3475 10.2769C17.8311 12.0402 15.7655 15.8708 14.4593 17.4517L13.3961 18.759L10.3584 13.8947L7.32078 9H3.73633H0.121507L4.0401 15.2628Z" fill="black"/>
<path d="M117.044 0.425674C114.687 1.40733 112.953 3.37065 112.086 6.08312C111.641 7.45228 111.641 7.91727 111.686 20.8597L111.752 34.1895L112.486 35.9204C113.842 39.1237 116.088 40.8286 119.2 40.9836C121.69 41.1128 123.157 40.4928 124.958 38.5553C126.247 37.1862 127.603 34.4479 127.359 33.7245C127.27 33.4145 123.379 31.9937 122.668 31.9937C122.49 31.9937 122.29 32.2779 122.223 32.6137C122.157 32.9495 121.734 33.5954 121.267 34.0604C120.534 34.8095 120.356 34.887 119.333 34.7579C118.444 34.6804 118.111 34.4737 117.599 33.8279L116.977 33.027V20.7305C116.977 7.27144 116.977 7.34895 118.311 6.54812C119.178 6.03146 120.067 6.05729 120.912 6.67728C121.868 7.34895 122.112 7.96894 122.246 10.1906C122.401 12.3864 122.223 12.2831 124.869 11.7147C128.026 11.0172 127.737 11.3272 127.581 9.13143C127.292 5.2823 125.647 2.28566 123.002 0.813171C121.334 -0.0909882 118.733 -0.27182 117.044 0.425674Z" fill="black"/>
<path d="M155.608 0.3871C154.139 1.03463 152.692 2.30378 151.779 3.75424C150.288 6.08534 150.288 6.11124 150.354 21.0821L150.421 34.5247L150.978 35.8198C151.668 37.4775 153.448 39.5495 154.873 40.3525C155.83 40.8964 156.298 41 158.212 41C160.193 41 160.572 40.9223 161.685 40.2748C163.688 39.1351 165.736 36.2342 165.936 34.2657C166.003 33.5405 165.959 33.5146 163.555 32.6858C162.219 32.2195 161.084 31.831 161.084 31.8051C161.061 31.8051 160.972 32.09 160.906 32.4267C160.683 33.4887 159.704 34.6283 158.858 34.8096C157.811 35.0428 157.055 34.7578 156.298 33.8772L155.652 33.152V20.6677C155.652 6.99188 155.608 7.38039 157.01 6.52566C157.856 6.03354 158.746 6.05944 159.592 6.68106C160.549 7.35449 160.75 7.87252 160.928 10.1777C161.017 11.4728 161.15 12.1203 161.329 12.1203C161.618 12.1203 164.846 11.4469 165.87 11.1879C166.382 11.0583 166.404 11.0065 166.248 9.08987C166.025 6.42205 165.402 4.63488 164.089 2.92541C162.486 0.905125 160.995 0.12809 158.568 0.0244865C157.144 -0.053215 156.387 0.0503883 155.608 0.3871Z" fill="black"/>
<path d="M173.318 0.312595C170.943 1.21333 168.793 3.68391 168.099 6.36037C167.651 8.00743 167.628 8.62508 167.695 21.0552L167.763 34.0515L168.412 35.6471C169.174 37.5515 170.921 39.5846 172.511 40.4081C173.363 40.8713 174.012 40.9743 175.715 41C177.596 41 178 40.9228 179.075 40.3051C180.665 39.4044 182.278 37.5515 183.062 35.7243L183.667 34.3088V20.5405V6.77214L183.062 5.30523C182.301 3.42656 180.733 1.62509 179.12 0.775829C177.574 -0.021965 174.819 -0.253582 173.318 0.312595ZM176.924 6.48905C178.47 7.23537 178.403 6.69493 178.403 20.5405C178.403 34.386 178.47 33.8456 176.924 34.5919C175.961 35.0552 175.401 35.0552 174.46 34.5405C173.004 33.7427 173.027 33.9485 173.027 20.5405C173.027 7.1839 173.004 7.36405 174.416 6.56626C175.334 6.05155 175.961 6.02581 176.924 6.48905Z" fill="black"/>
<path d="M45 5.31495V10.6298H52.3333H59.6667V5.31495V0.000131607H57.9479H56.2292V3.16371V6.32729H55.0833H53.9375V3.16371V0.000131607H52.2188H50.5V3.16371V6.32729H49.4688H48.4375V3.16371V0.000131607H46.7188H45V5.31495Z" fill="black"/>
<path d="M63.667 20.4871V41L66.6568 40.9223L69.6232 40.8446L69.6933 32.6083L69.74 24.398H72.2626C75.2991 24.398 76.5838 23.9836 77.8685 22.585C79.5035 20.8497 79.667 19.8654 79.667 12.0954V5.36134L79.013 3.85913C78.2889 2.22742 77.3779 1.32091 75.7896 0.647507C74.9487 0.310802 73.6874 0.207203 69.2261 0.103603L63.667 0V20.4871ZM73.7575 6.52685C74.1312 7.04485 74.1779 7.66646 74.1779 12.4839C74.1779 18.9589 74.2947 18.6999 71.5852 18.6999H69.74V12.199V5.67214L71.5385 5.80164C73.0334 5.90524 73.4071 6.03474 73.7575 6.52685Z" fill="black"/>
<path d="M82.333 20.4871V41L85.1385 40.9223L87.922 40.8446L87.9878 32.6083L88.0316 24.398H88.7988C89.1933 24.398 89.5878 24.4757 89.6536 24.6052C89.6974 24.7088 90.4426 28.3348 91.2974 32.6342C92.1522 36.9596 92.8974 40.6115 92.9631 40.741C93.1385 41.0518 98.333 41.0518 98.333 40.7151C98.333 40.5856 97.5878 36.7265 96.6892 32.168C95.7905 27.6096 95.0453 23.7505 95.0453 23.5951C95.0453 23.4656 95.3741 22.9476 95.7905 22.4555C97.1714 20.8238 97.3467 19.71 97.3467 12.0954V5.36134L96.733 3.88503C96.4042 3.08212 95.7905 2.12382 95.3741 1.76122C93.8399 0.362602 93.1604 0.233101 87.5494 0.103603L82.333 0V20.4871ZM91.8015 6.55275C92.1522 7.04485 92.196 7.74416 92.196 12.4839C92.196 18.9589 92.3056 18.6999 89.7631 18.6999H88.0316V12.199V5.67214L89.7193 5.82755C91.122 5.95704 91.4947 6.08654 91.8015 6.55275Z" fill="black"/>
<path d="M101.072 0.311195C101.008 0.492725 100.987 9.69892 101.008 20.7464L101.072 40.8444L103.714 40.9222L106.333 41V20.487V0H103.757C101.888 0 101.137 0.0777969 101.072 0.311195Z" fill="black"/>
<path d="M129 20.5V41L135.621 40.9481L142.218 40.8703V38.0158V35.1614L138.494 35.0835L134.747 35.0316V29.193V23.3544H137.966H141.184V20.5V17.6456H137.966H134.747V11.6772V5.70886H138.54H142.333V2.85443V0H135.667H129V20.5Z" fill="black"/>
<path d="M187.667 20.5V41H190.605H193.543V32.2516V23.5032H196.707H199.87V20.6306V17.758H196.707H193.543V11.7516V5.74522H197.272H201V2.87261V0H194.334H187.667V20.5Z" fill="black"/>
<path d="M202.333 20.5V41H205.207H208.08V32.2516V23.5032H211.299H214.517V20.6306V17.758H211.299H208.08V11.7516V5.74522H211.873H215.666V2.87261V0H209H202.333V20.5Z" fill="black"/>
<path d="M218.333 20.5V41H225H231.666V38.1274V35.2548H227.873H224.08V29.379V23.5293L227.367 23.451L230.632 23.3726L230.701 20.5522L230.77 17.758H227.413H224.08V11.7516V5.74522H227.873H231.666V2.87261V0H225H218.333V20.5Z" fill="black"/>
<path d="M233 20.5V41H239.667H246.333V38.1274V35.2548H242.54H238.747V29.379V23.5293L242.034 23.451L245.299 23.3726L245.368 20.5522L245.437 17.758H242.08H238.747V11.7516V5.74522H242.54H246.333V2.87261V0H239.667H233V20.5Z" fill="black"/>
<path d="M45.1125 13.9989C45.045 14.2035 45.0225 15.2009 45.0675 16.2495L45.135 18.1421L48.1718 18.2699L51.1861 18.3978L48.1043 20.0346L45 21.697L45.0675 23.743L45.135 25.8146H52.3333H59.5317V23.6407V21.4668L56.3824 21.3901L53.2331 21.3134L56.3824 19.7021L59.5317 18.0909L59.5992 15.8915L59.6667 13.6664H52.4458C46.6196 13.6664 45.2025 13.7432 45.1125 13.9989Z" fill="black"/>
<path d="M48.3132 29.1828C46.3643 29.9944 45 32.3534 45 34.8898C45 37.2234 46.0611 39.1765 47.9667 40.3179C49.0494 40.952 53.532 41.231 55.4809 40.7744C59.7686 39.7345 61.1328 33.6216 57.8196 30.2988C57.3432 29.8169 56.5853 29.2842 56.1089 29.132C55.0045 28.7262 49.2876 28.7769 48.3132 29.1828ZM55.6108 33.5455C56.1955 34.0021 56.2605 35.2957 55.7191 35.9805C55.4159 36.3864 55.0045 36.4371 52.3626 36.4371C49.6558 36.4371 49.331 36.3864 48.9412 35.9298C48.3348 35.2196 48.3998 34.3064 49.0711 33.6723C49.5908 33.1904 49.9373 33.1397 52.3843 33.1397C54.5064 33.1397 55.2427 33.2158 55.6108 33.5455Z" fill="black"/>
</svg>
