<svg xmlns="http://www.w3.org/2000/svg" xml:space="preserve" style="fill-rule:evenodd;clip-rule:evenodd;stroke-linejoin:round;stroke-miterlimit:2" width="300" height="52" viewBox="0 0 330 52">
  <path fill="none" d="M0 0h330v52H0z" style="fill:#ebebeb;fill-opacity:0"/>
  <path d="M3.5.25a5.5 5.5 0 0 0-1.78 1.1C0 3.01 0 2.87 0 23.17V42h1.49a5.76 5.76 0 0 0 5.8-4.38c.19-.79.32-6.81.32-15.64 0-8.42.13-14.58.33-14.89.23-.41 1.42-.55 6.03-.68 5.2-.18 5.82-.24 6.91-.96 1.36-.86 2.02-2.2 2.09-4.1L23 .06 13.73.01c-5.1-.04-9.7.06-10.22.24ZM315.94 8.48c-4.83 1.74-5.35 8.54-.83 10.88 1.08.57 1.88.71 3.4.6 6.2-.46 7.59-8.7 1.89-11.34-1.64-.78-2.68-.82-4.46-.14Zm4.84 1.42c1.29.85 2.33 3.42 2.02 5.02a5.97 5.97 0 0 1-3.45 4.05c-2.36.78-5.35-.92-5.94-3.41-.6-2.35.76-5.3 2.81-6.23 1.01-.46 3.48-.14 4.56.57Z" style="fill-rule:nonzero"/>
  <path d="M316 14.02c0 2.27.12 3.02.52 2.9.24-.1.51-.63.6-1.15.2-1.42 1.46-1.34 2.26.11.36.6.87 1.12 1.23 1.12.52 0 .52-.11 0-1.08-.4-.7-.47-1.16-.2-1.42.24-.22.36-1.04.28-1.82l-.12-1.46-2.26-.1L316 11v3.02Zm3.58-1.12c0 1-.12 1.12-1.2 1.12-1.07 0-1.19-.11-1.19-1.12 0-1 .12-1.12 1.2-1.12 1.07 0 1.19.11 1.19 1.12ZM196.5 9.38c-.53.28-1.22.8-1.52 1.15-.3.38-3.67 5.5-7.46 11.45-7.53 11.73-7.4 11.53-7.66 11.25-.13-.1-.2-4.5-.17-9.71 0-9.26 0-9.58-.73-11.11-.9-1.81-2.2-2.68-4.4-3L173 9.18l.1 15.39.1 15.42 1.1 1.01c.96.9 1.33 1.01 3.23 1.01s2.26-.1 3.13-.97c.53-.53 4-5.64 7.69-11.39 6.9-10.65 7.66-11.8 7.92-11.49.07.07.14 4.08.1 8.85-.03 5.11.07 9.22.27 10.02.57 2.2 3.56 4.63 5.7 4.63.66 0 .66-.14.66-14.72 0-10.97-.1-14.9-.43-15.53-.97-2.02-4-3-6.06-2.02ZM270 9.48c-1.13.56-2.33 2.16-8.95 12.14-4.2 6.3-7.78 11.47-7.99 11.4-.2-.04-.34-3.6-.34-9.76 0-8.72-.07-9.8-.66-10.95-.76-1.6-2.37-2.65-4.48-2.93L246 9.13v15.03c0 16.15.03 16.46 1.76 17.37 1.24.63 4.2.63 5.4 0 .62-.32 3.62-4.53 8.65-12.03 4.24-6.35 7.82-11.55 8-11.55.13 0 .3 4.43.37 9.87l.1 9.9.93 1.23c1 1.32 2.72 2.3 4.62 2.61l1.17.21-.03-14.43c0-15.49-.07-16.25-1.73-17.51-1.27-.94-3.61-1.12-5.23-.35ZM90.84 10.35c-.58.16-1.47.77-1.95 1.34L88 12.74v28.92h.79a8.53 8.53 0 0 0 4.07-1.88c.34-.38.85-1.29 1.2-2 .54-1.2.58-2.35.5-10.44-.1-6.85 0-9 .28-8.73.24.23 2.16 4.85 4.31 10.28a461.8 461.8 0 0 0 4.48 11.02c.69 1.38 2.02 2.09 4 2.09 2.74 0 3.12-.6 7.4-11.46 4.4-11.2 4.82-12.2 5.1-11.93.1.1.13 4.07.06 8.83-.13 9.33 0 10.24 1.78 12.17.9.94 3.15 2.02 4.28 2.05h.75V27.5c0-16 .03-15.74-2.5-16.88-2.5-1.12-5.71-.68-7.18.97-.34.37-2.4 5.13-4.59 10.59-4.34 10.92-4.82 12.07-5.26 12.07-.45 0-.86-.88-5.1-11.53a239.23 239.23 0 0 0-4.55-10.86c-1.1-1.62-4.17-2.32-6.98-1.51ZM132.84 10.35c-.58.17-1.47.77-1.95 1.34l-.89 1.05v28.92h.79a8.52 8.52 0 0 0 4.07-1.88c.34-.38.85-1.29 1.2-2 .54-1.2.61-2.29.5-10.2-.06-5.43.04-8.84.21-8.84.2 0 .41.2.52.4.1.24 1.88 4.76 4 10.05 2.09 5.3 4.07 10.11 4.34 10.72.69 1.38 2.02 2.09 4 2.09 2.74 0 3.15-.6 7.4-11.46 4.38-11.2 4.79-12.17 5.13-11.97.14.07.17 3.98.07 8.7-.17 9.24-.04 10.18 1.57 12.1.96 1.11 3.18 2.26 4.45 2.3h.75V27.5c0-16.02.03-15.75-2.5-16.9-2.5-1.1-5.71-.67-7.18.95-.34.37-2.4 5.16-4.55 10.58-4.45 11.13-4.86 12.1-5.34 12.1-.4 0-1.26-1.92-5.54-12.63-1.98-5.03-3.83-9.44-4.1-9.81-1.13-1.59-4.21-2.23-6.95-1.45ZM222.67 10.46c-.57.27-1.34.85-1.64 1.3-.34.4-2.82 6.13-5.5 12.66l-4.9 11.93-1.41.47a4.35 4.35 0 0 0-3.02 3.82L206 42h17.34c18.61 0 18.92-.03 20.12-1.74.3-.44.54-1.46.54-2.25v-1.46h-4.23l-4.96-12.2c-2.72-6.67-5.2-12.43-5.53-12.8-1.28-1.5-4.5-2.01-6.61-1.1Zm6.7 16.11a474 474 0 0 1 3.56 9.81c0 .1-3.52.17-7.85.17h-7.84l2.95-7.77c1.57-4.25 3.32-8.85 3.85-10.21.74-2.05 1.01-2.42 1.35-2.05.23.24 2 4.77 3.99 10.05ZM24.71 10.53a6 6 0 0 0-1.93 1.77L22 13.46v19.25c0 18.16.03 19.29.61 19.29 2 0 4.65-1.54 5.56-3.21.24-.38.51-2.12.61-3.8l.17-3.08 6.79-.17c6.37-.17 6.88-.24 8.65-1.06 4.88-2.29 6.58-6.22 6.61-15.18 0-4.41-.1-5.47-.78-7.66a8.68 8.68 0 0 0-2.71-4.48c-2.99-3-3.74-3.18-13.47-3.31-7.3-.1-8.28-.07-9.33.47Zm15.54 5.6c2.13 1.06 3.05 2.64 3.5 6.16.36 2.94.2 6.97-.42 9.3-.4 1.57-2.13 3.62-3.6 4.2-.74.35-2.64.48-6.03.48h-4.92V26.6c0-8.21.07-9.78.55-10.43.47-.72.74-.76 4.95-.76 3.87 0 4.68.1 5.97.72Z" style="fill-rule:nonzero"/>
  <path d="M56.42 11.41c.38 1.65.93 2.54 2.1 3.34.65.48 2.02.62 8.1.75l7.35.17 1 1.14c.92 1.03.99 1.3.99 3.92v2.78l-.72-.65c-.65-.58-1.4-.65-7.14-.75-7.87-.18-9.48.13-11.58 2.06a6.68 6.68 0 0 0-2.02 3.13c-.69 2.27-.65 7.18.03 9.49.66 2.23 2.44 4.26 4.2 4.78 2.09.62 20.32.55 21.87-.07 2.33-1 2.4-1.48 2.4-13.62 0-10.76 0-10.83-.86-12.9a7.4 7.4 0 0 0-5.5-4.6c-1.02-.2-5.66-.38-11.12-.38h-9.4l.3 1.41Zm18.65 16.85c.89.72.93.8.82 4.37l-.1 3.68-6.18.1c-4.16.07-6.42-.03-6.9-.3-1.1-.56-1.52-1.8-1.52-4.3 0-2.04.1-2.35 1-3.27l1-1h5.49c5.05 0 5.53.07 6.39.72Z" style="fill:#dc0026;fill-rule:nonzero"/>
  <path d="M280 26v16l1.43-.24c2-.34 3.84-1.67 4.6-3.38.5-1.17.64-2.26.64-5.82v-4.34h14.66v4.52c.04 5.84.47 7.07 3.07 8.3.97.48 2.17.86 2.7.86h.9V10l-1.4.24c-2.13.34-3.83 1.5-4.6 3.11-.57 1.16-.67 2.12-.67 5.4v4h-14.66v-4.37c0-3.46-.14-4.58-.6-5.5-.84-1.72-2.1-2.54-4.24-2.7l-1.83-.15V26Z" style="fill-rule:nonzero"/>
</svg>
