<svg xmlns="http://www.w3.org/2000/svg" xml:space="preserve" style="fill-rule:evenodd;clip-rule:evenodd;stroke-linejoin:round;stroke-miterlimit:2" width="199" height="52" viewBox="0 0 199 52">
  <path fill="none" d="M0 0h199v52H0z" style="fill:#ebebeb;fill-opacity:0"/>
  <path d="m11.04 15.26 3.89 6.27-1.3 1.64c-.74.88-1.9 2.58-2.59 3.74-1.3 2.28-3.52 7.48-3.83 9.12L7 37l3.1-.1 3.1-.08 1.15-2.74c1.12-2.74 3.04-6.17 3.77-6.78.3-.24 1.1.8 3.52 4.68l3.16 4.99H32l-.42-.7c-.25-.36-2.07-3.25-4.08-6.41l-3.64-5.78 1.46-1.67a34.4 34.4 0 0 0 4.95-7.79C31 12.86 32 9.76 32 9.24c0-.12-1.43-.24-3.13-.24h-3.16l-.36 1.28a28.58 28.58 0 0 1-3.9 7.17l-1.05 1.3-3.04-4.86L14.32 9h-7.2l3.92 6.26ZM102.03 9.28a6.09 6.09 0 0 0-3.72 3.73c-.33.9-.33 1.2-.3 9.73l.05 8.78.55 1.14a5.51 5.51 0 0 0 5.04 3.33 5.13 5.13 0 0 0 4.32-1.6c.96-.9 1.98-2.7 1.8-3.18-.07-.2-2.99-1.14-3.52-1.14-.13 0-.28.19-.33.4-.05.23-.37.65-.72.96-.55.5-.68.54-1.45.46-.67-.05-.92-.19-1.3-.61l-.47-.53v-8.1c0-8.86 0-8.81 1-9.34a1.84 1.84 0 0 1 1.95.09c.72.44.9.85 1 2.31.12 1.45-.01 1.38 1.97 1 2.37-.45 2.15-.25 2.04-1.7-.22-2.53-1.46-4.5-3.44-5.47a6.54 6.54 0 0 0-4.47-.26ZM130.96 9.26a6.64 6.64 0 0 0-2.88 2.21c-1.11 1.54-1.11 1.55-1.06 11.41l.05 8.86.41.85a7.55 7.55 0 0 0 2.93 2.98c.71.36 1.06.43 2.5.43 1.48 0 1.77-.05 2.6-.48 1.5-.75 3.04-2.66 3.2-3.95.04-.48 0-.5-1.8-1.04l-1.85-.58c-.01 0-.08.18-.13.4-.17.7-.9 1.45-1.54 1.57a1.91 1.91 0 0 1-1.92-.61l-.48-.48v-8.22c0-9-.03-8.75 1.02-9.31.63-.33 1.3-.31 1.93.1.72.44.87.78 1 2.3.07.86.17 1.28.3 1.28.22 0 2.64-.44 3.41-.61.39-.09.4-.12.29-1.38a6.58 6.58 0 0 0-1.62-4.06 5.2 5.2 0 0 0-4.14-1.91 5.09 5.09 0 0 0-2.22.24ZM144.24 9.2a6.37 6.37 0 0 0-3.92 3.99c-.33 1.08-.35 1.49-.3 9.68l.05 8.55.49 1.05a7 7 0 0 0 3.07 3.14c.64.3 1.13.37 2.4.39 1.42 0 1.72-.05 2.53-.46 1.19-.6 2.4-1.81 2.99-3.01l.45-.94V13.46l-.45-.97a6.49 6.49 0 0 0-2.96-2.98 7.27 7.27 0 0 0-4.35-.3Zm2.7 4.07c1.16.5 1.11.14 1.11 9.26 0 9.11.05 8.76-1.1 9.25-.73.3-1.15.3-1.85-.03-1.1-.53-1.08-.4-1.08-9.22 0-8.8-.02-8.68 1.04-9.2a1.95 1.95 0 0 1 1.88-.06ZM48 12.5V16h11V9h-2.58v4.17H54.7V9h-2.58v4.17h-1.54V9H48v3.5ZM62 22.5V36l2.24-.05 2.23-.05.05-5.43.04-5.4h1.89c2.27 0 3.24-.28 4.2-1.2 1.23-1.14 1.35-1.79 1.35-6.9v-4.44l-.5-.99a3.98 3.98 0 0 0-2.4-2.11c-.64-.23-1.59-.3-4.93-.36L62 9v13.5Zm7.57-9.2c.28.34.31.75.31 3.92 0 4.26.1 4.1-1.94 4.1h-1.39v-8.59l1.35.09c1.12.07 1.4.15 1.67.48ZM76 22.5V36l2.1-.05 2.1-.05.04-5.43.03-5.4h.58c.3 0 .6.05.64.13.03.07.6 2.46 1.23 5.3.64 2.84 1.2 5.24 1.25 5.33.13.2 4.03.2 4.03-.02 0-.08-.56-2.62-1.23-5.63-.68-3-1.24-5.54-1.24-5.64 0-.09.25-.43.56-.75 1.04-1.08 1.17-1.81 1.17-6.83v-4.43l-.46-.97a4.49 4.49 0 0 0-1.02-1.4c-1.15-.92-1.66-1-5.87-1.1L76 9v13.5Zm7.1-9.19c.26.33.3.79.3 3.91 0 4.26.08 4.1-1.83 4.1h-1.3v-8.59l1.27.1c1.05.1 1.33.18 1.56.48ZM90.05 9.2c-.04.12-.06 6.19-.04 13.46l.04 13.24 1.99.05L94 36V9h-1.93c-1.4 0-1.97.05-2.02.2ZM111 22.5V36l4.97-.03 4.94-.05V32.14l-2.79-.05-2.81-.03V24.38h4.83v-3.76h-4.83v-7.86H121V9h-10v13.5ZM155 22.5V36h4.4V24.48h4.75v-3.79h-4.74v-7.91H165V9h-10v13.5ZM166 22.5V36h4.31V24.48h4.83v-3.79h-4.83v-7.91H176V9h-10v13.5ZM178 22.5V36h10v-3.78H182.31v-7.73l2.47-.05 2.44-.05.06-1.86.05-1.84h-5.02v-7.91H188V9h-10v13.5ZM189 22.5V36h10v-3.78H193.31v-7.73l2.47-.05 2.44-.05.06-1.86.05-1.84h-5.02v-7.91H199V9h-10v13.5ZM48.08 18.22c-.05.13-.06.79-.03 1.48l.05 1.25 2.28.08 2.26.09-2.31 1.07L48 23.3l.05 1.35.05 1.36h10.8v-2.86l-2.36-.05-2.37-.05 2.37-1.06 2.36-1.07.05-1.44L59 18h-5.42c-4.36 0-5.43.05-5.5.22ZM50.48 28.22A4 4 0 0 0 48 31.98c0 1.53.8 2.82 2.23 3.57.8.42 4.17.6 5.63.3a3.97 3.97 0 0 0 1.76-6.9 4.04 4.04 0 0 0-1.29-.76c-.83-.27-5.11-.24-5.84.03Zm5.48 2.87c.44.3.48 1.15.08 1.6-.23.27-.54.3-2.52.3-2.03 0-2.27-.03-2.56-.33-.46-.47-.41-1.07.1-1.49.38-.31.64-.35 2.48-.35 1.59 0 2.14.05 2.42.27Z" style="fill-rule:nonzero"/>
</svg>
