<svg width="583" height="55" viewBox="0 0 583 55" fill="none" xmlns="http://www.w3.org/2000/svg">
<path d="M3.81295 0.257851C3.23741 0.437122 2.3741 0.939083 1.8705 1.40519C0 3.16204 0 3.01863 0 24.2802V44H1.61871C4.71223 44 7.1223 42.2431 7.91367 39.4107C8.1295 38.586 8.27338 32.2757 8.27338 23.0253C8.27338 14.2051 8.41727 7.75138 8.63309 7.4287C8.88489 6.99844 10.1799 6.85503 15.1799 6.71161C20.8273 6.53234 21.5108 6.46063 22.6978 5.70769C24.1727 4.81134 24.8921 3.41302 24.964 1.40519L25 0.0785789L14.9281 0.00687027C9.38849 -0.0289841 4.38849 0.0785789 3.81295 0.257851Z" fill="black"/>
<path d="M334.944 9.4778C330.11 11.2208 329.588 18.0149 334.109 20.3626C335.187 20.9317 335.987 21.074 337.517 20.9673C343.708 20.5048 345.099 12.2523 339.395 9.62008C337.761 8.83752 336.717 8.80195 334.944 9.4778ZM339.778 10.9006C341.065 11.7544 342.108 14.3155 341.795 15.9162C341.517 17.5524 339.882 19.4377 338.352 19.9713C335.987 20.7538 332.996 19.0464 332.405 16.5565C331.814 14.2088 333.17 11.2564 335.222 10.3315C336.231 9.86908 338.7 10.1892 339.778 10.9006Z" fill="black"/>
<path d="M335 15.0186C335 17.2919 335.119 18.0373 335.517 17.9255C335.755 17.8137 336.034 17.2919 336.113 16.7702C336.312 15.354 337.584 15.4286 338.38 16.882C338.738 17.4783 339.254 18 339.612 18C340.129 18 340.129 17.8882 339.612 16.9193C339.215 16.2112 339.135 15.764 339.414 15.5031C339.652 15.2795 339.771 14.4596 339.692 13.677L339.573 12.2236L337.306 12.1118L335 12V15.0186ZM338.579 13.9006C338.579 14.9068 338.459 15.0186 337.386 15.0186C336.312 15.0186 336.193 14.9068 336.193 13.9006C336.193 12.8944 336.312 12.7826 337.386 12.7826C338.459 12.7826 338.579 12.8944 338.579 13.9006Z" fill="black"/>
<path d="M208.074 10.3926C207.506 10.6796 206.76 11.2176 206.441 11.5762C206.121 11.9708 202.534 17.2432 198.485 23.3765C190.458 35.4637 190.6 35.2484 190.316 34.9615C190.174 34.8539 190.103 30.3347 190.139 24.9546C190.139 15.414 190.139 15.0912 189.357 13.513C188.398 11.648 187.013 10.7513 184.669 10.4285L183 10.1774L183.107 26.0306L183.213 41.9197L184.385 42.9599C185.415 43.8924 185.806 44 187.83 44C189.855 44 190.245 43.8924 191.169 42.9957C191.737 42.4577 195.431 37.1853 199.373 31.2672C206.725 20.2919 207.542 19.1083 207.826 19.4311C207.897 19.5028 207.968 23.6275 207.932 28.5413C207.897 33.8138 208.003 38.0461 208.216 38.871C208.82 41.1306 212.017 43.6413 214.29 43.6413C215 43.6413 215 43.4979 215 28.4696C215 17.1715 214.893 13.1185 214.538 12.4729C213.508 10.3926 210.276 9.38834 208.074 10.3926Z" fill="black"/>
<path d="M285.782 10.4959C284.609 11.0708 283.364 12.7236 276.538 22.9993C272.2 29.5025 268.502 34.8201 268.289 34.7482C268.076 34.7123 267.933 31.0475 267.933 24.688C267.933 15.7057 267.862 14.5919 267.258 13.4062C266.476 11.7535 264.804 10.6756 262.636 10.3882L261 10.1367V25.6222C261 42.2574 261.036 42.5808 262.813 43.515C264.093 44.1617 267.151 44.1617 268.396 43.515C269.036 43.1916 272.129 38.8441 277.32 31.1194C281.693 24.5802 285.391 19.2268 285.569 19.2268C285.711 19.2268 285.889 23.7898 285.96 29.3947L286.067 39.5987L287.027 40.8562C288.058 42.2215 289.836 43.2275 291.791 43.5509L293 43.7665L292.964 28.8917C292.964 12.9391 292.893 12.1487 291.187 10.8552C289.871 9.88514 287.453 9.7055 285.782 10.4959Z" fill="black"/>
<path d="M95.9851 11.367C95.3737 11.5461 94.4386 12.1908 93.9351 12.7997L93 13.9101V29.2759V44.6418H93.8272C94.9061 44.606 97.3518 43.4598 98.107 42.636C98.4667 42.242 99.0061 41.2749 99.3658 40.5228C99.9412 39.2333 99.9772 38.0155 99.9053 29.4192C99.7974 22.1482 99.9053 19.8558 100.193 20.1424C100.445 20.3931 102.459 25.3002 104.725 31.0668C106.99 36.8335 109.112 42.0988 109.436 42.7793C110.155 44.2478 111.558 45 113.644 45C116.521 45 116.917 44.3553 121.412 32.8219C126.052 20.9304 126.483 19.8558 126.771 20.1424C126.879 20.2498 126.915 24.4763 126.843 29.5267C126.699 39.4482 126.843 40.4153 128.713 42.4569C129.648 43.4598 132.022 44.606 133.209 44.6418H134V29.5983C134 12.5848 134.036 12.8714 131.375 11.6535C128.749 10.4716 125.368 10.9372 123.822 12.6923C123.462 13.0863 121.304 18.1366 119.003 23.9391C114.435 35.5441 113.932 36.7619 113.464 36.7619C112.996 36.7619 112.565 35.8306 108.105 24.5122C105.768 18.638 103.61 13.4444 103.322 12.9788C102.171 11.2595 98.9342 10.5074 95.9851 11.367Z" fill="black"/>
<path d="M140.985 11.3689C140.374 11.5479 139.439 12.1926 138.935 12.8015L138 13.9118V29.2768V44.6418H138.827C139.906 44.606 142.352 43.4599 143.107 42.6362C143.467 42.2422 144.006 41.2751 144.366 40.523C144.941 39.2336 145.013 38.0875 144.905 29.6708C144.833 23.9044 144.941 20.287 145.121 20.287C145.337 20.287 145.553 20.5019 145.661 20.7168C145.768 20.9675 147.639 25.7669 149.868 31.39C152.062 37.0131 154.148 42.1347 154.436 42.7794C155.155 44.2479 156.558 45 158.644 45C161.521 45 161.953 44.3553 166.412 32.8226C171.016 20.9317 171.447 19.893 171.807 20.1079C171.951 20.1796 171.987 24.3342 171.879 29.3484C171.699 39.162 171.843 40.1649 173.533 42.2064C174.54 43.3883 176.878 44.606 178.209 44.6418H179V29.5992C179 12.5866 179.036 12.8731 176.375 11.6554C173.749 10.4735 170.368 10.9391 168.822 12.6582C168.462 13.0522 166.304 18.1381 164.039 23.9044C159.363 35.7237 158.932 36.7623 158.428 36.7623C157.996 36.7623 157.097 34.7208 152.602 23.3314C150.516 17.9948 148.574 13.3029 148.286 12.9089C147.099 11.2256 143.862 10.5451 140.985 11.3689Z" fill="black"/>
<path d="M235.985 10.488C235.37 10.7776 234.538 11.3928 234.212 11.8633C233.85 12.2975 231.172 18.3775 228.277 25.3259L222.994 37.9925L221.474 38.4991C219.628 39.0782 218.47 40.5619 218.217 42.5524L218 44H236.709C256.793 44 257.118 43.9638 258.421 42.1543C258.747 41.6838 259 40.5981 259 39.7658V38.2096H256.72H254.44L249.085 25.2536C246.154 18.1603 243.476 12.0442 243.114 11.6461C241.739 10.0538 238.265 9.51091 235.985 10.488ZM243.222 27.6059C245.321 33.2154 247.058 37.9201 247.058 38.0286C247.058 38.1372 243.259 38.2096 238.59 38.2096H230.123L233.307 29.9583C235.008 25.4345 236.89 20.5489 237.469 19.1013C238.265 16.9299 238.554 16.5318 238.916 16.9299C239.169 17.1832 241.087 21.9965 243.222 27.6059Z" fill="black"/>
<path d="M26.9006 11.5494C26.2117 11.9077 25.269 12.7315 24.8339 13.4121L24 14.63V34.7971C24 53.8179 24.0363 55 24.6526 55C26.7918 55 29.6199 53.3881 30.5988 51.6329C30.8526 51.2388 31.1427 49.412 31.2515 47.6567L31.4327 44.4329L38.6842 44.2538C45.5006 44.0747 46.0444 44.003 47.9298 43.1433C53.1509 40.7433 54.9637 36.624 55 27.2389C55 22.6181 54.8912 21.5076 54.1661 19.2151C53.4409 16.9584 53.0058 16.242 51.2655 14.5226C48.0749 11.3703 47.2772 11.1912 36.8713 11.048C29.076 10.9405 28.0246 10.9763 26.9006 11.5494ZM43.5064 17.424C45.7906 18.5345 46.7696 20.1822 47.2409 23.8718C47.6398 26.9524 47.4585 31.1792 46.8058 33.615C46.3708 35.2628 44.5216 37.412 42.9626 38.021C42.1649 38.3792 40.1345 38.5225 36.5088 38.5225H31.2515V28.3852C31.2515 19.7882 31.324 18.1405 31.8316 17.4599C32.3392 16.7076 32.6292 16.6718 37.1251 16.6718C41.2585 16.6718 42.1287 16.7793 43.5064 17.424Z" fill="black"/>
<path d="M60.5047 11.4981C60.8955 13.2519 61.4639 14.2019 62.6717 15.0422C63.3466 15.5538 64.7676 15.6999 71.0552 15.8461L78.6573 16.0287L79.6875 17.2345C80.6466 18.3306 80.7177 18.6229 80.7177 21.3998V24.3594L79.9717 23.6652C79.2967 23.044 78.5152 22.9709 72.5828 22.8613C64.4479 22.6786 62.7783 23.0075 60.6113 25.0536C59.5101 26.1132 58.9062 27.0632 58.5154 28.3785C57.805 30.79 57.8405 36.015 58.5509 38.463C59.2259 40.838 61.0731 42.9937 62.8848 43.5418C65.0518 44.1994 83.9148 44.1264 85.5133 43.4687C87.929 42.4091 88 41.8976 88 28.9997C88 17.5633 88 17.4903 87.1119 15.298C86.0462 12.6673 84.0924 10.9865 81.4281 10.4019C80.3624 10.1827 75.5667 10 69.9185 10H60.185L60.5047 11.4981ZM79.7941 29.4016C80.7177 30.1689 80.7532 30.242 80.6466 34.0419L80.54 37.9515L74.1458 38.0611C69.8474 38.1342 67.5029 38.0245 67.0056 37.7322C65.8688 37.1476 65.4425 35.8323 65.4425 33.165C65.4425 31.0093 65.5491 30.6804 66.4727 29.6939L67.5029 28.6343H73.1867C78.4086 28.6343 78.906 28.7074 79.7941 29.4016Z" fill="#DC0026"/>
<path d="M296 27V44L297.536 43.7457C299.679 43.3825 301.643 41.9658 302.464 40.1496C303 38.9145 303.143 37.7521 303.143 33.9744V29.3611H311H318.857V34.156C318.893 40.3675 319.357 41.6752 322.143 42.9829C323.179 43.4915 324.464 43.891 325.036 43.891H326V26.9637V10L324.5 10.2543C322.214 10.6175 320.393 11.8526 319.571 13.5598C318.964 14.7949 318.857 15.812 318.857 19.2991V23.5491H311H303.143V18.8996C303.143 15.2308 303 14.032 302.5 13.0513C301.607 11.235 300.25 10.3632 297.964 10.1816L296 10.0363V27Z" fill="black"/>
<path d="M361.04 19.2628L364.928 25.5255L363.622 27.1672C362.893 28.0489 361.739 29.7514 361.04 30.9066C359.734 33.1868 357.516 38.3855 357.213 40.0271L357 41L360.098 40.9088L363.197 40.8176L364.351 38.0814C365.475 35.3453 367.389 31.9099 368.118 31.3018C368.422 31.0586 369.211 32.0923 371.642 35.9837L374.801 40.9696H378.416H382L381.575 40.2704C381.332 39.9055 379.509 37.0174 377.504 33.8556L373.859 28.0793L375.317 26.4072C377.231 24.1878 379.296 20.9045 380.269 18.6243C380.998 16.861 382 13.76 382 13.2432C382 13.1216 380.572 13 378.871 13H375.712L375.348 14.2769C374.831 16.0402 372.765 19.8708 371.459 21.4517L370.396 22.759L367.358 17.8947L364.321 13H360.736H357.122L361.04 19.2628Z" fill="black"/>
<path d="M467.041 13.2907C464.831 13.9611 463.206 15.3019 462.393 17.1543C461.976 18.0894 461.976 18.4069 462.018 27.2456L462.08 36.349L462.768 37.531C464.039 39.7186 466.144 40.883 469.062 40.9888C471.396 41.077 472.772 40.6536 474.46 39.3305C475.669 38.3954 476.94 36.5254 476.711 36.0314C476.628 35.8197 472.98 34.8494 472.314 34.8494C472.147 34.8494 471.959 35.0434 471.897 35.2728C471.834 35.5021 471.438 35.9432 471 36.2607C470.313 36.7724 470.146 36.8253 469.187 36.7371C468.354 36.6842 468.041 36.543 467.562 36.102L466.978 35.5551V27.1574C466.978 17.9659 466.978 18.0188 468.229 17.4719C469.041 17.1191 469.875 17.1367 470.667 17.5601C471.563 18.0188 471.792 18.4422 471.918 19.9594C472.063 21.459 471.897 21.3884 474.377 21.0003C477.336 20.524 477.065 20.7357 476.92 19.2361C476.649 16.6074 475.106 14.561 472.626 13.5554C471.063 12.9379 468.625 12.8144 467.041 13.2907Z" fill="black"/>
<path d="M501.945 13.2644C500.568 13.7066 499.211 14.5733 498.356 15.5639C496.957 17.1559 496.957 17.1735 497.02 27.3975L497.083 36.5779L497.604 37.4623C498.251 38.5944 499.921 40.0094 501.256 40.5578C502.154 40.9292 502.592 41 504.387 41C506.244 41 506.599 40.9469 507.642 40.5047C509.52 39.7264 511.44 37.7453 511.628 36.401C511.691 35.9057 511.649 35.888 509.395 35.322C508.143 35.0036 507.079 34.7383 507.079 34.7206C507.058 34.7206 506.974 34.9151 506.912 35.1451C506.703 35.8703 505.785 36.6486 504.992 36.7724C504.011 36.9316 503.302 36.7371 502.592 36.1357L501.987 35.6404V27.1145C501.987 17.775 501.945 18.0403 503.26 17.4566C504.053 17.1205 504.888 17.1382 505.681 17.5627C506.578 18.0226 506.766 18.3764 506.933 19.9506C507.016 20.8351 507.141 21.2773 507.308 21.2773C507.58 21.2773 510.606 20.8174 511.566 20.6405C512.046 20.5521 512.066 20.5167 511.92 19.2077C511.712 17.3858 511.127 16.1653 509.896 14.9979C508.394 13.6182 506.995 13.0875 504.721 13.0167C503.385 12.9637 502.675 13.0344 501.945 13.2644Z" fill="black"/>
<path d="M517.945 13.2135C515.867 13.8286 513.985 15.5159 513.378 17.3437C512.986 18.4685 512.966 18.8903 513.025 27.3792L513.084 36.2547L513.652 37.3443C514.318 38.6449 515.847 40.0334 517.239 40.5958C517.984 40.9121 518.552 40.9824 520.042 41C521.688 41 522.041 40.9473 522.982 40.5255C524.374 39.9103 525.785 38.6449 526.471 37.3971L527 36.4304V27.0277V17.6249L526.471 16.6231C525.804 15.3401 524.432 14.1098 523.021 13.5299C521.669 12.985 519.258 12.8268 517.945 13.2135ZM521.1 17.4316C522.453 17.9412 522.394 17.5722 522.394 27.0277C522.394 36.4832 522.453 36.1141 521.1 36.6238C520.257 36.9401 519.767 36.9401 518.944 36.5886C517.67 36.0438 517.69 36.1844 517.69 27.0277C517.69 17.9061 517.67 18.0291 518.905 17.4843C519.709 17.1328 520.257 17.1152 521.1 17.4316Z" fill="black"/>
<path d="M404 16.5V20H410H416V16.5V13H414.594H413.188V15.0833V17.1667H412.25H411.313V15.0833V13H409.906H408.5V15.0833V17.1667H407.656H406.813V15.0833V13H405.406H404V16.5Z" fill="black"/>
<path d="M420 26.9912V41L422.616 40.9469L425.212 40.8939L425.273 35.2691L425.314 29.662H427.521C430.178 29.662 431.302 29.379 432.426 28.4239C433.857 27.2388 434 26.5667 434 21.2603V16.6614L433.428 15.6355C432.794 14.5212 431.997 13.9021 430.607 13.4422C429.872 13.2123 428.768 13.1415 424.864 13.0708L420 13V26.9912ZM428.829 17.4574C429.156 17.8111 429.197 18.2356 429.197 21.5256C429.197 25.9476 429.299 25.7707 426.928 25.7707H425.314V21.331V16.8737L426.888 16.9621C428.196 17.0329 428.523 17.1213 428.829 17.4574Z" fill="black"/>
<path d="M436 26.9912V41L438.63 40.9469L441.24 40.8939L441.301 35.2691L441.342 29.662H442.062C442.432 29.662 442.801 29.7151 442.863 29.8035C442.904 29.8743 443.603 32.3506 444.404 35.2868C445.206 38.2407 445.904 40.7347 445.966 40.8231C446.13 41.0354 451 41.0354 451 40.8054C451 40.717 450.301 38.0815 449.459 34.9684C448.616 31.8553 447.918 29.2198 447.918 29.1137C447.918 29.0253 448.226 28.6715 448.616 28.3354C449.911 27.2211 450.075 26.4605 450.075 21.2603V16.6614L449.5 15.6532C449.192 15.1049 448.616 14.4504 448.226 14.2028C446.788 13.2476 446.151 13.1592 440.89 13.0708L436 13V26.9912ZM444.877 17.4751C445.206 17.8111 445.247 18.2887 445.247 21.5256C445.247 25.9476 445.349 25.7707 442.966 25.7707H441.342V21.331V16.8737L442.925 16.9798C444.24 17.0682 444.589 17.1567 444.877 17.4751Z" fill="black"/>
<path d="M454.068 13.2125C454.008 13.3365 453.987 19.6237 454.008 27.1683L454.068 40.8937L456.544 40.9469L459 41V26.9912V13H456.584C454.833 13 454.128 13.0532 454.068 13.2125Z" fill="black"/>
<path d="M478 27V41L484.455 40.9646L490.888 40.9114V38.962V37.0127L487.257 36.9595L483.603 36.9241V32.9367V28.9494H486.741H489.879V27V25.0506H486.741H483.603V20.9747V16.8988H487.302H491V14.9494V13H484.5H478V27Z" fill="black"/>
<path d="M531 27V41H533.424H535.847V35.0255V29.051H538.458H541.068V27.0892V25.1274H538.458H535.847V21.0255V16.9236H538.924H542V14.9618V13H536.5H531V27Z" fill="black"/>
<path d="M544 27V41H546.586H549.172V35.0255V29.051H552.069H554.966V27.0892V25.1274H552.069H549.172V21.0255V16.9236H552.586H556V14.9618V13H550H544V27Z" fill="black"/>
<path d="M557 27V41H563.5H570V39.0382V37.0764H566.302H562.603V33.0637V29.0688L565.809 29.0153L568.991 28.9618L569.059 27.0357L569.126 25.1274H565.853H562.603V21.0255V16.9236H566.302H570V14.9618V13H563.5H557V27Z" fill="black"/>
<path d="M571 27V41H577H583V39.0382V37.0764H579.586H576.172V33.0637V29.0688L579.131 29.0153L582.069 28.9618L582.131 27.0357L582.193 25.1274H579.172H576.172V21.0255V16.9236H579.586H583V14.9618V13H577H571V27Z" fill="black"/>
<path d="M403.1 22.2189C403.04 22.3537 403.02 23.0105 403.06 23.7011L403.12 24.9474L405.811 25.0316L408.483 25.1158L405.752 26.1937L403 27.2884L403.06 28.6358L403.12 30H409.5H415.88V28.5684V27.1368L413.089 27.0863L410.298 27.0358L413.089 25.9747L415.88 24.9137L415.94 23.4653L416 22H409.6C404.436 22 403.179 22.0505 403.1 22.2189Z" fill="black"/>
<path d="M406.163 32.2452C404.302 32.8465 403 34.5941 403 36.4733C403 38.2021 404.013 39.649 405.832 40.4947C406.865 40.9644 411.144 41.1711 413.005 40.8329C417.097 40.0624 418.4 35.5337 415.237 33.072C414.782 32.715 414.059 32.3203 413.604 32.2076C412.55 31.9069 407.093 31.9445 406.163 32.2452ZM413.129 35.4773C413.687 35.8156 413.749 36.7739 413.232 37.2813C412.942 37.582 412.55 37.6195 410.028 37.6195C407.444 37.6195 407.134 37.582 406.762 37.2437C406.183 36.7176 406.245 36.0411 406.886 35.5713C407.382 35.2142 407.713 35.1766 410.049 35.1766C412.074 35.1766 412.777 35.233 413.129 35.4773Z" fill="black"/>
</svg>
