<svg width="529" height="52" viewBox="0 0 529 52" fill="none" xmlns="http://www.w3.org/2000/svg">
<path d="M3.50791 0.246128C2.97842 0.417252 2.18417 0.896393 1.72086 1.34131C0 3.01831 0 2.88142 0 23.1765V42H1.48921C4.33525 42 6.55252 40.323 7.28058 37.6193C7.47914 36.8321 7.61151 30.8086 7.61151 21.9787C7.61151 13.5595 7.74389 7.39905 7.94245 7.09103C8.1741 6.68033 9.36547 6.54343 13.9655 6.40654C19.1612 6.23541 19.7899 6.16697 20.882 5.44825C22.2388 4.59264 22.9007 3.25788 22.9669 1.34131L23 0.0750084L13.7338 0.00655746C8.63741 -0.027668 4.03741 0.0750084 3.50791 0.246128Z" fill="black"/>
<path d="M315.944 8.4778C311.11 10.2208 310.588 17.0149 315.109 19.3626C316.187 19.9317 316.987 20.074 318.517 19.9673C324.708 19.5048 326.099 11.2523 320.395 8.62008C318.761 7.83752 317.717 7.80195 315.944 8.4778ZM320.778 9.90064C322.065 10.7544 323.108 13.3155 322.795 14.9162C322.517 16.5524 320.882 18.4377 319.352 18.9713C316.987 19.7538 313.996 18.0464 313.405 15.5565C312.814 13.2088 314.17 10.2564 316.222 9.33151C317.231 8.86908 319.7 9.18922 320.778 9.90064Z" fill="black"/>
<path d="M316 14.0186C316 16.2919 316.119 17.0373 316.517 16.9255C316.755 16.8137 317.034 16.2919 317.113 15.7702C317.312 14.354 318.584 14.4286 319.38 15.882C319.738 16.4783 320.254 17 320.612 17C321.129 17 321.129 16.8882 320.612 15.9193C320.215 15.2112 320.135 14.764 320.414 14.5031C320.652 14.2795 320.771 13.4596 320.692 12.677L320.573 11.2236L318.306 11.1118L316 11V14.0186ZM319.579 12.9006C319.579 13.9068 319.459 14.0186 318.386 14.0186C317.312 14.0186 317.193 13.9068 317.193 12.9006C317.193 11.8944 317.312 11.7826 318.386 11.7826C319.459 11.7826 319.579 11.8944 319.579 12.9006Z" fill="black"/>
<path d="M196.507 9.38107C195.974 9.65956 195.275 10.1817 194.976 10.5299C194.676 10.9128 191.313 16.0302 187.517 21.983C179.992 33.7147 180.125 33.5058 179.859 33.2274C179.726 33.1229 179.659 28.7366 179.693 23.5148C179.693 14.2548 179.693 13.9415 178.96 12.4097C178.061 10.5995 176.762 9.72919 174.565 9.41588L173 9.17219L173.1 24.5591L173.2 39.9809L174.299 40.9904C175.264 41.8956 175.63 42 177.528 42C179.426 42 179.792 41.8956 180.658 41.0253C181.191 40.5031 184.654 35.3857 188.35 29.6417C195.242 18.9892 196.008 17.8404 196.274 18.1537C196.341 18.2233 196.407 22.2267 196.374 26.996C196.341 32.1134 196.441 36.2212 196.64 37.0219C197.206 39.215 200.203 41.6519 202.334 41.6519C203 41.6519 203 41.5126 203 26.9264C203 15.9606 202.9 12.0268 202.567 11.4002C201.602 9.38107 198.572 8.40633 196.507 9.38107Z" fill="black"/>
<path d="M270.008 9.48136C268.871 10.0393 267.666 11.6435 261.052 21.617C256.85 27.9289 253.268 33.0901 253.061 33.0203C252.854 32.9854 252.717 29.4284 252.717 23.256C252.717 14.5379 252.648 13.4568 252.062 12.306C251.304 10.7019 249.686 9.65572 247.584 9.37674L246 9.13263V24.1627C246 40.3087 246.034 40.6225 247.757 41.5292C248.997 42.1569 251.959 42.1569 253.164 41.5292C253.784 41.2154 256.781 36.9958 261.81 29.4982C266.047 23.1514 269.629 17.9554 269.801 17.9554C269.939 17.9554 270.111 22.3842 270.18 27.8243L270.283 37.7281L271.213 38.9487C272.212 40.2738 273.934 41.2502 275.829 41.5641L277 41.7733L276.966 27.3361C276.966 11.8527 276.897 11.0855 275.243 9.83008C273.969 8.88852 271.627 8.71416 270.008 9.48136Z" fill="black"/>
<path d="M90.8395 10.3454C90.2579 10.514 89.3684 11.1208 88.8895 11.6938L88 12.7389V27.2009V41.6629H88.7868C89.8132 41.6292 92.1395 40.5504 92.8579 39.7751C93.2 39.4043 93.7132 38.4941 94.0553 37.7861C94.6026 36.5725 94.6368 35.4264 94.5684 27.3357C94.4658 20.4924 94.5684 18.3349 94.8421 18.6046C95.0816 18.8406 96.9974 23.459 99.1526 28.8864C101.308 34.3139 103.326 39.2694 103.634 39.9099C104.318 41.2921 105.653 42 107.637 42C110.374 42 110.75 41.3932 115.026 30.5383C119.439 19.3462 119.85 18.3349 120.124 18.6046C120.226 18.7057 120.261 22.6836 120.192 27.4369C120.055 36.7748 120.192 37.685 121.971 39.6065C122.861 40.5504 125.118 41.6292 126.247 41.6629H127V27.5043C127 11.4916 127.034 11.7613 124.503 10.6151C122.005 9.50264 118.789 9.94088 117.318 11.5927C116.976 11.9635 114.924 16.7168 112.734 22.178C108.389 33.1003 107.911 34.2465 107.466 34.2465C107.021 34.2465 106.611 33.37 102.368 22.7173C100.145 17.1887 98.0921 12.3006 97.8184 11.8624C96.7237 10.2443 93.6447 9.53635 90.8395 10.3454Z" fill="black"/>
<path d="M132.839 10.3472C132.258 10.5157 131.368 11.1225 130.889 11.6955L130 12.7405V27.2017V41.6629H130.787C131.813 41.6292 134.139 40.5505 134.858 39.7752C135.2 39.4044 135.713 38.4943 136.055 37.7864C136.603 36.5728 136.671 35.4941 136.568 27.5725C136.5 22.1453 136.603 18.7407 136.774 18.7407C136.979 18.7407 137.184 18.943 137.287 19.1452C137.389 19.3812 139.168 23.8982 141.289 29.1905C143.376 34.4829 145.361 39.3033 145.634 39.91C146.318 41.2921 147.653 42 149.637 42C152.374 42 152.784 41.3932 157.026 30.5389C161.405 19.3475 161.816 18.3699 162.158 18.5722C162.295 18.6396 162.329 22.5499 162.226 27.2691C162.055 36.5054 162.192 37.4493 163.8 39.3707C164.758 40.4831 166.982 41.6292 168.247 41.6629H169V27.5051C169 11.4933 169.034 11.7629 166.503 10.6168C164.005 9.50444 160.789 9.94266 159.318 11.5607C158.976 11.9315 156.924 16.7182 154.768 22.1453C150.321 33.2693 149.911 34.2469 149.432 34.2469C149.021 34.2469 148.166 32.3255 143.889 21.606C141.905 16.5833 140.058 12.1675 139.784 11.7967C138.655 10.2123 135.576 9.57186 132.839 10.3472Z" fill="black"/>
<path d="M222.669 10.4593C222.099 10.7318 221.327 11.3109 221.026 11.7537C220.69 12.1624 218.208 17.8847 215.525 24.4244L210.628 36.3458L209.22 36.8227C207.509 37.3677 206.436 38.7642 206.201 40.6376L206 42H223.34C241.954 42 242.256 41.9659 243.463 40.2629C243.765 39.8201 244 38.7982 244 38.0148V36.5502H241.887H239.774L234.81 24.3563C232.094 17.6803 229.612 11.924 229.276 11.5493C228.002 10.0506 224.782 9.53968 222.669 10.4593ZM229.377 26.5703C231.322 31.8498 232.932 36.2777 232.932 36.3799C232.932 36.4821 229.41 36.5502 225.084 36.5502H217.236L220.187 28.7843C221.763 24.5266 223.508 19.9283 224.044 18.5659C224.782 16.5222 225.05 16.1475 225.386 16.5222C225.62 16.7607 227.398 21.2908 229.377 26.5703Z" fill="black"/>
<path d="M24.7135 10.5245C24.069 10.8664 23.1871 11.6528 22.7801 12.3025L22 13.465V32.7154C22 50.8716 22.0339 52 22.6105 52C24.6117 52 27.2573 50.4613 28.1731 48.7859C28.4105 48.4098 28.6819 46.666 28.7836 44.9905L28.9532 41.9132L35.7368 41.7422C42.1134 41.5713 42.6222 41.5029 44.386 40.6823C49.2702 38.3914 50.9661 34.4592 51 25.5008C51 21.09 50.8982 20.03 50.2199 17.8417C49.5415 15.6875 49.1345 15.0037 47.5064 13.3625C44.5216 10.3535 43.7754 10.1826 34.0409 10.0458C26.7485 9.9432 25.7649 9.9774 24.7135 10.5245ZM40.248 16.132C42.3848 17.192 43.3006 18.7649 43.7415 22.2867C44.1146 25.2273 43.945 29.262 43.3345 31.5871C42.9275 33.1599 41.1977 35.2115 39.7392 35.7927C38.993 36.1347 37.0936 36.2714 33.7018 36.2714H28.7836V26.595C28.7836 18.3888 28.8515 16.8159 29.3263 16.1662C29.8012 15.4482 30.0725 15.414 34.2784 15.414C38.145 15.414 38.9591 15.5166 40.248 16.132Z" fill="black"/>
<path d="M56.4213 11.4099C56.799 13.0606 57.3484 13.9547 58.516 14.7456C59.1684 15.2271 60.542 15.3646 66.6201 15.5022L73.9687 15.6741L74.9646 16.8089C75.8917 17.8406 75.9604 18.1157 75.9604 20.7292V23.5147L75.2393 22.8613C74.5868 22.2767 73.8314 22.2079 68.0967 22.1048C60.2329 21.9328 58.619 22.2423 56.5243 24.1681C55.4597 25.1654 54.876 26.0595 54.4982 27.2975C53.8115 29.5671 53.8458 34.4847 54.5326 36.7887C55.185 39.024 56.9707 41.0529 58.722 41.5687C60.8167 42.1877 79.051 42.1189 80.5962 41.4999C82.9313 40.5027 83 40.0212 83 27.8821C83 17.1184 83 17.0497 82.1415 14.9863C81.1113 12.5104 79.2227 10.9285 76.6472 10.3783C75.617 10.1719 70.9812 10 65.5212 10H56.1122L56.4213 11.4099ZM75.0676 28.2603C75.9604 28.9825 75.9948 29.0513 75.8917 32.6277L75.7887 36.3073L69.6076 36.4104C65.4525 36.4792 63.1861 36.376 62.7054 36.1009C61.6065 35.5507 61.1944 34.3127 61.1944 31.8024C61.1944 29.7734 61.2975 29.4639 62.1903 28.5354L63.1861 27.5382H68.6804C73.7283 27.5382 74.2091 27.607 75.0676 28.2603Z" fill="#DC0026"/>
<path d="M280 26V42L281.433 41.7607C283.433 41.4188 285.267 40.0855 286.033 38.3761C286.533 37.2137 286.667 36.1197 286.667 32.5641V28.2222H294H301.333V32.735C301.367 38.5812 301.8 39.812 304.4 41.0427C305.367 41.5214 306.567 41.8974 307.1 41.8974H308V25.9658V10L306.6 10.2393C304.467 10.5812 302.767 11.7436 302 13.3504C301.433 14.5128 301.333 15.4701 301.333 18.7521V22.7521H294H286.667V18.3761C286.667 14.9231 286.533 13.7949 286.067 12.8718C285.233 11.1624 283.967 10.3419 281.833 10.1709L280 10.0342V26Z" fill="black"/>
<path d="M341.04 15.2628L344.928 21.5255L343.622 23.1672C342.893 24.0489 341.739 25.7514 341.04 26.9066C339.734 29.1868 337.516 34.3855 337.213 36.0271L337 37L340.098 36.9088L343.197 36.8176L344.351 34.0814C345.475 31.3453 347.389 27.9099 348.118 27.3018C348.422 27.0586 349.211 28.0923 351.642 31.9837L354.801 36.9696H358.416H362L361.575 36.2704C361.332 35.9055 359.509 33.0174 357.504 29.8556L353.859 24.0793L355.317 22.4072C357.231 20.1878 359.296 16.9045 360.269 14.6243C360.998 12.861 362 9.76004 362 9.24321C362 9.12161 360.572 9 358.871 9H355.712L355.348 10.2769C354.831 12.0402 352.765 15.8708 351.459 17.4517L350.396 18.759L347.358 13.8947L344.321 9H340.736H337.122L341.04 15.2628Z" fill="black"/>
<path d="M432.032 9.28032C430.265 9.92678 428.964 11.2197 428.314 13.006C427.981 13.9076 427.981 14.2138 428.014 22.7368L428.064 31.5151L428.614 32.6549C429.631 34.7644 431.315 35.8872 433.65 35.9892C435.517 36.0743 436.618 35.666 437.968 34.3901C438.935 33.4885 439.952 31.6852 439.769 31.2088C439.702 31.0047 436.784 30.069 436.251 30.069C436.117 30.069 435.967 30.2562 435.917 30.4773C435.867 30.6985 435.551 31.1238 435.2 31.43C434.65 31.9234 434.517 31.9744 433.75 31.8893C433.083 31.8383 432.833 31.7022 432.449 31.2769L431.982 30.7495V22.6518C431.982 13.7885 431.982 13.8395 432.983 13.3122C433.633 12.9719 434.3 12.9889 434.934 13.3972C435.651 13.8395 435.834 14.2478 435.934 15.7109C436.051 17.1569 435.917 17.0888 437.901 16.7146C440.269 16.2553 440.052 16.4594 439.936 15.0134C439.719 12.4786 438.485 10.5052 436.501 9.5355C435.25 8.94008 433.3 8.821 432.032 9.28032Z" fill="black"/>
<path d="M460.956 9.25492C459.854 9.68134 458.769 10.5171 458.084 11.4723C456.966 13.0074 456.966 13.0245 457.016 22.8833L457.066 31.7358L457.483 32.5886C458.001 33.6803 459.337 35.0448 460.405 35.5736C461.123 35.9318 461.474 36 462.909 36C464.395 36 464.679 35.9488 465.514 35.5224C467.016 34.7719 468.552 32.8615 468.703 31.5652C468.753 31.0876 468.719 31.0706 466.916 30.5248C465.914 30.2177 465.063 29.9619 465.063 29.9448C465.046 29.9448 464.98 30.1325 464.929 30.3542C464.763 31.0535 464.028 31.804 463.394 31.9234C462.609 32.0769 462.041 31.8893 461.474 31.3094L460.989 30.8318V22.6104C460.989 13.6044 460.956 13.8603 462.008 13.2974C462.642 12.9733 463.31 12.9904 463.944 13.3997C464.662 13.8432 464.813 14.1843 464.946 15.7024C465.013 16.5552 465.113 16.9817 465.247 16.9817C465.464 16.9817 467.885 16.5382 468.652 16.3676C469.036 16.2823 469.053 16.2482 468.936 14.986C468.769 13.2292 468.302 12.0522 467.317 10.9265C466.115 9.59606 464.996 9.08435 463.176 9.01613C462.108 8.96496 461.54 9.03318 460.956 9.25492Z" fill="black"/>
<path d="M474.238 9.20585C472.457 9.79902 470.844 11.426 470.324 13.1885C469.988 14.2732 469.971 14.6799 470.021 22.8656L470.072 31.4241L470.559 32.4749C471.13 33.729 472.441 35.0679 473.633 35.6102C474.272 35.9153 474.759 35.9831 476.036 36C477.447 36 477.749 35.9492 478.556 35.5424C479.749 34.9492 480.958 33.729 481.546 32.5257L482 31.5936V22.5267V13.4597L481.546 12.4937C480.975 11.2565 479.799 10.0702 478.59 9.51091C477.43 8.98554 475.364 8.83301 474.238 9.20585ZM476.943 13.2733C478.102 13.7648 478.052 13.4089 478.052 22.5267C478.052 31.6445 478.102 31.2886 476.943 31.78C476.221 32.0851 475.801 32.0851 475.095 31.7462C474.003 31.2208 474.02 31.3564 474.02 22.5267C474.02 13.7309 474.003 13.8495 475.061 13.3241C475.75 12.9852 476.221 12.9682 476.943 13.2733Z" fill="black"/>
<path d="M378 12.5V16H383.5H389V12.5V9H387.711H386.422V11.0833V13.1667H385.562H384.703V11.0833V9H383.414H382.125V11.0833V13.1667H381.352H380.578V11.0833V9H379.289H378V12.5Z" fill="black"/>
<path d="M392 22.4915V36L394.242 35.9488L396.467 35.8977L396.52 30.4738L396.555 25.067H398.447C400.724 25.067 401.688 24.7941 402.651 23.873C403.877 22.7303 404 22.0821 404 16.9653V12.5306L403.509 11.5414C402.966 10.4668 402.283 9.86987 401.092 9.4264C400.461 9.20467 399.515 9.13645 396.169 9.06822L392 9V22.4915ZM399.568 13.2982C399.848 13.6393 399.883 14.0486 399.883 17.2211C399.883 21.4852 399.971 21.3146 397.939 21.3146H396.555V17.0335V12.7353L397.904 12.8206C399.025 12.8888 399.305 12.9741 399.568 13.2982Z" fill="black"/>
<path d="M406 22.4915V36L408.104 35.9488L410.192 35.8977L410.241 30.4738L410.274 25.067H410.849C411.145 25.067 411.441 25.1181 411.49 25.2034C411.523 25.2716 412.082 27.6595 412.723 30.4908C413.364 33.3392 413.923 35.7442 413.973 35.8294C414.104 36.0341 418 36.0341 418 35.8124C418 35.7271 417.441 33.1857 416.767 30.1838C416.093 27.1819 415.534 24.6406 415.534 24.5382C415.534 24.4529 415.781 24.1118 416.093 23.7877C417.129 22.7132 417.26 21.9798 417.26 16.9653V12.5306L416.8 11.5584C416.553 11.0297 416.093 10.3986 415.781 10.1598C414.63 9.23879 414.121 9.15351 409.912 9.06822L406 9V22.4915ZM413.101 13.3152C413.364 13.6393 413.397 14.0998 413.397 17.2211C413.397 21.4852 413.479 21.3146 411.573 21.3146H410.274V17.0335V12.7353L411.54 12.8376C412.592 12.9229 412.871 13.0082 413.101 13.3152Z" fill="black"/>
<path d="M420.054 9.20494C420.006 9.32448 419.99 15.3871 420.006 22.6622L420.054 35.8975L422.035 35.9488L424 36V22.4915V9H422.067C420.666 9 420.103 9.05124 420.054 9.20494Z" fill="black"/>
<path d="M441 22.5V36L445.966 35.9658L450.914 35.9146V34.0348V32.1551L448.121 32.1038L445.31 32.0696V28.2247V24.3797H447.724H450.138V22.5V20.6203H447.724H445.31V16.6899V12.7595H448.155H451V10.8797V9H446H441V22.5Z" fill="black"/>
<path d="M485 22.5V36H487.203H489.407V30.2389V24.4777H491.78H494.153V22.586V20.6943H491.78H489.407V16.7389V12.7834H492.203H495V10.8917V9H490H485V22.5Z" fill="black"/>
<path d="M496 22.5V36H498.155H500.31V30.2389V24.4777H502.724H505.138V22.586V20.6943H502.724H500.31V16.7389V12.7834H503.155H506V10.8917V9H501H496V22.5Z" fill="black"/>
<path d="M508 22.5V36H513H518V34.1083V32.2166H515.155H512.31V28.3471V24.4949L514.776 24.4433L517.224 24.3917L517.276 22.5344L517.328 20.6943H514.81H512.31V16.7389V12.7834H515.155H518V10.8917V9H513H508V22.5Z" fill="black"/>
<path d="M519 22.5V36H524H529V34.1083V32.2166H526.155H523.31V28.3471V24.4949L525.776 24.4433L528.224 24.3917L528.276 22.5344L528.328 20.6943H525.81H523.31V16.7389V12.7834H526.155H529V10.8917V9H524H519V22.5Z" fill="black"/>
<path d="M378.084 18.2189C378.034 18.3537 378.017 19.0105 378.051 19.7011L378.101 20.9474L380.379 21.0316L382.64 21.1158L380.328 22.1937L378 23.2884L378.051 24.6358L378.101 26H383.5H388.899V24.5684V23.1368L386.537 23.0863L384.175 23.0358L386.537 21.9747L388.899 20.9137L388.949 19.4653L389 18H383.584C379.215 18 378.152 18.0505 378.084 18.2189Z" fill="black"/>
<path d="M380.485 28.2179C379.023 28.7524 378 30.3059 378 31.9762C378 33.513 378.796 34.7991 380.225 35.5508C381.037 35.9684 384.399 36.1521 385.861 35.8515C389.076 35.1666 390.1 31.1411 387.615 28.9529C387.257 28.6355 386.689 28.2847 386.332 28.1845C385.503 27.9173 381.216 27.9507 380.485 28.2179ZM385.958 31.0909C386.397 31.3916 386.445 32.2435 386.039 32.6945C385.812 32.9617 385.503 32.9952 383.522 32.9952C381.492 32.9952 381.248 32.9617 380.956 32.6611C380.501 32.1934 380.55 31.5921 381.053 31.1745C381.443 30.8571 381.703 30.8237 383.538 30.8237C385.13 30.8237 385.682 30.8738 385.958 31.0909Z" fill="black"/>
</svg>
