<svg width="66" height="55" viewBox="0 0 66 55" fill="none" xmlns="http://www.w3.org/2000/svg">
<g clip-path="url(#clip0_226_4546)">
<path d="M66 0.5H0V54.5H66V0.5Z" fill="black"/>
<path d="M49.6382 7.82085C48.7669 6.94313 47.7011 6.5 46.4746 6.5C45.2481 6.5 44.1824 6.94313 43.3111 7.82085C42.4398 8.69851 42 9.77651 42 11.0292V21.9496C42 23.2022 42.4398 24.2845 43.3111 25.1664C44.1824 26.0527 45.2439 26.5 46.4746 26.5C47.7011 26.5 48.7627 26.0527 49.6382 25.1664C50.264 24.5316 50.6701 23.7902 50.8435 22.9636L50.8731 22.8315L48.0902 22.0134L48.0521 22.1583C47.9464 22.5546 47.7899 22.8315 47.5235 23.0829C47.2232 23.3684 46.8764 23.509 46.4704 23.509C46.0475 23.509 45.6965 23.3684 45.4047 23.0872C45.117 22.806 44.9732 22.4694 44.9732 22.0561V10.9525C44.9732 10.5563 45.1128 10.2197 45.4047 9.92987C45.6965 9.64016 46.0475 9.49534 46.4704 9.49534C46.8764 9.49534 47.2232 9.63589 47.5235 9.92987C47.8026 10.2026 47.9464 10.6414 47.9675 10.9611C47.976 11.0761 48.0818 12.2648 48.0818 12.2648L48.0944 12.4268L51 11.8984L50.9492 11.0207C50.8308 9.53363 50.4756 8.66877 49.6382 7.82085Z" fill="white"/>
<path d="M19.9662 17.8352H21.827C22.495 17.8352 23.2822 17.7409 24.0338 17.0601C24.6858 16.4696 25 15.5715 25 14.3206V9.62091C25 8.62025 24.5507 7.69339 23.7992 7.13979C23.0398 6.58201 21.9106 6.5 21.3022 6.5H17V25.5H19.9662V17.8352ZM22.3241 10.3427V14.0377C22.3241 14.4929 22.2406 14.8374 22.0894 15.0138C21.9106 15.2188 21.5805 15.2475 21.3102 15.2475H19.9662V9.13691H21.1948C21.493 9.13691 21.8787 9.20261 22.0576 9.39124C22.2406 9.57577 22.3241 9.87928 22.3241 10.3427Z" fill="white"/>
<path d="M52 47.5H59V44.8613H55.0041V39.3009H58.4427V36.7074H55.0041V31.1346H59V28.5H52V47.5Z" fill="white"/>
<path d="M44 47.5H51V44.8613H47V39.3009H50.4427V36.7074H47V31.1346H51V28.5H44V47.5Z" fill="white"/>
<path d="M59 9.13455V6.5H52V25.5H59V22.8613H55.0041V17.3009H58.4427V14.7073H55.0041V9.13455H59Z" fill="white"/>
<path d="M36 47.5H39.0041V39.3009H42.4427V36.7074H39.0041V31.1346H43V28.5H36V47.5Z" fill="white"/>
<path d="M27 47.5H30.0041V39.3009H33.4427V36.7074H30.0041V31.1346H34V28.5H27V47.5Z" fill="white"/>
<path d="M21.5 28.5C20.2665 28.5 19.1947 28.941 18.3185 29.8144C17.4423 30.6878 17 31.7606 17 33.0071V43.9675C17 45.2141 17.4423 46.291 18.3185 47.1729C19.1947 48.0548 20.2623 48.5 21.5 48.5C22.7335 48.5 23.8053 48.0548 24.6815 47.1729C25.5577 46.2952 26 45.2141 26 43.9675V33.0114C26 31.7648 25.5577 30.6921 24.6815 29.8186C23.8053 28.9452 22.7335 28.5 21.5 28.5ZM19.9305 32.9351C19.9305 32.5407 20.0794 32.2101 20.3814 31.9217C20.6877 31.6291 21.0534 31.4892 21.5 31.4892C21.9296 31.4892 22.2911 31.6291 22.6059 31.9259C22.9163 32.2142 23.0695 32.545 23.0695 32.9393V44.0735C23.0695 44.4805 22.9163 44.8154 22.6059 45.0953C22.2911 45.3794 21.9296 45.5194 21.5 45.5194C21.0534 45.5194 20.6877 45.3794 20.3814 45.0953C20.0794 44.8154 19.9305 44.4805 19.9305 44.0735V32.9351Z" fill="white"/>
<path d="M8.79602 26.5H11.188C11.96 26.5 12.632 26.2026 13.176 25.6207C13.724 25.0387 14 24.3233 14 23.5C14 22.6767 13.724 21.9612 13.176 21.3793C12.632 20.7974 11.96 20.5 11.188 20.5H8.79602C8.02397 20.5 7.35598 20.7974 6.81596 21.3793C6.27599 21.9612 6 22.6767 6 23.5C6 24.3233 6.27599 25.0387 6.81596 25.6207C7.35196 26.2026 8.01995 26.5 8.79602 26.5ZM8.14799 22.8923C8.31201 22.7198 8.49994 22.6336 8.72399 22.6336H11.3081C11.54 22.6336 11.732 22.7198 11.888 22.8923C12.048 23.0646 12.124 23.2672 12.124 23.5C12.124 23.7457 12.048 23.9483 11.888 24.1164C11.728 24.2845 11.54 24.3664 11.304 24.3664H8.71997C8.49599 24.3664 8.30799 24.2845 8.14397 24.1121C7.97995 23.9439 7.90397 23.7457 7.90397 23.5C7.90397 23.263 7.98397 23.0646 8.14799 22.8923Z" fill="white"/>
<path d="M14 6.5H12.1451V9.46058H10.9126V6.5H9.04925V9.46058H7.85496V6.5H6V11.5H14V6.5Z" fill="white"/>
<path d="M13.9916 17.3705H10.1673L14 15.6124V13.5H6V15.6642H9.71414L6 17.4223V19.5H13.9916V17.3705Z" fill="white"/>
<path d="M40 6.5L37 6.50413V25.5L40 25.4959V6.5Z" fill="white"/>
<path d="M33.3929 17.056C34.0775 16.4655 34.4073 15.5673 34.4073 14.3165V9.62088C34.4073 8.62022 33.9355 7.69339 33.1465 7.1398C32.3493 6.58207 31.1638 6.5 30.5251 6.5H26V25.5H29.1267V17.8352H30.1368L31.9611 25.5H35L33.0506 17.3185C33.18 17.2324 33.2886 17.1462 33.3929 17.056ZM29.1267 9.13284H30.4165C30.7297 9.13284 31.1345 9.19846 31.3224 9.38717C31.5144 9.57581 31.6021 9.87925 31.6021 10.3426V14.0377C31.6021 14.4929 31.5144 14.8373 31.3558 15.0137C31.1679 15.2187 30.8173 15.2475 30.5376 15.2475H29.1267V9.13284Z" fill="white"/>
<path d="M10.4046 31.9299C10.7006 31.6401 11.0475 31.4953 11.4704 31.4953C11.8764 31.4953 12.2233 31.6359 12.5235 31.9299C12.8026 32.2026 12.9465 32.6415 12.9676 32.9568C12.976 33.0718 13.0818 34.2606 13.0818 34.2606L13.0944 34.4225L16 33.8941L15.9493 33.0164C15.8308 31.5294 15.4756 30.6645 14.6382 29.8208C13.7669 28.9431 12.7011 28.5 11.4746 28.5C10.2482 28.5 9.18236 28.9431 8.31109 29.8208C7.43985 30.6986 7 31.7765 7 33.0292V43.9496C7 45.2022 7.43985 46.2844 8.31109 47.1664C9.18236 48.0527 10.2482 48.5 11.4746 48.5C12.7011 48.5 13.7627 48.0527 14.6382 47.1664C15.264 46.5316 15.6701 45.7902 15.8435 44.9636L15.8731 44.8315L13.0902 44.0177L13.0522 44.1626C12.9465 44.5588 12.7857 44.8358 12.5235 45.0872C12.2233 45.3727 11.8806 45.5133 11.4704 45.5133C11.0475 45.5133 10.6964 45.3727 10.4046 45.0914C10.117 44.8103 9.97322 44.4736 9.97322 44.0603V32.9482C9.9774 32.5562 10.1213 32.2154 10.4046 31.9299Z" fill="white"/>
</g>
<defs>
<clipPath id="clip0_226_4546">
<rect width="66" height="54" fill="white" transform="translate(0 0.5)"/>
</clipPath>
</defs>
</svg>
