<svg xmlns="http://www.w3.org/2000/svg" xml:space="preserve" style="fill-rule:evenodd;clip-rule:evenodd;stroke-linejoin:round;stroke-miterlimit:2" width="76" height="99" viewBox="0 0 76 99">
  <path d="M46 67.6a55 55 0 0 0 29.3 29.9c.6-1.7 0-4-.6-5.5-4-10.6-10.9-20.4-17.7-29.3-4-5.4-8.5-10.4-13.7-14.7l-.3 2c-.3 6 .7 12 3 17.6Z" style="fill:#f59a24;fill-rule:nonzero"/>
  <path d="m74.4 97 .3-.6a55.1 55.1 0 0 1-29.5-29.8A41.3 41.3 0 0 1 42.4 47a71 71 0 0 0-5.7-4.1c.2 1 .2 1.9 0 2.8-.5 1.6-1.7 3-3 4-1 .8-2.1 1.5-3.4 1.7-.9 0-1.7 0-2.5-.3.7 1.7 1.6 3.4 2.3 4.8a99.1 99.1 0 0 0 35.6 40c2.1 1.4 6.6 4 8.6 1Z" style="fill:#f07f29;fill-rule:nonzero"/>
  <path d="M34.4 51a8 8 0 0 0 2.8-4c.3-1 .3-2 .1-3a32.4 32.4 0 0 0-3.5-8c-.5-1-1.2-1.9-2-2.5-.1 1.5-.5 3-1.2 4.5a14.3 14.3 0 0 1-11.8 7.6 22.3 22.3 0 0 0 9.7 6.7c.8.3 1.6.4 2.4.3a7 7 0 0 0 3.5-1.7Z" style="fill:#b5c5e7;fill-rule:nonzero"/>
  <path d="M25.2 38.2a17 17 0 0 0-2.4-14.7 12 12 0 0 0-2.2-2h-.9c-1.2-.2-2.5-.7-3.4 0-.8.5-1 1.6-.8 2.5.2 1 .8 1.7 1.4 2.4l3.3 4.2c.5.7 1 1.4 1.3 2.2.5 1.8-.9 4-2.7 4.3-2 .3-3.8-1.2-5-2.9-1.2-1.6-2.1-3.5-3.9-4.6-.8-.5-2-.8-2.8-.2-.8.5-1 1.5-1.4 2.3l-.7 1c.7 2.5 1.7 4.9 3 7 2 3.6 5.4 6.4 9.5 6.6a11.8 11.8 0 0 0 4.1-.4c1.6-2.4 2.9-5 3.6-7.7Z" style="fill:#c77048;fill-rule:nonzero"/>
  <path d="M21.1 21a2 2 0 0 1-.7.1 12 12 0 0 1 2.3 2.1c3.1 4 3.7 9.5 2.4 14.4-.7 2.7-2 5.1-3.5 7.4a14 14 0 0 0 9.2-7c.7-1.4 1-2.9 1.2-4.4a14.1 14.1 0 0 0-9.4-14.4l-.4.7c-.3.4-.7.8-1.1 1Z" style="fill:#a95838;fill-rule:nonzero"/>
  <path d="M7 29.1c1-.6 2.1-.3 3 .2 1.7 1 2.7 3 3.9 4.6 1.2 1.7 3 3.2 5 2.9a3.5 3.5 0 0 0 2.7-4.3c-.3-.8-.8-1.5-1.3-2.2a6715 6715 0 0 1-3.3-4.2 6.8 6.8 0 0 1-1.5-2.4c-.2-.9 0-2 .8-2.5 1-.7 2.3-.2 3.5 0v-.8c-.2-1.6-1.5-3-3-3.5-1.2-.5-2.7-.5-3.3.5-.4.7-.3 1.5-.3 2.3 0 .8-.4 1.8-1.2 1.9-.6 0-1.1-.4-1.4-1a6 6 0 0 1-.7-2.6c-.1-2.2.2-4.3.4-6.5.2-2.1.2-4.3-.4-6.4a9 9 0 0 0-2.3-3.6C5.6 2.8 4 5 3 7.1a24.5 24.5 0 0 0-2.4 12c.2 4 1.6 7.6 2 11.5 0 .8.2 1.8 1 2.1.4.2 1 0 1.4-.3l.7-1c.4-.8.6-1.8 1.4-2.3Z" style="fill:#f1c92e;fill-rule:nonzero"/>
  <path d="M2.5 19C1.8 13.8 3 8.8 6.3 4.7c.4-.5-.6-1.1-1-.6a20 20 0 0 0-4 14.8c0 .7 1.2.8 1.2 0ZM2.7 25.5c.1-1.6-.1-3-.6-4.6-.2-.6-1.3-.4-1 .2.4 1.4.6 2.9.5 4.3 0 .6 1 .7 1.1 0ZM11.3 28.7c1 1.6 6 9.2 7.9 4.3.2-.7-.7-1-1-.3-1 2.9-5.6-3.8-6.2-4.7-.3-.6-1 .2-.7.7Z" style="fill:#fae696;fill-rule:nonzero"/>
  <path d="M8.6 5c.7 2 .6 4.3.4 6.4-.2 2.2-.5 4.3-.4 6.5 0 1 .2 1.9.7 2.7.3.5.8 1 1.4 1 .8-.2 1.2-1.1 1.2-2 0-.7-.1-1.6.3-2.3.7-1 2.2-1 3.3-.5 1.5.6 2.9 1.9 3 3.6v.7h1l.6-.3c.4-.2.8-.6 1-1l.5-.8c.6-.8 1-1.8.6-2.8-.4-1.3-1.9-1.8-3.1-2.3-3-1.2-6-3.2-6.5-6.3-.5-2.3.3-5-1.4-6.5C9.9 0 8 .4 6.7 1l-.4.3A9 9 0 0 1 8.6 5Z" style="fill:#e3bb22;fill-rule:nonzero"/>
  <path d="M12.3 40.6c-1.2-1-2.4-2-3.4-3.4s-1.7-3-2.5-4.5c.6 3.1 3.1 6.5 5.7 8l.2-.1ZM18.8 43.2l-2.3-.6-2.1-1c-.2 0-.3.3-.2.4 1.2 1 3 1.7 4.5 1.6.2 0 .2-.3 0-.4ZM30.4 50.7c-1.2-1-2.7-1.6-4.1-2.4-1.3-.6-2.5-1.5-3.9-2v.2c1.2 1 2.7 1.7 4.1 2.4 1.3.7 2.5 1.5 3.8 2 .1 0 .2-.1.1-.2ZM32.9 48.5c-1.4-1.7-2.8-3.7-4.4-5.2-.2 0-.3 0-.3.2 1.1 1.8 2.9 3.6 4.4 5.2.1.2.4 0 .3-.2ZM34.7 47.4c-.4-3-1-6.2-2.3-8.8l-.2.1c.6 3 1.6 5.8 2.2 8.8 0 .2.3.1.3 0ZM43 75.2c-2-2.9-4-5.6-5.8-8.6-1.7-2.8-3-5.9-4.3-8.9-.1-.1-.3 0-.3.1a42 42 0 0 0 4.2 9.3 41 41 0 0 0 6 8.2c0 .1.2 0 .1-.1ZM59.4 91.4c-2.3-2-4.7-3.8-6.8-6a62 62 0 0 1-5.7-7c-.1-.1-.3 0-.2.2a43 43 0 0 0 12.7 12.8ZM69 87.6c0 1.3.3 2.7.5 4 0 .3.5.2.4-.1-.1-1.4-.2-2.8-.6-4H69ZM67.2 89.5c0-.1-.2 0-.1.2.4.6.8 1.3 1 2 .2.3.5 0 .4-.2-.3-.9-.7-1.6-1.3-2Z" style="fill:#1a1a1a;fill-rule:nonzero"/>
  <path d="M48.7 62c.5 2 2.7 4 3.9 5.7L61 79.2c.4.6 1 1.3 1.6 1.6.7.3 1.7.1 2-.6.2-.3.2-.8 0-1.2-.5-2.7-2.1-5-3.7-7.1a72.7 72.7 0 0 0-9.4-11c-1.2-1-3.4-1.2-2.8 1Z" style="fill:#fcd29b;fill-rule:nonzero"/>
</svg>
