<svg width="114" height="101" viewBox="0 0 114 101" fill="none" xmlns="http://www.w3.org/2000/svg">
<path d="M62.9178 68.5817C65.9031 76.2231 70.9087 82.9701 76.8988 88.5437C81.3795 92.7125 86.5882 96.3103 92.2633 98.4773C92.8929 96.7881 92.3183 94.4925 91.7278 92.9591C87.6519 82.3757 80.8425 72.6421 74.0471 63.6652C69.9989 58.3188 65.4739 53.3023 60.3462 48.9829C60.1889 49.6465 60.0739 50.31 60.0341 50.974C59.674 56.9654 60.7424 63.0129 62.9178 68.5817Z" fill="#F59A24"/>
<path d="M91.36 98.0411C91.4916 97.8404 91.5978 97.6251 91.6826 97.3992C85.9793 95.2262 80.74 91.6312 76.2297 87.47C70.2002 81.9068 65.1553 75.179 62.1357 67.5674C59.9353 62.0203 58.8446 56.0003 59.1882 50.0404C59.2262 49.3799 59.3397 48.7202 59.4956 48.0604C59.0184 47.6601 58.535 47.2669 58.0469 46.88C57.1959 46.2051 55.6208 45.0477 53.806 43.9829C53.9716 44.9348 53.9859 45.895 53.7389 46.8281C53.3115 48.4407 52.1499 49.7677 50.8413 50.8063C49.8227 51.6146 48.6527 52.3015 47.3591 52.4601C46.5121 52.5638 45.6727 52.4356 44.8579 52.1785C45.6198 53.9321 46.5144 55.6036 47.1901 57.014C52.3377 67.7553 59.8224 77.9215 68.7818 86.2755C73.1405 90.3385 77.8487 93.974 82.8067 97.0374C84.9334 98.3512 89.4245 100.998 91.36 98.0411Z" fill="#F07F29"/>
<path d="M51.3557 51.91C52.647 50.8617 53.796 49.5256 54.2261 47.9084C54.4747 46.9726 54.467 46.0115 54.3107 45.0596C54.1455 44.0544 53.8147 43.0598 53.4396 42.1171C52.7262 40.3237 51.8536 38.597 50.8356 36.9648C50.2684 36.0551 49.5985 35.1395 48.7836 34.4674C48.6584 36.0234 48.278 37.5566 47.612 38.983C45.9756 42.4882 42.2385 45.1234 38.3742 46.1496C37.5198 46.3764 36.6585 46.5241 35.8121 46.5851C37.4249 48.9602 40.7159 50.8891 43.0884 52.2329C43.844 52.6611 44.645 53.0614 45.473 53.3231C46.2713 53.5751 47.0943 53.698 47.9264 53.5886C49.1974 53.4213 50.3504 52.726 51.3557 51.91Z" fill="#B5C5E7"/>
<path d="M42.2031 39.2273C43.5518 34.2409 42.9668 28.5626 39.8445 24.5276C39.2221 23.7238 38.4267 23.0488 37.5882 22.4077C37.3045 22.4536 37.0092 22.4511 36.708 22.4214C35.5168 22.3036 34.2397 21.7916 33.2602 22.4536C32.4812 22.9805 32.2597 24.0894 32.4933 25.0024C32.7272 25.9154 33.3192 26.6807 33.8969 27.4166C34.9836 28.8041 36.0717 30.192 37.1593 31.579C37.6916 32.2575 38.2353 32.9582 38.471 33.7928C38.9865 35.6154 37.6408 37.7589 35.79 38.0635C33.7994 38.391 31.9988 36.8594 30.81 35.2232C29.6205 33.5856 28.6543 31.6706 26.9407 30.6153C26.0846 30.0885 24.9375 29.8345 24.0946 30.4003C23.3362 30.9106 23.0747 31.8911 22.6682 32.717C22.4998 33.0592 22.2514 33.3973 21.9595 33.6547C22.6771 36.1597 23.6783 38.5561 24.9395 40.7462C26.9685 44.2718 30.354 47.0716 34.5061 47.3123C35.0094 47.3418 35.5232 47.3365 36.0425 47.299C36.8953 47.2377 37.7632 47.0893 38.6241 46.8611C40.2032 44.5092 41.4632 41.9623 42.2031 39.2273Z" fill="#C77048"/>
<path d="M38.1024 21.9345C37.8939 22.0461 37.6738 22.111 37.4465 22.1459C38.2843 22.7771 39.0794 23.4411 39.7033 24.2299C42.8331 28.1892 43.4493 33.738 42.1382 38.5994C41.4189 41.2657 40.1812 43.7454 38.625 46.0326C42.4914 45.0481 46.2199 42.4807 47.8376 39.0445C48.496 37.6461 48.8674 36.1409 48.983 34.6116C49.3555 29.6719 47.0248 24.4781 42.794 21.7975C41.8012 21.1683 40.7205 20.6615 39.6164 20.1934C39.4733 20.4312 39.3181 20.6615 39.1599 20.8798C38.866 21.2865 38.5462 21.697 38.1024 21.9345Z" fill="#A95838"/>
<path d="M24.0953 30.0988C24.9434 29.534 26.0997 29.7908 26.9633 30.32C28.6921 31.3803 29.6696 33.2998 30.8715 34.9419C32.0728 36.5828 33.8901 38.1201 35.895 37.7965C37.7591 37.4953 39.1104 35.3519 38.5873 33.5259C38.348 32.6897 37.7987 31.9871 37.261 31.3066C36.1622 29.9155 35.063 28.5235 33.9652 27.132C33.3816 26.3939 32.7835 25.6264 32.546 24.7117C32.3086 23.7971 32.5294 22.6872 33.3132 22.1613C34.2988 21.5005 35.5865 22.0159 36.7869 22.1363C36.7946 21.8931 36.7949 21.653 36.7735 21.4229C36.6239 19.7798 35.2576 18.4746 33.7397 17.867C32.633 17.4242 31.1284 17.393 30.4902 18.4137C30.0702 19.0851 30.1982 19.9435 30.1682 20.7347C30.1382 21.5256 29.7688 22.4651 28.9899 22.5647C28.3937 22.6407 27.8654 22.1629 27.5629 21.6416C27.101 20.8432 26.9603 19.8977 26.9102 18.9734C26.7941 16.825 27.1162 14.6797 27.3035 12.5345C27.4898 10.3897 27.5361 8.18481 26.8865 6.13871C26.4241 4.68216 25.6022 3.61756 24.5675 2.54404C22.5169 3.82907 21.05 5.92182 19.982 8.11791C18.1799 11.8234 17.3676 15.9984 17.5914 20.1059C17.8044 24.0272 19.1978 27.6701 19.5156 31.61C19.5831 32.4369 19.7645 33.4274 20.531 33.7232C21.0296 33.9162 21.5351 33.7164 21.9511 33.3527C22.2447 33.0956 22.4943 32.7576 22.6632 32.4154C23.0709 31.5892 23.3323 30.6081 24.0953 30.0988Z" fill="#F1C92E"/>
<path d="M19.4623 19.9784C18.8017 14.8109 20.1227 9.83798 23.2694 5.72498C23.6811 5.18666 22.6564 4.58905 22.2465 5.12464C19.0009 9.36736 17.5967 14.5708 18.2787 19.9039C18.3641 20.5714 19.5489 20.6547 19.4623 19.9784Z" fill="#FAE696"/>
<path d="M19.7042 26.476C19.7996 24.9489 19.5846 23.4239 19.0656 21.9304C18.8508 21.3129 17.7909 21.5024 18.0072 22.1247C18.5008 23.5446 18.6986 24.9618 18.6076 26.4136C18.568 27.0469 19.6646 27.1091 19.7042 26.476Z" fill="#FAE696"/>
<path d="M28.2784 29.7447C29.2934 31.3455 34.2819 38.88 36.1622 34.0187C36.4223 33.3468 35.4755 33.0615 35.2171 33.7298C34.1179 36.5715 29.6444 29.9212 29.0383 28.9657C28.6807 28.4012 27.9249 29.187 28.2784 29.7447Z" fill="#FAE696"/>
<path d="M25.6293 5.98601C26.2779 8.04474 26.2286 10.2642 26.0388 12.4234C25.8482 14.583 25.5225 16.7429 25.636 18.9052C25.6851 19.8355 25.8249 20.7871 26.2868 21.5902C26.5894 22.1145 27.1185 22.5947 27.7164 22.5175C28.4975 22.4162 28.869 21.47 28.9002 20.6738C28.9314 19.8773 28.8042 19.0135 29.2262 18.3371C29.8674 17.3088 31.376 17.3382 32.4849 17.7825C34.006 18.392 35.3743 19.704 35.5221 21.3577C35.5432 21.5893 35.5426 21.831 35.5346 22.0758C35.8388 22.106 36.1372 22.1088 36.4237 22.0627C36.6549 22.0255 36.8788 21.9573 37.0912 21.8409C37.5432 21.5933 37.8704 21.1679 38.1711 20.7465C38.333 20.5203 38.4919 20.2818 38.6386 20.0356C39.1592 19.1623 39.5169 18.1837 39.2202 17.247C38.8065 15.9394 37.3489 15.365 36.0876 14.8642C33.1707 13.7072 30.1637 11.7168 29.5718 8.59669C29.145 6.33929 29.9295 3.51126 28.1809 2.05539C26.9469 1.02791 25.0612 1.36321 23.6574 2.16073C23.5398 2.22787 23.4233 2.2972 23.3089 2.37073C24.345 3.45001 25.1676 4.52046 25.6293 5.98601Z" fill="#E3BB22"/>
<path d="M29.2511 41.5818C28.059 40.5072 26.8813 39.5195 25.9017 38.2237C24.8303 36.8064 24.23 35.2776 23.4396 33.707C23.409 33.6464 23.3169 33.6836 23.3304 33.7497C23.9589 36.7969 26.5458 40.1744 29.1493 41.7061C29.2227 41.7495 29.3211 41.6449 29.2511 41.5818Z" fill="#1A1A1A"/>
<path d="M35.7936 44.2117C35.046 43.9521 34.2537 43.8542 33.5062 43.5892C32.7594 43.3246 32.0675 42.9276 31.3522 42.5803C31.2006 42.5069 31.0664 42.8603 31.1941 42.9655C32.4203 43.977 34.1242 44.724 35.7133 44.6007C35.8767 44.588 35.9406 44.2624 35.7936 44.2117Z" fill="#1A1A1A"/>
<path d="M47.4083 51.7237C46.163 50.7597 44.6547 50.0881 43.2797 49.3308C42.0451 48.651 40.7927 47.8097 39.4455 47.3846C39.3795 47.3637 39.3513 47.4505 39.3976 47.4894C40.5949 48.4928 42.1456 49.1611 43.5091 49.9094C44.7563 50.5939 45.993 51.4047 47.3336 51.8875C47.4336 51.9235 47.4836 51.7822 47.4083 51.7237Z" fill="#1A1A1A"/>
<path d="M49.8503 49.4823C48.5228 47.7574 47.1307 45.7631 45.4536 44.3181C45.344 44.2235 45.1625 44.3232 45.2408 44.4566C46.343 46.3348 48.089 48.0826 49.5776 49.716C49.7436 49.8983 49.9908 49.6651 49.8503 49.4823Z" fill="#1A1A1A"/>
<path d="M51.7135 48.4124C51.2779 45.4792 50.6648 42.1895 49.3766 39.6185C49.3233 39.5124 49.1576 39.5771 49.1836 39.7058C49.7828 42.6727 50.7802 45.5348 51.4279 48.4981C51.4713 48.6964 51.7436 48.6162 51.7135 48.4124Z" fill="#1A1A1A"/>
<path d="M59.9225 76.1645C57.9649 73.348 55.9107 70.6307 54.195 67.6393C52.545 64.7624 51.2793 61.7166 49.8601 58.7176C49.7965 58.5833 49.5737 58.6666 49.6161 58.8146C50.5503 62.0848 52.1492 65.1917 53.8302 68.0996C55.5175 71.0185 57.4085 73.9268 59.7544 76.3247C59.8596 76.432 60.0048 76.2831 59.9225 76.1645Z" fill="#1A1A1A"/>
<path d="M76.3761 92.394C74.0986 90.4217 71.7376 88.5974 69.6316 86.4188C67.532 84.2469 65.651 81.8678 63.8818 79.4014C63.7947 79.2802 63.5888 79.4316 63.668 79.5596C65.2814 82.1676 67.1839 84.553 69.2917 86.7441C71.3714 88.9061 73.6576 91.0533 76.2383 92.5641C76.3367 92.6218 76.4722 92.4773 76.3761 92.394Z" fill="#1A1A1A"/>
<path d="M86.0402 88.5833C85.9219 89.949 86.2872 91.3174 86.5044 92.5983C86.5563 92.9047 86.9506 92.768 86.9151 92.4543C86.7676 91.1493 86.7307 89.6648 86.2568 88.5079C86.2094 88.3924 86.0521 88.4456 86.0402 88.5833Z" fill="#1A1A1A"/>
<path d="M84.2023 90.4537C84.1125 90.3945 83.9896 90.5624 84.0597 90.6674C84.4886 91.3088 84.9111 91.9528 85.1725 92.7658C85.2515 93.0109 85.5592 92.7719 85.487 92.524C85.2318 91.6476 84.8425 90.8738 84.2023 90.4537Z" fill="#1A1A1A"/>
<path d="M65.6558 62.9326C66.1875 64.9458 68.365 67.0117 69.5755 68.6681C72.3832 72.5096 75.1909 76.3514 77.9986 80.1929C78.4493 80.8097 78.9309 81.4521 79.6272 81.7681C80.3235 82.0841 81.296 81.9313 81.6299 81.2458C81.8189 80.8577 81.7665 80.3987 81.6801 79.9756C81.1386 77.3246 79.4754 75.0583 77.8557 72.8864C74.9949 69.0503 72.1091 65.1865 68.5491 61.9846C67.3049 60.8657 65.0641 60.6926 65.6558 62.9326Z" fill="#FCD29B"/>
</svg>
